<svg width="36" height="122" viewBox="0 0 36 122" fill="none" xmlns="http://www.w3.org/2000/svg">
<g opacity="0.5">
<path d="M17.2841 75.2638C20.6288 75.4947 24.1408 78.1308 27.7245 83.0924C27.836 83.2357 27.9315 83.3791 28.0271 83.5304C28.1067 83.6419 28.1704 83.7534 28.2421 83.8729C28.3377 84.0162 28.4173 84.1755 28.5129 84.3268C28.6244 84.5339 28.7358 84.7569 28.8394 84.9799C28.9509 85.2108 29.0464 85.4418 29.1499 85.6727L29.2455 85.9037C29.3809 86.2382 29.4844 86.5806 29.588 86.9311L29.6357 87.0505C31.2763 90.5865 32.5425 95.0544 33.6494 101.187C33.9043 102.095 34.0158 102.971 33.9839 103.807C33.8724 106.491 33.2512 109.023 32.1363 111.317C30.902 113.818 29.0544 116.087 26.4742 118.285C26.2193 118.508 25.9406 118.684 25.6539 118.827C23.1772 119.982 20.6447 120.412 18.1123 120.125C17.1566 120.006 16.2089 119.703 15.309 119.185C10.4592 116.43 6.47732 113.786 3.12461 111.102C0.178044 107.438 1.84245 98.9328 4.13599 89.0256C4.47046 87.5841 4.93238 86.2143 5.52169 84.8923H5.52964L5.75262 84.4224C6.11895 83.6578 6.52511 82.9331 6.96311 82.2243C7.10646 81.9934 7.25777 81.7704 7.40908 81.5394C7.56039 81.3164 7.72763 81.1014 7.88691 80.8704C8.04618 80.6554 8.22136 80.4483 8.3886 80.2254C8.55583 80.0183 8.73106 79.8192 8.90626 79.6121C9.08146 79.413 9.27259 79.2139 9.45575 79.0148C9.60706 78.8635 9.75836 78.7042 9.90967 78.5609C10.2123 78.2662 10.5149 77.9875 10.8255 77.7326C12.9757 75.9407 15.1498 75.1045 17.2841 75.2638Z" fill="white"/>
<path d="M28.1704 76.6734C28.3456 78.3936 28.5368 80.0979 28.712 81.8102C28.6562 81.7385 28.6084 81.6748 28.5527 81.6031C28.3934 81.3801 28.2262 81.1651 28.0589 80.9421C27.8678 80.6952 27.6687 80.4563 27.4776 80.2253C27.2944 80.0024 27.1033 79.7873 26.9201 79.5723C26.8644 79.5006 26.8086 79.4369 26.7608 79.3812C26.6016 79.2059 26.4423 79.0228 26.283 78.8555C26.1158 78.6803 25.9486 78.4972 25.7813 78.3299C25.5822 78.1228 25.3752 77.9237 25.1681 77.7246C24.9372 77.5016 24.7142 77.3026 24.4912 77.0955C24.4514 77.0636 24.4116 77.0238 24.3638 76.992C24.2125 76.8566 24.0532 76.7212 23.9019 76.5938C23.4081 76.1955 22.9223 75.8372 22.4286 75.5186C22.3091 75.4469 22.2056 75.3832 22.0941 75.3195C21.9349 75.216 21.7756 75.1284 21.6243 75.0408C21.1783 74.7939 20.7244 74.5789 20.2784 74.3957C20.1271 74.332 19.9678 74.2683 19.8165 74.2284C19.2511 74.0214 18.6857 73.878 18.1202 73.7984C17.8813 73.7586 17.6424 73.7267 17.4035 73.7108C17.2044 73.6949 17.0053 73.6869 16.7983 73.6869C16.0815 73.6869 15.3648 73.7825 14.656 73.9577C14.2977 74.0453 13.9473 74.1568 13.5889 74.2922C13.2305 74.4275 12.8801 74.5868 12.5297 74.762C11.9962 75.0328 11.4706 75.3514 10.945 75.7097C10.4273 76.0761 9.90171 76.4902 9.39203 76.9601C9.04163 77.2707 8.70715 77.6052 8.36471 77.9556C8.17358 78.1547 7.98246 78.3538 7.79929 78.5688C7.76744 78.6007 7.7356 78.6325 7.7117 78.6644C7.47279 78.9431 7.23388 79.2219 7.0109 79.5086C6.83569 79.7236 6.66048 79.9546 6.50121 80.1776C6.46935 80.2094 6.44546 80.2413 6.42954 80.2731C6.2623 80.5041 6.09507 80.7271 5.94376 80.966C6.11897 76.1079 6.33398 71.0826 6.54104 66.1927C7.48076 43.6864 8.46825 20.4156 6.23842 10.1659C5.84023 8.32617 5.68893 6.66169 5.76856 5.09278C5.91987 2.23369 6.62067 1.68417 6.90736 1.58064C7.31351 1.43729 8.57974 1.47711 11.7334 4.97331C21.7437 15.6132 25.0009 46.657 28.1704 76.6734Z" fill="white"/>
<path d="M25.1603 77.7246C24.9373 77.5096 24.7143 77.3025 24.4834 77.0955C24.6984 77.2946 24.9294 77.5016 25.1603 77.7246Z" fill="#534F59"/>
<path d="M23.8857 76.6017C24.0371 76.7291 24.1963 76.8565 24.3476 76.9999C24.1963 76.8565 24.045 76.7211 23.8857 76.6017Z" fill="#534F59"/>
<path d="M22.4204 75.5265C22.3089 75.4548 22.1974 75.3911 22.0859 75.3274C22.1974 75.3831 22.301 75.4548 22.4204 75.5265Z" fill="#534F59"/>
<path d="M22.0861 75.3274C21.9268 75.2239 21.7675 75.1363 21.6162 75.0487C21.7675 75.1283 21.9268 75.2239 22.0861 75.3274Z" fill="#534F59"/>
<path d="M20.2705 74.4036C20.1192 74.3399 19.9599 74.2761 19.8086 74.2363C19.9599 74.2841 20.1192 74.3399 20.2705 74.4036Z" fill="#534F59"/>
<path d="M17.3955 73.7188C17.6344 73.7347 17.8733 73.7665 18.1122 73.8064C17.8733 73.7586 17.6344 73.7347 17.3955 73.7188Z" fill="#534F59"/>
<path d="M12.5215 74.7699C12.8719 74.5947 13.2223 74.4354 13.5807 74.3C13.2223 74.4354 12.8719 74.5868 12.5215 74.7699Z" fill="#534F59"/>
<path d="M9.92578 78.5847C10.2284 78.2901 10.531 78.0113 10.8416 77.7565C10.5231 78.0113 10.2284 78.2901 9.92578 78.5847Z" fill="#534F59"/>
<path d="M10.9367 75.7177L9.38379 76.968C9.89347 76.4981 10.4191 76.084 10.9367 75.7177Z" fill="#534F59"/>
<path d="M9.46356 79.0387C9.28039 79.2298 9.08926 79.4369 8.91406 79.636C9.09723 79.4289 9.28039 79.2298 9.46356 79.0387Z" fill="#534F59"/>
<path d="M8.39625 80.2412C8.22901 80.4562 8.05381 80.6633 7.89453 80.8863L8.39625 80.2412Z" fill="#534F59"/>
<path d="M7.89479 80.8864C7.73552 81.1093 7.5683 81.3244 7.41699 81.5553L7.89479 80.8864Z" fill="#534F59"/>
<path d="M7.7912 78.5847C7.75935 78.6166 7.73547 78.6484 7.70361 78.6803C7.7275 78.6405 7.75935 78.6086 7.7912 78.5847Z" fill="#534F59"/>
<path d="M4.21542 5.02107C4.35876 2.2018 5.06753 0.601035 6.38154 0.131158C7.95039 -0.426323 10.005 0.784208 12.856 3.93796C23.2168 14.9283 26.5217 46.2349 29.7072 76.5061C30.0098 79.405 30.3204 82.3039 30.631 85.1869C30.2169 84.1197 29.6674 83.1163 28.9905 82.1845C28.8949 82.0491 28.8073 81.9296 28.7117 81.8022C28.5365 80.0899 28.3454 78.3856 28.1702 76.6654C25.0086 46.649 21.7435 15.6053 11.7172 4.98921C8.5636 1.49301 7.29738 1.44522 6.89123 1.59654C6.60454 1.70007 5.91168 2.24959 5.7524 5.10867C5.67277 6.67758 5.83206 8.34206 6.22228 10.1818C8.45211 20.4314 7.4646 43.7023 6.52488 66.2086C6.31783 71.0985 6.11077 76.1238 5.9276 80.9819C5.30644 81.9137 4.74899 82.9012 4.27117 83.9286C4.47026 78.1547 4.71714 72.0463 4.97198 66.1449C5.91169 43.7342 6.89121 20.5589 4.70916 10.5083C4.29505 8.5332 4.11985 6.7413 4.21542 5.02107Z" fill="#534F59"/>
<path d="M4.26318 84.8285L4.27116 84.0799C4.27116 84.0241 4.27116 83.9763 4.27913 83.9286C4.75695 82.9012 5.3144 81.9137 5.93556 80.9819C5.93556 80.9898 5.93556 80.9898 5.93556 80.9978C6.09484 80.7589 6.26209 80.52 6.42136 80.289C6.44525 80.2571 6.46914 80.2253 6.49303 80.1934C6.65231 79.9704 6.83546 79.7474 7.00269 79.5245C7.22568 79.2378 7.46459 78.959 7.7035 78.6803C7.73536 78.6484 7.75924 78.6166 7.79109 78.5847C7.97426 78.3776 8.1654 78.1785 8.35653 77.9715C8.69897 77.6131 9.03343 77.2866 9.38383 76.976L10.9368 75.7256C11.4624 75.3593 11.988 75.0487 12.5215 74.7779C12.8719 74.6027 13.2223 74.4434 13.5807 74.308C13.9391 74.1726 14.2895 74.0691 14.6478 73.9735C15.3566 73.7983 16.0733 73.7028 16.7901 73.7028C16.9892 73.7028 17.1962 73.7107 17.3953 73.7266C17.6342 73.7426 17.8731 73.7744 18.1121 73.8143C18.6775 73.9019 19.2429 74.0372 19.8083 74.2443C19.9596 74.2921 20.1189 74.3558 20.2702 74.4116C20.7162 74.5868 21.1701 74.8098 21.6161 75.0566C21.7674 75.1442 21.9267 75.2318 22.0859 75.3354C22.1974 75.3991 22.3089 75.4708 22.4204 75.5345C22.9062 75.853 23.392 76.2035 23.8937 76.6096C24.045 76.7371 24.2043 76.8645 24.3556 77.0078C24.4034 77.0397 24.4432 77.0795 24.483 77.1114C24.714 77.3105 24.9369 77.5175 25.1599 77.7405C25.359 77.9317 25.5661 78.1387 25.7731 78.3458C25.9404 78.513 26.1076 78.6962 26.2748 78.8714C26.4341 79.0387 26.5934 79.2218 26.7527 79.397C26.8084 79.4607 26.8641 79.5245 26.9119 79.5882C27.103 79.7952 27.2862 80.0103 27.4694 80.2412C27.6605 80.4722 27.8596 80.7111 28.0507 80.958C28.21 81.165 28.3852 81.388 28.5445 81.619C28.6082 81.6907 28.656 81.7544 28.7038 81.8261C28.7993 81.9535 28.8869 82.0729 28.9825 82.2083C29.6514 83.1401 30.2009 84.1436 30.623 85.2108C30.631 85.2506 30.631 85.2904 30.6389 85.3302L30.7345 86.2381L29.3329 86.1665L29.2373 85.9355L29.1418 85.7045C29.0462 85.4736 28.9506 85.2426 28.8312 85.0117C28.7356 84.7966 28.6241 84.5816 28.5047 84.3586C28.4091 84.2073 28.3295 84.048 28.2339 83.9047C28.1622 83.7852 28.0985 83.6737 28.0189 83.5622C27.9233 83.4109 27.8278 83.2676 27.7163 83.1242C24.1326 78.1706 20.6206 75.5265 17.2759 75.2956C15.1416 75.1363 12.9675 75.9725 10.8253 77.7883C10.5147 78.0431 10.2121 78.3219 9.90944 78.6166C9.75813 78.7599 9.60684 78.9192 9.45552 79.0705C9.27236 79.2616 9.08123 79.4687 8.90603 79.6678C8.73083 79.8669 8.55561 80.066 8.38837 80.281L7.88668 80.9261L7.40885 81.5951C7.24958 81.8181 7.09827 82.0491 6.96289 82.28L6.15855 83.6498C5.9276 84.0719 5.72054 84.5099 5.51349 84.948L4.26318 84.8285Z" fill="#534F59"/>
<path d="M4.26319 84.8285L5.52147 84.9082C4.93216 86.2222 4.47025 87.6 4.13577 89.0415C1.84223 98.9487 0.177825 107.446 3.12439 111.118C6.46914 113.802 10.4589 116.446 15.3088 119.201C16.2087 119.711 17.1485 120.022 18.1121 120.141C20.6445 120.428 23.177 119.998 25.6537 118.843C25.9404 118.707 26.2191 118.524 26.4739 118.301C29.0462 116.103 30.8938 113.833 32.1361 111.333C33.251 109.039 33.8722 106.507 33.9837 103.823C34.0155 102.986 33.904 102.102 33.6492 101.203C32.5423 95.0703 31.276 90.6024 29.6355 87.0664L29.5877 86.947C29.4842 86.5965 29.3807 86.2541 29.2453 85.9196L29.3409 86.1506L30.7425 86.2222L30.6469 85.3143C30.6389 85.2745 30.6389 85.2347 30.631 85.1949C30.7903 85.601 30.9416 86.0311 31.061 86.4611C32.7413 90.1087 34.0394 94.68 35.1464 100.844C35.4331 101.824 35.5605 102.875 35.5286 103.878C35.4092 106.769 34.7323 109.509 33.5218 112.01C32.1919 114.702 30.2169 117.139 27.4853 119.472C27.119 119.791 26.7288 120.045 26.3067 120.237C24.1167 121.256 21.8868 121.766 19.6411 121.766C19.0757 121.766 18.5102 121.734 17.9448 121.662C16.7662 121.527 15.6354 121.152 14.5523 120.539C9.59888 117.728 5.53739 115.02 2.10504 112.273L1.98559 112.161C-1.47862 107.972 0.145982 99.4266 2.63862 88.6911C3.02884 87.0266 3.57831 85.4258 4.28708 83.9286C4.27912 83.9843 4.27914 84.0321 4.27914 84.0799L4.26319 84.8285Z" fill="#534F59"/>
</g>
</svg>
