<svg width="38" height="107" viewBox="0 0 38 107" fill="none" xmlns="http://www.w3.org/2000/svg">
<g opacity="0.5">
<path d="M17.6616 60.7739C18.6023 60.7739 19.5827 60.9334 20.5792 61.3319C25.0512 63.0857 29.013 68.2116 30.4717 72.1496C30.6391 72.604 30.7986 73.0744 30.95 73.5367C31.9146 76.5501 32.5363 79.7627 33.1422 82.8797C33.2538 83.4696 33.3654 84.0595 33.4849 84.6414C34.1147 87.8301 34.5372 91.0507 34.864 93.785C34.9437 94.4148 35.0394 95.0685 35.151 95.7461C35.5097 98.026 35.8684 100.386 35.3263 102.331C34.7125 104.563 32.1936 104.77 31.1573 104.746L12.6795 104.451C9.87352 104.411 6.97191 104.372 4.97107 102.554C3.66376 101.374 2.85068 99.6762 2.34051 97.0455C1.95788 95.1323 1.83831 93.0596 1.96585 90.8754L2.02961 89.9108C2.29267 85.3987 2.57167 80.7193 3.52824 76.2471C4.02247 73.9274 4.70005 71.8786 5.57691 70.069C5.57691 70.061 5.57692 70.061 5.58489 70.0531C5.72838 69.7501 5.87982 69.4552 6.03925 69.1682C6.1907 68.8732 6.36609 68.5863 6.53349 68.3073C6.68495 68.0522 6.85233 67.805 7.01176 67.5579L7.18714 67.3108C7.31468 67.1354 7.44224 66.9521 7.57775 66.7767L7.72123 66.6013C7.8408 66.4419 7.96834 66.2744 8.11183 66.115L8.32707 65.8519C8.47056 65.6925 8.622 65.5251 8.76549 65.3657L8.92493 65.1983C9.07639 65.0388 9.24377 64.8714 9.4032 64.7279L10.2801 63.9228C10.4714 63.7633 10.6866 63.588 10.9098 63.4126C11.0214 63.3169 11.133 63.2372 11.2606 63.1495C11.986 62.6234 12.8628 62.0733 13.8433 61.6429C14.497 61.3559 15.1984 61.1167 15.9318 60.9732C16.3065 60.8935 16.6811 60.8377 17.0717 60.8218C17.2631 60.7819 17.4623 60.7739 17.6616 60.7739Z" fill="white"/>
<path d="M30.1207 67.4546L30.1925 68.1163C30.057 67.901 29.9135 67.6778 29.77 67.4546C29.6584 67.2792 29.5388 67.1039 29.4113 66.9364C29.2837 66.7611 29.1642 66.5697 29.0287 66.4023C28.8533 66.1552 28.654 65.9081 28.4627 65.6689C28.2873 65.4378 28.088 65.2145 27.8967 64.9913C27.8568 64.9435 27.817 64.8957 27.7771 64.8558C27.6655 64.7283 27.5539 64.6087 27.4423 64.4811C27.3865 64.4253 27.3387 64.3695 27.2988 64.3217C27.1394 64.1543 26.98 63.9869 26.8205 63.8275C25.7683 62.7592 24.5965 61.8026 23.3689 61.0294C23.2334 60.9337 23.0979 60.862 22.9624 60.7822C22.8189 60.6945 22.6594 60.6148 22.508 60.5271C22.2848 60.4076 22.0696 60.3039 21.8384 60.2003C21.8304 60.1923 21.8304 60.1923 21.8225 60.1923C21.5993 60.0807 21.3761 59.993 21.1529 59.8974C19.4948 59.2437 17.757 59.0763 15.9953 59.3712C15.6685 59.427 15.3417 59.4988 15.0308 59.5785C14.8554 59.6263 14.6721 59.6742 14.5047 59.722C14.1539 59.8336 13.8032 59.9611 13.4524 60.1126C13.0937 60.2561 12.7509 60.4235 12.4002 60.6069C11.8741 60.8859 11.356 61.1968 10.8378 61.5475C10.3197 61.9063 9.8095 62.2969 9.29933 62.7353C9.06815 62.9266 8.84493 63.1339 8.6297 63.3412C8.55796 63.4049 8.48623 63.4767 8.41448 63.5405C7.64922 64.2659 6.94773 65.0471 6.31799 65.8921C6.19045 66.0516 6.07886 66.219 5.95929 66.3864C8.58987 43.7705 9.17975 24.973 7.77678 8.99758C7.60141 6.98869 8.00795 5.05155 8.97249 3.39342C9.6421 2.22157 10.3755 1.60774 11.1327 1.55991C12.2488 1.49613 13.7314 2.6361 15.4054 4.8682C15.6605 5.21098 15.9156 5.53783 16.1866 5.87264C25.2342 17.065 27.7213 42.6783 30.1207 67.4546Z" fill="white"/>
<path d="M27.3074 64.3056C27.1559 64.1382 26.9885 63.9708 26.8291 63.8113C26.9885 63.9787 27.14 64.1382 27.3074 64.3056Z" fill="#534F59"/>
<path d="M23.3693 61.021C23.2337 60.9334 23.0982 60.8536 22.9627 60.7739C23.0982 60.8457 23.2337 60.9254 23.3693 61.021Z" fill="#534F59"/>
<path d="M22.5003 60.5188C22.2851 60.3992 22.0619 60.2956 21.8307 60.192C22.0619 60.2876 22.2771 60.3992 22.5003 60.5188Z" fill="#534F59"/>
<path d="M21.8224 60.1844C21.5992 60.0728 21.376 59.9772 21.1528 59.8895C21.376 59.9851 21.5992 60.0728 21.8224 60.1844Z" fill="#534F59"/>
<path d="M3.97471 69.8304C4.54068 68.5868 5.19435 67.4389 5.95164 66.3866C6.07121 66.2192 6.19079 66.0518 6.31036 65.8923C6.94808 65.0473 7.64157 64.2661 8.40683 63.5407C8.47857 63.4689 8.54236 63.4052 8.62208 63.3414C8.83731 63.1341 9.0605 62.9348 9.29167 62.7355C9.80185 62.305 10.312 61.9065 10.8302 61.5477C11.3483 61.189 11.8664 60.8781 12.3926 60.6071C12.7433 60.4317 13.0861 60.2563 13.4448 60.1128C13.7955 59.9693 14.1383 59.8418 14.497 59.7222C14.6644 59.6664 14.8478 59.6186 15.0231 59.5787C15.35 59.491 15.6768 59.4272 15.9877 59.3714C17.7414 59.0765 19.4871 59.2439 21.1452 59.8976C21.3684 59.9853 21.5916 60.0809 21.8148 60.1925C21.8228 60.1925 21.8228 60.1925 21.8308 60.2005C22.054 60.3041 22.2772 60.4078 22.5004 60.5273C22.6518 60.615 22.8112 60.6948 22.9547 60.7824C23.0902 60.8622 23.2337 60.9419 23.3613 61.0296C24.5889 61.7949 25.7607 62.7594 26.8129 63.8277C26.9723 63.9871 27.1397 64.1545 27.2912 64.3219C27.339 64.3777 27.3869 64.4335 27.4347 64.4813C27.5463 64.6089 27.6579 64.7285 27.7695 64.856C27.8093 64.9038 27.8492 64.9517 27.889 64.9915C28.0804 65.2147 28.2717 65.438 28.455 65.6691C28.6463 65.9083 28.8377 66.1554 29.021 66.4025C29.1565 66.5699 29.2761 66.7613 29.4036 66.9367C29.5312 67.1041 29.6507 67.2794 29.7623 67.4548C29.9058 67.6701 30.0493 67.8933 30.1848 68.1165C30.9102 69.3043 31.4922 70.4921 31.9146 71.6161C32.0023 71.8393 32.0741 72.0705 32.1538 72.3017L32.7915 78.7987L30.9501 73.5373C30.7986 73.0749 30.6392 72.6046 30.4718 72.1502C29.0051 68.2201 25.0512 63.0943 20.5792 61.3325C19.5828 60.9339 18.5943 60.7745 17.6617 60.7745C17.4704 60.7745 17.2631 60.7824 17.0798 60.7984C16.6892 60.8223 16.3145 60.8781 15.9399 60.9498C15.2065 61.0933 14.497 61.3405 13.8513 61.6195C12.8709 62.0499 11.994 62.592 11.2686 63.1261C11.1411 63.2138 11.0295 63.2935 10.9179 63.3892C10.6867 63.5646 10.4794 63.74 10.2881 63.8994L9.41124 64.7046C9.25181 64.848 9.08441 65.0154 8.93295 65.1749L8.77354 65.3423L8.33509 65.8286L8.11987 66.0916L7.72928 66.5779L7.58577 66.7533C7.45026 66.9207 7.32272 67.1041 7.19518 67.2874L7.01981 67.5345C6.85241 67.7817 6.69297 68.0288 6.54152 68.2839C6.37412 68.5549 6.21471 68.826 6.06325 69.105C6.05528 69.1209 6.04729 69.1289 6.04729 69.1448C5.88786 69.4318 5.72843 69.7268 5.59291 70.0297C5.58494 70.0377 5.58496 70.0377 5.58496 70.0456L5.3458 70.5399L3.91095 70.3805L3.97471 69.8304Z" fill="#534F59"/>
<path d="M7.61769 2.62023C8.56629 0.97007 9.71417 0.0931747 11.0215 0.0214287C12.7593 -0.0822044 14.5688 1.20125 16.6254 3.93557C16.8646 4.26241 17.1117 4.58128 17.3668 4.89218C26.7253 16.4513 29.2363 42.3037 31.6675 67.3032L32.1538 72.2935C32.0741 72.0624 32.0023 71.8312 31.9147 71.608C31.5001 70.484 30.9182 69.2962 30.1848 68.1084L30.1131 67.4467C27.7137 42.6704 25.2266 17.0571 16.1631 5.86474C15.8921 5.52993 15.637 5.19511 15.3819 4.8603C13.7079 2.6282 12.2252 1.49621 11.1092 1.55201C10.3519 1.59984 9.62651 2.22164 8.94893 3.38552C7.99236 5.04365 7.57784 6.98079 7.75322 8.98968C9.15619 24.9571 8.5663 43.7626 5.93573 66.3785C5.18641 67.4308 4.52477 68.5787 3.9588 69.8223L3.98271 69.615C6.94809 45.5801 7.67348 25.7942 6.21471 9.1252C6.01542 6.79744 6.50169 4.54143 7.61769 2.62023Z" fill="#534F59"/>
<path d="M0.419495 90.7799L0.475301 89.8153C0.74633 85.2395 1.02532 80.5123 2.0058 75.9205C2.49206 73.6566 3.13775 71.6397 3.97475 69.8381L3.90301 70.4041L5.33789 70.5635L5.57702 70.0693C4.69219 71.8788 4.02258 73.9276 3.52835 76.2474C2.57178 80.7195 2.29278 85.399 2.02972 89.911L1.96596 90.8756C1.83841 93.0599 1.95799 95.1325 2.34062 97.0457C2.85079 99.6764 3.66387 101.382 4.97118 102.554C6.97999 104.372 9.8816 104.412 12.6796 104.452L31.1574 104.746C32.1937 104.77 34.7206 104.563 35.3265 102.331C35.8685 100.378 35.5018 98.0263 35.1511 95.7463C35.0395 95.0767 34.9438 94.4151 34.8641 93.7853C34.5373 91.051 34.1148 87.8304 33.4851 84.6417C33.3655 84.0517 33.2539 83.4618 33.1423 82.8799C32.5364 79.7629 31.9226 76.5503 30.9501 73.537L32.7915 78.7983L32.1538 72.3013C33.3097 75.6176 33.9952 79.1491 34.6569 82.5849C34.7764 83.1749 34.8801 83.7648 34.9996 84.3387C35.6453 87.5832 36.0678 90.8437 36.4026 93.594C36.4743 94.2078 36.57 94.8455 36.6816 95.5072C37.0403 97.827 37.4548 100.466 36.8171 102.746C36.1953 104.978 34.1307 106.293 31.277 106.293C31.2291 106.293 31.1813 106.293 31.1335 106.293L12.6557 105.998C9.70623 105.958 6.3662 105.902 3.9349 103.71C1.90219 101.877 1.17678 99.1981 0.818067 97.3407C0.411523 95.2999 0.276009 93.0917 0.419495 90.7799Z" fill="#534F59"/>
</g>
</svg>
