<svg width="31" height="104" viewBox="0 0 31 104" fill="none" xmlns="http://www.w3.org/2000/svg">
<g opacity="0.5">
<path d="M4.56869 68.5763C6.0753 46.4228 7.6377 23.5119 3.14978 9.88811C2.52801 8.01475 2.26495 6.07761 2.37655 4.14046C2.48815 2.07577 2.96645 1.66921 3.16574 1.59747C3.51648 1.46195 4.72015 1.54167 8.37904 5.19274C17.3788 12.6384 21.221 41.4165 23.7241 69.2539C23.6683 69.1742 23.6125 69.1025 23.5647 69.0227C23.2299 68.5524 22.8951 68.098 22.5602 67.6835C22.5523 67.6755 22.5523 67.6675 22.5523 67.6675C22.3689 67.4363 22.1696 67.2052 21.9783 66.9899C21.9464 66.9501 21.9066 66.9022 21.8667 66.8544C21.524 66.4558 21.1892 66.0971 20.8464 65.7543C20.6152 65.5311 20.392 65.3159 20.1608 65.1086C19.9934 64.9492 19.8101 64.7897 19.6268 64.6542C19.4673 64.5187 19.3079 64.3991 19.1485 64.2716C18.9173 64.1042 18.6861 63.9367 18.455 63.7933C18.2557 63.6657 18.0564 63.5461 17.8571 63.4425C17.8252 63.4186 17.8013 63.4026 17.7694 63.3947C17.602 63.299 17.4346 63.2193 17.2672 63.1396C17.1078 63.0598 16.9404 62.9961 16.781 62.9323C16.7092 62.9004 16.6454 62.8765 16.5896 62.8526C16.4222 62.7888 16.2469 62.725 16.0795 62.6852C16.0715 62.6852 16.0635 62.6772 16.0555 62.6772C15.8881 62.6294 15.7128 62.5815 15.5533 62.5497C15.5135 62.5337 15.4657 62.5257 15.4258 62.5178C15.4019 62.5098 15.378 62.5098 15.3541 62.5018C15.1946 62.4699 15.0352 62.446 14.8758 62.4221C14.6765 62.3982 14.4692 62.3743 14.262 62.3663C14.1424 62.3583 14.0308 62.3583 13.9112 62.3583C11.9901 62.3583 10.069 63.1316 8.1718 64.6781C7.78917 64.989 7.4145 65.3238 7.03187 65.6905C6.27458 66.4319 5.52528 67.2929 4.77596 68.2734C4.70422 68.385 4.63247 68.4807 4.56869 68.5763Z" fill="white"/>
<path d="M14.7005 63.9678C14.7323 63.9758 14.7722 63.9838 14.8041 63.9838C14.9396 64.0077 15.0751 64.0316 15.2026 64.0715C15.2664 64.0794 15.3302 64.0954 15.394 64.1193C15.4976 64.1432 15.5853 64.1671 15.6889 64.207C15.7925 64.2389 15.8882 64.2708 15.9918 64.3106C16.3904 64.4541 16.7969 64.6454 17.1955 64.8766C17.331 64.9563 17.4745 65.0361 17.61 65.1317C17.8651 65.2991 18.1361 65.4905 18.3992 65.6897C18.5506 65.8173 18.718 65.9448 18.8695 66.0804C19.0688 66.2478 19.2681 66.4311 19.4674 66.6145C19.6666 66.7978 19.8659 67.0051 20.0652 67.2124C20.2645 67.4196 20.4718 67.6349 20.6631 67.874C20.8544 68.0892 21.0537 68.3204 21.253 68.5596C21.4522 68.8147 21.6595 69.0777 21.8668 69.3568C22.0342 69.58 22.2175 69.8191 22.3849 70.0583C22.8074 70.6721 23.2458 71.3178 23.6763 72.0273L23.9234 72.4259V72.4339C24.2502 72.968 24.5053 73.5021 24.6887 74.0362C26.9207 80.4694 28.1722 87.2135 28.4193 94.1011C28.6824 97.1862 27.8533 99.498 25.9003 101.196C25.1829 101.826 24.2263 102.137 23.198 102.089L12.1097 102.033C10.077 101.929 8.18777 101.499 6.51376 100.742C3.43679 99.3386 1.90626 97.529 1.85046 95.2252C1.88235 87.7955 2.42441 80.876 3.42084 75.208C3.60418 74.1637 3.9071 73.1513 4.32162 72.1788C4.37742 72.0433 4.44119 71.8998 4.49699 71.7722C4.55279 71.6367 4.61657 71.5091 4.68034 71.3816C4.7202 71.2859 4.76801 71.2062 4.81584 71.1105C4.90353 70.9431 4.98326 70.7757 5.07891 70.6163C5.35791 70.138 5.66082 69.6836 5.99563 69.2452C6.16303 69.0299 6.33043 68.8147 6.49783 68.5994C6.83263 68.1929 7.16743 67.8023 7.49426 67.4435C7.66166 67.2682 7.82906 67.0928 7.99647 66.9254C10.077 64.8527 12.1416 63.8483 14.1504 63.9439C14.1584 63.9439 14.1743 63.9439 14.1823 63.9439C14.3656 63.936 14.5331 63.9439 14.7005 63.9678Z" fill="white"/>
<path d="M23.5573 69.0219C23.2225 68.5516 22.8877 68.0972 22.5529 67.6827C22.8877 68.0972 23.2225 68.5436 23.5573 69.0219Z" fill="#534F59"/>
<path d="M22.5446 67.6673C22.3533 67.4362 22.162 67.205 21.9706 66.9897C22.162 67.197 22.3533 67.4282 22.5446 67.6673Z" fill="#534F59"/>
<path d="M21.867 69.3417L22.3851 70.0432C22.2177 69.812 22.0344 69.5649 21.867 69.3417Z" fill="#534F59"/>
<path d="M21.859 66.8548C21.5162 66.4562 21.1734 66.0975 20.8386 65.7547C21.1814 66.0895 21.5162 66.4562 21.859 66.8548Z" fill="#534F59"/>
<path d="M21.2532 68.5441C21.0539 68.3049 20.8546 68.0738 20.6633 67.8585C20.8626 68.0738 21.0539 68.3049 21.2532 68.5441Z" fill="#534F59"/>
<path d="M20.6711 67.8587C20.4798 67.6275 20.2725 67.4123 20.0732 67.197C20.2725 67.4123 20.4718 67.6275 20.6711 67.8587Z" fill="#534F59"/>
<path d="M19.6109 64.6536C19.7942 64.7891 19.9776 64.9486 20.145 65.108C19.9696 64.9486 19.7942 64.7891 19.6109 64.6536Z" fill="#534F59"/>
<path d="M19.6108 64.6542C19.4514 64.5187 19.292 64.3991 19.1326 64.2715C19.3 64.3991 19.4514 64.5187 19.6108 64.6542Z" fill="#534F59"/>
<path d="M19.4755 66.607C19.2763 66.4236 19.077 66.2403 18.8777 66.0729C18.9255 66.1127 18.9733 66.1526 19.0132 66.1925C19.1726 66.32 19.3241 66.4555 19.4755 66.607Z" fill="#534F59"/>
<path d="M18.4072 65.6825C18.5587 65.81 18.7181 65.9296 18.8775 66.0731C18.7261 65.9376 18.5587 65.81 18.4072 65.6825Z" fill="#534F59"/>
<path d="M18.4391 63.7934C18.2398 63.6658 18.0405 63.5542 17.8412 63.4426C18.0405 63.5463 18.2398 63.6658 18.4391 63.7934Z" fill="#534F59"/>
<path d="M17.7536 63.4028C17.7859 63.4109 17.8101 63.427 17.8424 63.4513C17.8182 63.427 17.7859 63.4109 17.7536 63.4028Z" fill="#534F59"/>
<path d="M17.6183 65.1243C17.4828 65.0286 17.3393 64.9489 17.2038 64.8692C17.3393 64.9489 17.4748 65.0286 17.6183 65.1243Z" fill="#534F59"/>
<path d="M17.2517 63.139C17.4191 63.2188 17.5865 63.2985 17.7539 63.3941C17.5865 63.3064 17.4271 63.2188 17.2517 63.139Z" fill="#534F59"/>
<path d="M17.2513 63.1391C17.0918 63.0594 16.9244 62.9956 16.765 62.9318C16.9244 62.9956 17.0918 63.0673 17.2513 63.1391Z" fill="#534F59"/>
<path d="M16.5741 62.8606C16.4067 62.7968 16.2314 62.741 16.064 62.6932C16.2314 62.733 16.3988 62.7968 16.5741 62.8606Z" fill="#534F59"/>
<path d="M16.04 62.6763C15.8726 62.6285 15.7052 62.5807 15.5378 62.5488C15.6972 62.5886 15.8646 62.6285 16.04 62.6763Z" fill="#534F59"/>
<path d="M15.2028 64.0717C15.2749 64.0797 15.3389 64.1037 15.395 64.1197C15.3229 64.0957 15.2669 64.0797 15.2028 64.0717Z" fill="#534F59"/>
<path d="M15.3381 62.5092C15.1787 62.4773 15.0192 62.4534 14.8598 62.4294C15.0272 62.4534 15.1787 62.4773 15.3381 62.5092Z" fill="#534F59"/>
<path d="M14.7007 63.9688C14.5412 63.9449 14.3658 63.9289 14.2064 63.921C14.3658 63.9369 14.5333 63.9449 14.7007 63.9688Z" fill="#534F59"/>
<path d="M8.02088 66.9019C7.85348 67.0693 7.68608 67.2446 7.51868 67.42C7.68608 67.2367 7.84551 67.0693 8.02088 66.9019Z" fill="#534F59"/>
<path d="M7.02386 65.7058C7.40649 65.3311 7.78115 65.0043 8.16378 64.6934C7.78912 65.0043 7.40649 65.3391 7.02386 65.7058Z" fill="#534F59"/>
<path d="M2.79132 71.8205C3.29352 70.553 3.96312 69.3572 4.7762 68.289C5.51755 67.3085 6.26685 66.4475 7.03211 65.7062C7.41474 65.3395 7.78942 65.0047 8.17205 64.6938C10.0693 63.1472 11.9904 62.374 13.9115 62.374C14.031 62.374 14.1426 62.374 14.2622 62.3819C14.4615 62.3899 14.6688 62.4138 14.876 62.4377C15.0354 62.4617 15.1949 62.4856 15.3543 62.5175C15.3782 62.5254 15.4021 62.5254 15.426 62.5334C15.4659 62.5414 15.5137 62.5493 15.5536 62.5653C15.721 62.5972 15.8884 62.645 16.0558 62.6928C16.0638 62.6928 16.0717 62.7008 16.0797 62.7008C16.2471 62.7566 16.4225 62.8124 16.5899 62.8682C16.6537 62.8921 16.7174 62.916 16.7812 62.9479C16.9406 63.0117 17.108 63.0835 17.2674 63.1552C17.4348 63.2349 17.6022 63.3146 17.7696 63.4103C17.8015 63.4262 17.8334 63.4422 17.8573 63.4581C18.0566 63.5697 18.2559 63.6813 18.4552 63.8089C18.6864 63.9524 18.9175 64.1198 19.1487 64.2872C19.3081 64.4147 19.4676 64.5343 19.627 64.6698C19.8024 64.8054 19.9857 64.9648 20.1611 65.1242C20.3923 65.3235 20.6155 65.5388 20.8466 65.7699C21.1814 66.1127 21.5242 66.4715 21.867 66.87C21.9068 66.9179 21.9467 66.9657 21.9786 67.0056C22.1699 67.2208 22.3612 67.452 22.5525 67.6832C22.5525 67.6832 22.5525 67.6911 22.5605 67.6991C22.8953 68.1136 23.2301 68.568 23.5649 69.0384C23.6207 69.1181 23.6765 69.1898 23.7243 69.2695C24.2425 69.995 24.7527 70.7842 25.2628 71.6372L25.5339 72.1155L25.5498 72.3148L23.9316 72.4264L23.6845 72.0278C23.254 71.3263 22.8156 70.6726 22.3931 70.0588L21.875 69.3572C21.6757 69.0782 21.4684 68.8152 21.2611 68.5601C21.0619 68.3209 20.8626 68.0897 20.6713 67.8745C20.48 67.6433 20.2727 67.4281 20.0734 67.2128C19.8741 66.9976 19.6748 66.8063 19.4755 66.6149C19.3241 66.4715 19.1726 66.328 19.0212 66.2004C18.9733 66.1606 18.9255 66.1207 18.8857 66.0808C18.7262 65.9453 18.5668 65.8178 18.4153 65.6902C18.1523 65.4909 17.8813 65.2996 17.6262 65.1322C17.4907 65.0365 17.3472 64.9568 17.2117 64.8771C16.8051 64.6459 16.4065 64.4626 16.008 64.3111C15.9043 64.2712 15.8087 64.2394 15.705 64.2075C15.6014 64.1676 15.5137 64.1437 15.4101 64.1198C15.3463 64.1038 15.2826 64.0799 15.2188 64.072C15.0833 64.0321 14.9478 64.0082 14.8202 63.9843C14.7883 63.9843 14.7485 63.9763 14.7166 63.9683C14.5572 63.9444 14.3818 63.9285 14.2224 63.9205C14.2144 63.9205 14.1985 63.9205 14.1905 63.9205C12.1817 63.8248 10.1171 64.8293 8.03652 66.9019C7.86912 67.0614 7.70172 67.2367 7.53432 67.4201C7.19952 67.7788 6.86472 68.1615 6.53789 68.576C6.37049 68.7833 6.20308 68.9985 6.03568 69.2217C5.70088 69.6522 5.39797 70.1146 5.11897 70.5929C5.02331 70.7523 4.94361 70.9197 4.85592 71.0871C4.80012 71.1828 4.75228 71.2625 4.7204 71.3582C4.64866 71.4937 4.5849 71.6133 4.53707 71.7488C4.46533 71.8843 4.40953 72.0198 4.3617 72.1553C4.33778 72.1952 4.31386 72.243 4.29791 72.2909L2.4884 76.7391L2.79132 71.8205Z" fill="#534F59"/>
<path d="M3.16638 1.59696C2.9671 1.67668 2.48879 2.07527 2.37719 4.13996C2.26559 6.0771 2.52865 8.01424 3.15042 9.88761C7.63038 23.5114 6.07594 46.4223 4.56934 68.5758C4.64108 68.4722 4.70486 68.3845 4.77661 68.2888C3.96352 69.3571 3.3019 70.5528 2.79172 71.8203L3.01492 68.4722C4.51355 46.4621 6.06797 23.7107 1.6757 10.3659C0.998129 8.31717 0.711175 6.18871 0.822775 4.06024C0.90249 2.64924 1.1735 0.704124 2.60039 0.154072C4.07511 -0.411924 6.11581 0.759926 9.41599 4.0443C19.0375 12.0001 22.8239 41.1768 25.4705 71.5174L25.5263 72.0993L25.2552 71.621C24.7451 70.7681 24.2349 69.9789 23.7168 69.2534C21.2137 41.416 17.3795 12.6379 8.37173 5.19223C4.72081 1.54116 3.51713 1.46144 3.16638 1.59696Z" fill="#534F59"/>
<path d="M2.79134 71.8212L2.45653 76.7398L4.26604 72.2916C4.28198 72.2437 4.30591 72.1959 4.32983 72.156C3.92328 73.1206 3.62036 74.141 3.42905 75.1853C2.43262 80.8533 1.89056 87.7728 1.85867 95.2024C1.91447 97.5063 3.43702 99.3239 6.52197 100.719C8.19598 101.476 10.0852 101.915 12.1179 102.01L23.2062 102.066C24.2345 102.122 25.1911 101.803 25.9085 101.173C27.8615 99.4753 28.6905 97.1635 28.4275 94.0784C28.1804 87.1908 26.9289 80.4467 24.6969 74.0135C24.5135 73.4794 24.2584 72.9453 23.9316 72.4111V72.4032L25.5498 72.2916L25.5339 72.0923C25.9245 72.8815 26.052 73.1924 26.1636 73.5033C28.4434 80.08 29.7268 86.9835 29.9819 93.9907C30.2769 97.5143 29.2565 100.328 26.9289 102.345C25.9723 103.174 24.7447 103.621 23.4453 103.621C23.3576 103.621 23.27 103.621 23.1743 103.613L12.086 103.557C9.81416 103.445 7.74159 102.959 5.88424 102.122C2.26521 100.472 0.391933 98.144 0.32019 95.2104C0.352076 87.6691 0.902106 80.654 1.91448 74.9063C2.09782 73.854 2.39277 72.8097 2.79134 71.8212Z" fill="#534F59"/>
</g>
</svg>
