<svg width="36" height="122" viewBox="0 0 36 122" fill="none" xmlns="http://www.w3.org/2000/svg">
<g opacity="0.5">
<path d="M17.5715 75.3367C20.9195 75.5678 24.4349 78.2065 28.022 83.1729C28.1336 83.3164 28.2293 83.4599 28.3249 83.6114C28.4047 83.723 28.4684 83.8346 28.5402 83.9541C28.6358 84.0976 28.7156 84.2571 28.8112 84.4085C28.9228 84.6158 29.0344 84.839 29.138 85.0622C29.2496 85.2934 29.3453 85.5246 29.4489 85.7558L29.5446 85.987C29.6801 86.3218 29.7837 86.6646 29.8874 87.0153L29.9352 87.1349C31.5773 90.6744 32.8447 95.1465 33.9528 101.285C34.2079 102.194 34.3195 103.07 34.2876 103.907C34.176 106.594 33.5542 109.129 32.4382 111.425C31.2026 113.928 29.3533 116.2 26.7705 118.4C26.5154 118.623 26.2364 118.799 25.9495 118.942C23.4703 120.098 20.9354 120.529 18.4005 120.242C17.4439 120.122 16.4953 119.819 15.5945 119.301C10.7399 116.543 6.75422 113.896 3.39824 111.21C0.448808 107.543 2.11483 99.0288 4.41061 89.1119C4.74541 87.669 5.20777 86.2978 5.79766 84.9745H5.80561L6.02881 84.5042C6.3955 83.7389 6.80206 83.0135 7.24049 82.304C7.38397 82.0728 7.53543 81.8496 7.68688 81.6184C7.83834 81.3952 8.00575 81.18 8.16518 80.9488C8.3246 80.7336 8.49996 80.5263 8.66736 80.3031C8.83476 80.0958 9.01015 79.8965 9.18552 79.6892C9.36089 79.49 9.55221 79.2907 9.73555 79.0914C9.88701 78.9399 10.0384 78.7805 10.1899 78.637C10.4928 78.342 10.7958 78.063 11.1066 77.8079C13.2589 76.0143 15.4351 75.1772 17.5715 75.3367Z" fill="white"/>
<path d="M28.4684 76.7479C28.6438 78.4698 28.8351 80.1758 29.0104 81.8897C28.9546 81.818 28.9068 81.7542 28.851 81.6825C28.6916 81.4593 28.5242 81.244 28.3568 81.0208C28.1655 80.7737 27.9662 80.5345 27.7748 80.3034C27.5915 80.0802 27.4002 79.8649 27.2169 79.6497C27.1611 79.5779 27.1052 79.5142 27.0574 79.4584C26.898 79.283 26.7386 79.0996 26.5791 78.9322C26.4117 78.7568 26.2443 78.5735 26.0769 78.4061C25.8777 78.1988 25.6704 77.9995 25.4631 77.8002C25.232 77.577 25.0088 77.3777 24.7856 77.1705C24.7457 77.1386 24.7059 77.0987 24.658 77.0668C24.5066 76.9313 24.3471 76.7958 24.1957 76.6682C23.7014 76.2696 23.2152 75.9109 22.721 75.592C22.6014 75.5203 22.4978 75.4565 22.3862 75.3927C22.2267 75.2891 22.0673 75.2014 21.9159 75.1137C21.4695 74.8666 21.0151 74.6514 20.5687 74.468C20.4172 74.4043 20.2578 74.3405 20.1063 74.3006C19.5403 74.0933 18.9744 73.9499 18.4084 73.8701C18.1693 73.8303 17.9301 73.7984 17.691 73.7824C17.4917 73.7665 17.2924 73.7585 17.0852 73.7585C16.3677 73.7585 15.6503 73.8542 14.9408 74.0296C14.5821 74.1173 14.2314 74.2289 13.8727 74.3644C13.514 74.4999 13.1632 74.6593 12.8125 74.8347C12.2784 75.1058 11.7523 75.4246 11.2261 75.7834C10.708 76.1501 10.1819 76.5646 9.6717 77.0349C9.32096 77.3458 8.98615 77.6806 8.64338 78.0314C8.45206 78.2307 8.26076 78.43 8.07741 78.6452C8.04553 78.6771 8.01365 78.709 7.98974 78.7409C7.7506 79.0199 7.51145 79.2989 7.28825 79.5859C7.11288 79.8011 6.93749 80.0323 6.77806 80.2555C6.74618 80.2874 6.72227 80.3193 6.70632 80.3512C6.53892 80.5824 6.37154 80.8056 6.22008 81.0447C6.39545 76.182 6.61068 71.1518 6.81794 66.2571C7.75857 43.7289 8.74702 20.4353 6.51502 10.1757C6.11645 8.33418 5.96499 6.66808 6.0447 5.09764C6.19616 2.23577 6.89764 1.68572 7.18462 1.58209C7.59116 1.43859 8.85862 1.47845 12.0153 4.97806C22.0354 15.6284 25.2957 46.7023 28.4684 76.7479Z" fill="white"/>
<path d="M25.4555 77.8009C25.2323 77.5857 25.0091 77.3784 24.7779 77.1711C24.9931 77.3704 25.2243 77.5777 25.4555 77.8009Z" fill="#534F59"/>
<path d="M24.1795 76.6761C24.331 76.8036 24.4904 76.9312 24.6418 77.0747C24.4904 76.9312 24.3389 76.7957 24.1795 76.6761Z" fill="#534F59"/>
<path d="M22.7127 75.5994C22.6011 75.5277 22.4895 75.4639 22.3779 75.4001C22.4895 75.4559 22.5931 75.5277 22.7127 75.5994Z" fill="#534F59"/>
<path d="M22.3783 75.4008C22.2188 75.2971 22.0594 75.2095 21.908 75.1218C22.0594 75.2015 22.2188 75.2971 22.3783 75.4008Z" fill="#534F59"/>
<path d="M20.5608 74.4759C20.4094 74.4121 20.25 74.3483 20.0985 74.3085C20.25 74.3563 20.4094 74.4121 20.5608 74.4759Z" fill="#534F59"/>
<path d="M17.683 73.7904C17.9222 73.8063 18.1613 73.8382 18.4005 73.8781C18.1613 73.8303 17.9222 73.8063 17.683 73.7904Z" fill="#534F59"/>
<path d="M12.8043 74.8426C13.155 74.6673 13.5058 74.5078 13.8645 74.3723C13.5058 74.5078 13.155 74.6593 12.8043 74.8426Z" fill="#534F59"/>
<path d="M10.2059 78.6607C10.5088 78.3657 10.8117 78.0867 11.1226 77.8316C10.8037 78.0867 10.5088 78.3657 10.2059 78.6607Z" fill="#534F59"/>
<path d="M11.2179 75.7916L9.66345 77.0432C10.1736 76.5729 10.6997 76.1583 11.2179 75.7916Z" fill="#534F59"/>
<path d="M9.74327 79.1158C9.55993 79.3072 9.36861 79.5144 9.19324 79.7137C9.37658 79.5065 9.55993 79.3072 9.74327 79.1158Z" fill="#534F59"/>
<path d="M8.67493 80.3195C8.50753 80.5348 8.33216 80.742 8.17273 80.9652L8.67493 80.3195Z" fill="#534F59"/>
<path d="M8.17291 80.9653C8.01348 81.1885 7.8461 81.4038 7.69464 81.635L8.17291 80.9653Z" fill="#534F59"/>
<path d="M8.06973 78.6616C8.03771 78.6936 8.01371 78.7257 7.98169 78.7577C8.0057 78.7177 8.03771 78.6856 8.06973 78.6616Z" fill="#534F59"/>
<path d="M4.4901 5.02596C4.63359 2.20395 5.34304 0.601621 6.65833 0.131286C8.22871 -0.426738 10.2853 0.784971 13.1391 3.94179C23.51 14.9428 26.8181 46.2799 30.0067 76.5806C30.3096 79.4823 30.6205 82.3841 30.9314 85.2698C30.5169 84.2016 29.9668 83.1972 29.2893 82.2645C29.1936 82.129 29.1059 82.0094 29.0103 81.8818C28.8349 80.1679 28.6436 78.462 28.4682 76.7401C25.3036 46.6944 22.0353 15.6204 11.9992 4.99407C8.84252 1.49446 7.57506 1.44663 7.16852 1.59809C6.88154 1.70173 6.18801 2.25178 6.02858 5.11365C5.94887 6.68408 6.10832 8.35019 6.49892 10.1917C8.73092 20.4513 7.74244 43.7449 6.80181 66.2731C6.59456 71.1678 6.3873 76.198 6.20395 81.0607C5.58218 81.9934 5.02419 82.9819 4.5459 84.0103C4.74519 78.2308 4.99231 72.1164 5.2474 66.2093C6.18803 43.7768 7.1685 20.5789 4.98432 10.5185C4.56981 8.54151 4.39444 6.74786 4.4901 5.02596Z" fill="#534F59"/>
<path d="M4.5379 84.9112L4.54588 84.1619C4.54588 84.1061 4.54589 84.0582 4.55386 84.0104C5.03215 82.9821 5.59014 81.9936 6.21191 81.0609C6.21191 81.0688 6.21191 81.0688 6.21191 81.0768C6.37134 80.8376 6.53875 80.5985 6.69818 80.3673C6.7221 80.3354 6.74601 80.3035 6.76992 80.2717C6.92935 80.0484 7.11268 79.8252 7.28008 79.602C7.50328 79.315 7.74243 79.036 7.98157 78.757C8.01346 78.7251 8.03736 78.6932 8.06925 78.6614C8.25259 78.4541 8.44392 78.2548 8.63524 78.0475C8.97801 77.6888 9.31279 77.362 9.66354 77.0511L11.218 75.7995C11.7441 75.4328 12.2702 75.1219 12.8043 74.8508C13.155 74.6755 13.5058 74.516 13.8645 74.3805C14.2232 74.245 14.574 74.1414 14.9327 74.0457C15.6421 73.8703 16.3596 73.7747 17.077 73.7747C17.2763 73.7747 17.4835 73.7826 17.6828 73.7986C17.922 73.8145 18.1611 73.8464 18.4003 73.8863C18.9662 73.974 19.5322 74.1095 20.0982 74.3167C20.2496 74.3646 20.4091 74.4283 20.5605 74.4841C21.0069 74.6595 21.4613 74.8827 21.9077 75.1299C22.0591 75.2175 22.2186 75.3052 22.378 75.4089C22.4896 75.4726 22.6012 75.5444 22.7128 75.6082C23.1991 75.927 23.6853 76.2778 24.1875 76.6844C24.339 76.8119 24.4984 76.9395 24.6499 77.0829C24.6977 77.1148 24.7376 77.1547 24.7774 77.1866C25.0086 77.3859 25.2318 77.5931 25.455 77.8163C25.6543 78.0077 25.8615 78.2149 26.0688 78.4222C26.2362 78.5896 26.4036 78.773 26.571 78.9483C26.7304 79.1157 26.8898 79.2991 27.0493 79.4745C27.1051 79.5383 27.1609 79.602 27.2087 79.6658C27.4 79.8731 27.5834 80.0883 27.7667 80.3195C27.958 80.5507 28.1573 80.7898 28.3486 81.0369C28.508 81.2442 28.6834 81.4674 28.8429 81.6986C28.9066 81.7704 28.9544 81.8341 29.0023 81.9059C29.0979 82.0334 29.1856 82.153 29.2813 82.2885C29.9509 83.2212 30.5009 84.2257 30.9234 85.2939C30.9314 85.3337 30.9313 85.3736 30.9393 85.4134L31.035 86.3222L29.632 86.2505L29.5364 86.0193L29.4407 85.7881C29.3451 85.5569 29.2494 85.3258 29.1298 85.0946C29.0342 84.8793 28.9226 84.6641 28.803 84.4409C28.7073 84.2894 28.6276 84.13 28.532 83.9865C28.4602 83.8669 28.3964 83.7553 28.3167 83.6437C28.2211 83.4923 28.1254 83.3488 28.0138 83.2053C24.4267 78.2468 20.9112 75.6002 17.5632 75.369C15.4269 75.2096 13.2507 76.0466 11.1064 77.8642C10.7955 78.1193 10.4926 78.3983 10.1897 78.6932C10.0382 78.8367 9.88676 78.9962 9.7353 79.1476C9.55196 79.339 9.36064 79.5462 9.18527 79.7455C9.0099 79.9448 8.83451 80.1441 8.6671 80.3593L8.16492 81.0051L7.68663 81.6747C7.5272 81.8979 7.37575 82.1291 7.24023 82.3603L6.43511 83.7314C6.20394 84.1539 5.99668 84.5924 5.78943 85.0308L4.5379 84.9112Z" fill="#534F59"/>
<path d="M4.53797 84.9109L5.79747 84.9906C5.20759 86.3059 4.74523 87.6851 4.41043 89.128C2.11465 99.0448 0.448628 107.551 3.39806 111.226C6.74607 113.912 10.7398 116.559 15.5944 119.317C16.4951 119.827 17.4358 120.138 18.4003 120.258C20.9352 120.545 23.4702 120.114 25.9493 118.958C26.2363 118.823 26.5153 118.639 26.7703 118.416C29.3451 116.216 31.1945 113.944 32.438 111.441C33.554 109.145 34.1758 106.61 34.2874 103.924C34.3193 103.087 34.2077 102.202 33.9526 101.301C32.8446 95.1626 31.5771 90.6904 29.935 87.151L29.8872 87.0314C29.7836 86.6806 29.6799 86.3378 29.5444 86.003L29.6401 86.2342L31.043 86.3059L30.9474 85.3972C30.9394 85.3573 30.9394 85.3174 30.9314 85.2776C31.0909 85.6841 31.2423 86.1146 31.3619 86.5451C33.0438 90.1962 34.3432 94.772 35.4512 100.942C35.7382 101.923 35.8658 102.975 35.8339 103.979C35.7143 106.873 35.0367 109.615 33.8251 112.119C32.4938 114.813 30.5169 117.252 27.7827 119.588C27.416 119.907 27.0254 120.162 26.6029 120.353C24.4108 121.374 22.1788 121.884 19.9308 121.884C19.3649 121.884 18.7989 121.852 18.2329 121.78C17.0531 121.645 15.9212 121.27 14.8371 120.656C9.87885 117.842 5.81341 115.132 2.37772 112.382L2.25815 112.27C-1.20943 108.077 0.416754 99.5231 2.91182 88.7772C3.30242 87.1111 3.85243 85.5088 4.56189 84.0101C4.55392 84.0659 4.55393 84.1137 4.55393 84.1615L4.53797 84.9109Z" fill="#534F59"/>
</g>
</svg>
