<svg width="34" height="100" viewBox="0 0 34 100" fill="none" xmlns="http://www.w3.org/2000/svg">
<g opacity="0.5">
<path d="M11.6791 62.8778C11.9262 62.7662 12.1813 62.6705 12.4284 62.5749C13.1777 62.3118 13.943 62.1444 14.7322 62.0647C14.7401 62.0647 14.7561 62.0647 14.764 62.0647C14.8916 62.0567 15.0191 62.0487 15.1467 62.0408C15.4177 62.0248 15.6887 62.0328 15.9597 62.0408C16.167 62.0487 16.3822 62.0647 16.5975 62.0966C16.6692 62.0966 16.733 62.1125 16.8047 62.1205C16.996 62.1444 17.1874 62.1763 17.3707 62.2161C17.3946 62.2161 17.4185 62.2241 17.4424 62.2321C17.6178 62.2719 17.8012 62.3118 17.9765 62.3596C17.9925 62.3596 18.0164 62.3676 18.0323 62.3756C18.2316 62.4314 18.4389 62.4952 18.6461 62.5589C20.4796 63.1887 22.3289 64.3765 24.0508 66.1622C24.4334 66.5608 24.8001 66.9833 25.1747 67.4377C25.2385 67.5094 25.2943 67.5811 25.3501 67.6609C25.4777 67.8123 25.5972 67.9797 25.7168 68.1392C26.235 68.8407 26.7292 69.606 27.1915 70.4191L27.3111 70.6184C29.2641 74.0622 30.8185 78.5902 31.6635 84.29C31.7512 87.104 30.9461 89.6311 29.2641 91.8074C26.9763 94.167 24.2979 96.0085 21.2289 97.2999C18.9889 98.5037 16.5736 98.703 13.8553 97.9058C10.3479 96.3513 6.97592 94.0554 4.34535 91.4407C2.52786 89.655 1.77059 86.6656 1.80248 81.452C1.81045 80.8223 1.91407 80.1925 2.0177 79.5229L2.04959 79.3555C2.90254 74.0941 4.64828 69.7654 7.00783 66.7441C7.15132 66.5608 7.30277 66.3694 7.45423 66.1941C7.59772 66.0107 7.75713 65.8353 7.91656 65.6679C8.12382 65.4447 8.33905 65.2295 8.56225 65.0222C8.77748 64.8229 9.00067 64.6236 9.23185 64.4403C9.35142 64.3446 9.46302 64.2569 9.58259 64.1613C10.2283 63.6431 10.9457 63.2046 11.6791 62.8778Z" fill="white"/>
<path d="M27.1278 67.4533C24.6089 63.9457 21.5478 61.6578 18.2875 60.8367C18.0882 60.773 17.881 60.7251 17.6737 60.7012C17.6099 60.6773 17.5462 60.6693 17.4904 60.6613C17.323 60.6295 17.1556 60.5976 16.9882 60.5816C16.9643 60.5737 16.9483 60.5737 16.9244 60.5737C16.486 60.5019 16.0396 60.47 15.6091 60.47C15.4417 60.47 15.2743 60.47 15.1069 60.486C15.0989 60.486 15.091 60.486 15.083 60.486H15.075C14.9315 60.486 14.7801 60.4939 14.6446 60.5179C14.533 60.5258 14.4293 60.5338 14.3098 60.5497C13.0901 60.6853 11.9104 61.028 10.7944 61.5781C10.34 61.7854 9.8856 62.0325 9.45515 62.3274C9.25586 62.455 9.05658 62.5825 8.86527 62.726C8.72178 62.8297 8.5783 62.9333 8.45076 63.0449C8.31525 63.1485 8.17973 63.2522 8.05219 63.3717C7.86884 63.5232 7.67753 63.6906 7.50216 63.858C7.32678 64.0175 7.14344 64.2008 6.97604 64.3762C6.80067 64.5516 6.61733 64.7429 6.4579 64.9342C5.86801 65.5879 5.31001 66.3054 4.79187 67.0946C4.8397 66.122 4.87954 65.1415 4.92737 64.1689C5.71654 46.5912 6.53761 28.4075 5.23029 14.1062L5.16653 13.4525C4.79984 9.58619 4.49692 6.25398 7.10358 3.63127C8.75367 1.97314 10.603 1.30351 12.4524 1.67022C15.1468 2.2123 17.594 4.8669 19.3079 9.08397C24.5531 26.0957 27.3829 47.2289 27.1278 67.4533Z" fill="white"/>
<path d="M24.0425 66.1461C24.4411 66.5446 24.8078 66.9751 25.1665 67.4215C24.7919 66.9671 24.4252 66.5446 24.0425 66.1461Z" fill="#534F59"/>
<path d="M18.6378 62.5507C20.551 63.1885 22.3844 64.4081 24.0425 66.154C22.3206 64.3683 20.4712 63.1725 18.6378 62.5507Z" fill="#534F59"/>
<path d="M18.0244 62.3592C18.2237 62.407 18.431 62.4708 18.6382 62.5425C18.4389 62.4788 18.2317 62.415 18.0244 62.3592Z" fill="#534F59"/>
<path d="M18.2873 60.8368C18.0801 60.7809 17.8808 60.7331 17.6735 60.7012C17.8808 60.7331 18.0881 60.773 18.2873 60.8368Z" fill="#534F59"/>
<path d="M17.9766 62.3517C17.8012 62.3039 17.6179 62.264 17.4425 62.2242C17.6179 62.2561 17.7932 62.3039 17.9766 62.3517Z" fill="#534F59"/>
<path d="M17.4899 60.6616C17.3225 60.6297 17.1551 60.5979 16.9877 60.5819C17.1631 60.5979 17.3225 60.6297 17.4899 60.6616Z" fill="#534F59"/>
<path d="M15.9594 62.041C16.1666 62.049 16.3819 62.0649 16.5971 62.0968C16.3898 62.0649 16.1666 62.049 15.9594 62.041Z" fill="#534F59"/>
<path d="M15.9597 62.0402C15.6887 62.0322 15.4176 62.0242 15.1466 62.0402C15.2741 62.0242 15.4017 62.0242 15.5372 62.0242C15.5611 62.0242 15.585 62.0242 15.6089 62.0242C15.7205 62.0242 15.8481 62.0322 15.9597 62.0402Z" fill="#534F59"/>
<path d="M16.9319 60.5736C16.4776 60.5098 16.0152 60.4779 15.5529 60.4779C15.4094 60.4779 15.2579 60.4779 15.1144 60.4859C15.2818 60.47 15.4492 60.47 15.6166 60.47C16.0471 60.4779 16.4855 60.5019 16.9319 60.5736Z" fill="#534F59"/>
<path d="M3.6198 13.5962C3.2292 9.52262 2.87844 5.68023 5.99528 2.53935C8.00408 0.530461 10.4035 -0.322519 12.7471 0.147815C15.9755 0.801501 18.8134 3.79092 20.7584 8.57398C26.2826 26.4626 29.1443 48.7677 28.6342 69.861C25.7405 64.7431 21.978 61.8095 18.2952 60.8369C21.5555 61.658 24.6166 63.9459 27.1356 67.4535C27.3827 47.2211 24.5608 26.088 19.3076 9.09215C17.5858 4.87508 15.1465 2.22048 12.4522 1.6784C10.6028 1.30372 8.75341 1.98132 7.10332 3.63945C4.49666 6.26217 4.80755 9.60234 5.16627 13.4607L5.23003 14.1144C6.53734 28.4237 5.71628 46.5993 4.92711 64.1771C4.87928 65.1497 4.83944 66.1302 4.79161 67.1028C5.30975 66.3135 5.86775 65.5961 6.45764 64.9424C5.1822 66.3933 4.05822 68.155 3.10962 70.2038C3.18933 68.1789 3.27703 66.1382 3.37269 64.1054C4.16186 46.5754 4.98291 28.4476 3.68356 14.2499L3.6198 13.5962Z" fill="#534F59"/>
<path d="M6.98356 66.7282C6.07482 67.8602 5.26969 69.1755 4.57617 70.6583L4.36893 71.1047H3.06958L3.10943 70.2916C3.10943 70.2597 3.10944 70.2278 3.11741 70.1959C4.05804 68.1472 5.182 66.3774 6.4654 64.9346C6.62483 64.7432 6.80819 64.5519 6.98356 64.3765C7.15096 64.2012 7.33428 64.0258 7.50966 63.8584C7.68503 63.691 7.87634 63.5235 8.05969 63.3721C8.1952 63.2525 8.32275 63.1489 8.45826 63.0452C8.59377 62.9336 8.7293 62.83 8.87279 62.7264C9.06411 62.5909 9.26338 62.4553 9.46267 62.3278C9.89313 62.0488 10.3475 61.7937 10.8019 61.5784C11.9258 61.0364 13.0976 60.6856 14.3173 60.5501C14.4368 60.5341 14.5405 60.5262 14.6521 60.5182C14.7956 60.5022 14.939 60.4943 15.0825 60.4863H15.0905C15.0985 60.4863 15.1065 60.4863 15.1144 60.4863C15.2579 60.4783 15.4094 60.4783 15.5529 60.4783C16.0152 60.4783 16.4775 60.5102 16.9319 60.574C16.9558 60.574 16.9718 60.574 16.9957 60.582C17.1631 60.5979 17.3305 60.6298 17.4979 60.6617C17.5616 60.6697 17.6254 60.6776 17.6812 60.7015C17.8805 60.7414 18.0878 60.7892 18.295 60.8371C21.9778 61.8096 25.7404 64.7432 28.634 69.8611C28.634 69.9249 28.634 69.9807 28.634 70.0365L28.5622 72.7947L27.3028 70.6025L27.1832 70.4032C26.7209 69.5901 26.2266 68.8328 25.7085 68.1233C25.5889 67.9638 25.4693 67.7964 25.3418 67.645C25.278 67.5652 25.2222 67.4935 25.1664 67.4217C24.8077 66.9753 24.441 66.5369 24.0424 66.1463C22.3844 64.4084 20.551 63.1808 18.6378 62.543C18.4385 62.4633 18.2313 62.4075 18.024 62.3597C18.0081 62.3517 17.9842 62.3437 17.9682 62.3437C17.7928 62.2959 17.6095 62.2481 17.4341 62.2162C17.4102 62.2082 17.3863 62.2002 17.3624 62.2002C17.179 62.1604 16.9877 62.1285 16.7964 62.1046C16.7247 62.0966 16.6609 62.0807 16.5891 62.0807C16.3819 62.0488 16.1667 62.0328 15.9514 62.0249C15.8319 62.0169 15.7123 62.0089 15.5927 62.0089C15.5688 62.0089 15.5449 62.0089 15.521 62.0089C15.3855 62.0089 15.2579 62.0089 15.1304 62.0249C14.9949 62.0249 14.8753 62.0328 14.7477 62.0488C14.7398 62.0488 14.7238 62.0488 14.7158 62.0488C13.9267 62.1125 13.1535 62.28 12.4121 62.559C12.157 62.6387 11.9099 62.7343 11.6628 62.8619C10.9215 63.1887 10.204 63.6192 9.53441 64.1374C9.41484 64.233 9.30324 64.3207 9.18366 64.4164C8.96046 64.5918 8.73727 64.7911 8.51407 64.9983C8.29884 65.1976 8.08361 65.4129 7.86838 65.644C7.70895 65.8114 7.54953 65.9868 7.40605 66.1702C7.26256 66.3615 7.11111 66.5449 6.98356 66.7282Z" fill="#534F59"/>
<path d="M13.257 99.324C9.56625 97.6898 6.003 95.2823 3.22894 92.532C1.0926 90.4195 0.191831 87.0953 0.223716 81.4194C0.231688 80.678 0.35125 79.9526 0.46285 79.259L0.486763 79.0916C1.02882 75.7435 1.92162 72.762 3.1014 70.2031C3.09342 70.235 3.09344 70.2668 3.09344 70.2987L3.05357 71.1119H4.35292L4.56018 70.6654C5.2537 69.1827 6.05881 67.8594 6.96755 66.7354C4.61597 69.7567 2.86226 74.0853 2.00931 79.3467L1.97744 79.5141C1.86584 80.1837 1.77017 80.8135 1.7622 81.4433C1.73031 86.6568 2.4876 89.6383 4.30509 91.4319C6.93567 94.0467 10.3156 96.3425 13.815 97.897C16.5413 98.6942 18.9566 98.5029 21.1886 97.2912C24.2576 96.0077 26.936 94.1662 29.2238 91.7986C30.9058 89.6223 31.7109 87.0953 31.6232 84.2812C30.7782 78.5814 29.2238 74.0534 27.2708 70.6096L28.5303 72.8019L28.6021 70.0436C28.6021 69.9799 28.6021 69.9241 28.6021 69.8683C30.6667 73.4874 32.2928 78.2147 33.1617 84.1058L33.1697 84.1935C33.2813 87.4062 32.3486 90.292 30.4116 92.7871L30.3558 92.8509C27.9165 95.3859 25.0548 97.347 21.8502 98.6862C20.3357 99.5073 18.6936 99.9219 16.9398 99.9219C15.768 99.9219 14.5643 99.7385 13.3208 99.3638L13.257 99.324Z" fill="#534F59"/>
</g>
</svg>
