<svg width="32" height="104" viewBox="0 0 32 104" fill="none" xmlns="http://www.w3.org/2000/svg">
<g opacity="0.5">
<path d="M7.49624 67.2405C7.0897 67.6311 6.70707 68.0376 6.34039 68.4761C6.26864 68.5558 6.20488 68.6355 6.13313 68.7232C6.07733 68.795 6.02152 68.8587 5.97369 68.9305C8.30136 50.1729 8.8753 30.7297 7.69553 11.0873C7.38464 3.8808 8.74776 1.71248 9.50505 1.56899C10.3261 1.41752 12.59 3.19523 15.1488 11.0155C19.6686 26.0822 22.8014 44.8159 24.9856 69.8074C24.8421 69.624 24.6827 69.4327 24.5312 69.2573C24.5073 69.2334 24.4914 69.2095 24.4674 69.1856C24.324 69.0102 24.1645 68.8269 24.0051 68.6594C23.9732 68.6276 23.9413 68.5957 23.9174 68.5638C23.8935 68.5399 23.8616 68.516 23.8377 68.4841C23.8297 68.4761 23.8138 68.4601 23.8058 68.4442C23.6863 68.3246 23.5826 68.213 23.4631 68.1014C23.2159 67.8543 22.9609 67.6072 22.6898 67.36C20.139 65.0243 17.4047 63.8285 14.7742 63.8285C13.2038 63.8285 11.6653 64.251 10.2225 65.12C10.0232 65.2475 9.8239 65.3671 9.62462 65.5026C9.3217 65.7019 9.02676 65.9092 8.73979 66.1483C8.58036 66.2679 8.42093 66.3955 8.26947 66.531C8.11802 66.6585 7.96656 66.7861 7.82307 66.9296C7.71147 67.0332 7.60784 67.1368 7.49624 67.2405Z" fill="white"/>
<path d="M9.24997 67.7342C9.38548 67.6147 9.52897 67.5031 9.67245 67.3835C10.0949 67.0487 10.5493 66.7378 11.0117 66.4588C13.8575 64.7448 16.5917 65.3108 18.736 66.4428C19.0309 66.5943 19.3099 66.7617 19.581 66.9291C19.7165 67.0168 19.852 67.0965 19.9795 67.1842C20.2426 67.3596 20.4817 67.5429 20.7129 67.7183C21.0557 67.9893 21.3666 68.2604 21.6456 68.5075C21.9485 68.7785 22.2275 69.0576 22.4985 69.3366C22.634 69.4721 22.7695 69.6156 22.9051 69.7591C23.0645 69.9265 23.2239 70.1098 23.3674 70.2852C23.5029 70.4367 23.6305 70.5961 23.758 70.7555C24.0609 71.1462 24.3479 71.5368 24.603 71.9354C24.7305 72.1267 24.8501 72.326 24.9617 72.5173C24.9776 72.5332 24.9856 72.5572 25.0016 72.5731C25.0972 72.7405 25.1929 72.9239 25.2885 73.0992C25.3045 73.1232 25.3124 73.1471 25.3284 73.171C25.5436 73.5696 25.7269 73.9841 25.9103 74.3986C27.3451 77.8664 28.3655 80.7601 29.1228 83.4944C29.8402 86.0614 30.4779 88.5804 30.446 91.0278C30.4141 93.0446 29.8083 94.8064 28.7402 95.9862C28.1423 96.6479 27.3611 97.182 26.6038 97.6922C26.2052 97.9712 25.7907 98.2661 25.3842 98.5531C23.2956 100.036 21.1274 101.566 18.6882 101.75C16.1931 101.933 13.6662 101.048 11.2189 100.187C10.5095 99.9322 9.79203 99.6851 9.09851 99.4619C5.55122 98.3379 3.4069 96.2812 2.36264 92.9888C1.3981 89.9436 1.72493 87.0977 2.22713 83.9488C2.53802 81.9957 2.91268 80.1064 3.36705 78.3367C3.83737 76.4633 4.43523 74.7574 5.13671 73.2826C5.17657 73.2029 5.20846 73.1311 5.24831 73.0594L5.47151 72.6209C5.8382 71.9194 6.2288 71.2657 6.65128 70.6599C6.87448 70.333 7.09768 70.0301 7.33683 69.7272C7.4564 69.5837 7.56799 69.4322 7.70351 69.2967C7.83105 69.1612 7.95062 69.0177 8.07817 68.8822C8.20571 68.7467 8.33326 68.6032 8.46877 68.4836C8.60429 68.356 8.73183 68.2365 8.86734 68.1009C8.86734 68.1009 8.86734 68.093 8.87531 68.1009C8.97894 67.9734 9.10648 67.8538 9.24997 67.7342Z" fill="white"/>
<path d="M24.9933 72.5812C25.097 72.7486 25.1926 72.9319 25.2803 73.1073C25.1847 72.924 25.081 72.7486 24.9933 72.5812Z" fill="#534F59"/>
<path d="M24.9541 72.5257C24.8425 72.3344 24.7229 72.1351 24.5953 71.9438C24.7309 72.1351 24.8425 72.3264 24.9541 72.5257Z" fill="#534F59"/>
<path d="M24.4673 69.1928C24.3239 69.0174 24.1644 68.842 24.005 68.6666C24.1644 68.842 24.3159 69.0174 24.4673 69.1928Z" fill="#534F59"/>
<path d="M23.8378 68.5002C23.862 68.5325 23.8943 68.5568 23.9185 68.581C23.8862 68.5568 23.862 68.5245 23.8378 68.5002Z" fill="#534F59"/>
<path d="M23.3676 70.2932C23.5031 70.4446 23.6306 70.604 23.7582 70.7635C23.6306 70.604 23.4951 70.4526 23.3676 70.2932Z" fill="#534F59"/>
<path d="M23.4633 68.1171C23.5829 68.2287 23.6865 68.3403 23.8061 68.4599C23.6945 68.3403 23.5829 68.2367 23.4633 68.1171Z" fill="#534F59"/>
<path d="M22.9051 69.7674C22.7696 69.6239 22.6421 69.4804 22.4986 69.3448C22.6421 69.4804 22.7776 69.6318 22.9051 69.7674Z" fill="#534F59"/>
<path d="M19.9795 67.1919C20.2425 67.3673 20.4817 67.5506 20.7129 67.726C20.4897 67.5427 20.2425 67.3673 19.9795 67.1919Z" fill="#534F59"/>
<path d="M18.7439 66.4435C19.0388 66.5949 19.3258 66.7624 19.5889 66.9298C19.3178 66.7624 19.0388 66.6029 18.7439 66.4435Z" fill="#534F59"/>
<path d="M10.2226 65.1351C10.0233 65.2627 9.82404 65.3823 9.62476 65.5178C9.81607 65.3823 10.0233 65.2627 10.2226 65.1351Z" fill="#534F59"/>
<path d="M9.68066 67.3834C9.53718 67.503 9.39369 67.6146 9.25818 67.7342C9.39369 67.6066 9.53718 67.495 9.68066 67.3834Z" fill="#534F59"/>
<path d="M9.25023 67.7341C9.11471 67.8616 8.9792 67.9732 8.84369 68.1008C8.9792 67.9653 9.10674 67.8457 9.25023 67.7341Z" fill="#534F59"/>
<path d="M8.83564 68.0931C8.70013 68.2286 8.57259 68.3482 8.43707 68.4757C8.57259 68.3402 8.7081 68.2206 8.83564 68.0931Z" fill="#534F59"/>
<path d="M8.7399 66.1641C8.58048 66.2916 8.42105 66.4112 8.26959 66.5467C8.42902 66.4112 8.58048 66.2757 8.7399 66.1641Z" fill="#534F59"/>
<path d="M8.05416 68.8739C7.92662 69.0094 7.80705 69.1529 7.6795 69.2884C7.79908 69.1449 7.91865 69.0094 8.05416 68.8739Z" fill="#534F59"/>
<path d="M7.49634 67.24C7.60794 67.1284 7.71157 67.0328 7.82317 66.9291C7.71157 67.0328 7.60794 67.1364 7.49634 67.24Z" fill="#534F59"/>
<path d="M6.62762 70.6607C6.84285 70.3338 7.07403 70.0229 7.31317 69.728C7.082 70.0309 6.85082 70.3338 6.62762 70.6607Z" fill="#534F59"/>
<path d="M6.34119 68.4835C6.26914 68.5635 6.2051 68.6436 6.13306 68.7316C6.2051 68.6436 6.27714 68.5635 6.34119 68.4835Z" fill="#534F59"/>
<path d="M4.00519 72.0391C6.67562 52.3568 7.39306 31.8853 6.14154 11.1746C5.85457 4.41456 6.94665 0.468528 9.22649 0.0539957C12.4629 -0.535916 15.2529 6.37561 16.624 10.5608C21.3511 26.329 24.5715 46.0511 26.7637 72.6131C26.2774 71.6326 25.6875 70.7158 24.986 69.823V69.815C22.8018 44.8235 19.6691 26.0898 15.1493 11.0232C12.5904 3.20285 10.3266 1.42514 9.50549 1.5766C8.7482 1.71212 7.38508 3.88045 7.69597 11.0949C8.88372 30.7374 8.30977 50.1805 5.97414 68.9381C4.81828 70.5883 4.71465 70.7557 4.00519 72.0391Z" fill="#534F59"/>
<path d="M4.00515 72.0396C4.7146 70.7641 4.81823 70.5887 5.97409 68.9465C6.02989 68.8748 6.0857 68.811 6.13353 68.7393C6.20528 68.6516 6.26904 68.5719 6.34079 68.4922C6.70747 68.0537 7.0901 67.6392 7.49664 67.2565C7.60824 67.1449 7.71187 67.0493 7.82347 66.9456C7.96696 66.8101 8.11842 66.6746 8.26987 66.547C8.42133 66.4115 8.58076 66.2919 8.74019 66.1644C9.02716 65.9332 9.3221 65.7259 9.62502 65.5187C9.81633 65.3832 10.0236 65.2636 10.2229 65.136C11.6657 64.2671 13.2042 63.8446 14.7746 63.8446C17.4051 63.8446 20.1394 65.0404 22.6902 67.3761C22.9613 67.6232 23.2163 67.8704 23.4635 68.1175C23.583 68.2371 23.6867 68.3407 23.8062 68.4603C23.8142 68.4762 23.8301 68.4922 23.8381 68.5001C23.862 68.524 23.8859 68.5559 23.9178 68.5798C23.9417 68.6117 23.9736 68.6436 24.0055 68.6755C24.1649 68.8509 24.3244 69.0263 24.4678 69.2016C24.4918 69.2256 24.5077 69.2495 24.5316 69.2734C24.6831 69.4488 24.8345 69.6401 24.986 69.8234V69.8314C25.6875 70.7242 26.2774 71.633 26.7636 72.6215C26.7716 72.6694 26.7716 72.7252 26.7796 72.765L26.8593 73.6499L25.536 73.5781L25.3208 73.1796C25.3049 73.1556 25.2969 73.1317 25.2809 73.1078C25.1933 72.9324 25.0976 72.7491 24.994 72.5817C24.978 72.5657 24.9701 72.5418 24.9541 72.5259C24.8425 72.3266 24.7309 72.1353 24.5954 71.9439C24.3403 71.5453 24.0533 71.1547 23.7504 70.7641C23.6229 70.6047 23.5033 70.4452 23.3598 70.2938C23.2163 70.1184 23.0569 69.935 22.8975 69.7676C22.7699 69.6321 22.6344 69.4807 22.4909 69.3451C22.2199 69.0661 21.9409 68.7871 21.638 68.5161C21.359 68.2689 21.0481 67.9979 20.7053 67.7269C20.4741 67.5515 20.235 67.3681 19.972 67.1927C19.8444 67.1051 19.7169 67.0253 19.5734 66.9377C19.3103 66.7702 19.0234 66.6028 18.7284 66.4514C16.5841 65.3194 13.8499 64.7534 11.0041 66.4673C10.5417 66.7463 10.0874 67.0572 9.66488 67.392C9.52936 67.5036 9.37791 67.6153 9.24239 67.7428H9.23442C9.09891 67.8624 8.96339 67.974 8.82787 68.1095C8.8199 68.1015 8.81991 68.1095 8.81991 68.1095C8.68439 68.2371 8.55685 68.3566 8.42133 68.4922C8.28582 68.6197 8.15827 68.7552 8.03073 68.8907C7.89521 69.0263 7.77564 69.1618 7.65607 69.3053C7.52055 69.4408 7.40896 69.5923 7.28939 69.7357C7.05025 70.0307 6.81907 70.3416 6.60384 70.6684C6.18933 71.2743 5.79076 71.92 5.42407 72.6295L5.20086 73.0679L3.8537 73.0042L3.9653 72.1671C3.99718 72.1193 3.99717 72.0715 4.00515 72.0396Z" fill="#534F59"/>
<path d="M0.87224 93.4667C-0.195934 90.1027 0.154805 87.0574 0.680921 83.7093C0.999778 81.7084 1.39038 79.7792 1.85272 77.9537C2.34695 75.9767 2.98467 74.183 3.72602 72.6126C3.82168 72.4213 3.90936 72.222 4.01299 72.0306C4.00502 72.0705 4.00502 72.1183 3.99704 72.1582L3.88544 72.9952L5.23262 73.059C5.19276 73.1307 5.16088 73.2025 5.12102 73.2822C4.41953 74.757 3.82167 76.4629 3.35136 78.3363C2.90496 80.1061 2.52232 81.9954 2.21144 83.9484C1.71721 87.0973 1.38242 89.9512 2.34696 92.9884C3.39122 96.2808 5.53554 98.3375 9.08283 99.4615C9.77635 99.6847 10.4938 99.9319 11.2032 100.187C13.6505 101.048 16.1774 101.933 18.6725 101.749C21.1117 101.566 23.28 100.035 25.3685 98.5527C25.775 98.2658 26.1895 97.9708 26.5881 97.6918C27.3454 97.1816 28.1266 96.6475 28.7245 95.9858C29.7926 94.798 30.3985 93.0442 30.4304 91.0274C30.4622 88.58 29.8245 86.0689 29.1071 83.4941C28.3498 80.7597 27.3295 77.866 25.8946 74.3983C25.7192 73.9837 25.5279 73.5692 25.3127 73.1706L25.5279 73.5692L26.8512 73.6409L26.7715 72.7561C26.7635 72.7082 26.7635 72.6524 26.7555 72.6126C26.9628 73.0112 27.1541 73.4098 27.3215 73.8163C28.7803 77.3478 29.8165 80.2894 30.5978 83.0795C31.3391 85.766 32.0167 88.3967 31.9768 91.0513C31.937 93.4428 31.1956 95.5633 29.8803 97.0301C29.1629 97.8273 28.294 98.4092 27.465 98.9832C27.0584 99.2543 26.6599 99.5412 26.2613 99.8282C23.9974 101.431 21.6618 103.089 18.8 103.304C18.521 103.32 18.2579 103.336 17.9869 103.336C15.46 103.336 13.0367 102.475 10.6931 101.646C9.99157 101.399 9.29806 101.16 8.61252 100.944C4.60288 99.6688 2.06796 97.2215 0.87224 93.4667Z" fill="#534F59"/>
</g>
</svg>
