<svg width="49" height="97" viewBox="0 0 49 97" fill="none" xmlns="http://www.w3.org/2000/svg">
<g opacity="0.5">
<path d="M27.8094 17.3701C31.3935 30.4969 30.8586 40.8904 26.151 49.0729C21.6217 41.6129 17.146 31.8809 12.474 19.3809C11.1634 3.33801 13.9184 1.3098 14.8011 1.07477C16.7626 0.526369 21.2027 4.53056 27.8094 17.3701Z" fill="white"/>
<path d="M24.9502 64.3581C18.2085 63.2406 12.6833 63.7952 8.07056 66.0633C7.71573 66.2289 7.36935 66.4358 7.03987 66.6428C6.89625 66.7421 6.75262 66.8332 6.609 66.9325C6.47383 67.0318 6.33866 67.1229 6.20348 67.2305C6.18659 67.2471 6.16969 67.2553 6.1528 67.2719C7.03987 57.1316 6.21194 47.4384 3.67745 38.4404C0.103827 25.1629 -0.107319 16.4961 1.61613 10.5278C2.59613 7.00973 2.97624 6.14056 3.38176 6.04951C3.94779 5.92534 5.22506 6.00556 6.12058 7.032C6.91472 7.95911 7.69167 8.98811 8.12253 10.2381C9.01805 12.8207 10.2384 14.6412 11.1255 17.0417L12.1264 20.0447L13.6279 23.0476C17.6155 33.1465 20.1094 41.735 24.0378 48.0095L24.7306 49.1105L25.4402 48.0178C29.9347 40.9983 30.5518 32.6596 28.6425 22.031L28.142 20.5764L27.141 16.2128C26.3807 16.2128 27.1721 15.5855 27.0961 15.3123C26.7159 13.9879 27.0792 11.8522 27.0961 10.5278C27.1214 8.69839 26.8173 9.90694 27.4509 9.61722C27.0961 9.03395 28.9524 6.36851 32.1458 9.03395L34.6483 11.0359C40.7319 18.0418 44.3306 23.1597 45.1586 36.6028C44.187 48.2744 44.1279 58.6051 44.9642 68.0914C44.8291 67.9424 44.6939 67.7934 44.5503 67.6527C44.2715 67.3629 43.9758 67.0815 43.6717 66.8166C43.5196 66.6842 43.3591 66.56 43.207 66.4276C42.8099 66.113 42.4129 65.815 42.0073 65.5418C40.8246 64.7223 39.6165 64.0767 38.4084 63.6131C38.0029 63.4558 37.5973 63.3151 37.1834 63.1992C35.9499 62.8433 34.7165 62.6694 33.4661 62.6694C32.9677 62.6694 32.4692 62.6943 31.9708 62.7522C31.2273 62.8433 30.4754 62.984 29.7235 63.1909C28.9716 63.3979 28.2113 63.6711 27.4509 64.0104C26.6399 64.3747 25.7697 64.4988 24.9502 64.3581Z" fill="white"/>
<path d="M45.0229 67.8648C44.7519 67.5858 44.4809 67.3147 44.1939 67.0596C44.4809 67.3147 44.7599 67.5858 45.0229 67.8648Z" fill="#534F59"/>
<path d="M44.1303 69.1718C44.6325 69.7298 45.0709 70.3357 45.4536 70.9655L45.2623 70.6705C44.9195 70.1364 44.5369 69.6342 44.1303 69.1718Z" fill="#534F59"/>
<path d="M39.228 63.9738C38.8374 63.8224 38.4627 63.6869 38.0721 63.5753C38.4627 63.6869 38.8454 63.8224 39.228 63.9738Z" fill="#534F59"/>
<path d="M33.1618 63.1451C32.4603 63.2328 31.7508 63.3683 31.0414 63.5676C31.7508 63.3683 32.4523 63.2328 33.1618 63.1451Z" fill="#534F59"/>
<path d="M9.62194 66.8838C9.48643 66.9715 9.35091 67.0592 9.21539 67.1628C9.35091 67.0671 9.48643 66.9795 9.62194 66.8838Z" fill="#534F59"/>
<path d="M9.39881 69.0127C9.27924 69.1243 9.1756 69.2279 9.05603 69.3395C9.16763 69.22 9.28721 69.1163 9.39881 69.0127Z" fill="#534F59"/>
<path d="M9.22308 67.1632C9.09554 67.2589 8.968 67.3466 8.84045 67.4502C8.968 67.3466 9.08757 67.2589 9.22308 67.1632Z" fill="#534F59"/>
<path d="M8.20276 70.3437C8.45785 69.985 8.74482 69.6502 9.06368 69.3393C8.84845 69.5625 8.64118 69.7937 8.43393 70.0488L8.20276 70.3437Z" fill="#534F59"/>
<path d="M2.01266 89.503C0.0995159 85.3497 0.793028 79.2832 4.18886 70.4345C4.55555 69.4859 5.04979 68.593 5.65562 67.8038C5.64765 67.8836 5.63968 67.9553 5.6317 68.035L5.54402 68.896H6.77162C6.30927 69.5337 5.91868 70.2352 5.6317 70.9925C2.43516 79.3071 1.71772 85.1504 3.40767 88.8573C4.34032 90.8741 5.97448 92.2852 8.42171 93.17C12.1284 94.4933 15.0061 95.3463 18.2425 94.1824C19.6375 93.6802 20.9608 92.8352 22.1804 91.6713C22.4674 91.3923 22.7623 91.0894 23.0493 90.7705C23.1051 90.7067 23.1768 90.6031 23.2486 90.4835C23.6631 89.8697 23.9501 89.495 24.3646 89.3754C24.4603 89.3515 24.5479 89.3436 24.6436 89.3436C25.2813 89.3436 25.9987 89.8936 27.043 90.7546C27.2821 90.9459 27.4814 91.1213 27.609 91.201C29.2909 92.317 31.507 93.6802 33.7709 94.3578C35.7956 94.9876 37.5414 95.0195 39.2632 94.4694C40.2756 94.1426 41.2162 93.7679 42.0532 93.3534C43.783 92.4924 45.0425 91.472 45.7839 90.3321C46.4694 89.2878 46.9397 87.9485 47.147 86.3701C47.6731 82.456 46.7803 78.3664 45.9194 74.8349C45.7201 74.0378 45.5128 73.2406 45.2817 72.4514C45.0027 71.423 44.5881 70.4505 44.062 69.5576L45.8078 69.5895L45.7998 69.5257C46.2064 70.3149 46.5332 71.1599 46.7723 72.0368C46.9955 72.842 47.2108 73.6551 47.418 74.4682C48.3268 78.1352 49.2435 82.3922 48.6775 86.5853C48.4384 88.3949 47.8963 89.9415 47.0752 91.193C46.1745 92.5642 44.7157 93.7599 42.7388 94.7484C41.83 95.1948 40.8256 95.6014 39.7335 95.9522C38.7849 96.2631 37.8044 96.4066 36.8 96.4066C35.684 96.4066 34.5282 96.2232 33.3245 95.8485C30.8773 95.1151 28.5257 93.6722 26.756 92.5004C26.6046 92.3968 26.3495 92.1975 26.0625 91.9663C25.7676 91.7192 25.1617 91.2249 24.7951 91.0017C24.6994 91.1292 24.5958 91.2807 24.532 91.3764C24.3965 91.5597 24.2849 91.7351 24.2052 91.8148C23.8943 92.1656 23.5675 92.4924 23.2566 92.8033C21.8695 94.1107 20.3709 95.0753 18.7686 95.6413C14.767 97.0842 11.124 95.7768 7.91154 94.6289C5.09762 93.6244 3.10475 91.8945 2.01266 89.503Z" fill="#534F59"/>
<path d="M9.88037 66.2652C13.9219 64.2404 18.8243 63.7461 24.8507 64.7665C25.9269 64.9499 27.0509 64.7984 28.1031 64.3281C32.7106 62.2554 37.055 62.9489 41.3676 66.4406C41.8459 66.8392 42.3002 67.2617 42.7147 67.724C43.1213 68.1864 43.5039 68.6886 43.8467 69.2227L44.038 69.5177L44.0699 69.5735C44.596 70.4743 45.0105 71.4389 45.2895 72.4672C45.5127 73.2564 45.72 74.0536 45.9272 74.8508C46.7961 78.3823 47.681 82.4718 47.1549 86.386C46.9476 87.9644 46.4852 89.3036 45.7917 90.3479C45.0504 91.4879 43.7829 92.5083 42.0611 93.3692C41.2241 93.7758 40.2914 94.1584 39.2711 94.4853C37.5493 95.0353 35.8115 95.0034 33.7788 94.3737C31.5149 93.6961 29.2988 92.3329 27.6168 91.2169C27.4893 91.1292 27.29 90.9618 27.0509 90.7704C26.0066 89.9095 25.2892 89.3594 24.6515 89.3594C24.5558 89.3594 24.4681 89.3674 24.3725 89.3913C23.9659 89.5109 23.6789 89.8856 23.2565 90.4994C23.1767 90.619 23.113 90.7226 23.0572 90.7864C22.7702 91.1052 22.4753 91.4082 22.1883 91.6872C20.9686 92.8511 19.6454 93.6961 18.2504 94.1983C15.014 95.3622 12.1363 94.5092 8.42957 93.1859C5.98234 92.301 4.34021 90.898 3.41553 88.8732C1.71761 85.1663 2.44302 79.323 5.63957 71.0084C5.92654 70.2511 6.30916 69.5416 6.77948 68.9118H6.78746L7.01862 68.6169C7.21791 68.3618 7.42517 68.1306 7.64837 67.9074C7.76795 67.7958 7.87157 67.6921 7.99114 67.5805C8.55711 67.0385 9.19482 66.608 9.88037 66.2652Z" fill="white"/>
<path opacity="0.15" fill-rule="evenodd" clip-rule="evenodd" d="M12.6868 18.3872C11.515 3.69523 13.9781 1.83781 14.7673 1.62257C16.521 1.12832 20.4908 4.79534 26.3976 16.5457C29.6022 28.5672 29.1239 38.0855 24.9149 45.5789C20.8655 38.7392 16.8638 29.8267 12.6868 18.3872ZM4.42037 5.5686C2.95363 5.89544 1.86951 7.52966 1.00062 10.6945C-0.729185 16.8008 0.052018 25.4183 3.54351 38.6834C6.04654 47.7393 6.756 57.5366 5.64797 67.8122C5.66719 67.7876 5.6865 67.7631 5.7059 67.7386C5.68907 67.7604 5.67232 67.7822 5.65566 67.8042C5.65168 67.844 5.6477 67.8819 5.64371 67.9198C5.63972 67.9576 5.63574 67.9955 5.63175 68.0354L5.54406 68.8963H6.77166H6.77963C7.03472 68.5456 7.32169 68.2028 7.64055 67.8919C7.75215 67.7723 7.86375 67.6687 7.98333 67.565C8.55727 67.0389 9.19498 66.6084 9.88052 66.2656C13.922 64.2408 18.8165 63.7545 24.8509 64.7669C25.927 64.9583 27.051 64.7988 28.1032 64.3285C32.7107 62.2558 37.0552 62.9494 41.3677 66.441C41.846 66.8316 42.3004 67.2621 42.7149 67.7245C43.2171 68.2825 43.6555 68.8804 44.0382 69.5181L44.07 69.5739L45.8158 69.6058L45.8078 69.542C45.8046 69.5354 45.8013 69.5288 45.798 69.5222L45.7125 68.7369C44.7479 59.115 44.7479 48.6002 45.7204 36.5868V36.531V36.4752C44.9153 22.9869 40.8499 13.8513 33.6277 9.30736C30.8696 6.95569 28.9086 6.15851 27.4499 6.82017C26.2223 7.37819 25.6085 8.86094 25.5766 11.3721V11.675C20.9053 3.21693 17.1269 -0.657356 14.3369 0.123878C11.778 0.841338 10.6222 5.13812 10.8374 13.2215C10.5903 12.52 10.3432 11.8025 10.104 11.0851C9.6337 9.70595 8.94816 8.47033 8.0713 7.43399C6.80384 5.94327 5.57623 5.3135 4.42037 5.5686ZM43.9898 66.83C43.2015 57.697 43.2655 47.7513 44.174 36.515C43.3928 23.5609 39.5505 14.8398 32.7668 10.5988L32.6712 10.527C29.658 7.96013 28.4702 8.07174 28.0956 8.23914C27.4897 8.51816 27.1549 9.64218 27.131 11.4039C27.1151 12.6715 27.2825 13.9629 27.6412 15.2463C27.688 15.401 27.7266 15.5501 27.7651 15.6985C27.792 15.8026 27.8189 15.9065 27.8484 16.0116L29.8094 23.3217L29.2355 22.1818C31.0291 32.4175 29.8174 40.748 25.5766 47.5081L24.907 48.5604L24.2533 47.5001C20.5546 41.4575 16.8957 33.7329 13.1332 24.0153L13.1491 24.1986L11.1881 18.8336C10.3431 16.5218 9.48224 14.0904 8.64524 11.6032C8.2387 10.3995 7.64083 9.33128 6.89151 8.44641C6.04654 7.45791 5.29723 6.97163 4.76314 7.09121C4.38051 7.1789 3.41597 7.73692 2.49129 11.1249C0.85714 16.8726 1.66225 25.4901 5.04215 38.2848C7.43342 46.9575 8.21467 56.2917 7.37794 66.0485C7.38045 66.0465 7.38296 66.0444 7.38547 66.0424C7.39344 66.0345 7.40142 66.0285 7.40939 66.0225C7.41736 66.0165 7.42533 66.0105 7.43329 66.0026C7.56084 65.8989 7.6804 65.8112 7.81592 65.7156C7.90559 65.6379 8.00871 65.5691 8.10847 65.5026C8.14174 65.4804 8.17463 65.4585 8.20652 65.4366C8.52538 65.2373 8.85221 65.038 9.17904 64.8785C13.5315 62.6943 18.7368 62.1602 25.106 63.2364C25.8792 63.3719 26.7003 63.2523 27.4735 62.9095C28.1909 62.5827 28.9084 62.3196 29.6178 62.1203C30.3273 61.921 31.0367 61.7775 31.7382 61.6978C32.2085 61.642 32.6709 61.6181 33.1492 61.6181C34.3289 61.6181 35.4928 61.7855 36.6566 62.1283C37.0472 62.2399 37.4219 62.3674 37.8125 62.5269C38.9604 62.9733 40.0923 63.5951 41.2083 64.3843C41.5909 64.6474 41.9656 64.9343 42.3402 65.2373C42.412 65.3011 42.4857 65.3628 42.5595 65.4246C42.6332 65.4864 42.7069 65.5482 42.7787 65.612C43.0656 65.8671 43.3367 66.1381 43.6077 66.4171C43.7402 66.5496 43.8651 66.6897 43.9898 66.83Z" fill="#534F59"/>
<path d="M8.2064 65.4365C8.52526 65.2372 8.85209 65.0379 9.17892 64.8784C13.5313 62.6942 18.7367 62.1601 25.1059 63.2363C25.8791 63.3718 26.7002 63.2522 27.4734 62.9094C28.1908 62.5826 28.9082 62.3195 29.6177 62.1202C30.3272 61.9209 31.0366 61.7774 31.7381 61.6977C32.2084 61.6419 32.6708 61.618 33.149 61.618C34.3288 61.618 35.4927 61.7854 36.6565 62.1282C37.0471 62.2398 37.4217 62.3673 37.8124 62.5268C38.9602 62.9732 40.0922 63.595 41.2082 64.3842C41.5908 64.6473 41.9655 64.9342 42.3401 65.2372C42.4836 65.3647 42.6351 65.4843 42.7786 65.6118C43.0655 65.8669 43.3366 66.138 43.6076 66.417C43.7431 66.5525 43.8706 66.696 43.9982 66.8395C44.7076 67.6606 45.3214 68.5614 45.8077 69.5419L45.8157 69.6057L44.0699 69.5738L44.038 69.518C43.6554 68.8803 43.217 68.2824 42.7148 67.7244C42.3003 67.262 41.8459 66.8315 41.3676 66.4409C37.0551 62.9493 32.7106 62.2557 28.1031 64.3284C27.0509 64.7987 25.9269 64.9582 24.8508 64.7668C18.8164 63.7544 13.9219 64.2407 9.8804 66.2655C9.19486 66.6083 8.55715 67.0388 7.98321 67.5649C7.86363 67.6686 7.75203 67.7722 7.64043 67.8918C7.32157 68.2027 7.0346 68.5455 6.77951 68.8962H6.77154H5.54395L5.63163 68.0353C5.6396 67.9555 5.64757 67.8838 5.65555 67.8041C6.15775 67.1424 6.73966 66.5605 7.38535 66.0423C7.40129 66.0264 7.41723 66.0184 7.43317 66.0025C7.56072 65.8988 7.68029 65.8111 7.8158 65.7155C7.93537 65.6118 8.07886 65.5242 8.2064 65.4365Z" fill="#534F59"/>
<path d="M14.7672 1.62257C13.9781 1.83781 11.5149 3.69523 12.6867 18.3872C16.8637 29.8267 20.8654 38.7392 24.9149 45.5789C29.1238 38.0855 29.6021 28.5672 26.3976 16.5457C20.4907 4.79534 16.521 1.12832 14.7672 1.62257ZM1.00056 10.6945C1.86944 7.52966 2.95357 5.89544 4.42031 5.5686C5.57617 5.3135 6.80378 5.94327 8.07124 7.434C8.9481 8.47033 9.63364 9.70595 10.104 11.0851C10.3431 11.8025 10.5902 12.52 10.8373 13.2215C10.6221 5.13812 11.778 0.841338 14.3368 0.123878C17.1268 -0.657356 20.9053 3.21693 25.5765 11.675C25.5765 11.5713 25.5765 11.4757 25.5765 11.3721C25.6084 8.86094 26.2222 7.37819 27.4498 6.82017C28.9086 6.15851 30.8696 6.95569 33.6277 9.30736C40.8498 13.8513 44.9152 22.9869 45.7204 36.4752V36.531V36.5868C44.7478 48.6002 44.7478 59.115 45.7124 68.737L45.8001 69.5421C45.3138 68.5616 44.7 67.6608 43.9906 66.8397C43.2014 57.704 43.2652 47.7552 44.1739 36.515C43.3927 23.5609 39.5505 14.8398 32.7668 10.5988L32.6711 10.527C29.6579 7.96013 28.4702 8.07174 28.0955 8.23914C27.4897 8.51816 27.1549 9.64218 27.1309 11.4039C27.115 12.6715 27.2824 13.9629 27.6411 15.2463C27.7208 15.5094 27.7766 15.7565 27.8484 16.0116L29.8094 23.3217L29.2354 22.1818C31.029 32.4175 29.8173 40.748 25.5765 47.5081L24.9069 48.5604L24.2533 47.5001C20.5545 41.4575 16.8956 33.7329 13.1331 24.0153L13.149 24.1986L11.1881 18.8336C10.3431 16.5218 9.48218 14.0904 8.64518 11.6032C8.23864 10.3995 7.64077 9.33128 6.89145 8.44641C6.04648 7.45791 5.29717 6.97163 4.76308 7.09121C4.38045 7.1789 3.41591 7.73692 2.49123 11.1249C0.857079 16.8726 1.66219 25.4901 5.04208 38.2848C7.43352 46.9581 8.21471 56.293 7.37771 66.0505C6.73203 66.5686 6.15808 67.1585 5.64791 67.8122C6.75594 57.5366 6.04648 47.7393 3.54345 38.6834C0.051957 25.4183 -0.729246 16.8008 1.00056 10.6945Z" fill="#534F59"/>
</g>
</svg>
