<svg width="45" height="95" viewBox="0 0 45 95" fill="none" xmlns="http://www.w3.org/2000/svg">
<g opacity="0.5">
<path d="M11.6481 6.70314C12.5409 2.32663 13.633 1.66497 14.0794 1.59323C14.6055 1.49757 16.1041 1.88021 18.9738 7.07781C18.8383 7.39668 18.7347 7.74744 18.6629 8.16197C18.2006 10.8245 19.1014 13.3755 19.9703 15.8388L20.2253 16.5483C23.4618 25.8434 24.3386 35.8161 22.7762 45.5177C20.9986 42.7993 19.5876 39.6266 18.5673 36.0472C17.5469 32.452 16.8933 28.5219 16.5266 23.683C16.423 22.3996 16.3592 21.0842 16.3193 19.7768C16.2954 18.876 16.2396 17.9752 16.1918 17.0744C16.0961 15.4243 16.0085 13.7263 16.0643 12.0681L16.0722 11.8848C16.1201 10.8166 16.1679 9.60486 15.5222 8.55259C15.1236 7.90687 14.4859 7.38074 13.7127 7.07781C13.0909 6.83068 12.4532 6.70314 11.8474 6.70314C11.7836 6.70314 11.7198 6.70314 11.6481 6.70314Z" fill="white"/>
<path d="M43.0714 80.2504C43.478 85.6712 40.9431 90.0397 36.3037 91.9529C31.76 93.8263 26.6582 92.6784 23.5972 89.107C22.6327 87.983 21.2456 87.3931 19.8267 87.3931C18.8542 87.3931 17.8657 87.6721 17.0048 88.246C13.3937 90.6216 9.54354 89.8484 5.21505 85.8784C2.13807 83.0564 0.902499 78.7517 1.98662 74.6462C2.44896 72.8924 3.03087 71.1625 3.71642 69.5204C4.35413 67.9898 5.34259 66.6665 6.5702 65.6859C7.31154 65.096 8.06883 64.5858 8.86597 64.1474C8.88191 64.1394 8.89785 64.1314 8.9138 64.1235C11.2973 62.848 13.9996 62.1624 16.686 62.2023C18.2802 62.2182 19.8426 62.4733 21.5007 62.7364C21.5565 62.7443 21.6043 62.7523 21.6522 62.7603C21.979 62.832 22.3058 62.9118 22.6327 62.9994C23.7726 63.3024 24.9284 63.4219 26.1002 63.3821C26.4191 63.3661 26.73 63.3582 27.0409 63.3582C27.1525 63.3582 27.2481 63.3661 27.3597 63.3741C29.0258 63.4618 30.6121 63.5415 32.1346 63.8923C32.1426 63.8923 32.1426 63.8923 32.1506 63.9003C34.4782 64.5539 36.5986 65.7975 38.3205 67.4716C39.7633 68.9623 40.951 70.8357 41.8279 73.004L41.8518 72.9961C42.0272 73.4903 42.1786 74.0005 42.2982 74.5266C42.6888 76.1848 42.928 77.9943 43.0714 80.2504Z" fill="white"/>
<path d="M40.7835 67.9019C40.4407 67.4794 40.09 67.0728 39.6994 66.6902C39.6994 66.6742 39.6834 66.6662 39.6754 66.6583C37.9695 64.8008 35.9368 63.4456 33.7128 62.7282C33.3381 62.6006 32.9635 62.505 32.5809 62.4173C32.5649 62.4173 32.549 62.4173 32.541 62.4093C31.5207 62.1303 30.4605 61.947 29.3843 61.8752C28.6589 61.8274 27.8937 61.8035 27.1045 61.8114C26.3312 61.7716 25.5421 61.7317 24.7688 61.652C23.8282 61.5563 22.8557 61.4049 21.931 61.2534C16.6061 60.0497 12.0066 60.5838 7.99693 62.8637C7.82155 62.9673 7.63821 63.063 7.47081 63.1746C7.04035 63.4217 6.61786 63.6928 6.21132 63.9877C6.60989 57.6741 5.82869 51.2967 5.07938 45.1265C4.85617 43.2771 4.64094 41.4356 4.44166 39.5941C3.60466 31.6303 3.22203 22.391 6.70555 14.2359C7.29544 12.8488 7.92518 11.669 8.63464 10.6167C9.04118 10.0108 9.43975 9.49267 9.85427 9.03031C9.96587 8.90276 10.0137 8.87087 10.1731 8.79116L10.3086 8.73535C10.6355 8.59983 10.8906 8.4962 11.0739 8.36865C11.6558 8.16936 12.4211 8.22516 13.1385 8.51215C13.6008 8.6955 13.9835 8.99843 14.1987 9.35716C14.6053 10.0029 14.5654 10.8798 14.5255 11.8204L14.5176 12.0038C14.4458 13.7416 14.5495 15.4795 14.6451 17.1615C14.6929 18.0544 14.7487 18.9313 14.7727 19.8241C14.8125 21.1554 14.8842 22.4946 14.9799 23.81C15.3705 28.7525 16.0321 32.7782 17.0844 36.4771C18.3518 40.9174 20.2012 44.7837 22.5926 47.9565L23.6449 49.3436L23.9717 47.6296C26.0044 37.091 25.2152 26.1696 21.6919 16.0455L21.4368 15.32C20.6317 13.0401 19.7947 10.6805 20.1932 8.42446C20.2969 7.85049 20.4563 7.46784 20.6954 7.22869C21.1339 6.82213 21.8991 6.87793 22.4093 7.10114C23.0948 7.41204 23.6608 8.00992 24.2348 8.63969C27.232 11.9878 29.8626 15.6788 32.0468 19.6009C34.5897 24.1528 36.2716 28.617 37.0688 32.8819C37.6587 36.0706 37.8101 39.3948 37.9536 42.6074C37.9855 43.2771 38.0174 43.9387 38.0572 44.6083C38.4399 52.3968 39.3645 60.2091 40.7835 67.9019Z" fill="white"/>
<path d="M33.2352 64.1874C35.1085 64.8013 36.8462 65.9253 38.321 67.4718C36.5991 65.7977 34.4787 64.5541 32.1511 63.9005C32.5177 63.9722 32.8844 64.0758 33.2352 64.1874Z" fill="#534F59"/>
<path d="M33.7208 62.7198C35.9448 63.4373 37.9775 64.7925 39.6834 66.6499C37.7384 64.649 35.2911 63.1742 32.5888 62.4089C32.9635 62.4966 33.3461 62.5923 33.7208 62.7198Z" fill="#534F59"/>
<path d="M32.5494 62.4013C30.8595 62.0027 29.1377 61.915 27.4477 61.8273C27.3361 61.8193 27.2245 61.8193 27.1129 61.8034C27.8941 61.7954 28.6594 61.8193 29.3927 61.8672C30.4689 61.9389 31.5291 62.1223 32.5494 62.4013Z" fill="#534F59"/>
<path d="M29.2889 63.4058C30.2614 63.4696 31.218 63.629 32.1347 63.8921C30.6122 63.5413 29.0258 63.4616 27.3598 63.3739C27.2482 63.3659 27.1526 63.358 27.041 63.358C27.8222 63.342 28.5715 63.358 29.2889 63.4058Z" fill="#534F59"/>
<path d="M24.6257 63.1831C25.4308 63.2708 26.2518 63.3186 27.049 63.3585C26.7381 63.3585 26.4272 63.3665 26.1083 63.3824C24.9365 63.4302 23.7807 63.3027 22.6408 62.9998C22.306 62.9121 21.9791 62.8324 21.6603 62.7606C22.6248 62.9201 23.6213 63.0795 24.6257 63.1831Z" fill="#534F59"/>
<path d="M27.1125 61.8041C26.7538 61.8121 26.4031 61.8201 26.0364 61.836C25.032 61.8759 24.0196 61.7643 23.0312 61.5092C22.6565 61.4055 22.2978 61.3258 21.9311 61.2461C22.8638 61.3896 23.8283 61.549 24.7689 61.6447C25.5501 61.7324 26.3393 61.7643 27.1125 61.8041Z" fill="#534F59"/>
<path d="M21.5008 62.7437C19.8427 62.4807 18.2803 62.2256 16.686 62.2096C13.9997 62.1698 11.2973 62.8554 8.91388 64.1308C12.5648 62.114 16.7658 61.6676 21.6522 62.7677C21.6044 62.7597 21.5566 62.7517 21.5008 62.7437Z" fill="#534F59"/>
<path d="M8.00537 62.8557C12.015 60.5837 16.6145 60.0417 21.9395 61.2454C21.8757 61.2294 21.8119 61.2215 21.7561 61.2135C20.114 60.9504 18.4241 60.6714 16.7102 60.6555C16.6464 60.6555 16.5747 60.6555 16.5109 60.6555C13.5455 60.6635 10.5961 61.4367 8.00537 62.8557Z" fill="#534F59"/>
<path d="M4.33051 67.6145L4.52182 65.6295C4.5298 65.5657 4.52979 65.5099 4.53776 65.4541C4.87257 65.0954 5.22331 64.7765 5.59797 64.4816C6.21177 64.0033 6.82557 63.5568 7.47126 63.1742C7.63866 63.0626 7.822 62.9669 7.99737 62.8633C10.5881 61.4363 13.5375 60.6631 16.4949 60.6631C16.5667 60.6631 16.6304 60.6631 16.6942 60.6631C18.416 60.679 20.098 60.958 21.7401 61.2211C21.8039 61.2291 21.8677 61.2371 21.9235 61.253C22.2902 61.3327 22.6489 61.4124 23.0235 61.5161C24.004 61.7712 25.0244 61.8828 26.0288 61.8429C26.3955 61.827 26.7462 61.819 27.1049 61.811C27.2165 61.827 27.3281 61.827 27.4397 61.8349C29.1297 61.9226 30.8515 62.0103 32.5414 62.4089C32.5494 62.4169 32.5654 62.4169 32.5813 62.4169C35.2836 63.1822 37.7309 64.6649 39.6759 66.6579C39.6839 66.6658 39.6998 66.6738 39.6998 66.6897C40.0984 67.1043 40.4571 67.5587 40.8078 68.021C40.7999 67.9812 40.7919 67.9493 40.7839 67.9094C41.8122 69.2088 42.6492 70.6836 43.2391 72.27C43.263 72.3656 43.279 72.4613 43.3029 72.557L41.8521 73.0034C41.1108 70.8829 39.8831 69.0016 38.3207 67.479C36.846 65.9404 35.1083 64.8084 33.235 64.1946C32.8763 64.075 32.5175 63.9793 32.1509 63.9076C32.1429 63.8996 32.1429 63.8996 32.1349 63.8996C31.2102 63.6366 30.2616 63.4771 29.2891 63.4133C28.5717 63.3655 27.8144 63.3496 27.0412 63.3655C26.244 63.3177 25.423 63.2699 24.6178 63.1901C23.6214 63.0865 22.617 62.9271 21.6525 62.7756C16.758 61.6755 12.565 62.1139 8.91409 64.1388C8.89814 64.1468 8.8822 64.1547 8.86626 64.1627C7.7662 64.7526 6.73789 65.4701 5.80523 66.2991L4.33051 67.6145Z" fill="#534F59"/>
<path d="M14.0793 1.59262C13.6329 1.66437 12.5408 2.32602 11.648 6.70253C11.7197 6.70253 11.7835 6.70253 11.8473 6.70253C12.4531 6.70253 13.0908 6.83008 13.7126 7.0772C14.4858 7.3881 15.1315 7.91424 15.5221 8.55198C16.1678 9.59628 16.12 10.816 16.0721 11.8842L16.0642 12.0675C16.0004 13.7257 16.0961 15.4237 16.1917 17.0738C16.2395 17.9746 16.2953 18.8754 16.3193 19.7762C16.3591 21.0836 16.4309 22.399 16.5265 23.6824C16.9012 28.5213 17.5469 32.4514 18.5672 36.0466C19.5876 39.626 20.9985 42.7987 22.7761 45.5171C24.3306 35.8155 23.4537 25.8428 20.2253 16.5477L19.9702 15.8382C19.1013 13.3669 18.2005 10.8239 18.6629 8.16137C18.7346 7.75481 18.8303 7.39607 18.9738 7.0772C16.104 1.87961 14.6054 1.49696 14.0793 1.59262ZM5.0875 45.1185C5.83681 51.2887 6.61004 57.6581 6.21944 63.9797C6.62598 63.6848 7.04847 63.4137 7.47893 63.1666C6.83324 63.5572 6.21944 63.9957 5.60564 64.474C5.23098 64.7689 4.88024 65.0958 4.54544 65.4465C5.18315 58.7662 4.35413 51.9105 3.55698 45.3019C3.33378 43.4444 3.11058 41.595 2.91129 39.7455C2.05037 31.5824 1.66775 22.096 5.28678 13.6141C5.91653 12.1393 6.5941 10.8718 7.35138 9.73978C7.79779 9.07015 8.24419 8.50415 8.70653 7.98599C8.95365 7.70697 9.16887 7.54754 9.51164 7.38013C9.5515 7.36419 9.62325 7.3323 9.7189 7.29244C9.79862 7.26055 9.88631 7.22069 9.98196 7.18083C10.7951 2.62098 12.0227 0.349023 13.8322 0.0620387C15.6656 -0.248861 17.6425 1.58465 20.034 5.79375C20.9666 5.21978 22.1623 5.30747 23.0392 5.69011C23.9958 6.11262 24.7212 6.86994 25.3828 7.61131C28.4598 11.0392 31.1462 14.8258 33.3941 18.8515C36.0087 23.5469 37.7545 28.1705 38.5835 32.6108C39.2053 35.9031 39.3488 39.2752 39.5002 42.5436C39.5321 43.2133 39.564 43.8669 39.5959 44.5286C40.0662 53.8317 41.3018 63.1586 43.2468 72.2704C42.6569 70.684 41.8199 69.2092 40.7916 67.9098C40.7916 67.9098 40.7916 67.9098 40.7916 67.9018C39.3647 60.2171 38.448 52.4047 38.0494 44.6163C38.0096 43.9467 37.9777 43.285 37.9458 42.6154C37.8103 39.4028 37.6508 36.0785 37.061 32.8898C36.2638 28.6249 34.5739 24.1607 32.039 19.6088C29.8548 15.6867 27.2242 11.9878 24.2269 8.64764C23.653 8.0099 23.087 7.41999 22.4015 7.10909C21.8913 6.88588 21.134 6.8221 20.6876 7.23664C20.4485 7.46782 20.289 7.85844 20.1854 8.4324C19.7868 10.6964 20.6238 13.056 21.429 15.328L21.684 16.0534C25.2154 26.1776 26.0046 37.0989 23.9639 47.6376L23.637 49.3515L22.5848 47.9644C20.1934 44.7917 18.344 40.9254 17.0765 36.4851C16.0243 32.7862 15.3547 28.7604 14.9721 23.8179C14.8685 22.5026 14.8047 21.1633 14.7648 19.832C14.7409 18.9392 14.6851 18.0623 14.6373 17.1695C14.5416 15.4874 14.446 13.7496 14.5097 12.0117L14.5177 11.8284C14.5576 10.8877 14.5974 10.0108 14.1909 9.3651C13.9757 9.00637 13.593 8.70344 13.1307 8.52009C12.4133 8.22514 11.648 8.16933 11.0661 8.3766C10.8827 8.50415 10.6277 8.60778 10.3008 8.74331L10.1653 8.79911C10.0138 8.87883 9.95805 8.91868 9.84645 9.03826C9.43193 9.50062 9.03336 10.0188 8.62681 10.6246C7.92533 11.6689 7.28761 12.8567 6.69773 14.2438C3.21421 22.4069 3.60481 31.6382 4.43384 39.602C4.6411 41.4276 4.85633 43.2691 5.0875 45.1185Z" fill="#534F59"/>
<path d="M0.495944 74.255C0.974231 72.4295 1.58006 70.6358 2.28952 68.9299C2.83158 67.6225 3.59684 66.4347 4.54544 65.4542C4.53747 65.518 4.53746 65.5738 4.52949 65.6296L4.33818 67.6145L5.8129 66.2912C6.74555 65.4622 7.77387 64.7447 8.87393 64.1548C8.07679 64.5932 7.3195 65.1034 6.57815 65.6933C5.35055 66.6659 4.35413 67.9892 3.72438 69.5278C3.04681 71.1699 2.46489 72.8919 1.99457 74.6536C0.910457 78.7591 2.14603 83.0638 5.22301 85.8858C9.55151 89.8558 13.4017 90.6291 17.0128 88.2535C17.8817 87.6795 18.8622 87.4005 19.8347 87.4005C21.2536 87.4005 22.6406 87.9904 23.6052 89.1144C26.6662 92.6937 31.7679 93.8337 36.3116 91.9603C40.951 90.0471 43.478 85.6706 43.0794 80.2578C42.9439 77.9938 42.6968 76.1842 42.3141 74.534C42.1866 74.0079 42.0431 73.4977 41.8677 73.0035L43.3185 72.557C43.2946 72.4614 43.2787 72.3657 43.2548 72.2701C43.4859 72.8919 43.6693 73.5296 43.8287 74.1913C44.2273 75.9291 44.4903 77.8184 44.6259 80.1621C45.0723 86.1808 42.1149 91.2588 36.9095 93.4032C35.2594 94.0808 33.5535 94.4077 31.8715 94.4077C28.2764 94.4077 24.8168 92.9169 22.4413 90.1268C21.3174 88.8195 19.3644 88.5723 17.8737 89.5529C13.6488 92.343 9.04133 91.498 4.18672 87.0258C0.671314 83.8052 -0.739629 78.9105 0.495944 74.255Z" fill="#534F59"/>
</g>
</svg>
