<svg width="42" height="83" viewBox="0 0 42 83" fill="none" xmlns="http://www.w3.org/2000/svg">
<g opacity="0.5">
<path d="M20.5018 29.2736C19.7924 25.9015 18.7561 22.6889 17.4249 19.7314C15.4798 15.4027 13.3196 11.9031 10.8086 9.03327C10.5455 8.73034 10.0433 8.19623 9.34979 7.55849L7.79535 6.3149C6.91052 2.26523 7.61998 1.69126 7.6997 1.63546C7.77941 1.58763 8.46496 1.26079 10.9999 3.31751C15.0733 6.80117 18.1662 11.8872 20.454 18.8784C20.9881 20.8953 21.3787 22.9042 21.6019 24.8413C22.0005 28.2293 21.9208 31.5774 21.3867 34.8379C21.3787 34.7821 21.3707 34.7343 21.3628 34.6944C21.1555 32.829 20.8685 31.0114 20.5018 29.2736Z" fill="white"/>
<path d="M37.6327 58.1626C37.4175 57.8756 37.1943 57.5966 36.9551 57.3176C36.9233 57.2857 36.8993 57.2538 36.8754 57.222C36.8435 57.198 36.8276 57.1741 36.8037 57.1422C36.7638 57.1024 36.724 57.0545 36.6761 57.0067C36.3971 56.6958 36.1102 56.3849 35.7993 56.082C35.7833 56.0581 35.7594 56.0342 35.7435 56.0262C34.6753 54.9659 33.4557 53.9615 32.0766 52.9969C31.9092 52.8694 31.7259 52.7498 31.5425 52.6302C31.423 52.5505 31.3034 52.4787 31.1838 52.399C30.9367 52.2396 30.6816 52.0722 30.4265 51.9207C29.5895 51.4105 28.7366 50.9641 27.8836 50.5735C27.8836 50.5735 27.8757 50.5735 27.8757 50.5655C25.3089 49.4016 22.6703 48.8117 20.1035 48.8117C19.6571 48.8117 19.2027 48.8356 18.7643 48.8675C18.5012 48.8914 18.2302 48.9233 17.9512 48.9632C17.6802 48.9951 17.4092 49.0429 17.1302 49.0907C16.2533 49.2502 15.3366 49.4814 14.388 49.7683C14.1409 49.8401 13.9017 49.9198 13.6546 50.0075C13.0807 50.1908 12.4908 50.4141 11.9089 50.6612C11.7255 50.7329 11.5422 50.8047 11.3588 50.8924C9.8602 51.546 8.36157 52.3432 6.99048 53.26C6.73539 53.4274 6.48828 53.6028 6.24914 53.7781C6.18536 53.826 6.11362 53.8738 6.05782 53.9137C5.81071 54.089 5.57953 54.2804 5.34836 54.4637C5.12516 54.6391 4.90993 54.8304 4.6947 55.0138C4.65485 55.0457 4.61499 55.0855 4.57513 55.1174C5.24473 51.3866 5.92231 45.631 5.97811 45.1049C6.25711 42.1712 6.40059 39.1978 6.40059 36.2163C6.40059 34.614 6.35276 33.0196 6.27305 31.4253C6.04188 27.0408 5.46793 22.4491 4.50339 17.3551C4.27222 16.1354 3.87364 14.8839 3.49102 13.6881C2.78156 11.4719 2.03224 9.18403 2.37501 6.98382C2.44676 6.50552 2.61416 5.89966 3.01273 5.72428C3.49899 5.50904 4.44759 5.81197 5.61142 6.55335L6.21725 7.03165L8.32171 8.7137C8.92754 9.27172 9.38988 9.76597 9.62903 10.037C12.0364 12.7873 14.117 16.1593 15.9902 20.3445C17.2736 23.2064 18.2701 26.3154 18.9716 29.5918C19.3303 31.2738 19.6093 33.0436 19.8086 34.8452C19.8484 35.2119 19.9202 35.6503 19.9919 36.1127C20.1832 37.2766 20.4463 38.8709 20.1832 39.684L21.6579 40.1544C21.6579 40.1544 21.6579 40.1544 21.6659 40.1544C23.2443 35.188 23.7385 29.9744 23.1247 24.6493C22.8855 22.6165 22.479 20.504 21.913 18.3835C21.7137 17.6022 21.4905 16.821 21.2355 16.0398C21.0681 15.5136 20.8608 14.9875 20.6615 14.4693C19.9122 12.4764 19.2506 10.7624 20.231 8.96879C20.3666 8.72964 20.4303 8.68978 20.4224 8.68978C20.5898 8.6579 21.642 8.68978 25.5958 13.2177L25.835 13.4888C27.5329 15.394 29.0236 17.5863 30.299 20.0017C32.4513 24.0913 34.0535 28.9859 35.1855 34.9727C36.6522 42.7133 37.2341 50.6133 37.6327 58.1626Z" fill="white"/>
<path d="M18.8999 50.43C22.4153 50.135 26.122 51.1156 29.6215 53.26C33.5275 55.6515 36.3015 58.3858 37.8639 61.3912C39.6097 64.7712 40.359 67.7128 40.3351 71.2284C39.6655 75.7484 37.7523 78.7537 34.8029 79.9335C31.4708 81.2489 26.9749 80.0451 22.774 76.705C21.7696 75.8998 20.55 75.5092 19.3542 75.5092C17.8078 75.5092 16.2773 76.1629 15.233 77.4144C14.6272 78.1479 14.2206 78.5624 14.1011 78.6421C12.7698 79.6386 11.2154 79.7661 9.46167 79.0168C2.21563 75.8839 0.342337 67.649 2.23954 61.152C2.47071 60.3788 2.84537 59.6055 3.63454 58.4416L3.80195 58.2264L3.93746 58.051C7.32532 53.826 14.3482 50.8047 18.8999 50.43Z" fill="white"/>
<path d="M36.8751 57.2302C36.8991 57.2622 36.9231 57.2943 36.9551 57.3263C36.9151 57.2943 36.8991 57.2622 36.8751 57.2302Z" fill="#534F59"/>
<path d="M36.6761 57.0229C36.7242 57.071 36.7642 57.119 36.8042 57.159C36.7642 57.103 36.7162 57.063 36.6761 57.0229Z" fill="#534F59"/>
<path d="M35.7515 56.0422C35.7677 56.0504 35.7921 56.0747 35.8083 56.0991C35.7921 56.0747 35.7677 56.0585 35.7515 56.0422Z" fill="#534F59"/>
<path d="M32.0842 53.0209C31.9088 52.8933 31.7255 52.7817 31.5501 52.6542C31.7335 52.7658 31.9088 52.8933 32.0842 53.0209Z" fill="#534F59"/>
<path d="M31.1913 52.4229C31.3109 52.5026 31.4305 52.5743 31.5501 52.654C31.4305 52.5743 31.3109 52.4946 31.1913 52.4229Z" fill="#534F59"/>
<path d="M27.8834 50.5901C27.8834 50.5981 27.8913 50.5981 27.8834 50.5901C27.8834 50.5981 27.8834 50.5981 27.8834 50.5901Z" fill="#534F59"/>
<path d="M21.921 18.3994C20.8847 15.2187 19.673 12.4047 18.278 9.94935C18.3816 9.39133 18.565 8.81736 18.8838 8.24339C19.0433 7.9325 19.3302 7.49405 19.8245 7.27881C21.1876 6.69687 23.1964 8.12382 26.7676 12.2133L26.9988 12.4844C28.7684 14.4853 30.3468 16.7732 31.678 19.3002C33.91 23.5253 35.5521 28.5634 36.708 34.7097C38.3661 43.4786 38.9081 52.4309 39.3067 60.8491C39.2828 60.7933 39.2509 60.7455 39.227 60.6977C38.7806 59.8367 38.2465 58.9917 37.6247 58.1786C37.2261 50.6293 36.6442 42.7293 35.1854 34.9967C34.0535 29.0099 32.4512 24.1152 30.299 20.0257C29.0235 17.6102 27.5249 15.418 25.8349 13.5127L25.5958 13.2417C21.6499 8.71373 20.5977 8.68184 20.4223 8.71373C20.4303 8.71373 20.3586 8.75359 20.231 8.99274C19.2585 10.7864 19.9122 12.5083 20.6615 14.4933C20.8608 15.0114 21.068 15.5376 21.2354 16.0637C21.4985 16.837 21.7217 17.6182 21.921 18.3994Z" fill="#534F59"/>
<path d="M19.7604 16.5267C19.6089 16.0244 19.4096 15.5302 19.2263 15.0359C18.6284 13.4735 17.9748 11.7516 18.2777 9.94995C19.6807 12.4132 20.8843 15.2193 21.9206 18.4L20.4459 18.8783C20.2466 18.0971 20.0234 17.3159 19.7604 16.5267Z" fill="#534F59"/>
<path d="M17.9588 48.9793C17.6877 49.0112 17.4167 49.059 17.1377 49.1069C17.4167 49.0511 17.6877 49.0032 17.9588 48.9793Z" fill="#534F59"/>
<path d="M14.4037 49.7852C14.1646 49.857 13.9175 49.9287 13.6703 50.0244C13.9095 49.9367 14.1486 49.849 14.4037 49.7852Z" fill="#534F59"/>
<path d="M11.9242 50.6697C11.7409 50.7494 11.5496 50.8211 11.3742 50.9009C11.5575 50.8211 11.7329 50.7414 11.9242 50.6697Z" fill="#534F59"/>
<path d="M7.79531 6.31482L9.34975 7.55841C10.0353 8.19616 10.5455 8.73027 10.8085 9.03319C13.3275 11.903 15.4878 15.4026 17.4248 19.7313C18.756 22.6888 19.7844 25.9015 20.5018 29.2735C20.8765 31.0114 21.1634 32.8289 21.3627 34.6864C21.3707 34.7342 21.3787 34.782 21.3866 34.8299C21.9207 31.5694 22.0004 28.2292 21.6019 24.8333C21.3787 22.8961 20.9881 20.8952 20.454 18.8704L21.9287 18.3921C22.5026 20.5126 22.9012 22.6171 23.1403 24.6579C23.7621 29.983 23.2679 35.1966 21.6816 40.163C21.6736 40.163 21.6736 40.163 21.6736 40.163L20.1989 39.6926C20.4619 38.8795 20.1989 37.2852 20.0076 36.1213C19.9279 35.6589 19.8641 35.2125 19.8242 34.8538C19.6249 33.0522 19.3459 31.2745 18.9872 29.6004C18.2937 26.324 17.2893 23.223 16.0059 20.3531C14.1326 16.1759 12.0521 12.7959 9.64469 10.0456C9.40554 9.77457 8.9432 9.28032 8.33737 8.72229L6.23291 7.04025L6.33654 6.9127L7.85111 6.56992C7.8272 6.48223 7.81126 6.39454 7.79531 6.31482Z" fill="#534F59"/>
<path d="M5.96212 4.96714C5.58746 2.4082 5.89038 0.941397 6.89478 0.319598C8.00281 -0.365975 9.62899 0.20002 11.9965 2.12122C14.4198 4.19388 16.5083 6.78471 18.286 9.94153C17.9831 11.7432 18.6447 13.4651 19.2346 15.0275C19.4179 15.5218 19.6172 16.016 19.7687 16.5182C20.0237 17.3074 20.247 18.0887 20.4542 18.8699C18.1744 11.8787 15.0735 6.79268 11.0001 3.30901C8.46516 1.26027 7.77961 1.57914 7.6999 1.62697C7.61221 1.68277 6.91072 2.25674 7.79555 6.3064L6.55998 5.32587L6.49621 5.27804C6.31286 5.16644 6.12952 5.05483 5.96212 4.96714Z" fill="#534F59"/>
<path d="M7.00624 53.2769C6.75912 53.4443 6.51201 53.6197 6.26489 53.7951C6.50404 53.6117 6.75115 53.4443 7.00624 53.2769Z" fill="#534F59"/>
<path d="M6.33645 6.92086C6.18499 6.21137 6.05745 5.55768 5.96179 4.96777C6.12919 5.06343 6.31253 5.16707 6.49588 5.28665L6.55965 5.33447L7.79522 6.31501C7.81117 6.40269 7.82711 6.48241 7.85102 6.57807L6.33645 6.92086Z" fill="#534F59"/>
<path d="M6.07335 53.9301C5.83421 54.1054 5.59506 54.2968 5.36389 54.4801C5.58709 54.2968 5.82624 54.1054 6.07335 53.9301Z" fill="#534F59"/>
<path d="M2.03197 14.1829C1.26671 11.7914 0.469561 9.32012 0.860162 6.76915C1.05148 5.52556 1.56165 4.70446 2.39068 4.32979C3.32334 3.91526 4.48717 4.12252 5.96189 4.96753C6.05754 5.55744 6.17711 6.20316 6.33654 6.92061L6.23292 7.04816L5.62709 6.56986C4.45528 5.82848 3.51465 5.52555 3.0284 5.74079C2.62982 5.91617 2.46242 6.52202 2.39068 7.00033C2.04791 9.20054 2.78925 11.4884 3.50668 13.7046C3.89728 14.9083 4.28788 16.1519 4.51905 17.3716C5.4836 22.4576 6.05754 27.0573 6.28872 31.4418C6.36843 33.0362 6.41626 34.6305 6.41626 36.2328C6.41626 39.2143 6.27277 42.1878 5.99377 45.1214C5.93797 45.6475 5.2604 51.4031 4.5908 55.1339L2.72548 57.079C2.65374 57.1747 2.58199 57.2624 2.51822 57.358C3.13999 55.6919 4.3118 46.3251 4.45528 44.9779C4.87777 40.5535 4.9814 36.0176 4.75023 31.5215C4.52703 27.2088 3.95308 22.6808 3.00448 17.6745C2.78925 16.5346 2.42257 15.3946 2.03197 14.1829Z" fill="#534F59"/>
<path d="M3.63426 58.4417L0.286255 62.7704C0.326112 62.5631 0.365969 62.3479 0.413798 62.1327L2.48637 57.4373C2.50232 57.4054 2.51029 57.3735 2.52623 57.3416C2.59 57.246 2.66175 57.1583 2.73349 57.0626L4.59881 55.1175C4.63866 55.0856 4.67852 55.0458 4.71838 55.0139C4.92564 54.8305 5.14086 54.6392 5.37204 54.4638C5.60321 54.2805 5.84235 54.0891 6.08149 53.9138C6.14527 53.8659 6.21701 53.8181 6.27281 53.7782C6.51992 53.6029 6.76704 53.4275 7.01415 53.2601C8.38524 52.3354 9.8759 51.5382 11.3825 50.8925C11.5579 50.8127 11.7492 50.741 11.9325 50.6613C12.5145 50.4221 13.1043 50.1989 13.6783 50.0076C13.9254 49.9119 14.1725 49.8402 14.4117 49.7684C15.3523 49.4735 16.277 49.2503 17.1538 49.0908C17.4328 49.043 17.7039 48.9952 17.9749 48.9633C18.2539 48.9234 18.5249 48.8915 18.788 48.8676C19.2264 48.8357 19.6808 48.8118 20.1272 48.8118C22.694 48.8118 25.3325 49.4097 27.8993 50.5656C27.8993 50.5736 27.8993 50.5736 27.9073 50.5736C28.7603 50.9642 29.6132 51.4106 30.4502 51.9208C30.7053 52.0723 30.9604 52.2397 31.2075 52.3991C31.335 52.4788 31.4466 52.5506 31.5662 52.6303C31.7416 52.7579 31.9249 52.8695 32.1003 52.997C33.4794 53.9536 34.699 54.966 35.7672 56.0263C35.7831 56.0422 35.807 56.0582 35.823 56.0821C36.1338 56.385 36.4208 56.6959 36.6998 57.0068C36.7397 57.0546 36.7875 57.0945 36.8274 57.1423C36.8513 57.1742 36.8672 57.1981 36.8991 57.2221C36.923 57.2539 36.9469 57.2858 36.9788 57.3177C37.218 57.5967 37.4412 57.8757 37.6564 58.1627C38.2782 58.9758 38.8122 59.8209 39.2586 60.6818C39.2826 60.7376 39.3144 60.7854 39.3384 60.8333C39.3384 60.8891 39.3463 60.9449 39.3463 60.9927L39.5137 64.5322L37.8876 61.3913C36.3252 58.3859 33.5511 55.6516 29.6451 53.2601C26.1456 51.1157 22.4389 50.1351 18.9235 50.4301C14.3718 50.8048 7.34895 53.8181 3.96109 58.0511L3.82558 58.2265L3.63426 58.4417Z" fill="#534F59"/>
<path d="M8.84769 80.4354C1.5299 77.2706 -0.885446 69.522 0.278385 62.7699L3.62639 58.4412C2.83722 59.6051 2.46256 60.3784 2.23139 61.1516C0.334185 67.6566 2.20747 75.8835 9.45352 79.0164C11.1993 79.7657 12.7617 79.6461 14.0929 78.6417C14.2125 78.554 14.619 78.1474 15.2248 77.414C16.2691 76.1625 17.7916 75.5088 19.3461 75.5088C20.5498 75.5088 21.7614 75.8994 22.7658 76.7046C26.9668 80.0447 31.4706 81.2485 34.7947 79.9331C37.7442 78.7533 39.6653 75.7559 40.3269 71.228C40.3508 67.7124 39.6095 64.7708 37.8558 61.3908L39.4819 64.5317L39.3145 60.9922C39.3145 60.9364 39.3066 60.8806 39.3066 60.8328C41.1161 64.3563 41.9053 67.5928 41.8734 71.2997L41.8654 71.4033C40.9248 77.8844 37.8079 80.3955 35.3527 81.376C34.2606 81.8065 33.0809 82.0217 31.8533 82.0217C28.6966 82.0217 25.1891 80.6187 21.8013 77.9163C20.1113 76.585 17.7518 76.8002 16.4206 78.4105C16.1336 78.7613 15.4241 79.5983 15.0176 79.8853C13.2479 81.2246 11.1116 81.4159 8.84769 80.4354Z" fill="#534F59"/>
<path d="M0.748449 60.722C1.08325 59.5741 1.68111 58.45 2.51014 57.3579C2.49419 57.3898 2.48622 57.4217 2.47028 57.4536L0.397705 62.1489C0.493362 61.6547 0.612935 61.1844 0.748449 60.722Z" fill="#534F59"/>
</g>
</svg>
