<svg width="38" height="107" viewBox="0 0 38 107" fill="none" xmlns="http://www.w3.org/2000/svg">
<g opacity="0.5">
<path d="M7.76747 67.4558C7.63196 67.6711 7.48848 67.8863 7.35297 68.1095L7.41673 67.4558C9.8241 42.6796 12.3112 17.0662 21.3747 5.86589C21.6458 5.53108 21.9009 5.19626 22.1559 4.86145C23.7821 2.69313 25.2249 1.55316 26.333 1.55316C26.3648 1.55316 26.3968 1.55316 26.4287 1.55316C27.1859 1.60099 27.9113 2.22279 28.5889 3.38667C29.5455 5.03683 29.96 6.98194 29.7846 8.99083C28.3816 24.9583 28.9715 43.7637 31.6021 66.3796C31.5862 66.3557 31.5782 66.3318 31.5543 66.3159C31.4507 66.1724 31.355 66.0209 31.2434 65.8854L29.1469 63.5257L28.9316 63.3265L28.2621 62.7206C24.388 59.4043 20.179 58.3919 16.4006 59.8826C16.1774 59.9783 15.9542 60.066 15.731 60.1776C15.723 60.1776 15.723 60.1776 15.715 60.1856C15.4918 60.2892 15.2766 60.3928 15.0454 60.5124C14.8302 60.632 14.607 60.7516 14.3838 60.8871C14.312 60.927 14.2483 60.9748 14.1765 61.0226C12.9489 61.7879 11.7771 62.7525 10.7249 63.8207C10.5655 63.9801 10.406 64.1475 10.2466 64.315C10.0473 64.5302 9.84006 64.7534 9.64875 64.9846C9.45743 65.2078 9.25813 65.431 9.08276 65.6622C8.89144 65.9013 8.69216 66.1485 8.51679 66.3956C8.38128 66.563 8.26172 66.7543 8.13418 66.9297C7.99866 67.0971 7.88704 67.2725 7.76747 67.4558Z" fill="white"/>
<path d="M35.5874 90.8606C35.715 93.0449 35.5954 95.1176 35.2127 97.0308C34.7026 99.6695 33.8895 101.367 32.5822 102.539C30.5734 104.349 27.6718 104.397 24.8738 104.437L6.39597 104.732C5.33577 104.755 2.83275 104.548 2.22692 102.316C1.68486 100.363 2.05155 98.0113 2.40229 95.7314C2.51389 95.0618 2.60954 94.4001 2.68925 93.7703C3.01608 91.036 3.43858 87.8075 4.06832 84.6267C4.18789 84.0368 4.29949 83.4469 4.41109 82.857C5.00097 79.7958 5.61478 76.647 6.55541 73.6815L6.89817 72.7009L6.97789 72.4618C7.00978 72.3502 7.04962 72.2465 7.08948 72.1349C8.55623 68.2049 12.5101 63.079 16.9741 61.3172C17.9785 60.9187 18.959 60.7592 19.8996 60.7592C20.0909 60.7592 20.2982 60.7672 20.4815 60.7831C20.8721 60.807 21.2468 60.8629 21.6214 60.9346C22.3548 61.0781 23.0643 61.3252 23.7099 61.6042C24.6904 62.0347 25.5673 62.5848 26.2927 63.1109C26.4202 63.1986 26.5318 63.2783 26.6434 63.374C26.8666 63.5493 27.0739 63.7247 27.2732 63.8842C27.5761 64.1393 27.871 64.4103 28.15 64.6893C28.3095 64.8328 28.4769 65.0002 28.6283 65.1596C28.6841 65.2234 28.7399 65.2792 28.7878 65.327C28.9312 65.4865 29.0827 65.6539 29.2262 65.8133C29.2979 65.901 29.3697 65.9807 29.4414 66.0764C29.5769 66.2358 29.7124 66.4032 29.832 66.5627C29.8958 66.6264 29.9436 66.6822 29.9755 66.738C30.111 66.9134 30.2386 67.0968 30.3661 67.2722C30.4379 67.3599 30.4937 67.4396 30.5415 67.5193C30.7009 67.7664 30.8683 68.0135 31.0197 68.2686C31.1871 68.5476 31.3625 68.8346 31.514 69.1296C31.6734 69.4166 31.8249 69.7115 31.9684 70.0144C31.9763 70.0224 31.9763 70.0224 31.9763 70.0304C32.8612 71.84 33.5308 73.8887 34.025 76.2085C34.9816 80.6807 35.2606 85.3522 35.5236 89.8642L35.5874 90.8606Z" fill="white"/>
<path d="M26.6274 63.3895L27.2571 63.8997C27.0578 63.7403 26.8506 63.5649 26.6274 63.3895Z" fill="#534F59"/>
<path d="M24.1721 61.8439L26.2766 63.1273C25.5512 62.6012 24.6743 62.0511 23.6938 61.6207C23.8533 61.6844 24.0207 61.7642 24.1721 61.8439Z" fill="#534F59"/>
<path d="M20.4651 60.7906C20.8557 60.8146 21.2304 60.8704 21.6051 60.9421C21.2304 60.8624 20.8557 60.8066 20.4651 60.7906Z" fill="#534F59"/>
<path d="M7.41631 67.4556L7.35255 68.1093C6.62715 69.2971 6.04523 70.4848 5.62274 71.6089C5.53505 71.84 5.45535 72.0712 5.38361 72.3024L5.86985 67.3041C8.30114 42.3046 10.8122 16.4521 20.1706 4.89307C20.4257 4.5742 20.6728 4.25533 20.912 3.93646C22.9686 1.19417 24.8021 -0.0892876 26.5159 0.0223172C27.8232 0.102035 28.9711 0.970957 29.9197 2.62111C31.0357 4.55028 31.5219 6.79833 31.3147 9.13406C29.8479 25.803 30.5814 45.589 33.5467 69.6239L33.5706 69.8312C33.3394 69.313 33.0923 68.8187 32.8213 68.3325L31.6017 66.3874C28.9711 43.7714 28.3812 24.974 29.7842 8.99854C29.9596 6.98965 29.553 5.04454 28.5885 3.39438C27.9189 2.22253 27.1855 1.6087 26.4282 1.56087C26.3964 1.56087 26.3644 1.56087 26.3325 1.56087C25.2165 1.56087 23.7817 2.70083 22.1555 4.86916C21.9004 5.21194 21.6453 5.53878 21.3743 5.8736C12.3028 17.066 9.82369 42.6793 7.41631 67.4556Z" fill="#534F59"/>
<path d="M5.62242 71.6007C6.03694 70.4767 6.61887 69.2889 7.35224 68.1011C7.48775 67.8859 7.63123 67.6706 7.76674 67.4474C7.88632 67.272 7.99793 67.0887 8.13345 66.9213C8.26099 66.7459 8.38055 66.5546 8.51606 66.3872C8.69941 66.1401 8.89071 65.8929 9.08203 65.6538C9.26537 65.4226 9.4567 65.1994 9.64802 64.9762C9.83933 64.745 10.0466 64.5218 10.2459 64.3065C10.3973 64.1391 10.5647 63.9717 10.7242 63.8123C11.7764 62.7441 12.9482 61.7875 14.1758 61.0142C14.2475 60.9664 14.3113 60.9265 14.3831 60.8787C14.5983 60.7432 14.8215 60.6236 15.0447 60.504C15.2599 60.3844 15.4831 60.2808 15.7143 60.1772C15.7222 60.1692 15.7223 60.1692 15.7302 60.1692C15.9534 60.0576 16.1766 59.9619 16.3998 59.8742C20.1783 58.3915 24.3872 59.4039 28.2613 62.7122L28.9309 63.318C29.0106 63.3818 29.0744 63.4536 29.1462 63.5173L31.2427 65.869C31.3463 66.0125 31.4499 66.156 31.5536 66.2995C31.5775 66.3154 31.5854 66.3393 31.6014 66.3633L32.821 68.3084C33.092 68.7947 33.3391 69.2889 33.5703 69.8071L33.6421 70.3731L32.2072 70.5325L31.968 70.0382C31.968 70.0303 31.9681 70.0303 31.9601 70.0223C31.8246 69.7194 31.6652 69.4244 31.5057 69.1374C31.3543 68.8425 31.1869 68.5555 31.0115 68.2765C30.86 68.0214 30.7006 67.7743 30.5332 67.5271C30.4774 67.4474 30.4216 67.3677 30.3578 67.28C30.2303 67.1046 30.1107 66.9213 29.9672 66.7459C29.9274 66.6821 29.8795 66.6263 29.8237 66.5705C29.7041 66.4111 29.5766 66.2437 29.4331 66.0842C29.3614 65.9886 29.2897 65.9089 29.2179 65.8212C29.0744 65.6617 28.9229 65.4943 28.7795 65.3349C28.7237 65.2791 28.6679 65.2233 28.6201 65.1675C28.4686 65.0081 28.3012 64.8407 28.1418 64.6972C27.8628 64.4181 27.5678 64.1471 27.2649 63.892L26.6351 63.3818C26.5235 63.2862 26.4119 63.2064 26.2844 63.1187L24.1799 61.8353C24.0285 61.7556 23.8611 61.6838 23.7017 61.6121C23.048 61.3251 22.3465 61.0859 21.6131 60.9425C21.2385 60.8627 20.8638 60.8069 20.4732 60.791C20.2899 60.775 20.0826 60.7671 19.8913 60.7671C18.9507 60.7671 17.9702 60.9265 16.9658 61.3251C12.5018 63.0789 8.53999 68.2047 7.08121 72.1428C7.04136 72.2544 7.00149 72.358 6.9696 72.4696C6.81814 72.8682 6.67467 73.2828 6.55509 73.6893L4.75354 78.8391L5.39923 72.3022C5.45503 72.0631 5.54271 71.8319 5.62242 71.6007Z" fill="#534F59"/>
<path d="M2.21912 102.324C2.83292 104.556 5.328 104.764 6.3882 104.74L24.866 104.445C27.672 104.405 30.5735 104.357 32.5744 102.548C33.8817 101.368 34.6948 99.6777 35.2049 97.0391C35.5876 95.1258 35.7072 93.0532 35.5796 90.8689L35.5238 89.8884C35.2608 85.3764 34.9818 80.7049 34.0252 76.2327C33.531 73.9129 32.8534 71.8642 31.9765 70.0546L32.2157 70.5489L33.6506 70.3894L33.5788 69.8234C34.4078 71.625 35.0535 73.6499 35.5478 75.9059C36.5282 80.4976 36.8072 85.2249 37.0783 89.7927L37.1341 90.7653C37.2696 93.0771 37.142 95.2853 36.7435 97.326C36.3768 99.1835 35.6593 101.862 33.6266 103.695C31.1873 105.896 27.8473 105.952 24.9058 105.983L6.42805 106.278C6.37224 106.278 6.32442 106.278 6.28456 106.278C3.43079 106.278 1.3582 104.963 0.744401 102.731C0.106685 100.451 0.529182 97.8123 0.879926 95.4846C0.991526 94.8309 1.08719 94.1931 1.15893 93.5793C1.49373 90.8131 1.9162 87.5527 2.56189 84.3241C2.68146 83.7421 2.78508 83.1522 2.90466 82.5703C3.56629 79.1424 4.25184 75.6109 5.4077 72.2947L4.76202 78.8315L6.56357 73.6818C5.62294 76.6473 5.00914 79.7961 4.41925 82.8573C4.30765 83.4552 4.19603 84.0451 4.07646 84.627C3.44671 87.8078 3.02424 91.0363 2.69741 93.7706C2.6177 94.4004 2.52203 95.0541 2.41043 95.7317C2.04374 98.0196 1.67706 100.371 2.21912 102.324Z" fill="#534F59"/>
</g>
</svg>
