<svg width="31" height="104" viewBox="0 0 31 104" fill="none" xmlns="http://www.w3.org/2000/svg">
<g opacity="0.5">
<path d="M15.0807 64.125C15.1524 64.101 15.2162 64.0851 15.272 64.0771C15.4075 64.0373 15.543 64.0134 15.6786 63.9894C15.7104 63.9894 15.7503 63.9815 15.7822 63.9735C15.9416 63.9496 16.117 63.9336 16.2764 63.9257C16.2844 63.9257 16.3004 63.9257 16.3083 63.9257C17.0417 63.8858 17.783 63.9974 18.5164 64.2525C19.3295 64.5315 20.1506 64.9779 20.9796 65.5997C21.4738 65.9744 21.968 66.4049 22.4623 66.9071C22.9645 67.4014 23.4667 67.9594 23.9609 68.5812C24.1283 68.7885 24.2957 69.0037 24.4631 69.2269C24.7979 69.6574 25.1008 70.1197 25.3798 70.598C25.4755 70.7575 25.5552 70.9249 25.6429 71.0923C25.6987 71.188 25.7465 71.2677 25.7784 71.3633C25.8501 71.4909 25.9139 71.6184 25.9617 71.754C26.0255 71.8895 26.0893 72.025 26.1371 72.1605C26.5436 73.1251 26.8466 74.1455 27.0379 75.1898C28.0343 80.8577 28.5764 87.7772 28.6083 95.191C28.5525 97.5108 27.0299 99.3283 23.9449 100.723C22.2709 101.481 20.3817 101.919 18.3809 102.015L7.22885 102.079C6.24039 102.134 5.28379 101.808 4.56636 101.178C2.61336 99.4798 1.78435 97.168 2.04741 94.051C2.29452 87.1953 3.554 80.4591 5.77804 74.0259C5.96138 73.4918 6.21649 72.9577 6.54331 72.4236V72.4156L6.79043 72.017C7.22088 71.3155 7.65931 70.6618 8.0818 70.048C8.2492 69.8088 8.43251 69.5697 8.59991 69.3465C8.7992 69.0675 9.00647 68.8044 9.21373 68.5493C9.41301 68.3101 9.61229 68.079 9.80361 67.8637C9.99492 67.6325 10.2022 67.4173 10.4015 67.2021C10.6008 66.9868 10.8 66.7955 10.9993 66.6042C11.1986 66.4208 11.3979 66.2375 11.5972 66.0701C11.7486 65.9346 11.9161 65.807 12.0675 65.6795C12.3306 65.4802 12.6016 65.2888 12.8567 65.1214C12.9922 65.0258 13.1357 64.9461 13.2712 64.8663C13.6778 64.6352 14.0763 64.4518 14.4749 64.3003C14.5785 64.2605 14.6742 64.2286 14.7778 64.1967C14.8894 64.1808 14.985 64.1489 15.0807 64.125Z" fill="white"/>
<path d="M22.1596 5.15065C25.2366 2.07355 26.5598 1.56335 27.1019 1.56335C27.1975 1.56335 27.2693 1.5793 27.3171 1.60321C27.5164 1.68293 27.9947 2.08152 28.1063 4.14621C28.2179 6.08335 27.9548 8.02049 27.333 9.89386C22.8531 23.5176 24.4075 46.4285 25.9141 68.5821C25.8424 68.4784 25.7786 68.3908 25.7069 68.2951C22.614 64.2135 19.4254 62.2286 16.2288 62.38C16.0295 62.388 15.8223 62.4119 15.615 62.4358C15.4556 62.4597 15.2962 62.4837 15.1367 62.5156C15.1128 62.5235 15.0889 62.5235 15.065 62.5315C15.0252 62.5395 14.9773 62.5474 14.9375 62.5634C14.778 62.5953 14.6026 62.6431 14.4352 62.6909C14.4273 62.6909 14.4193 62.6989 14.4114 62.6989C14.244 62.7467 14.0686 62.8105 13.9012 62.8663C13.8374 62.8902 13.7736 62.9141 13.7099 62.946C13.5504 63.0098 13.383 63.0815 13.2236 63.1533C13.0323 63.241 12.825 63.3366 12.6337 63.4562C12.4344 63.5599 12.2351 63.6794 12.0358 63.807C11.8047 63.9505 11.5735 64.1179 11.3423 64.2853C11.1829 64.4128 11.0235 64.5324 10.8641 64.6679C10.8003 64.7158 10.7286 64.7716 10.6728 64.8274C10.5452 64.923 10.4336 65.0187 10.322 65.1223C10.0988 65.3216 9.8676 65.5368 9.6444 65.768C9.30163 66.1108 8.96686 66.4696 8.62408 66.8681C8.58423 66.916 8.54436 66.9638 8.51247 67.0037C8.32116 67.2189 8.12189 67.4501 7.93855 67.6813C7.93855 67.6813 7.93854 67.6892 7.93057 67.6972C7.5878 68.1117 7.26096 68.5661 6.92616 69.0365C6.87036 69.1162 6.81455 69.1879 6.76672 69.2676C9.26179 41.4222 13.104 12.6441 22.1596 5.15065Z" fill="white"/>
<path d="M26.1454 72.1608C26.0896 72.0253 26.0258 71.8818 25.97 71.7542C26.0418 71.8897 26.0896 72.0173 26.1454 72.1608Z" fill="#534F59"/>
<path d="M25.9702 71.7461C25.9144 71.6106 25.8506 71.483 25.7869 71.3555C25.8506 71.491 25.9144 71.6185 25.9702 71.7461Z" fill="#534F59"/>
<path d="M25.6433 71.0929C25.5556 70.9255 25.4758 70.7581 25.3802 70.5987C25.4758 70.7581 25.5556 70.9176 25.6433 71.0929Z" fill="#534F59"/>
<path d="M22.4623 66.9071C22.9645 67.4014 23.4667 67.9594 23.961 68.5812C23.4667 67.9594 22.9645 67.4093 22.4623 66.9071Z" fill="#534F59"/>
<path d="M20.972 65.6C20.143 64.9782 19.3219 64.5318 18.5088 64.2527C19.3378 64.5238 20.1509 64.9782 20.972 65.6Z" fill="#534F59"/>
<path d="M16.2767 63.9335C16.1173 63.9414 15.9419 63.9574 15.7825 63.9813C15.9419 63.9494 16.1173 63.9414 16.2767 63.9335Z" fill="#534F59"/>
<path d="M15.6788 63.99C15.5433 64.0139 15.4077 64.0378 15.2722 64.0777C15.4077 64.0378 15.5512 64.0139 15.6788 63.99Z" fill="#534F59"/>
<path d="M15.615 62.4357C15.4556 62.4596 15.2961 62.4836 15.1367 62.5155C15.3041 62.4836 15.4556 62.4596 15.615 62.4357Z" fill="#534F59"/>
<path d="M15.2809 64.0779C15.2169 64.0859 15.1528 64.102 15.0888 64.126C15.1448 64.102 15.2169 64.0859 15.2809 64.0779Z" fill="#534F59"/>
<path d="M14.9455 62.5624C14.7781 62.5943 14.6107 62.6421 14.4433 62.6899C14.6107 62.6341 14.7861 62.5943 14.9455 62.5624Z" fill="#534F59"/>
<path d="M14.7941 64.213C14.6904 64.2448 14.5948 64.2767 14.4911 64.3166C14.5868 64.2688 14.6904 64.2369 14.7941 64.213Z" fill="#534F59"/>
<path d="M14.4191 62.6901C14.2517 62.7459 14.0763 62.8017 13.9089 62.8575C14.0763 62.8017 14.2517 62.7379 14.4191 62.6901Z" fill="#534F59"/>
<path d="M13.7178 62.9371C13.5584 63.0008 13.3909 63.0726 13.2315 63.1443C13.3909 63.0726 13.5504 63.0008 13.7178 62.9371Z" fill="#534F59"/>
<path d="M13.2232 63.1443C13.0319 63.2399 12.8246 63.3356 12.6333 63.4472C12.8326 63.3356 13.0319 63.232 13.2232 63.1443Z" fill="#534F59"/>
<path d="M12.6419 63.4478C12.4426 63.5594 12.2434 63.671 12.0441 63.7986C12.2434 63.671 12.4347 63.5514 12.6419 63.4478Z" fill="#534F59"/>
<path d="M12.0758 65.6877C11.9243 65.8153 11.7569 65.9428 11.6055 66.0784C11.7569 65.9349 11.9164 65.8153 12.0758 65.6877Z" fill="#534F59"/>
<path d="M11.5973 66.0781C11.398 66.2455 11.1987 66.4289 10.9995 66.6122C11.2067 66.4129 11.406 66.2376 11.5973 66.0781Z" fill="#534F59"/>
<path d="M11.3425 64.2768C11.183 64.4043 11.0236 64.5239 10.8642 64.6594C11.0316 64.5239 11.183 64.4043 11.3425 64.2768Z" fill="#534F59"/>
<path d="M11.0073 66.613C10.808 66.7963 10.6087 67.0036 10.4094 67.2109C10.6087 66.9956 10.8 66.7963 11.0073 66.613Z" fill="#534F59"/>
<path d="M10.322 65.1139C10.4336 65.0103 10.5452 64.9146 10.6728 64.819C10.5532 64.9146 10.4416 65.0183 10.322 65.1139Z" fill="#534F59"/>
<path d="M10.4096 67.2023C10.2103 67.4095 10.0031 67.6248 9.81177 67.8639C10.0031 67.6327 10.2103 67.4175 10.4096 67.2023Z" fill="#534F59"/>
<path d="M5.22033 71.6267C5.7305 70.7738 6.24067 69.9846 6.75881 69.2591C6.81461 69.1794 6.87042 69.1077 6.91825 69.028C7.26102 68.5576 7.58786 68.1032 7.92266 67.6887C7.93063 67.6807 7.93064 67.6727 7.93064 67.6727C8.12195 67.4416 8.31324 67.2104 8.50456 66.9951C8.53644 66.9553 8.57631 66.9075 8.61617 66.8596C8.95894 66.461 9.30169 66.1023 9.63649 65.7595C9.85969 65.5363 10.0909 65.3211 10.3141 65.1138C10.4337 65.0102 10.5453 64.9145 10.6648 64.8189C10.7286 64.7551 10.8003 64.6993 10.8561 64.6594C11.0156 64.5239 11.175 64.4043 11.3344 64.2768C11.5656 64.1094 11.7967 63.942 12.0279 63.7985C12.2272 63.6709 12.4265 63.5593 12.6258 63.4477C12.8171 63.3361 13.0244 63.2404 13.2157 63.1448C13.3751 63.0651 13.5425 63.0013 13.702 62.9375C13.7737 62.9056 13.8375 62.8817 13.8933 62.8578C14.0607 62.794 14.236 62.7382 14.4034 62.6904C14.4114 62.6904 14.4194 62.6824 14.4273 62.6824C14.5947 62.6346 14.7621 62.5868 14.9295 62.5549C14.9694 62.5389 15.0173 62.531 15.0571 62.523C15.081 62.515 15.1049 62.515 15.1288 62.507C15.2883 62.4752 15.4477 62.4512 15.6071 62.4273C15.8064 62.4034 16.0137 62.3795 16.2209 62.3715C19.4175 62.2201 22.5981 64.205 25.699 68.2866C26.5121 69.3548 27.1737 70.5506 27.6838 71.8181L28.0187 76.7367L26.2092 72.2884C26.1932 72.2406 26.1693 72.1927 26.1454 72.1529C26.0896 72.0174 26.0338 71.8818 25.97 71.7463C25.9142 71.6108 25.8504 71.4912 25.7866 71.3557C25.7468 71.26 25.699 71.1803 25.6511 71.0847C25.5635 70.9173 25.4837 70.7499 25.3881 70.5904C25.1091 70.1121 24.8062 69.6577 24.4714 69.2193C24.304 69.004 24.1366 68.7888 23.9692 68.5736C23.4749 67.9518 22.9727 67.3937 22.4705 66.8995C21.9763 66.3973 21.4821 65.9588 20.9879 65.5921C20.1588 64.9623 19.3457 64.5159 18.5247 64.2449C17.7913 63.9898 17.0499 63.8782 16.3166 63.918C16.3086 63.918 16.2927 63.918 16.2847 63.918C16.1253 63.926 15.9499 63.942 15.7905 63.9659C15.7586 63.9738 15.7187 63.9818 15.6868 63.9818C15.5513 64.0057 15.4158 64.0296 15.2803 64.0695C15.2165 64.0775 15.1448 64.0934 15.089 64.1173C14.9853 64.1412 14.8977 64.1731 14.794 64.205C14.6904 64.2369 14.5947 64.2688 14.4911 64.3087C14.0925 64.4522 13.686 64.6435 13.2874 64.8747C13.1519 64.9544 13.0085 65.0341 12.8729 65.1298C12.6179 65.2972 12.3468 65.4885 12.0837 65.6878C11.9323 65.8153 11.7649 65.9349 11.6134 66.0784C11.4221 66.2378 11.2149 66.4212 11.0156 66.6125C10.8163 66.7959 10.617 67.0031 10.4177 67.2104C10.2184 67.4177 10.0112 67.6329 9.81986 67.872C9.62058 68.0873 9.4213 68.3185 9.22999 68.5576C9.0307 68.8127 8.82343 69.0758 8.61617 69.3548C8.4408 69.578 8.26541 69.8172 8.09801 70.0563C7.67552 70.6701 7.23709 71.3158 6.80664 72.0253L6.55952 72.4239L4.94135 72.3123L4.95726 72.113C5.03697 71.9456 5.13264 71.7862 5.22033 71.6267Z" fill="#534F59"/>
<path d="M6.75864 69.2589C6.2405 69.9843 5.73033 70.7735 5.22016 71.6265C5.1245 71.7859 5.03684 71.9454 4.94916 72.1048L5.00492 71.5229C7.65143 41.1823 11.4379 12.0056 21.1152 4.0019C24.3676 0.757392 26.4003 -0.406487 27.875 0.151537C29.3099 0.70159 29.5809 2.65467 29.6527 4.05771C29.7722 6.19414 29.4853 8.31464 28.7997 10.3634C24.4074 23.7081 25.9619 46.4676 27.4605 68.4776L27.6837 71.8178C27.1815 70.5503 26.5119 69.3545 25.6988 68.2863C25.7705 68.382 25.8343 68.4697 25.9061 68.5733C24.3995 46.4197 22.837 23.5088 27.325 9.88507C27.9467 8.01171 28.2098 6.07457 28.0982 4.13742C27.9866 2.07274 27.5083 1.66617 27.309 1.59443C27.2612 1.57051 27.1815 1.55457 27.0938 1.55457C26.5517 1.55457 25.2285 2.06476 22.1515 5.14187C13.1039 12.6433 9.26168 41.4214 6.75864 69.2589Z" fill="#534F59"/>
<path d="M5.78608 74.0256C3.56205 80.4588 2.30256 87.195 2.05545 94.0507C1.79239 97.1677 2.6214 99.4874 4.5744 101.177C5.29183 101.807 6.24843 102.126 7.23689 102.078L18.3889 102.015C20.3977 101.911 22.279 101.48 23.953 100.723C27.03 99.32 28.5605 97.5104 28.6163 95.1907C28.5844 87.7769 28.0423 80.8494 27.0459 75.1895C26.8626 74.1452 26.5596 73.1328 26.1451 72.1602C26.169 72.2001 26.193 72.2479 26.2089 72.2957L28.0184 76.744L27.6836 71.8254C28.0902 72.8139 28.3771 73.8502 28.5684 74.9105C29.5808 80.6661 30.1308 87.6733 30.1627 95.1986C30.091 98.1482 28.2177 100.476 24.5987 102.126C22.7413 102.963 20.6688 103.449 18.4368 103.561L7.28471 103.617C7.18906 103.625 7.10933 103.625 7.02164 103.625C5.75418 103.625 4.51859 103.178 3.56201 102.349C1.24232 100.34 0.214051 97.5104 0.516965 93.955C0.76408 86.9797 2.04746 80.0921 4.32729 73.5074C4.49469 73.0451 4.7099 72.5668 4.95702 72.0964L4.94111 72.2957L6.55929 72.4073V72.4153C6.22448 72.9574 5.96942 73.4915 5.78608 74.0256Z" fill="#534F59"/>
</g>
</svg>
