<svg width="37" height="122" viewBox="0 0 37 122" fill="none" xmlns="http://www.w3.org/2000/svg">
<g opacity="0.5">
<path d="M20.6438 75.4407C22.246 75.7516 23.8483 76.6126 25.4346 77.9997C25.6658 78.199 25.897 78.4142 26.1281 78.6454C26.2796 78.7889 26.4311 78.9483 26.5825 79.0998C26.7659 79.2911 26.9572 79.4984 27.1325 79.6977C27.3079 79.897 27.4833 80.0963 27.6507 80.3115C27.8181 80.5267 27.9934 80.734 28.1529 80.9572C28.3123 81.1804 28.4797 81.3957 28.6311 81.6268C28.7826 81.858 28.934 82.0812 29.0775 82.3124C29.516 83.0139 29.9305 83.7473 30.2892 84.5126L30.5124 84.9909H30.5204C31.1103 86.2983 31.5726 87.6854 31.9074 89.1203C34.2032 99.0372 35.8692 107.543 32.9198 111.218C29.5638 113.905 25.5781 116.551 20.7235 119.309C19.8227 119.82 18.8821 120.131 17.9175 120.25C15.3826 120.537 12.8557 120.107 10.3686 118.951C10.0816 118.815 9.80258 118.632 9.54749 118.409C6.97272 116.208 5.12336 113.928 3.88779 111.441C2.76381 109.129 2.14203 106.602 2.03043 103.916C1.99854 103.079 2.11015 102.194 2.38915 101.213C3.47327 95.1549 4.74074 90.6748 6.38285 87.1433L6.4227 87.0237C6.50242 86.7527 6.58214 86.4896 6.68577 86.2266L6.86112 85.7642C6.96475 85.533 7.06042 85.3018 7.17202 85.0707C7.27565 84.8554 7.38728 84.6322 7.49888 84.417C7.59453 84.2655 7.67422 84.1061 7.76988 83.9626C7.84162 83.843 7.90541 83.7314 7.98512 83.6198C8.08078 83.4683 8.17644 83.3248 8.28804 83.1813C11.8752 78.2229 15.3906 75.5763 18.7386 75.3451C19.2089 75.3052 19.6872 75.3212 20.1655 75.3929C20.3488 75.3929 20.5003 75.4248 20.6438 75.4407Z" fill="white"/>
<path d="M29.5797 80.2633C29.4441 80.0799 29.3007 79.8886 29.1652 79.7132C29.0376 79.5538 28.918 79.3944 28.7825 79.2429C28.647 79.0755 28.5035 78.9081 28.3601 78.7407C28.3361 78.7088 28.3043 78.6769 28.2724 78.645C28.089 78.4378 27.8977 78.2385 27.7064 78.0312C24.7809 74.986 21.7278 73.559 18.6588 73.7743C18.4197 73.7902 18.1805 73.8221 17.9414 73.862C17.3754 73.9497 16.8094 74.0852 16.2434 74.2924C16.092 74.3403 15.9325 74.404 15.7811 74.4598C15.3347 74.6352 14.8803 74.8584 14.4339 75.1056C14.2825 75.1932 14.1231 75.2809 13.9636 75.3846C13.852 75.4483 13.7484 75.5201 13.6288 75.5839C13.0629 75.9585 12.4889 76.3731 11.915 76.8593C11.7635 76.9869 11.5961 77.1224 11.4367 77.2739C11.2294 77.4493 11.0142 77.6565 10.791 77.8638C10.6395 78.0073 10.4801 78.1667 10.3286 78.3262C10.2489 78.3979 10.1772 78.4697 10.0974 78.5573C10.0496 78.6052 10.0098 78.653 9.96194 78.6929C9.8902 78.7646 9.82644 78.8284 9.77064 78.9001C9.61121 79.0675 9.4518 79.2429 9.29237 79.4263C9.23657 79.49 9.17279 79.5538 9.13293 79.6176C8.94162 79.8248 8.75826 80.0401 8.57492 80.2713C8.38361 80.5024 8.18433 80.7416 7.99302 80.9887C7.82562 81.204 7.65822 81.4192 7.49879 81.6504C7.43502 81.7221 7.38718 81.7859 7.33936 81.8577C7.51473 80.1437 7.70604 78.4378 7.88141 76.7159C11.0461 46.6702 14.3143 15.5962 24.3584 4.95393C27.0049 2.02828 28.3202 1.52606 28.9181 1.52606C29.0297 1.52606 29.1093 1.54998 29.1811 1.57389C29.4681 1.67753 30.1616 2.22758 30.3131 5.08945C30.4008 6.66786 30.2413 8.32599 29.8427 10.1675C27.6187 20.4271 28.6072 43.7127 29.5478 66.233C29.755 71.1356 29.9623 76.1817 30.1456 81.0525C29.9862 80.8133 29.8188 80.5742 29.6594 80.343C29.6195 80.3271 29.6036 80.2952 29.5797 80.2633Z" fill="white"/>
<path d="M29.5798 80.264C29.6041 80.2963 29.6202 80.3286 29.6444 80.3528C29.6202 80.3205 29.596 80.2963 29.5798 80.264Z" fill="#534F59"/>
<path d="M30.3053 84.5126C29.9386 83.7473 29.5321 83.0219 29.0936 82.3124C29.6437 83.1654 30.122 84.0582 30.5444 84.9909H30.5365L30.3053 84.5126Z" fill="#534F59"/>
<path d="M29.0931 82.3124C28.9496 82.0812 28.7982 81.858 28.6467 81.6268C28.8062 81.85 28.9496 82.0812 29.0931 82.3124Z" fill="#534F59"/>
<path d="M28.7828 79.2435C28.9103 79.395 29.0379 79.5544 29.1654 79.7139C29.0379 79.5544 28.9183 79.403 28.7828 79.2435Z" fill="#534F59"/>
<path d="M28.1611 80.957C28.3285 81.1722 28.4879 81.3954 28.6393 81.6266C28.4879 81.3954 28.3285 81.1802 28.1611 80.957Z" fill="#534F59"/>
<path d="M28.2725 78.6532C28.3045 78.6852 28.3366 78.7172 28.3606 78.7493C28.3285 78.7092 28.3045 78.6772 28.2725 78.6532Z" fill="#534F59"/>
<path d="M27.6587 80.3112C27.834 80.5184 28.0014 80.7337 28.1609 80.9569C28.0014 80.7416 27.834 80.5264 27.6587 80.3112Z" fill="#534F59"/>
<path d="M26.59 79.1075C26.7733 79.2988 26.9647 79.5061 27.14 79.7054C26.9647 79.4981 26.7813 79.2988 26.59 79.1075Z" fill="#534F59"/>
<path d="M20.6437 75.4405C20.5002 75.4166 20.3408 75.3847 20.1893 75.3688C20.3488 75.3927 20.4923 75.4166 20.6437 75.4405Z" fill="#534F59"/>
<path d="M18.7622 75.3288C18.9216 75.3129 19.089 75.3049 19.2485 75.3049C19.5593 75.3049 19.8782 75.3288 20.1891 75.3767C19.7188 75.3049 19.2405 75.289 18.7622 75.3288Z" fill="#534F59"/>
<path d="M18.6591 73.7831C18.4199 73.799 18.1808 73.8309 17.9416 73.8708C18.1808 73.8229 18.4199 73.799 18.6591 73.7831Z" fill="#534F59"/>
<path d="M16.2436 74.3011C16.0922 74.349 15.9327 74.4128 15.7813 74.4686C15.9327 74.4048 16.0842 74.349 16.2436 74.3011Z" fill="#534F59"/>
<path d="M14.4338 75.1144C14.2823 75.2021 14.1229 75.2898 13.9635 75.3935C14.1229 75.2898 14.2743 75.1942 14.4338 75.1144Z" fill="#534F59"/>
<path d="M13.9557 75.3928C13.8441 75.4566 13.7325 75.5283 13.6209 75.5921C13.7405 75.5204 13.8521 75.4486 13.9557 75.3928Z" fill="#534F59"/>
<path d="M7.87349 76.7401C7.69812 78.462 7.50681 80.1679 7.33144 81.8819C7.23578 82.0094 7.14811 82.129 7.05246 82.2645C6.38285 83.1972 5.83283 84.2017 5.41034 85.2699C5.72123 82.3921 6.03209 79.4903 6.33501 76.5806C9.52358 46.2799 12.8317 14.9429 23.2105 3.93385C26.0484 0.785002 28.113 -0.426708 29.6913 0.131316C30.9986 0.593679 31.7001 2.19601 31.8516 5.02599C31.9473 6.74789 31.7719 8.54154 31.3494 10.5185C29.1652 20.5789 30.1457 43.7688 31.0863 66.1934C31.3414 72.1085 31.5885 78.2228 31.7878 84.0183C31.3175 82.9899 30.7595 82.0014 30.1297 81.0687C29.9544 76.198 29.7391 71.1519 29.5319 66.2492C28.5913 43.729 27.6028 20.4434 29.8268 10.1837C30.2254 8.34225 30.3849 6.68412 30.2972 5.1057C30.1537 2.24384 29.4522 1.69378 29.1652 1.59015C29.0935 1.56624 29.0138 1.54232 28.9022 1.54232C28.3043 1.54232 26.989 2.04454 24.3425 4.97018C14.3065 15.6205 11.0382 46.6945 7.87349 76.7401Z" fill="#534F59"/>
<path d="M7.20385 85.0544C7.08428 85.2855 6.98064 85.5167 6.89295 85.7479C6.82121 85.8994 6.76539 86.0588 6.71756 86.2103L5.31458 86.282L5.4023 85.3732C5.41027 85.3334 5.41024 85.2935 5.41821 85.2537C5.83272 84.1854 6.38275 83.181 7.06032 82.2483C7.15598 82.1128 7.2437 81.9932 7.33935 81.8657C7.39515 81.7939 7.44299 81.7301 7.49879 81.6584C7.65822 81.4352 7.83359 81.212 7.99302 80.9967C8.18433 80.7496 8.3836 80.5105 8.57492 80.2793C8.75826 80.0561 8.94161 79.8408 9.13293 79.6256C9.18076 79.5538 9.24454 79.4901 9.29237 79.4343C9.4518 79.2589 9.61121 79.0755 9.77063 78.9081C9.83441 78.8364 9.89817 78.7726 9.96194 78.7009C10.0098 78.653 10.0496 78.6052 10.0974 78.5653C10.1772 78.4776 10.2489 78.4059 10.3286 78.3342C10.4801 78.1747 10.6395 78.0153 10.791 77.8718C11.0062 77.6645 11.2215 77.4652 11.4367 77.2819C11.5961 77.1304 11.7635 76.9949 11.915 76.8674C12.4889 76.3811 13.0629 75.9586 13.6288 75.5919C13.7404 75.5201 13.852 75.4563 13.9636 75.3926C14.123 75.2889 14.2825 75.2013 14.4339 75.1136C14.8803 74.8664 15.3347 74.6512 15.7811 74.4678C15.9325 74.4041 16.092 74.3403 16.2434 74.3004C16.8094 74.0932 17.3754 73.9497 17.9414 73.87C18.1805 73.8301 18.4197 73.7982 18.6588 73.7823C21.7358 73.567 24.7809 74.994 27.7064 78.0392C27.8977 78.2385 28.089 78.4378 28.2724 78.653C28.3043 78.6849 28.3282 78.7168 28.36 78.7487C28.5035 78.9161 28.647 79.0835 28.7825 79.2509C28.9101 79.4024 29.0376 79.5618 29.1652 79.7213C29.3007 79.8966 29.4441 80.0879 29.5797 80.2713C29.5956 80.3032 29.6195 80.3271 29.6434 80.359C29.8029 80.5902 29.9703 80.8293 30.1297 81.0685C30.7594 82.0012 31.3174 82.9897 31.7878 84.018C31.7957 84.0659 31.7957 84.1137 31.7957 84.1536L31.8196 84.8949L30.5442 84.9906C30.1297 84.0579 29.6434 83.1651 29.0934 82.3121C28.9579 82.0809 28.8064 81.8497 28.647 81.6265C28.4956 81.4033 28.3361 81.1801 28.1687 80.9569C28.0093 80.7416 27.8419 80.5264 27.6665 80.3112C27.4991 80.1039 27.3237 79.9046 27.1484 79.6973C26.973 79.498 26.7817 79.2987 26.5983 79.0995C26.4469 78.948 26.2954 78.7886 26.144 78.6451C25.9128 78.4219 25.6816 78.2066 25.4505 77.9993C23.8641 76.6043 22.2619 75.7433 20.6596 75.4404C20.5081 75.4085 20.3567 75.3846 20.2053 75.3687C19.8944 75.3208 19.5755 75.2969 19.2646 75.2969C19.1052 75.2969 18.9378 75.3049 18.7784 75.3208C15.4303 75.552 11.915 78.1907 8.3278 83.1571C8.2162 83.3006 8.12054 83.4441 8.02489 83.5955C7.94517 83.7071 7.88138 83.8187 7.80964 83.9383C7.71398 84.0818 7.6343 84.2412 7.53864 84.3927C7.4111 84.6159 7.29154 84.8312 7.20385 85.0544Z" fill="#534F59"/>
<path d="M2.52461 112.111C1.31295 109.599 0.627439 106.865 0.515839 103.963C0.475982 102.967 0.611496 101.915 0.914411 100.854C2.0065 94.764 3.30583 90.1882 4.98781 86.5292C5.11535 86.0987 5.25882 85.6682 5.41825 85.2616C5.41028 85.3015 5.41031 85.3414 5.40234 85.3812L5.31461 86.29L6.7176 86.2183C6.61397 86.4813 6.53429 86.7444 6.45457 87.0154L6.41468 87.135C4.77256 90.6745 3.50514 95.1466 2.42103 101.205C2.14203 102.186 2.03042 103.071 2.0623 103.908C2.1739 106.594 2.79564 109.121 3.91961 111.433C5.14721 113.92 7.00459 116.2 9.57937 118.4C9.83445 118.624 10.1134 118.799 10.4004 118.942C12.8875 120.098 15.4145 120.529 17.9494 120.242C18.906 120.122 19.8546 119.819 20.7553 119.301C25.61 116.543 29.5957 113.896 32.9516 111.21C35.9011 107.543 34.235 99.0289 31.9393 89.112C31.6045 87.6771 31.1421 86.298 30.5522 84.9826L31.8276 84.887L31.8038 84.1456C31.8038 84.0978 31.8037 84.0499 31.7958 84.0101C32.5052 85.5088 33.0553 87.0951 33.4459 88.7612C35.9409 99.5072 37.5671 108.061 34.0995 112.254L33.9799 112.366C30.5522 115.116 26.4788 117.826 21.5206 120.64C20.4365 121.254 19.2965 121.629 18.1247 121.764C17.5588 121.836 16.9928 121.868 16.4268 121.868C14.1789 121.868 11.9469 121.358 9.75471 120.337C9.3402 120.146 8.94164 119.891 8.57496 119.572C5.83278 117.236 3.85584 114.797 2.52461 112.111Z" fill="#534F59"/>
</g>
</svg>
