<svg width="34" height="100" viewBox="0 0 34 100" fill="none" xmlns="http://www.w3.org/2000/svg">
<g opacity="0.5">
<path d="M16.1904 60.6848C12.675 61.3385 9.35891 63.7061 6.67253 67.4608C6.42541 47.2285 9.24729 26.1033 14.4766 9.16325C16.2143 4.88241 18.6616 2.22781 21.3559 1.68573C21.6907 1.61398 22.0175 1.58209 22.3444 1.58209C23.851 1.58209 25.3496 2.27564 26.7048 3.63881C29.3194 6.26153 29.0005 9.6017 28.6418 13.46L28.578 14.1137C27.2707 28.4231 28.0918 46.6067 28.881 64.1844C28.9288 65.157 28.9686 66.1375 29.0165 67.1021C28.1954 65.8585 27.2867 64.7744 26.3062 63.8656C25.8837 63.467 25.4373 63.1003 24.9829 62.7734C23.5082 61.6813 21.906 60.9559 20.1921 60.653H20.1841C19.953 60.6051 19.7138 60.5653 19.4747 60.5414C19.3631 60.5334 19.2674 60.5254 19.1638 60.5174C19.0203 60.4935 18.8688 60.4855 18.7253 60.4855C18.5819 60.4696 18.4224 60.4696 18.2789 60.4696C18.255 60.4696 18.2232 60.4696 18.1993 60.4696C17.7768 60.4696 17.3383 60.5015 16.8999 60.5732C16.884 60.5653 16.868 60.5653 16.8521 60.5732C16.6209 60.5971 16.4057 60.637 16.1904 60.6848Z" fill="white"/>
<path d="M32.0213 81.436C32.0532 86.6496 31.2959 89.631 29.4785 91.4326C26.8479 94.0394 23.468 96.3353 19.9605 97.8898C17.2343 98.687 14.8189 98.4956 12.5232 97.252C9.51794 95.9925 6.83953 94.159 4.55173 91.7914C2.86975 89.6151 2.06468 87.088 2.15237 84.274C2.99734 78.5742 4.55174 74.0462 6.50474 70.6024L6.62433 70.4031C7.29394 69.2312 8.02729 68.171 8.80052 67.2383C8.93604 67.0789 9.06359 66.9194 9.20707 66.768C9.39042 66.5527 9.58972 66.3534 9.77306 66.1462C11.3036 64.5598 12.9298 63.4437 14.5639 62.7821C14.7632 62.6944 14.9704 62.6226 15.1777 62.5509C15.3451 62.4951 15.5284 62.4393 15.6958 62.3994C16.1741 62.2639 16.6524 62.1683 17.1467 62.1045C17.3858 62.0726 17.6329 62.0567 17.872 62.0407C18.1431 62.0327 18.4061 62.0327 18.6692 62.0407C18.7967 62.0487 18.9242 62.0567 19.0518 62.0646C19.0598 62.0646 19.0757 62.0646 19.0837 62.0646C19.8729 62.1443 20.6381 62.3117 21.3875 62.5748C22.3839 62.9335 23.3564 63.4677 24.2651 64.1532C24.3847 64.2489 24.4963 64.3366 24.6159 64.4322C24.8391 64.6156 25.0623 64.8149 25.2855 65.0142C25.5007 65.2135 25.7159 65.4287 25.9311 65.6599C26.0906 65.8273 26.25 66.0027 26.3935 66.186C26.545 66.3614 26.6964 66.5527 26.8399 66.7361C29.1915 69.7574 30.9452 74.0861 31.7982 79.3474L31.83 79.5069C31.9098 80.1765 32.0134 80.8063 32.0213 81.436Z" fill="white"/>
<path d="M26.8162 66.7285C26.6727 66.5452 26.5213 66.3538 26.3698 66.1785C26.5372 66.3618 26.6807 66.5452 26.8162 66.7285Z" fill="#534F59"/>
<path d="M25.2622 65.0146C25.047 64.8153 24.8237 64.616 24.5926 64.4326C24.8158 64.608 25.047 64.7993 25.2622 65.0146Z" fill="#534F59"/>
<path d="M24.9748 62.7747C23.5001 61.6825 21.8819 60.973 20.184 60.6542C21.8898 60.9571 23.5001 61.6825 24.9748 62.7747Z" fill="#534F59"/>
<path d="M24.2494 64.1532C23.3326 63.4677 22.3681 62.9336 21.3717 62.5748C22.384 62.9176 23.3406 63.4517 24.2494 64.1532Z" fill="#534F59"/>
<path d="M19.4586 60.5422C19.6978 60.5661 19.9369 60.6059 20.1681 60.6538C19.9449 60.6139 19.7057 60.5741 19.4586 60.5422Z" fill="#534F59"/>
<path d="M19.0598 62.0651C19.849 62.1288 20.6223 62.2962 21.3636 62.5753C20.6143 62.3122 19.849 62.1368 19.0598 62.0651Z" fill="#534F59"/>
<path d="M19.1557 60.5175C19.0122 60.5016 18.8608 60.4936 18.7173 60.4857C18.8608 60.4857 19.0043 60.4936 19.1557 60.5175Z" fill="#534F59"/>
<path d="M19.028 62.0649C18.9004 62.057 18.7729 62.049 18.6454 62.041C18.7809 62.041 18.9084 62.049 19.028 62.0649Z" fill="#534F59"/>
<path d="M18.7093 60.4859C18.0955 60.462 17.4896 60.4859 16.8838 60.5736C17.3222 60.5019 17.7607 60.47 18.1832 60.47C18.2071 60.47 18.2389 60.47 18.2629 60.47C18.4064 60.4779 18.5658 60.4779 18.7093 60.4859Z" fill="#534F59"/>
<path d="M18.646 62.0402C18.3829 62.0322 18.1199 62.0322 17.8488 62.0402C17.9684 62.0242 18.072 62.0242 18.1916 62.0242C18.2155 62.0242 18.2394 62.0242 18.2633 62.0242C18.3909 62.0242 18.5264 62.0242 18.646 62.0402Z" fill="#534F59"/>
<path d="M17.123 62.0964C17.3621 62.0565 17.6093 62.0406 17.8484 62.0326C17.6093 62.0565 17.3621 62.0725 17.123 62.0964Z" fill="#534F59"/>
<path d="M16.8362 60.5735C16.621 60.6054 16.4058 60.6373 16.1826 60.6852C16.4058 60.6373 16.621 60.5975 16.8362 60.5735Z" fill="#534F59"/>
<path d="M15.6802 62.3916C15.5128 62.4394 15.3294 62.4952 15.162 62.5431C15.3294 62.4873 15.5048 62.4315 15.6802 62.3916Z" fill="#534F59"/>
<path d="M15.162 62.5507C14.9627 62.6225 14.7554 62.6942 14.5482 62.7819C14.7474 62.6862 14.9547 62.6225 15.162 62.5507Z" fill="#534F59"/>
<path d="M14.5481 62.782C12.914 63.4517 11.2878 64.5598 9.75729 66.1461C11.232 64.5916 12.8582 63.4517 14.5481 62.782Z" fill="#534F59"/>
<path d="M9.7573 66.1461C9.57396 66.3454 9.37466 66.5446 9.19131 66.7679C9.36669 66.5606 9.55005 66.3533 9.7573 66.1461Z" fill="#534F59"/>
<path d="M9.19169 66.7678C9.05617 66.9192 8.9207 67.0787 8.78519 67.2381C8.9207 67.0787 9.0482 66.9192 9.19169 66.7678Z" fill="#534F59"/>
<path d="M5.1658 69.8615C8.24278 64.4247 12.2763 61.4513 16.1903 60.678C16.4056 60.6302 16.6208 60.5983 16.844 60.5664C16.8599 60.5584 16.8759 60.5584 16.8918 60.5664C17.4976 60.4787 18.1035 60.4548 18.7173 60.4787C18.8607 60.4867 19.0122 60.4946 19.1557 60.5106C19.2593 60.5186 19.355 60.5265 19.4666 60.5345C19.7057 60.5664 19.9449 60.6063 20.176 60.6461H20.184C21.8819 60.965 23.5002 61.6745 24.9749 62.7666C25.4292 63.0934 25.8756 63.4522 26.2981 63.8587C28.012 65.477 29.4947 67.6214 30.6984 70.2122C30.6984 70.2362 30.6984 70.268 30.6984 70.292L30.7382 71.1051H29.4389L29.2316 70.6587C28.5381 69.1759 27.7329 67.8526 26.8242 66.7286C26.6887 66.5452 26.5452 66.3539 26.3778 66.1785C26.2343 65.9952 26.0749 65.8198 25.9155 65.6524C25.7082 65.4292 25.493 65.2139 25.2698 65.0067C25.0546 64.7994 24.8314 64.6001 24.6002 64.4247C24.4806 64.3291 24.369 64.2414 24.2494 64.1457C23.3407 63.4522 22.3841 62.9181 21.3718 62.5673C20.6304 62.2883 19.8572 62.1209 19.068 62.0571C19.06 62.0571 19.0441 62.0571 19.0361 62.0571C18.9086 62.0412 18.789 62.0332 18.6535 62.0332C18.5259 62.0173 18.3984 62.0173 18.2629 62.0173C18.239 62.0173 18.2151 62.0173 18.1912 62.0173C18.0716 62.0173 17.968 62.0173 17.8484 62.0332C17.6093 62.0412 17.3621 62.0571 17.123 62.097C16.6367 62.1607 16.1584 62.2484 15.6722 62.3919C15.5048 62.4318 15.3214 62.4876 15.154 62.5434C14.9548 62.6151 14.7475 62.6789 14.5402 62.7746C12.8503 63.4442 11.2241 64.5842 9.74938 66.1387C9.55009 66.338 9.35881 66.5452 9.18344 66.7605C9.04792 66.9119 8.9124 67.0714 8.77689 67.2308C8.00366 68.1715 7.27822 69.2317 6.60065 70.3956L6.48111 70.5949L5.22161 72.7871L5.14984 70.0289C5.16578 69.9811 5.1658 69.9253 5.1658 69.8615Z" fill="#534F59"/>
<path d="M6.66457 67.4535C9.35891 63.6988 12.675 61.3312 16.1825 60.6775C12.2765 61.4508 8.23493 64.4242 5.15795 69.861C4.64778 48.7677 7.50159 26.4626 13.0099 8.62978C14.9788 3.79092 17.8166 0.793529 21.045 0.147815C23.3886 -0.322519 25.7801 0.530461 27.7969 2.53935C30.9137 5.67226 30.563 9.52262 30.1723 13.6042L30.1165 14.2499C28.8092 28.4556 29.6303 46.5754 30.4195 64.1133C30.5151 66.1541 30.6028 68.1949 30.6905 70.2197C29.4868 67.6289 28.0041 65.4845 26.2903 63.8662C27.2707 64.775 28.1795 65.8592 29.0006 67.1028C28.9527 66.1382 28.9128 65.1576 28.865 64.1851C28.0758 46.6073 27.2548 28.4157 28.5622 14.1144L28.6259 13.4607C28.9926 9.59437 29.3035 6.26217 26.6888 3.63945C25.3337 2.27628 23.843 1.58273 22.3285 1.58273C21.9937 1.58273 21.6669 1.61462 21.34 1.68637C18.6457 2.22845 16.1984 4.88305 14.4607 9.16389C9.24734 26.1039 6.41745 47.2291 6.66457 67.4535Z" fill="#534F59"/>
<path d="M2.14456 84.2812C2.05688 87.0953 2.862 89.6223 4.54398 91.7986C6.83178 94.1583 9.51019 95.9918 12.5154 97.2593C14.8112 98.4949 17.2265 98.6942 19.9527 97.897C23.4602 96.3425 26.8321 94.0467 29.4706 91.4399C31.2881 89.6462 32.0454 86.6568 32.0135 81.4433C32.0056 80.8055 31.902 80.1837 31.7983 79.5061L31.7664 79.3467C30.9135 74.0853 29.1678 69.7567 26.8082 66.7354C27.717 67.8673 28.522 69.1827 29.2156 70.6654L29.4228 71.1119H30.7222L30.6823 70.2987C30.6823 70.2748 30.6823 70.2429 30.6823 70.219C31.8621 72.77 32.7469 75.7514 33.289 79.0916L33.3129 79.251C33.4325 79.9446 33.5441 80.678 33.552 81.4194C33.5839 87.0953 32.6832 90.4115 30.5468 92.532C27.7728 95.2823 24.2175 97.6898 20.5187 99.324L20.4231 99.3638C19.1875 99.7305 17.9838 99.9139 16.812 99.9139C15.0583 99.9139 13.3843 99.4993 11.8219 98.6543C8.68913 97.347 5.81939 95.3779 3.38013 92.8509L3.32432 92.7871C1.38726 90.292 0.462555 87.4062 0.566184 84.1935L0.574163 84.1058C1.44305 78.2147 3.06925 73.4954 5.13385 69.8683C5.13385 69.932 5.13385 69.9878 5.13385 70.0436L5.20557 72.8019L6.46507 70.6096C4.54395 74.0534 2.98954 78.5814 2.14456 84.2812Z" fill="#534F59"/>
</g>
</svg>
