<svg width="33" height="104" viewBox="0 0 33 104" fill="none" xmlns="http://www.w3.org/2000/svg">
<g opacity="0.5">
<path d="M13.8487 66.4438C15.993 65.3118 18.7352 64.7538 21.573 66.4597C22.0354 66.7387 22.4897 67.0496 22.9122 67.3845C23.0557 67.504 23.1992 67.6156 23.3347 67.7352C23.4702 67.8548 23.6137 67.9744 23.7413 68.1019C23.8768 68.2295 24.0123 68.349 24.1478 68.4846C24.2833 68.6121 24.4109 68.7476 24.5384 68.8831C24.666 69.0187 24.7855 69.1622 24.9131 69.2977C25.0486 69.4332 25.1602 69.5847 25.2798 69.7282C25.5189 70.0311 25.7421 70.334 25.9653 70.6609C26.3798 71.2667 26.7784 71.9124 27.1451 72.6219L27.2009 72.7335C27.2965 72.9089 27.3842 73.1002 27.4799 73.2915C28.1814 74.7663 28.7792 76.4643 29.2495 78.3456C29.6959 80.1154 30.0785 82.0047 30.3894 83.9578C30.8837 87.1066 31.2185 89.9605 30.2539 92.9978C29.2097 96.2901 27.0653 98.3468 23.5181 99.4708C22.8166 99.6941 22.1071 99.9412 21.3977 100.196C18.9504 101.057 16.4155 101.942 13.9284 101.759C11.4892 101.575 9.32092 100.045 7.2324 98.5621C6.82585 98.2751 6.41136 97.9801 6.01279 97.7011C5.2555 97.1909 4.47431 96.6568 3.87645 95.9951C2.80828 94.8074 2.20244 93.0536 2.17055 91.0367C2.13866 88.5894 2.77636 86.0783 3.49379 83.5034C4.25108 80.7611 5.27144 77.8753 6.7063 74.4076C6.82588 74.1206 6.94543 73.8496 7.08892 73.5705L7.2882 73.172C7.3998 72.9647 7.5114 72.7574 7.63097 72.5502C7.75851 72.3429 7.87807 72.1436 8.01358 71.9363C8.26867 71.5377 8.55569 71.1471 8.8586 70.7565C8.98615 70.5971 9.11368 70.4376 9.2492 70.2862C9.39268 70.1108 9.55208 69.9274 9.71151 69.76C9.83905 69.6165 9.97457 69.4731 10.1181 69.3375C10.3891 69.0585 10.6681 68.7795 10.971 68.5085C11.25 68.2613 11.5609 67.9903 11.9037 67.7193C12.1348 67.5439 12.382 67.3605 12.6371 67.1852C12.7646 67.0975 12.8921 67.0178 13.0356 66.9301C13.2748 66.7627 13.5537 66.6032 13.8487 66.4438Z" fill="white"/>
<path d="M26.619 68.9396C26.5632 68.8679 26.5074 68.8041 26.4596 68.7324C26.3879 68.6447 26.3241 68.565 26.2523 68.4852C26.0531 68.2461 25.8458 68.0229 25.6465 67.7997C25.511 67.6562 25.3595 67.5047 25.2161 67.3612C25.1842 67.3293 25.1523 67.2974 25.1204 67.2735C24.9689 67.1221 24.8016 66.9626 24.6421 66.8271C24.116 66.3488 23.55 65.9104 22.9681 65.5277C22.7768 65.3922 22.5695 65.2726 22.3702 65.1451C18.52 62.8332 13.9764 63.6543 9.90295 67.3851C9.68772 67.5844 9.48043 67.7837 9.27317 67.983C9.10577 68.1425 8.94635 68.3099 8.78693 68.4693C8.72315 68.541 8.65939 68.6048 8.59562 68.6766C8.43619 68.844 8.27675 69.0273 8.13326 69.2027C8.10935 69.2266 8.08542 69.2505 8.06948 69.2744C7.91802 69.4498 7.75859 69.6332 7.62308 69.8165C9.79928 44.833 12.9321 26.0993 17.4439 11.0486C19.923 3.5073 22.0992 1.57812 22.992 1.57812C23.0319 1.57812 23.0638 1.57813 23.0957 1.5861C23.853 1.72162 25.216 3.88994 24.9052 11.0885C23.7174 30.7309 24.2914 50.182 26.619 68.9396Z" fill="white"/>
<path d="M26.2447 68.4845C26.3167 68.5646 26.3807 68.6446 26.4528 68.7327C26.3887 68.6446 26.3167 68.5646 26.2447 68.4845Z" fill="#534F59"/>
<path d="M25.2079 67.3531C25.3514 67.4966 25.5029 67.648 25.6384 67.7915C25.4949 67.648 25.3514 67.5046 25.2079 67.3531Z" fill="#534F59"/>
<path d="M25.9576 70.6607C25.7344 70.3338 25.5112 70.0309 25.2721 69.728C25.5112 70.0229 25.7424 70.3338 25.9576 70.6607Z" fill="#534F59"/>
<path d="M25.1202 67.2647C24.9688 67.1132 24.8014 66.9617 24.642 66.8182C24.8014 66.9617 24.9608 67.1132 25.1202 67.2647Z" fill="#534F59"/>
<path d="M24.5383 68.8749C24.6738 69.0105 24.7934 69.146 24.913 69.2895C24.7854 69.154 24.6579 69.0184 24.5383 68.8749Z" fill="#534F59"/>
<path d="M24.1479 68.4768C24.0123 68.3412 23.8768 68.2217 23.7413 68.0941C23.8848 68.2137 24.0203 68.3412 24.1479 68.4768Z" fill="#534F59"/>
<path d="M23.3347 67.7351C23.4702 67.8467 23.6137 67.9663 23.7412 68.1018C23.6137 67.9743 23.4781 67.8467 23.3347 67.7351Z" fill="#534F59"/>
<path d="M23.3348 67.7352C23.1993 67.6156 23.0558 67.504 22.9123 67.3845C23.0478 67.4961 23.1993 67.6077 23.3348 67.7352Z" fill="#534F59"/>
<path d="M22.968 65.5189C22.7767 65.3834 22.5694 65.2638 22.3701 65.1362C22.5694 65.2638 22.7687 65.3834 22.968 65.5189Z" fill="#534F59"/>
<path d="M13.0038 66.9382C13.2748 66.7708 13.5538 66.6034 13.8487 66.4519C13.5538 66.6034 13.2748 66.7628 13.0038 66.9382Z" fill="#534F59"/>
<path d="M11.8718 67.727C12.1029 67.5517 12.3421 67.3683 12.6051 67.1929C12.35 67.3683 12.1029 67.5437 11.8718 67.727Z" fill="#534F59"/>
<path d="M17.4358 11.04C12.9239 26.0907 9.79115 44.8243 7.61494 69.8079C6.91345 70.7007 6.3156 71.6255 5.82935 72.614C8.02149 46.052 11.242 26.3378 15.9611 10.5776C17.3401 6.38444 20.1142 -0.543032 23.3665 0.0548515C25.6464 0.461412 26.7305 4.41541 26.4515 11.1595C25.2 31.8782 25.9174 52.3577 28.5879 72.04C28.0059 70.908 27.3523 69.8717 26.6189 68.9469C24.2912 50.1893 23.7173 30.7382 24.8971 11.0878C25.208 3.89725 23.8448 1.72892 23.0875 1.58543C23.0557 1.57746 23.0238 1.57746 22.9839 1.57746C22.0911 1.57746 19.9149 3.49866 17.4358 11.04Z" fill="#534F59"/>
<path d="M8.12521 69.1942C8.27667 69.0188 8.43611 68.8434 8.58757 68.668C8.65931 68.5963 8.72307 68.5325 8.77887 68.4607C8.9383 68.3013 9.09772 68.1339 9.26512 67.9745C9.4644 67.7752 9.67169 67.5759 9.89489 67.3766C13.9763 63.6458 18.52 62.8247 22.3622 65.1365C22.5615 65.2641 22.7687 65.3836 22.9601 65.5192C23.542 65.9098 24.108 66.3403 24.6341 66.8186C24.7935 66.9621 24.9609 67.1135 25.1124 67.265C25.1442 67.2889 25.1761 67.3208 25.208 67.3527C25.3435 67.4962 25.495 67.6476 25.6385 67.7911C25.8378 68.0143 26.045 68.2375 26.2443 68.4767C26.3161 68.5564 26.3798 68.6361 26.4515 68.7238C26.5074 68.7956 26.5632 68.8593 26.611 68.9311C27.3364 69.8638 27.998 70.9001 28.58 72.0241C28.5879 72.064 28.5879 72.1118 28.5959 72.1517L28.7075 72.9887L27.3683 73.0525L27.1929 72.7177L27.1371 72.6061C26.7704 71.9046 26.3798 71.2509 25.9573 70.645C25.7421 70.3182 25.5109 70.0073 25.2718 69.7123C25.1522 69.5688 25.0406 69.4174 24.9051 69.2818C24.7855 69.1383 24.666 68.9949 24.5305 68.8673C24.4029 68.7318 24.2754 68.5883 24.1399 68.4687C24.0043 68.3332 23.8768 68.2057 23.7333 68.0861C23.5978 67.9506 23.4623 67.831 23.3268 67.7194C23.1912 67.5918 23.0398 67.4802 22.9043 67.3686C22.4818 67.0338 22.0274 66.7229 21.5651 66.4439C18.7272 64.7379 15.9851 65.296 13.8408 66.4279C13.5458 66.5794 13.2668 66.7468 12.9957 66.9142C12.8602 67.0019 12.7247 67.0816 12.5972 67.1693C12.3341 67.3447 12.095 67.5281 11.8638 67.7034C11.521 67.9745 11.2102 68.2455 10.9312 68.4926C10.6283 68.7637 10.3493 69.0427 10.0782 69.3217C9.94271 69.4572 9.79921 69.6087 9.67167 69.7442C9.51224 69.9116 9.3528 70.095 9.20931 70.2703C9.0738 70.4218 8.93829 70.5892 8.81872 70.7407C8.51581 71.1313 8.22883 71.5219 7.97375 71.9205C7.83823 72.1198 7.71071 72.3271 7.59113 72.5343C7.46359 72.7336 7.352 72.9409 7.24837 73.1561L7.04908 73.5547L5.71786 73.6265L5.78958 72.7416C5.79755 72.6938 5.79757 72.638 5.80554 72.5981C6.2918 71.6176 6.88965 70.6849 7.59113 69.792C7.59113 69.8 7.59113 69.8 7.59113 69.808C7.73462 69.6246 7.88608 69.4333 8.03753 69.25C8.08536 69.242 8.10927 69.2181 8.12521 69.1942Z" fill="#534F59"/>
<path d="M0.60812 91.0612C0.568263 88.4065 1.24582 85.7759 1.98716 83.0894C2.76837 80.2913 3.80469 77.3417 5.26347 73.8262C5.43087 73.4196 5.62215 73.013 5.82941 72.6224C5.82144 72.6703 5.82147 72.7261 5.8135 72.7659L5.74173 73.6508L7.07295 73.579C6.93744 73.8581 6.80991 74.1291 6.69034 74.4161C5.25548 77.8838 4.23516 80.7696 3.47787 83.5119C2.76044 86.0788 2.1227 88.5979 2.15458 91.0452C2.18647 93.0621 2.79231 94.8238 3.86048 96.0037C4.45834 96.6653 5.23954 97.1994 5.99682 97.7096C6.40337 97.9886 6.80989 98.2836 7.21643 98.5706C9.30495 100.053 11.4732 101.584 13.9125 101.767C16.3996 101.951 18.9345 101.066 21.3817 100.205C22.0912 99.9497 22.8006 99.7026 23.5021 99.4793C27.0494 98.3553 29.1937 96.2986 30.238 93.0063C31.2025 89.961 30.8757 87.1151 30.3735 83.9663C30.0626 82.0132 29.688 80.1239 29.2336 78.3541C28.7633 76.4728 28.1654 74.7748 27.4639 73.3C27.3683 73.1087 27.2806 72.9174 27.1849 72.742L27.3603 73.0768L28.6995 73.013L28.5879 72.176C28.58 72.1361 28.5799 72.0883 28.572 72.0485C28.6756 72.2398 28.7633 72.4391 28.8589 72.6304C29.6003 74.2008 30.238 75.9945 30.7322 77.9715C31.1866 79.7891 31.5852 81.7262 31.904 83.7271C32.4301 87.0753 32.7809 90.1125 31.7127 93.4846C30.509 97.2393 27.9821 99.6866 23.9724 100.962C23.2869 101.177 22.5854 101.416 21.8919 101.664C19.5483 102.493 17.1249 103.354 14.598 103.354C14.327 103.354 14.0639 103.338 13.7849 103.322C10.9232 103.106 8.57955 101.448 6.32363 99.846C5.92506 99.5591 5.51856 99.2721 5.11999 99.001C4.29096 98.435 3.42204 97.8451 2.70461 97.048C1.38933 95.5732 0.647978 93.4527 0.60812 91.0612Z" fill="#534F59"/>
</g>
</svg>
