<svg width="50" height="97" viewBox="0 0 50 97" fill="none" xmlns="http://www.w3.org/2000/svg">
<g opacity="0.5">
<path d="M34.7491 1.62217C35.5383 1.83741 38.0015 3.69483 36.8297 18.3868C32.6526 29.8263 28.6509 38.7388 24.6015 45.5785C20.3925 38.0851 19.9063 28.5668 23.1188 16.5453C29.0176 4.79494 32.9954 1.11995 34.7491 1.62217Z" fill="white"/>
<path d="M24.4019 63.2364C23.6286 63.3719 22.8076 63.2524 22.0344 62.9096C16.9167 60.6057 11.9186 61.387 7.1676 65.2294C7.02412 65.3569 6.87267 65.4765 6.72918 65.604C6.44221 65.8591 6.16323 66.1302 5.90017 66.4092C5.76466 66.5447 5.63707 66.6882 5.50953 66.8317C6.2987 57.696 6.23495 47.7473 5.3262 36.5071C6.1074 23.5529 9.94964 14.8318 16.7333 10.5908L16.829 10.5191C19.8422 7.95215 21.0299 8.05579 21.4046 8.23117C22.0104 8.51018 22.3452 9.6342 22.3692 11.396C22.3851 12.6635 22.2177 13.9549 21.859 15.2463C21.7793 15.5174 21.7075 15.7964 21.6358 16.0674L21.6278 16.0754C21.5959 16.2029 21.564 16.3225 21.5322 16.4501L19.6987 23.3377L20.2647 22.2137C18.4871 32.4335 19.6908 40.748 23.9316 47.5001L24.6012 48.5524L25.2548 47.4922C28.9536 41.4496 32.6125 33.7249 36.375 24.0073L36.359 24.1907L38.32 18.8257C39.173 16.4979 40.0339 14.0585 40.8629 11.5953C41.2695 10.3915 41.8673 9.3233 42.6166 8.43843C43.4616 7.44993 44.2189 6.96365 44.745 7.08323C45.1276 7.17092 46.0922 7.72894 47.0168 11.1249C48.651 16.8646 47.8459 25.4821 44.474 38.2688C42.0746 46.9501 41.2933 56.285 42.1303 66.0425C41.9948 65.9229 41.8514 65.8193 41.7079 65.7156C41.6521 65.6758 41.6043 65.6359 41.5564 65.604C41.1658 65.333 40.7593 65.0859 40.3368 64.8786C35.9764 62.6943 30.771 62.1602 24.4019 63.2364Z" fill="white"/>
<path d="M8.14779 66.4322C12.4603 62.9405 16.7968 62.247 21.4122 64.3196C22.4645 64.79 23.5885 64.9494 24.6646 64.7581C30.699 63.7457 35.5935 64.2319 39.635 66.2568C40.3205 66.5996 40.9582 67.03 41.5322 67.5562C41.6517 67.6678 41.7554 67.7714 41.875 67.883C42.0902 68.1062 42.2974 68.3374 42.5047 68.5925L42.6721 68.7918L42.696 68.8237C43.1823 69.4853 43.5808 70.2028 43.8837 70.984C47.0803 79.2986 47.7978 85.1419 46.1078 88.8488C45.1751 90.8657 43.541 92.2766 41.0937 93.1615C37.387 94.4848 34.5093 95.3378 31.2729 94.1739C29.8859 93.6717 28.5546 92.8267 27.335 91.6628C27.0401 91.3838 26.7531 91.0809 26.4662 90.754C26.4104 90.6982 26.3386 90.5946 26.2669 90.475C25.8524 89.8612 25.5654 89.4865 25.1429 89.367C24.4494 89.1756 23.6682 89.7655 22.4725 90.7461C22.2333 90.9374 22.034 91.1128 21.9065 91.1925C20.2245 92.3085 18.0084 93.6717 15.7366 94.3493C13.7198 94.9791 11.974 95.011 10.2522 94.4609C9.23984 94.1341 8.29921 93.7594 7.46221 93.3449C5.73241 92.4839 4.47292 91.4715 3.73158 90.3236C3.04604 89.2793 2.57575 87.94 2.36849 86.3616C1.84238 82.4474 2.73516 78.3579 3.59608 74.8264C3.79537 74.0293 4.00261 73.2321 4.23379 72.4429C4.51279 71.4145 4.92732 70.442 5.45344 69.5491L5.48531 69.4933L5.67661 69.1984C6.18679 68.4012 6.78463 67.6758 7.45423 67.03C7.67743 66.8387 7.90865 66.6315 8.14779 66.4322Z" fill="white"/>
<path d="M23.1106 16.5534C19.9061 28.5748 20.3844 38.0931 24.5933 45.5866C28.6428 38.7548 32.6445 29.8423 36.8215 18.3949C37.9933 3.7029 35.5302 1.84547 34.741 1.63024C32.9953 1.12004 29.0175 4.79503 23.1106 16.5534ZM5.32635 36.5147C6.24307 47.7549 6.29885 57.7037 5.50968 66.8394C4.80022 67.6605 4.18645 68.5613 3.7002 69.5418L3.78787 68.7366C4.75241 59.1147 4.75241 48.5999 3.77989 36.5865V36.5307V36.4749C4.58501 22.9866 8.65043 13.851 15.8726 9.30705C18.6307 6.95538 20.5917 6.17415 22.0504 6.81986C23.278 7.37788 23.8919 8.86063 23.9237 11.3717C23.9237 11.4754 23.9237 11.571 23.9237 11.6747C28.603 3.23256 32.3735 -0.657664 35.1635 0.12357C37.7223 0.84103 38.8782 5.13781 38.6629 13.2212C38.9101 12.5197 39.1572 11.8022 39.3963 11.0848C39.8666 9.69767 40.5602 8.47002 41.4291 7.43369C42.6965 5.94297 43.9241 5.31319 45.0799 5.56829C46.5547 5.89513 47.6308 7.52935 48.4997 10.7021C50.2375 16.7925 49.4483 25.418 45.9568 38.6591V38.6751C43.4458 47.723 42.7363 57.5363 43.8444 67.8039C43.3422 67.1423 42.7603 66.5524 42.1146 66.0422C41.2776 56.2768 42.0588 46.9418 44.4582 38.2685C47.8221 25.4898 48.6273 16.8643 47.0011 11.1246C46.0764 7.72864 45.1118 7.17062 44.7292 7.08293C44.2031 6.96335 43.4458 7.44963 42.6008 8.43813C41.8515 9.33097 41.2537 10.3912 40.8471 11.595C40.0101 14.0582 39.1492 16.4976 38.3042 18.8254L36.3433 24.1904L36.3592 24.007C32.5967 33.7326 28.9457 41.4493 25.239 47.4919L24.5854 48.5521L23.9158 47.4998C19.675 40.7477 18.4633 32.4332 20.2489 22.2134L19.6829 23.3374L21.5164 16.4498C21.5482 16.3222 21.5801 16.2026 21.612 16.0751L21.62 16.0671C21.6917 15.7961 21.7635 15.5171 21.8432 15.246C22.2019 13.9626 22.3693 12.6711 22.3533 11.3957C22.3294 9.6339 21.9867 8.50988 21.3888 8.23086C21.0142 8.06346 19.8264 7.95185 16.8132 10.5188L16.7176 10.5905C9.94982 14.8395 6.11553 23.5606 5.32635 36.5147Z" fill="#534F59"/>
<path d="M5.90046 66.4168C6.17149 66.1378 6.4425 65.8668 6.72947 65.6117C6.87296 65.4841 7.0244 65.3646 7.16789 65.237C11.9109 61.3867 16.917 60.6054 22.0347 62.9172C22.8079 63.26 23.6289 63.3716 24.4021 63.2441C30.7634 62.1679 35.9767 62.702 40.3291 64.8863C40.7516 65.0935 41.1661 65.3407 41.5487 65.6117C41.6045 65.6436 41.6524 65.6834 41.7002 65.7233C41.8437 65.8269 41.9872 65.9385 42.1227 66.0501C42.7684 66.5603 43.3423 67.1582 43.8525 67.8119C43.8605 67.8916 43.8684 67.9634 43.8764 68.0431L43.972 68.904H42.7444L42.6886 68.8403L42.6648 68.8084C42.4256 68.4815 42.1546 68.1786 41.8676 67.8916C41.756 67.772 41.6444 67.6684 41.5248 67.5648C40.9509 67.0386 40.3212 66.6082 39.6276 66.2654C35.5861 64.2406 30.6837 63.7463 24.6572 64.7667C23.5811 64.95 22.4571 64.7986 21.4049 64.3282C16.7894 62.2556 12.453 62.9491 8.14043 66.4408C7.90129 66.6401 7.66215 66.8473 7.44692 67.0626C6.67369 67.788 6.01203 68.6171 5.46997 69.5258L5.4381 69.5816L3.69235 69.6135L3.70033 69.5498C4.18659 68.5692 4.80036 67.6684 5.50982 66.8473C5.63736 66.6879 5.77291 66.5524 5.90046 66.4168Z" fill="#534F59"/>
<path d="M0.82254 86.5937C0.264539 82.4085 1.18122 78.1516 2.08199 74.4766C2.28128 73.6635 2.49651 72.8504 2.72768 72.0452C2.96682 71.1683 3.29368 70.3233 3.70022 69.5341L3.69224 69.5979L5.43799 69.566C4.91187 70.4668 4.49733 71.4314 4.21833 72.4597C3.99513 73.2489 3.78789 74.0461 3.58063 74.8433C2.71174 78.3748 1.82693 82.4643 2.35304 86.3785C2.5603 87.9569 3.02261 89.2961 3.71613 90.3404C4.45747 91.4884 5.72498 92.5008 7.44681 93.3617C8.28381 93.7683 9.21647 94.1509 10.2368 94.4778C11.9586 95.0278 13.6964 94.996 15.7212 94.3662C17.993 93.6886 20.2091 92.3254 21.8911 91.2094C22.0186 91.1217 22.2179 90.9543 22.457 90.7629C23.6607 89.7824 24.4339 89.1925 25.1275 89.3838C25.542 89.5034 25.8289 89.8781 26.2514 90.4919C26.3311 90.6115 26.3949 90.7151 26.4507 90.7709C26.7377 91.0977 27.0247 91.4007 27.3196 91.6797C28.5392 92.8436 29.8705 93.6886 31.2575 94.1908C34.4939 95.3547 37.3716 94.5017 41.0783 93.1784C43.5256 92.2935 45.1677 90.8905 46.0924 88.8657C47.7903 85.1588 47.0649 79.3155 43.8683 71.0009C43.5654 70.2197 43.1748 69.5022 42.6806 68.8406L42.7364 68.9043H43.964L43.8683 68.0434C43.8604 67.9637 43.8524 67.8919 43.8444 67.8122C44.4502 68.6014 44.9445 69.4942 45.3112 70.4429C48.707 79.2916 49.4005 85.3501 47.4874 89.5114C46.3953 91.9029 44.4104 93.6328 41.5885 94.6372C38.376 95.7852 34.733 97.0925 30.7314 95.6496C29.1371 95.0757 27.6305 94.1191 26.2434 92.8117C25.9246 92.5008 25.5977 92.166 25.2948 91.8232C25.2151 91.7355 25.1035 91.5681 24.968 91.3847C24.9043 91.2891 24.8006 91.1376 24.705 91.0101C24.3303 91.2333 23.7325 91.7275 23.4375 91.9667C23.1506 92.2058 22.8955 92.4051 22.744 92.5088C20.9823 93.6886 18.6227 95.1235 16.1755 95.8649C14.9718 96.2395 13.824 96.4149 12.7159 96.4149C11.7035 96.4149 10.7231 96.2714 9.77446 95.9605C8.68237 95.6098 7.67795 95.2112 6.76921 94.7568C4.79229 93.7763 3.33351 92.5725 2.43274 91.2014C1.60371 89.9578 1.06168 88.4033 0.82254 86.5937Z" fill="#534F59"/>
</g>
</svg>
