<svg width="46" height="95" viewBox="0 0 46 95" fill="none" xmlns="http://www.w3.org/2000/svg">
<g opacity="0.5">
<path d="M31.2673 1.58959C31.7217 1.66134 32.8138 2.32299 33.7066 6.6995C33.037 6.66761 32.3275 6.79516 31.6419 7.07417C30.8687 7.38507 30.223 7.91121 29.8324 8.54895C29.1868 9.60122 29.2346 10.8209 29.2824 11.8891L29.2904 12.0725C29.3621 13.7306 29.2585 15.4286 29.1628 17.0787C29.115 17.9796 29.0592 18.8804 29.0353 19.7812C28.9954 21.0965 28.9237 22.4119 28.828 23.6873C28.4534 28.5342 27.8077 32.4563 26.7873 36.0516C25.767 39.6309 24.356 42.8037 22.5784 45.522C21.024 35.8204 21.9008 25.8397 25.1293 16.5526L25.3844 15.8352C26.2533 13.3719 27.154 10.8209 26.6917 8.1663C26.6199 7.75974 26.5243 7.40101 26.3808 7.08214C29.2425 1.87657 30.7651 1.5019 31.2673 1.58959Z" fill="white"/>
<path d="M28.6608 62.2067C30.6935 62.1748 32.7183 62.5574 34.6075 63.2749C35.038 63.4423 35.4684 63.6336 35.8829 63.8329L35.9307 63.8568L38.7766 65.6903C40.0042 66.6629 41.0006 67.9862 41.6304 69.5248C42.3079 71.1749 42.8898 72.8889 43.3601 74.6506C44.4443 78.7561 43.2087 83.0608 40.1317 85.8829C35.8032 89.8528 31.953 90.6261 28.342 88.2505C26.2056 86.8395 23.3757 87.2141 21.7496 89.1114C18.6885 92.6908 13.5868 93.8307 9.04308 91.9573C4.4037 90.0441 1.87676 85.6676 2.27533 80.2468C2.41085 77.9908 2.65793 76.1812 3.04056 74.531C3.1681 74.0049 3.31163 73.4947 3.48701 73.0005L3.5109 73.0084C4.38775 70.8401 5.57552 68.9667 7.01835 67.476C8.74018 65.794 10.8685 64.5504 13.2042 63.8967C14.7267 63.5459 16.3131 63.4662 17.9791 63.3785C18.0907 63.3706 18.1943 63.3626 18.3059 63.3626C18.6168 63.3626 18.9277 63.3706 19.2385 63.3865C20.4103 63.4343 21.5662 63.3068 22.7061 63.0039C23.0409 62.9162 23.3678 62.8365 23.6866 62.7647C23.7424 62.7567 23.7903 62.7488 23.8381 62.7408C25.5041 62.4777 27.0665 62.2226 28.6608 62.2067Z" fill="white"/>
<path d="M38.6411 14.2249C42.1246 22.38 41.734 31.6193 40.905 39.5831C40.7137 41.4246 40.4985 43.274 40.2673 45.1155C39.518 51.2936 38.7448 57.6551 39.1354 63.9767C38.5774 63.5781 37.9954 63.2114 37.3976 62.8766C37.3816 62.8686 37.3577 62.8527 37.3418 62.8447C37.3019 62.8208 37.262 62.7969 37.2222 62.781C33.2365 60.5568 28.6848 60.0546 23.4157 61.2424C22.483 61.3859 21.5184 61.5453 20.5778 61.641C19.8046 61.7287 19.0154 61.7685 18.2422 61.8004C17.461 61.7925 16.6957 61.8164 15.9624 61.8642C14.8862 61.9359 13.826 62.1193 12.8056 62.3983C12.7977 62.4063 12.7817 62.4063 12.7658 62.4063C12.3832 62.494 12.0085 62.5896 11.6339 62.7172C9.40984 63.4346 7.37713 64.7898 5.67124 66.6473C5.66327 66.6552 5.64731 66.6632 5.64731 66.6792C5.25671 67.0698 4.90597 67.4684 4.5632 67.8909C5.99009 60.2061 6.90681 52.3937 7.30538 44.6053C7.34524 43.9357 7.37712 43.274 7.40103 42.6044C7.54452 39.3918 7.70395 36.0675 8.29383 32.8788C9.09098 28.6139 10.7889 24.1497 13.3158 19.5979C15.5 15.6757 18.1306 11.9768 21.1278 8.63666C21.7018 7.99892 22.2758 7.40901 22.9533 7.09811C23.1925 6.9865 23.4954 6.92273 23.7903 6.92273C24.1172 6.92273 24.436 7.01042 24.6592 7.22566C24.9063 7.45684 25.0657 7.84746 25.1694 8.42142C25.5679 10.6854 24.7309 13.0371 23.9258 15.309L23.6707 16.0424C20.1474 26.1666 19.3502 37.0879 21.3909 47.6266L21.7178 49.3405L22.762 47.9535C25.1614 44.7807 27.0108 40.9144 28.2782 36.4741C29.3305 32.7832 30.0001 28.7574 30.3827 23.8069C30.4863 22.4996 30.5501 21.1603 30.59 19.8211C30.6139 18.9282 30.6697 18.0513 30.7175 17.1585C30.8132 15.4764 30.9088 13.7386 30.845 12.0008L30.8371 11.8174C30.7972 10.8767 30.7574 9.99984 31.1639 9.35412C31.3791 8.99539 31.7618 8.69246 32.2241 8.50911C32.9416 8.21416 33.7068 8.16633 34.2807 8.36562C34.472 8.49317 34.7271 8.5968 35.054 8.73232L35.1815 8.78812C35.3409 8.86784 35.3968 8.9077 35.5084 9.02728C35.9229 9.48167 36.3214 10.0078 36.728 10.6137C37.4294 11.658 38.0512 12.8378 38.6411 14.2249Z" fill="white"/>
<path d="M37.2221 62.7887C34.6075 61.3777 31.6262 60.6284 28.6449 60.6603C26.923 60.6762 25.241 60.9552 23.5989 61.2183C23.5351 61.2262 23.4714 61.2342 23.4156 61.2502C28.6847 60.0624 33.2364 60.5646 37.2221 62.7887Z" fill="#534F59"/>
<path d="M34.6071 63.2756L35.8825 63.8336C35.468 63.6263 35.0455 63.443 34.6071 63.2756Z" fill="#534F59"/>
<path d="M23.8455 62.7415C23.7897 62.7495 23.7418 62.7575 23.694 62.7655C25.4318 62.3748 27.0739 62.1755 28.6522 62.1755L34.6149 63.2756C32.7257 62.5582 30.7089 62.1755 28.6682 62.2074C27.0659 62.2234 25.5035 62.4785 23.8455 62.7415Z" fill="#534F59"/>
<path d="M23.6946 62.7648C23.3677 62.8365 23.0409 62.9162 22.7141 63.0039C21.5742 63.3068 20.4183 63.4264 19.2465 63.3866C18.9356 63.3706 18.6247 63.3627 18.3138 63.3627C19.111 63.3069 19.924 63.267 20.7292 63.1873C21.7256 63.0757 22.73 62.9162 23.6946 62.7648Z" fill="#534F59"/>
<path d="M23.4152 61.2419C23.0485 61.3216 22.6898 61.4013 22.3152 61.505C21.3347 61.76 20.3064 61.8717 19.3099 61.8318C18.9432 61.8159 18.5925 61.8079 18.2338 61.7999C19.007 61.7601 19.7962 61.7202 20.5694 61.6405C21.518 61.5448 22.4826 61.3933 23.4152 61.2419Z" fill="#534F59"/>
<path d="M18.3136 63.3547C18.202 63.3547 18.0983 63.3627 17.9867 63.3707C16.3207 63.4583 14.7344 63.5381 13.2119 63.8888C14.1365 63.6258 15.0851 63.4663 16.0577 63.4025C16.6476 63.3627 17.2534 63.3467 17.8752 63.3467C18.0187 63.3467 18.1701 63.3467 18.3136 63.3547Z" fill="#534F59"/>
<path d="M18.2339 61.8002C18.1223 61.8162 18.0107 61.8162 17.8991 61.8241C16.2091 61.9118 14.4873 61.9995 12.7974 62.3981C13.8177 62.1191 14.8779 61.9357 15.954 61.864C16.6874 61.8162 17.4527 61.7922 18.2339 61.8002Z" fill="#534F59"/>
<path d="M11.6335 62.7178C12.0081 62.5902 12.3828 62.4945 12.7654 62.4069C10.0631 63.1722 7.61587 64.6549 5.67084 66.6478C7.37673 64.7904 9.40943 63.4352 11.6335 62.7178Z" fill="#534F59"/>
<path d="M7.026 67.4682C8.50072 65.9297 10.2306 64.7977 12.1039 64.1839C12.4705 64.0643 12.8372 63.9686 13.2118 63.8889C10.8762 64.5426 8.74783 65.7862 7.026 67.4682Z" fill="#534F59"/>
<path d="M4.53906 68.0105C4.8898 67.5481 5.24853 67.0937 5.6471 66.6792C5.6471 66.6632 5.66307 66.6553 5.67104 66.6473C7.61607 64.6464 10.0633 63.1716 12.7656 62.4063C12.7815 62.4063 12.7975 62.4063 12.8054 62.3983C14.4954 61.9998 16.2172 61.9121 17.9072 61.8244C18.0188 61.8164 18.1304 61.8164 18.242 61.8005C18.6007 61.8084 18.9515 61.8164 19.3181 61.8324C20.3146 61.8722 21.3349 61.7606 22.3233 61.5055C22.698 61.4019 23.0567 61.3222 23.4234 61.2424C23.4872 61.2265 23.551 61.2185 23.6068 61.2105C25.2489 60.9475 26.9388 60.6685 28.6527 60.6525C31.634 60.6206 34.6153 61.37 37.23 62.781C37.2698 62.7969 37.3097 62.8209 37.3496 62.8448C37.3655 62.8527 37.3894 62.8687 37.4054 62.8767C38.2105 63.339 38.9997 63.8652 39.7569 64.471L40.8171 65.4436C40.8251 65.5073 40.8251 65.5631 40.8331 65.6189L41.0244 67.6039L39.5497 66.2806C38.4656 65.316 37.2539 64.4949 35.9386 63.8492L35.8908 63.8253L34.6154 63.2673L28.6527 62.1672C27.0823 62.1672 25.4322 62.3665 23.6945 62.7571C22.7299 62.9085 21.7255 63.0759 20.7291 63.1716C19.9239 63.2593 19.1109 63.2992 18.3137 63.347C18.1703 63.339 18.0188 63.339 17.8833 63.339C17.2536 63.339 16.6557 63.355 16.0658 63.3948C15.0933 63.4586 14.1367 63.618 13.22 63.8811C12.8453 63.9608 12.4786 64.0565 12.1119 64.1761C10.2386 64.7899 8.50884 65.9139 7.03412 67.4604C5.47172 68.983 4.24412 70.8644 3.50278 72.9849L2.05197 72.5384C2.07589 72.4428 2.09184 72.3471 2.11576 72.2515C2.70564 70.6651 3.54266 69.1903 4.57098 67.8909C4.55503 67.9387 4.54703 67.9706 4.53906 68.0105Z" fill="#534F59"/>
<path d="M22.5705 45.5141C24.3481 42.7957 25.7591 39.6229 26.7795 36.0436C27.7998 32.4483 28.4535 28.5262 28.8202 23.6794C28.9238 22.4039 28.9876 21.0886 29.0274 19.7732C29.0513 18.8724 29.1071 17.9716 29.1549 17.0708C29.2506 15.4206 29.3463 13.7226 29.2825 12.0645L29.2745 11.8811C29.2267 10.8129 29.1789 9.60122 29.8246 8.54098C30.2231 7.90323 30.8609 7.3771 31.6341 7.0662C32.3196 6.78718 33.0291 6.65964 33.6987 6.69152C32.8059 2.31502 31.7138 1.65336 31.2594 1.58162C30.7572 1.49393 29.2426 1.8686 26.3729 7.0662C26.5084 7.38507 26.6121 7.73583 26.6838 8.15036C27.1462 10.805 26.2454 13.3639 25.3765 15.8192L25.1214 16.5367C21.893 25.8318 21.0161 35.8124 22.5705 45.5141ZM5.76675 44.5256C5.79863 43.8639 5.83051 43.2102 5.8624 42.5406C6.00589 39.2722 6.15731 35.9001 6.77909 32.6078C7.60812 28.1755 9.3459 23.5439 11.9685 18.8485C14.2165 14.8148 16.9108 11.0361 19.9798 7.60828C20.6494 6.8669 21.3668 6.11756 22.3234 5.68708C23.2003 5.29646 24.396 5.21675 25.3287 5.79071C27.7201 1.58959 29.713 -0.23595 31.5305 0.0590058C33.332 0.353961 34.5596 2.61795 35.3806 7.1778C35.4763 7.21766 35.564 7.25752 35.6437 7.28941C35.7473 7.32927 35.8111 7.36115 35.851 7.3771C36.1937 7.53653 36.409 7.71191 36.6561 7.98295C37.1184 8.50112 37.5648 9.07509 38.0112 9.73674C38.7765 10.8767 39.4541 12.1362 40.0758 13.611C43.6949 22.093 43.3122 31.5874 42.4513 39.7425C42.26 41.592 42.0368 43.4494 41.8056 45.2988C41.0085 51.9154 40.1794 58.7632 40.8172 65.4435L39.757 64.4709C38.9997 63.8651 38.2105 63.339 37.4054 62.8766C38.0112 63.2114 38.5932 63.5701 39.1432 63.9767C38.7446 57.6631 39.5258 51.2936 40.2751 45.1155C40.4983 43.274 40.7135 41.4245 40.9128 39.5831C41.7498 31.6193 42.1325 22.372 38.649 14.2248C38.0591 12.8378 37.4373 11.6659 36.7198 10.6057C36.3133 9.99981 35.9147 9.47367 35.5002 9.01928C35.3886 8.89173 35.3408 8.85985 35.1734 8.78013L35.0458 8.72433C34.719 8.58881 34.464 8.48517 34.2726 8.35763C33.6987 8.1663 32.9334 8.21413 32.216 8.50111C31.7536 8.68447 31.371 8.98739 31.1558 9.34612C30.7492 9.99184 30.7891 10.8687 30.829 11.8094L30.8369 11.9928C30.9087 13.7306 30.805 15.4684 30.7094 17.1505C30.6615 18.0433 30.6058 18.9202 30.5819 19.8131C30.542 21.1523 30.4702 22.4916 30.3746 23.799C29.984 28.7494 29.3223 32.7752 28.2701 36.4661C27.0027 40.9064 25.1533 44.7727 22.7539 47.9455L21.7096 49.3326L21.3828 47.6186C19.3501 37.0799 20.1472 26.1586 23.6626 16.0344L23.9177 15.301C24.7228 13.0211 25.5598 10.6694 25.1612 8.41343C25.0576 7.83946 24.8982 7.45682 24.6511 7.21766C24.4279 7.00242 24.109 6.91473 23.7822 6.91473C23.4872 6.91473 23.1843 6.98648 22.9452 7.09011C22.2676 7.40101 21.6937 7.99889 21.1198 8.62866C18.1225 11.9768 15.4919 15.6677 13.3077 19.5899C10.7728 24.1417 9.08285 28.6059 8.2857 32.8708C7.69582 36.0595 7.54436 39.3838 7.3929 42.5964C7.36899 43.266 7.33711 43.9277 7.29725 44.5973C6.89868 52.3857 5.98196 60.1981 4.55507 67.8829C4.55507 67.8908 4.55507 67.8908 4.55507 67.8908C3.52676 69.1902 2.68974 70.665 2.09985 72.2514C4.06083 63.1556 5.29643 53.8207 5.76675 44.5256Z" fill="#534F59"/>
<path d="M1.54181 74.1806C1.69327 73.5189 1.88456 72.8812 2.11573 72.2594C2.09182 72.3551 2.07586 72.4507 2.05195 72.5464L3.50275 72.9928C3.32738 73.4871 3.17593 73.9973 3.05635 74.5234C2.66575 76.1735 2.42664 77.9831 2.29113 80.2392C1.88458 85.6679 4.4195 90.0365 9.05888 91.9497C13.6026 93.8231 18.7043 92.6751 21.7654 89.1038C23.3915 87.2065 26.2214 86.8318 28.3577 88.2428C31.9688 90.6184 35.819 89.8451 40.1475 85.8752C43.2245 83.0532 44.46 78.7484 43.3759 74.643C42.9136 72.8892 42.3317 71.1673 41.6461 69.5171C41.0084 67.9865 40.02 66.6632 38.7924 65.6827L35.9465 63.8492C37.2539 64.4949 38.4735 65.316 39.5576 66.2806L41.0323 67.6039L40.841 65.6189C40.833 65.5551 40.833 65.4993 40.8251 65.4435C42.2918 67.277 42.7303 68.0742 43.089 68.9192C43.7905 70.6332 44.3963 72.4268 44.8746 74.2444C46.1022 78.9079 44.6992 83.7946 41.1997 87.0072C36.3451 91.4634 31.7376 92.3164 27.5127 89.5342C26.0301 88.5537 24.0691 88.8008 22.9451 90.1082C20.5696 92.8983 17.11 94.3891 13.5149 94.3891C11.8329 94.3891 10.127 94.0622 8.47693 93.3846C3.2636 91.2402 0.306203 86.1622 0.760575 80.1275C0.880147 77.8157 1.13527 75.9184 1.54181 74.1806Z" fill="#534F59"/>
</g>
</svg>
