<svg width="43" height="83" viewBox="0 0 43 83" fill="none" xmlns="http://www.w3.org/2000/svg">
<g opacity="0.5">
<path d="M21.0608 24.8438C21.284 22.9067 21.6746 20.9058 22.2087 18.8809C24.4885 11.8977 27.5814 6.8037 31.6389 3.33598C34.1818 1.27129 34.8833 1.59016 34.963 1.63799C35.0507 1.6938 35.7522 2.26776 34.8673 6.3254L33.2651 7.60088C32.6194 8.19876 32.1172 8.73288 31.8541 9.0358C29.3352 11.9056 27.1749 15.4053 25.2378 19.7339C23.9066 22.6915 22.8783 25.9041 22.1608 29.2761C21.7862 31.014 21.4992 32.8395 21.3 34.689C21.292 34.7368 21.284 34.7846 21.276 34.8325C20.7419 31.58 20.6622 28.2318 21.0608 24.8438Z" fill="white"/>
<path d="M17.06 13.2297C20.7189 9.04449 21.8907 8.69374 22.1697 8.69374C22.1936 8.69374 22.2095 8.70171 22.2255 8.70171C22.2335 8.70968 22.2972 8.74954 22.4248 8.98072C23.3973 10.7744 22.7436 12.4963 21.9943 14.4812C21.795 14.9994 21.5878 15.5255 21.4204 16.0517C21.1732 16.8329 20.9421 17.6142 20.7428 18.3954C20.1689 20.5159 19.7703 22.6125 19.5311 24.6612C19.3637 26.144 19.276 27.6187 19.276 29.0855C19.276 32.8801 19.85 36.587 20.9979 40.1743L22.4726 39.7039C22.2095 38.8908 22.4646 37.3682 22.6639 36.1406C22.7436 35.6702 22.8074 35.2238 22.8472 34.8651C23.0465 33.0635 23.3256 31.2937 23.6843 29.6117C24.3698 26.3432 25.3822 23.2343 26.6576 20.3644C28.5389 16.1872 30.6194 12.8072 33.0268 10.0569C33.2659 9.78587 33.7283 9.29959 34.2863 8.77345L36.4386 7.05155L37.0444 6.57324C38.2162 5.83187 39.1568 5.52894 39.6431 5.74418C40.0416 5.91956 40.2091 6.52541 40.2808 7.00372C40.6236 9.20393 39.8743 11.4918 39.1648 13.708C38.7742 14.9117 38.3836 16.1553 38.1524 17.375C37.1879 22.461 36.6139 27.0607 36.3828 31.4452C36.1516 36.013 36.2473 40.6207 36.6857 45.1248C36.6937 45.2045 37.3872 51.2391 38.0807 55.1293C37.8336 54.9061 37.5705 54.6909 37.3074 54.4677C37.1002 54.3082 36.8929 54.1408 36.6697 53.9814C36.5581 53.8937 36.4545 53.822 36.3429 53.7422C36.1357 53.5987 35.9204 53.4473 35.6972 53.2958C35.498 53.1603 35.2907 53.0248 35.0754 52.8972C34.908 52.7856 34.7327 52.682 34.5573 52.5784C33.8638 52.1559 33.1304 51.7652 32.405 51.4145C32.2217 51.3188 32.0383 51.2391 31.855 51.1514C30.9303 50.7289 30.0056 50.3542 29.0809 50.0433C28.8099 49.9477 28.5309 49.86 28.2599 49.7803C28.1642 49.7484 28.0765 49.7165 27.9808 49.6926C27.7178 49.6129 27.4627 49.5411 27.1997 49.4773C26.9446 49.4056 26.6974 49.3418 26.4424 49.294C26.1315 49.2143 25.8286 49.1585 25.5257 49.1027C25.2467 49.0548 24.9756 49.007 24.7046 48.9751C24.4256 48.9353 24.1546 48.9034 23.8915 48.8795C20.8943 48.6323 17.7933 49.2222 14.7801 50.5854C14.7801 50.5934 14.7722 50.5934 14.7722 50.5934C13.9193 50.984 13.0663 51.4304 12.2293 51.9406C11.9742 52.0921 11.7191 52.2595 11.472 52.4189C11.3524 52.4986 11.2329 52.5704 11.1133 52.6501C10.9299 52.7697 10.7466 52.8893 10.5792 53.0168C9.35161 53.8698 8.24355 54.7626 7.26306 55.6953C7.12755 55.8308 6.98405 55.9584 6.85651 56.1019C6.18691 56.7715 5.57313 57.4571 5.03107 58.1666C5.42964 50.6093 6.01155 42.7093 7.47033 34.9847C8.60227 28.9978 10.2045 24.1032 12.3568 20.0137C13.6323 17.5982 15.1309 15.406 16.8208 13.5007L17.06 13.2297Z" fill="white"/>
<path d="M36.7015 4.97077C38.1762 4.11779 39.348 3.91052 40.2727 4.33302C41.1017 4.7077 41.6119 5.52879 41.8032 6.77239C42.2018 9.32336 41.3967 11.7946 40.6314 14.1861C40.2329 15.3899 39.8741 16.5298 39.6589 17.6698C38.7183 22.6761 38.1443 27.2041 37.9211 31.5168C37.6899 36.0129 37.7856 40.5329 38.2161 44.9731C38.3675 46.4878 39.5313 55.6872 40.1531 57.3533L39.9458 57.0743C39.3958 56.3967 38.7661 55.743 38.0726 55.1212C37.387 51.231 36.6855 45.1963 36.6776 45.1166C36.2471 40.6126 36.1435 36.0049 36.3747 31.4371C36.6058 27.0526 37.1797 22.4608 38.1443 17.3669C38.3755 16.1472 38.774 14.8956 39.1567 13.6999C39.8661 11.4837 40.6155 9.19581 40.2727 6.9956C40.201 6.51729 40.0336 5.91143 39.635 5.73606C39.1487 5.52082 38.2001 5.82375 37.0363 6.56512L36.4305 7.04343L36.3268 6.91588C36.4783 6.20639 36.6058 5.56068 36.7015 4.97077Z" fill="#534F59"/>
<path d="M37.2835 54.4666C37.0842 54.3071 36.869 54.1397 36.6458 53.9803C36.869 54.1397 37.0763 54.3071 37.2835 54.4666Z" fill="#534F59"/>
<path d="M36.1672 5.28872C36.3505 5.16914 36.5339 5.06551 36.7013 4.96985C36.6056 5.55976 36.4861 6.20547 36.3266 6.92293L34.812 6.58015C34.836 6.49246 34.8519 6.41274 34.8678 6.32505L36.1672 5.28872Z" fill="#534F59"/>
<path d="M36.3267 53.7412C36.1195 53.5897 35.9042 53.4382 35.681 53.2947C35.9042 53.4462 36.1195 53.5897 36.3267 53.7412Z" fill="#534F59"/>
<path d="M35.0672 52.8966C34.8998 52.785 34.7244 52.6814 34.5491 52.5778C34.7244 52.6814 34.8918 52.785 35.0672 52.8966Z" fill="#534F59"/>
<path d="M31.8466 51.1511C32.0299 51.2388 32.2132 51.3185 32.3966 51.4142C32.2053 51.3265 32.0219 51.2388 31.8466 51.1511Z" fill="#534F59"/>
<path d="M29.0728 50.0504C28.8018 49.9547 28.5308 49.867 28.2518 49.7873C28.5228 49.859 28.8018 49.9547 29.0728 50.0504Z" fill="#534F59"/>
<path d="M28.2513 49.7871C28.1556 49.7552 28.0679 49.7233 27.9723 49.6994C28.0679 49.7233 28.1636 49.7552 28.2513 49.7871Z" fill="#534F59"/>
<path d="M27.191 49.485C26.9359 49.4132 26.6808 49.3495 26.4337 49.3016C26.6888 49.3495 26.9359 49.4132 27.191 49.485Z" fill="#534F59"/>
<path d="M23.4285 15.0307C24.0263 13.4602 24.6879 11.7303 24.3691 9.92871C26.1547 6.77986 28.2352 4.20498 30.6426 2.14029C33.034 0.203147 34.6602 -0.370819 35.7682 0.322725C36.7647 0.944524 37.0676 2.40336 36.7009 4.97027C36.5335 5.06593 36.3502 5.16956 36.1668 5.28914L34.8675 6.32547C35.7523 2.26784 35.0428 1.69387 34.9631 1.63807C34.8834 1.59024 34.1899 1.26339 31.639 3.33606C27.5816 6.80378 24.4966 11.8977 22.2088 18.881C22.4161 18.0998 22.6393 17.3186 22.8944 16.5293C23.0618 16.0271 23.2451 15.5249 23.4285 15.0307Z" fill="#534F59"/>
<path d="M24.3777 9.92902C24.6965 11.7306 24.0269 13.4605 23.437 15.031C23.2537 15.5252 23.0623 16.0194 22.9029 16.5217C22.6478 17.3109 22.4246 18.0921 22.2174 18.8733L20.7427 18.395C21.779 15.2143 22.9906 12.3923 24.3777 9.92902Z" fill="#534F59"/>
<path d="M21.061 24.8441C20.6624 28.2321 20.7421 31.5803 21.2762 34.8408C21.2842 34.785 21.2922 34.7371 21.3001 34.6973C21.4994 32.8478 21.7864 31.0302 22.161 29.2844C22.8705 25.9124 23.8988 22.6997 25.238 19.7422C27.183 15.4135 29.3433 11.9139 31.8543 9.04408C32.1174 8.74116 32.6195 8.20705 33.2652 7.60917L34.8675 6.33368C34.8516 6.42137 34.8356 6.50109 34.8117 6.58878L36.3263 6.93156L36.4299 7.05911L34.2776 8.78102C33.7196 9.30715 33.2573 9.79343 33.0181 10.0645C30.6107 12.8147 28.5302 16.1868 26.6489 20.372C25.3735 23.2338 24.3691 26.3508 23.6756 29.6192C23.3169 31.3093 23.0379 33.071 22.8386 34.8726C22.7988 35.2393 22.727 35.6778 22.6552 36.1481C22.456 37.3678 22.2009 38.8984 22.4639 39.7115L20.9892 40.1818C19.8414 36.5945 19.2674 32.8877 19.2674 29.0931C19.2674 27.6263 19.3551 26.1595 19.5225 24.6688C19.7616 22.628 20.1682 20.5234 20.7341 18.4029L22.2088 18.8813C21.6748 20.8981 21.2842 22.907 21.061 24.8441Z" fill="#534F59"/>
<path d="M14.7715 50.5933C14.7636 50.6012 14.7715 50.6012 14.7715 50.5933V50.5933Z" fill="#534F59"/>
<path d="M11.113 52.6571C11.2326 52.5774 11.3522 52.5057 11.4717 52.426C11.3442 52.4977 11.2326 52.5774 11.113 52.6571Z" fill="#534F59"/>
<path d="M11.113 52.6573C10.9377 52.7848 10.7543 52.8964 10.579 53.024C10.7464 52.8964 10.9297 52.7689 11.113 52.6573Z" fill="#534F59"/>
<path d="M7.26249 55.7031C7.12698 55.8386 6.98348 55.9662 6.85594 56.1097C6.99146 55.9662 7.12698 55.8307 7.26249 55.7031Z" fill="#534F59"/>
<path d="M13.0419 53.2711C9.13588 55.6627 6.36184 58.397 4.79944 61.4023L3.17323 64.5432L3.34065 61.0037C3.34065 60.9479 3.34863 60.8921 3.34863 60.8443C3.37254 60.7885 3.40441 60.7407 3.42833 60.6929C3.87473 59.8319 4.40882 58.9869 5.03059 58.1738C5.57265 57.4643 6.18644 56.7707 6.85604 56.1091C6.99155 55.9736 7.12707 55.838 7.26259 55.7025C8.2351 54.7698 9.34316 53.877 10.5787 53.024C10.7541 52.8965 10.9374 52.7848 11.1128 52.6573C11.2324 52.5776 11.344 52.5058 11.4715 52.4261C11.7186 52.2667 11.9737 52.0993 12.2288 51.9478C13.0658 51.4376 13.9188 50.9912 14.7717 50.6006C14.7797 50.5926 14.7797 50.5926 14.7797 50.5926C17.7929 49.2294 20.8938 48.6395 23.8911 48.8867C24.1541 48.9106 24.4251 48.9425 24.7041 48.9823C24.9751 49.0142 25.2462 49.062 25.5252 49.1099C25.8281 49.1657 26.131 49.2294 26.4419 49.3012C26.689 49.357 26.9441 49.4208 27.1992 49.4845C27.4622 49.5483 27.7173 49.6201 27.9804 49.6998C28.076 49.7237 28.1637 49.7556 28.2594 49.7875C28.5384 49.8672 28.8094 49.9549 29.0804 50.0505C30.0051 50.3614 30.9298 50.7281 31.8545 51.1586C32.0299 51.2463 32.2212 51.326 32.4046 51.4217C33.13 51.7724 33.8633 52.1551 34.5568 52.5856C34.7322 52.6892 34.9076 52.7928 35.075 52.9044C35.2822 53.032 35.4895 53.1675 35.6968 53.303C35.912 53.4465 36.1272 53.598 36.3425 53.7494C36.4541 53.8292 36.5577 53.9009 36.6693 53.9886C36.8845 54.148 37.0997 54.3154 37.307 54.4749C37.57 54.6901 37.8331 54.9053 38.0802 55.1365C38.7737 55.7583 39.4035 56.404 39.9535 57.0896L40.1608 57.3686C40.1767 57.4005 40.1847 57.4324 40.2006 57.4643L42.2652 62.1357C42.3131 62.3669 42.3609 62.5981 42.4007 62.8293L39.0447 58.4528L38.7498 58.0622C35.3619 53.8371 28.3391 50.8158 23.7874 50.4411C20.2561 50.1382 16.5413 51.1267 13.0419 53.2711Z" fill="#534F59"/>
<path d="M7.47004 34.9837C6.01126 42.7083 5.42935 50.6163 5.03078 58.1656C4.40901 58.9787 3.87491 59.8237 3.42851 60.6847C3.4046 60.7405 3.37273 60.7883 3.34882 60.8362C3.75536 52.41 4.28945 43.4657 5.94751 34.6967C7.11135 28.5584 8.75346 23.5203 10.9775 19.2873C12.3087 16.7602 13.8791 14.4723 15.6567 12.4714L15.8879 12.2004C19.4591 8.11083 21.4679 6.69186 22.831 7.26582C23.3253 7.48106 23.6043 7.91951 23.7717 8.22244C24.0825 8.79641 24.2739 9.3624 24.3695 9.92042C22.9825 12.3837 21.7788 15.1977 20.7345 18.3865C20.9338 17.6052 21.165 16.824 21.4121 16.0427C21.5795 15.5166 21.7868 14.9905 21.9861 14.4723C22.7354 12.4794 23.397 10.7654 22.4165 8.97178C22.281 8.7406 22.2252 8.70074 22.2172 8.69277C22.2013 8.69277 22.1853 8.6848 22.1614 8.6848C21.8824 8.6848 20.7106 9.03556 17.0517 13.2207L16.8126 13.4918C15.1147 15.397 13.624 17.5893 12.3486 20.0047C10.2042 24.0942 8.59401 28.9969 7.47004 34.9837Z" fill="#534F59"/>
<path d="M2.32827 71.2401C2.99787 75.7601 4.91102 78.7654 7.86045 79.9452C11.1925 81.2606 15.6884 80.0569 19.8894 76.7167C22.1931 74.8832 25.581 75.202 27.4303 77.4262C28.0362 78.1596 28.4428 78.5741 28.5623 78.6538C29.8936 79.6503 31.448 79.7778 33.2017 79.0285C40.4478 75.8956 42.321 67.6607 40.4159 61.1637C40.1528 60.255 39.6905 59.3462 39.0209 58.4454L42.3768 62.8219C43.5406 69.566 41.1173 77.2906 33.8075 80.4475C31.5516 81.42 29.4073 81.2367 27.6296 79.8974C27.2231 79.6025 26.5216 78.7654 26.2267 78.4226C24.8955 76.8044 22.5359 76.5891 20.846 77.9284C17.4581 80.6308 13.9506 82.0339 10.7939 82.0339C9.56634 82.0339 8.3866 81.8266 7.29451 81.3881C4.83931 80.4156 1.73041 77.8965 0.781807 71.4154L0.773877 71.3118C0.741991 67.6049 1.53114 64.3684 3.34066 60.8449C3.34066 60.9007 3.33268 60.9565 3.33268 61.0043L3.16531 64.5438L4.79147 61.4029C3.04572 64.7829 2.30436 67.7245 2.32827 71.2401Z" fill="#534F59"/>
</g>
</svg>
