<svg width="24" height="100" viewBox="0 0 24 100" fill="none" xmlns="http://www.w3.org/2000/svg">
<g opacity="0.5">
<path d="M4.93433 34.1906C5.07102 34.4238 5.22378 34.6489 5.3846 34.866C5.45696 34.9625 5.52129 35.0429 5.59366 35.1314C5.78663 35.3726 6.00374 35.5978 6.22887 35.8068C8.36767 37.8251 10.4823 38.8302 12.5648 38.8302C13.9317 38.8302 15.2745 38.396 16.5932 37.5195C16.7218 37.4391 16.8344 37.3587 16.955 37.2622C17.0515 37.1979 17.1399 37.1255 17.2284 37.0612C17.2605 37.0371 17.2846 37.013 17.3168 36.9888C17.4374 36.8924 17.55 36.8039 17.6706 36.6913C17.7188 36.6511 17.7751 36.6029 17.8153 36.5546C17.8475 36.5305 17.8797 36.4903 17.9118 36.4581C18.0807 36.3054 18.2415 36.1285 18.3943 35.9516C18.5149 35.8229 18.6194 35.6943 18.7239 35.5495C18.7802 35.4932 18.8204 35.4289 18.8606 35.3807C16.7057 57.1233 14.784 78.8498 15.1619 92.6078C15.2021 94.0391 14.9529 95.3578 14.4142 96.5318C13.8996 97.6575 13.4975 97.8023 13.3609 97.8183C13.2161 97.8344 12.6453 97.754 11.608 96.2825C7.443 89.3111 5.09514 67.3433 4.93433 34.1906Z" fill="white"/>
<path d="M15.7327 36.2175C13.007 38.0106 10.3295 37.5201 7.29816 34.6736C6.59059 33.9982 6.02775 33.1298 5.69005 32.1408C5.61768 31.9478 5.55337 31.7468 5.49708 31.5538C5.40864 31.3045 5.33626 31.0552 5.25585 30.806C5.17544 30.5647 5.10309 30.3235 5.03876 30.0823C4.99052 29.9376 4.95033 29.7848 4.90209 29.632L4.76539 29.2058C4.74931 29.1576 4.74127 29.1174 4.72519 29.0691C2.75525 22.0816 1.90295 14.0568 2.11201 4.64085C2.13613 3.41863 3.1653 2.41351 4.40355 2.41351H18.7962C21.2566 3.10503 22.3903 4.51219 22.3742 6.84405C22.1571 14.0648 21.1521 21.7519 19.4234 29.7124C19.3028 30.2109 19.1982 30.7175 19.0776 31.2161C18.5871 33.3469 17.4052 35.1159 15.7327 36.2175Z" fill="white"/>
<path d="M18.3862 35.953C18.5068 35.8244 18.6113 35.6877 18.7158 35.551C18.6113 35.6957 18.5068 35.8244 18.3862 35.953Z" fill="#534F59"/>
<path d="M17.8074 36.5561C17.8397 36.5238 17.872 36.4915 17.9043 36.4592C17.872 36.4915 17.8397 36.5318 17.8074 36.5561Z" fill="#534F59"/>
<path d="M17.6623 36.6916C17.5417 36.8042 17.4291 36.8926 17.3085 36.9891C17.4372 36.8926 17.5498 36.7962 17.6623 36.6916Z" fill="#534F59"/>
<path d="M17.2206 37.063C17.1322 37.1354 17.0438 37.1997 16.9473 37.264C17.0438 37.1997 17.1402 37.1354 17.2206 37.063Z" fill="#534F59"/>
<path d="M5.69028 32.1411C6.02799 33.1221 6.59083 33.9985 7.2984 34.674C10.3297 37.5204 13.0072 38.019 15.733 36.2178C17.4054 35.1162 18.5874 33.3472 19.0778 31.2164C19.1984 30.7178 19.303 30.2113 19.4236 29.7127L20.9915 29.7851L20.9835 29.8414C20.8548 30.4123 20.7342 30.9912 20.5975 31.5702C20.2518 33.0658 19.6085 34.4247 18.716 35.5585C18.6115 35.6871 18.507 35.8319 18.3864 35.9605C18.2336 36.1374 18.0728 36.3143 17.9039 36.4671C17.8718 36.4993 17.8396 36.5314 17.8074 36.5636C17.7592 36.6199 17.7029 36.6681 17.6627 36.7003C17.5501 36.8048 17.4376 36.9013 17.3089 36.9978C17.2768 37.0219 17.2526 37.046 17.2205 37.0702C17.132 37.1425 17.0436 37.2069 16.9471 37.2712C16.8265 37.3677 16.7139 37.4481 16.5853 37.5285C15.2666 38.4049 13.9238 38.8392 12.5569 38.8392C10.4825 38.8392 8.3678 37.8341 6.22096 35.8158C5.99583 35.6067 5.78677 35.3816 5.58575 35.1403C5.51339 35.0519 5.44908 34.9715 5.37671 34.875C5.2159 34.6659 5.06313 34.4408 4.92644 34.1996C4.63698 33.7171 4.39575 33.2025 4.21082 32.6557C3.90528 31.7792 3.62386 30.8867 3.35852 29.9781C3.35852 29.9379 3.35852 29.8896 3.35852 29.8494V29.0695H4.72543C4.74151 29.1177 4.74954 29.1579 4.76562 29.2062C4.85407 29.5037 4.93446 29.8012 5.03095 30.0906C5.09527 30.3319 5.16765 30.5731 5.24806 30.8143C5.32847 31.0716 5.40082 31.3209 5.48927 31.5621C5.55359 31.7471 5.61792 31.9481 5.69028 32.1411Z" fill="#534F59"/>
<path d="M10.289 97.1274C4.23449 86.9797 3.35004 50.7635 3.36612 29.9697C3.63146 30.8783 3.91288 31.7709 4.21842 32.6473C4.40335 33.1941 4.64456 33.7087 4.93402 34.1912C5.09483 67.3358 7.45072 89.3036 11.5997 96.275C12.6289 97.7546 13.1997 97.8269 13.3525 97.8109C13.4892 97.7948 13.8912 97.65 14.4058 96.5243C14.9445 95.3503 15.1938 94.0316 15.1536 92.6003C14.7757 78.8423 16.6974 57.1078 18.8523 35.3732C18.804 35.4295 18.7638 35.4938 18.7156 35.542C19.6081 34.4083 20.2513 33.0494 20.5971 31.5538C20.7338 30.9748 20.8544 30.3959 20.983 29.825L20.9026 30.5888C18.5628 53.8834 16.3114 77.8453 16.7135 92.5521C16.7617 94.2246 16.4562 95.7765 15.821 97.1756C15.1777 98.5667 14.4139 99.2743 13.4812 99.3627C13.4249 99.3627 13.3686 99.3708 13.3123 99.3708C12.3314 99.3788 11.3424 98.6391 10.289 97.1274Z" fill="#534F59"/>
<path d="M4.40364 2.41407C3.17343 2.41407 2.13621 3.41115 2.11209 4.64141C1.91108 14.0493 2.76338 22.0741 4.72528 29.0697H3.35837V29.8497C3.35837 29.8899 3.35837 29.9381 3.35837 29.9783C1.25174 22.7254 0.327074 14.395 0.544169 4.61729C0.592413 2.55077 2.3131 0.862183 4.39561 0.862183L19.1018 0.886304C22.3341 1.7708 23.9503 3.78103 23.9262 6.87678V6.89287C23.7091 14.1458 22.712 21.8731 20.9753 29.8497L20.9833 29.7934L19.4154 29.721C21.1522 21.7525 22.1492 14.0734 22.3663 6.85266C22.3824 4.52884 21.2487 3.12167 18.7882 2.42211H4.40364V2.41407Z" fill="#534F59"/>
</g>
</svg>
