<svg width="24" height="108" viewBox="0 0 24 108" fill="none" xmlns="http://www.w3.org/2000/svg">
<g opacity="0.5">
<path d="M5.87275 37.6253C6.21046 38.1319 6.55622 38.5822 6.90197 38.9762C7.02258 39.1048 7.13514 39.2254 7.24771 39.338C7.27183 39.3621 7.29596 39.3863 7.31205 39.4023C7.40853 39.4988 7.50501 39.5873 7.60149 39.6677C7.899 39.9411 8.20454 40.1582 8.51008 40.3431C8.92015 40.5924 9.33021 40.7773 9.75636 40.898C9.7644 40.898 9.78047 40.906 9.78851 40.906C10.1825 41.0186 10.5685 41.0668 10.9785 41.0668C11.4369 41.0668 11.9112 40.9944 12.3936 40.8577C12.9806 40.6969 13.5837 40.4316 14.1948 40.0537C14.4038 39.933 14.6129 39.7963 14.83 39.6516C15.1435 39.4345 15.4732 39.1852 15.7948 38.9199C15.9315 38.7993 16.0762 38.6867 16.2129 38.558C16.2451 38.5339 16.2853 38.5018 16.3175 38.4696C16.4863 38.3168 16.6632 38.148 16.8321 37.9791C16.9044 37.9148 16.9687 37.8504 17.025 37.7861C17.1617 37.6494 17.2824 37.5208 17.411 37.376C17.5477 37.2393 17.6683 37.0866 17.7969 36.9418C17.9417 36.7649 18.0944 36.5719 18.2311 36.387C18.3758 36.2021 18.5125 36.0091 18.6412 35.8161C18.6975 35.7437 18.7457 35.6794 18.7859 35.607C16.0441 58.3065 13.455 83.0404 13.5917 100.883C13.6078 102.21 13.447 103.432 13.1254 104.534C12.7153 105.941 12.3133 106.254 12.2248 106.263C12.2248 106.271 11.469 106.295 9.90914 102.934C5.13303 89.6661 4.56216 60.9841 4.24054 34.6743C4.36115 34.9236 4.47372 35.1648 4.59433 35.406C4.69885 35.599 4.79535 35.8 4.89987 35.985C5.01244 36.186 5.11695 36.387 5.22951 36.58C5.34208 36.7649 5.4466 36.9579 5.56721 37.1348C5.61545 37.2233 5.66369 37.2956 5.71193 37.376C5.76821 37.4645 5.81647 37.5529 5.87275 37.6253Z" fill="white"/>
<path d="M21.536 6.79581C21.7852 15.094 20.7158 22.9661 19.7509 28.8922C19.6705 29.3988 19.566 29.8893 19.4293 30.3798C19.3811 30.5647 19.3248 30.7497 19.2766 30.9346C19.1077 31.4734 18.9067 32.0041 18.6896 32.5187C18.6092 32.6875 18.5449 32.8644 18.4564 33.0253C18.3036 33.363 18.1267 33.6846 17.9418 33.9982C17.8534 34.151 17.7569 34.3118 17.6604 34.4646C17.4674 34.7782 17.2584 35.0757 17.0413 35.3652C16.9287 35.5099 16.8242 35.6546 16.7036 35.7913C16.6151 35.9039 16.5267 36.0084 16.4302 36.121C15.9317 36.7 15.393 37.2307 14.798 37.7131C14.2512 38.1554 13.7286 38.5252 13.23 38.8067C12.2491 39.3535 11.3726 39.5706 10.5847 39.4741C10.5766 39.4821 10.5686 39.4741 10.5686 39.4741C10.44 39.4499 10.3193 39.4258 10.1987 39.3937C10.0701 39.3535 9.94145 39.3132 9.8128 39.257C9.66807 39.2007 9.5233 39.1203 9.37857 39.0399C9.26601 38.9675 9.1615 38.9032 9.04893 38.8228C8.92028 38.7343 8.8077 38.6378 8.67905 38.5333C8.64689 38.5011 8.61473 38.477 8.58256 38.4448C8.47804 38.3483 8.3896 38.2599 8.28507 38.1554C8.18858 38.0508 8.0921 37.9463 7.98757 37.8257C7.92325 37.7533 7.85089 37.6729 7.7946 37.5925C7.70616 37.488 7.62574 37.3754 7.52925 37.2548C7.41668 37.11 7.31218 36.9492 7.19961 36.7884C6.94231 36.4024 6.67695 35.9763 6.41965 35.5019C6.34728 35.3812 6.28297 35.2687 6.22668 35.14C6.12215 34.947 6.02566 34.746 5.91309 34.5369C5.82464 34.3601 5.73623 34.1671 5.64778 33.9821C5.05278 32.7277 4.45775 31.2321 3.86275 29.5275C1.97322 24.3974 1.24955 15.8418 1.69179 4.08601C1.72395 3.14523 2.47978 2.41351 3.42053 2.41351H17.974C18.2875 2.41351 18.585 2.49392 18.8343 2.62257C20.2494 3.41862 21.142 4.77754 21.536 6.79581Z" fill="white"/>
<path d="M9.78876 40.9066C10.6169 41.1317 11.4854 41.1156 12.3859 40.8583C11.9035 40.995 11.4371 41.0674 10.9707 41.0674C10.5687 41.0754 10.1747 41.0191 9.78876 40.9066Z" fill="#534F59"/>
<path d="M13.2295 38.8153C12.2566 39.3621 11.3802 39.5873 10.5842 39.4827C11.3721 39.5792 12.2486 39.3621 13.2295 38.8153Z" fill="#534F59"/>
<path d="M10.1986 39.4012C10.3192 39.4334 10.4398 39.4575 10.5684 39.4816C10.4317 39.4656 10.3031 39.4414 10.1745 39.4012C10.0538 39.3691 9.93323 39.3208 9.81262 39.2645C9.94127 39.3208 10.0779 39.361 10.1986 39.4012Z" fill="#534F59"/>
<path d="M9.05713 38.8311C9.1697 38.9115 9.2742 38.9759 9.38677 39.0482C9.2742 38.9839 9.16166 38.9196 9.05713 38.8311Z" fill="#534F59"/>
<path d="M8.68726 38.5415C8.81591 38.646 8.92849 38.7425 9.05714 38.831C8.92849 38.7425 8.80786 38.646 8.68726 38.5415Z" fill="#534F59"/>
<path d="M9.75647 40.898C9.33032 40.7774 8.91222 40.5924 8.51019 40.3431C8.91222 40.5924 9.32228 40.7774 9.75647 40.898Z" fill="#534F59"/>
<path d="M8.29297 38.1633C8.3975 38.2678 8.48594 38.3563 8.59047 38.4527C8.49398 38.3643 8.3975 38.2678 8.29297 38.1633Z" fill="#534F59"/>
<path d="M7.31189 39.4024C7.40838 39.4989 7.49681 39.5793 7.60134 39.6678C7.50485 39.5874 7.40838 39.4909 7.31189 39.4024Z" fill="#534F59"/>
<path d="M7.20746 36.796C7.32003 36.9568 7.42453 37.1177 7.5371 37.2624C7.43257 37.1177 7.32003 36.9729 7.20746 36.796Z" fill="#534F59"/>
<path d="M6.90186 38.9759C7.02246 39.1046 7.13503 39.2172 7.24759 39.3378C7.14307 39.2252 7.02246 39.1046 6.90186 38.9759Z" fill="#534F59"/>
<path d="M6.2345 35.1481C6.29882 35.2767 6.36314 35.3893 6.42746 35.5099C6.3551 35.3973 6.29882 35.2767 6.2345 35.1481Z" fill="#534F59"/>
<path d="M6.23461 35.1483C6.12205 34.9553 6.02555 34.7462 5.92102 34.5452C6.03359 34.7623 6.13009 34.9553 6.23461 35.1483Z" fill="#534F59"/>
<path d="M5.65558 33.9985C5.74402 34.1835 5.83244 34.3764 5.92088 34.5533C5.83244 34.3684 5.75207 34.1835 5.65558 33.9985Z" fill="#534F59"/>
<path d="M5.71198 37.3762C5.7685 37.465 5.82503 37.5458 5.87348 37.6265C5.81695 37.5539 5.7685 37.465 5.71198 37.3762Z" fill="#534F59"/>
<path d="M5.22955 36.5793C5.34212 36.7643 5.44664 36.9572 5.56724 37.1341C5.44664 36.9572 5.33408 36.7643 5.22955 36.5793Z" fill="#534F59"/>
<path d="M4.90002 35.9844C5.01259 36.1854 5.1171 36.3864 5.22967 36.5794C5.1171 36.3945 5.00455 36.1934 4.90002 35.9844Z" fill="#534F59"/>
<path d="M4.59442 35.4131C4.69895 35.606 4.79544 35.8071 4.89997 35.992C4.79544 35.799 4.69895 35.606 4.59442 35.4131Z" fill="#534F59"/>
<path d="M8.47004 103.529C3.34016 89.2881 2.96225 58.2099 2.64062 30.7342C3.17934 32.2217 3.71002 33.5404 4.24874 34.6742C4.57036 60.9841 5.14123 89.666 9.91734 102.933C11.4772 106.295 12.233 106.27 12.233 106.262C12.3215 106.254 12.7155 105.941 13.1336 104.534C13.4552 103.432 13.616 102.218 13.5999 100.883C13.4632 83.0403 16.0523 58.3065 18.7941 35.607C18.7459 35.6793 18.6976 35.7437 18.6494 35.816C19.6947 34.3043 20.4826 32.5836 20.957 30.7342C18.0061 54.7041 15.015 81.7779 15.1598 100.875C15.1758 102.355 14.999 103.722 14.6291 104.968C14.2834 106.142 13.6803 107.718 12.3456 107.814C12.3054 107.814 12.2571 107.814 12.2169 107.814C11.0028 107.822 9.84498 106.488 8.47004 103.529Z" fill="#534F59"/>
<path d="M4.24052 34.6739C3.7018 33.5321 3.17112 32.2215 2.6324 30.7339C2.6324 30.6857 2.6324 30.6374 2.6324 30.5972L2.57611 26.0139L3.86258 29.5438C4.46563 31.2566 5.06065 32.7441 5.64762 33.9985C5.7441 34.1835 5.82447 34.3764 5.91292 34.5533C6.01745 34.7544 6.11395 34.9634 6.22651 35.1564C6.29084 35.2851 6.35516 35.3976 6.41948 35.5182C6.67678 35.9927 6.94214 36.4269 7.19944 36.8048C7.31201 36.9736 7.41652 37.1264 7.52908 37.2712C7.62557 37.3918 7.70599 37.5043 7.79444 37.6089C7.85876 37.6893 7.93112 37.7617 7.9874 37.8421C8.09193 37.9627 8.18841 38.0672 8.2849 38.1717C8.38943 38.2763 8.47787 38.3647 8.5824 38.4612C8.61456 38.4934 8.64672 38.5175 8.67888 38.5497C8.80753 38.6542 8.92012 38.7507 9.04876 38.8391C9.16133 38.9276 9.26584 38.9919 9.37841 39.0562C9.52314 39.1447 9.6679 39.2171 9.81263 39.2734C9.93324 39.3296 10.0539 39.3779 10.1745 39.41C10.3031 39.4502 10.4318 39.4744 10.5684 39.4905C10.5684 39.4905 10.5765 39.4985 10.5845 39.4905C11.3805 39.603 12.257 39.3698 13.2299 38.8231C13.7284 38.5416 14.251 38.1717 14.7978 37.7295C15.3928 37.247 15.9315 36.7163 16.43 36.1374C16.5345 36.0248 16.615 35.9203 16.7034 35.8077C16.824 35.671 16.9285 35.5263 17.0411 35.3816C17.2582 35.0921 17.4673 34.7865 17.6602 34.481C17.7648 34.3282 17.8532 34.1674 17.9416 34.0146C18.1266 33.693 18.3035 33.3713 18.4562 33.0416C18.5447 32.8808 18.617 32.7039 18.6894 32.5351C18.9145 32.0204 19.1076 31.4978 19.2764 30.951C19.3407 30.7661 19.3889 30.5811 19.4291 30.3962L20.9569 30.6937C20.9569 30.7178 20.9488 30.7339 20.9488 30.758C20.4744 32.6074 19.6864 34.3282 18.6412 35.8399C18.5045 36.0329 18.3758 36.2258 18.2311 36.4108C18.0944 36.5957 17.9416 36.7887 17.7969 36.9656C17.6683 37.1103 17.5477 37.2631 17.411 37.3998C17.2823 37.5365 17.1617 37.6732 17.025 37.8099C16.9607 37.8742 16.8964 37.9466 16.832 38.0029C16.6632 38.1717 16.4863 38.3406 16.3174 38.4934C16.2772 38.5255 16.2451 38.5577 16.2129 38.5818C16.0762 38.7105 15.9315 38.8231 15.7948 38.9437C15.4652 39.209 15.1355 39.4583 14.8299 39.6754C14.6128 39.8121 14.4118 39.9488 14.1948 40.0774C13.5756 40.4554 12.9806 40.7207 12.3936 40.8815C11.485 41.1388 10.6247 41.1549 9.79653 40.9298C9.78849 40.9298 9.77243 40.9217 9.76439 40.9217C9.33824 40.7931 8.92014 40.6162 8.51811 40.3669C8.21257 40.182 7.90702 39.9649 7.60952 39.6915C7.50499 39.603 7.41651 39.5226 7.32002 39.4261C7.30394 39.41 7.27985 39.3859 7.25573 39.3618C7.14316 39.2412 7.0306 39.1286 6.90999 39C6.56425 38.606 6.21848 38.1557 5.88078 37.6491C5.82449 37.5687 5.7682 37.4883 5.71995 37.3998C5.66367 37.3194 5.61543 37.247 5.57523 37.1586C5.45462 36.9817 5.35011 36.7887 5.23754 36.6038C5.12497 36.4188 5.02042 36.2098 4.90785 36.0087C4.80332 35.8238 4.70688 35.6228 4.60235 35.4298C4.4737 35.1644 4.36112 34.9232 4.24052 34.6739Z" fill="#534F59"/>
<path d="M17.9737 2.43016H3.42025C2.4795 2.43016 1.72367 3.16188 1.6915 4.10267C1.24927 15.8585 1.97293 24.414 3.86247 29.5441L2.576 26.0141L2.63229 30.5975C2.63229 30.6457 2.63229 30.694 2.63229 30.7342C2.55188 30.5171 2.47948 30.3 2.39908 30.0668C0.437178 24.7598 -0.318642 15.9952 0.13163 4.0303C0.203995 2.25326 1.63524 0.862183 3.42025 0.862183H17.9737C18.5526 0.862183 19.1074 0.998874 19.5818 1.27226C21.4231 2.27738 22.597 4.06247 23.0795 6.55515L23.0956 6.68381C23.3609 15.1509 22.2673 23.1355 21.2944 29.1501C21.206 29.6889 21.0934 30.2195 20.9487 30.7422C20.9487 30.7181 20.9567 30.702 20.9567 30.6779L19.429 30.3804C19.5657 29.8979 19.6702 29.4074 19.7507 28.8928C20.7155 22.9666 21.7849 15.0946 21.5357 6.79638C21.1337 4.77007 20.2492 3.41115 18.834 2.63118C18.5848 2.50253 18.2873 2.43016 17.9737 2.43016Z" fill="#534F59"/>
</g>
</svg>
