<svg width="34" height="120" viewBox="0 0 34 120" fill="none" xmlns="http://www.w3.org/2000/svg">
<g opacity="0.5">
<path d="M6.83179 50.9958C6.59861 47.305 6.36545 43.5258 6.09207 39.7787C6.13227 39.8511 6.17246 39.9154 6.2207 39.9797C6.34131 40.1888 6.46995 40.3979 6.61468 40.615C6.74333 40.816 6.87198 41.017 7.01671 41.2261C7.1534 41.4271 7.29011 41.6281 7.44288 41.8211C7.56349 41.99 7.69213 42.1669 7.83686 42.3277C7.87707 42.384 7.91725 42.4322 7.96549 42.4724C8.09414 42.6332 8.22279 42.7941 8.36752 42.9388C8.50421 43.0916 8.64896 43.2524 8.79369 43.3971C9.01079 43.6303 9.24395 43.8555 9.48517 44.0726C9.60578 44.1851 9.71834 44.2816 9.83091 44.3781C10.0882 44.6033 10.3616 44.8123 10.635 45.0133C10.7395 45.1018 10.836 45.1661 10.9486 45.2385C11.0772 45.335 11.2059 45.4154 11.3425 45.4958C11.4149 45.5441 11.4792 45.5923 11.5436 45.6325C11.7204 45.7451 11.9054 45.8496 12.0903 45.9461C12.1305 45.9702 12.1627 45.9863 12.1948 46.0024C12.3396 46.0908 12.4843 46.1552 12.6371 46.2275C12.9908 46.3964 13.3366 46.5572 13.7145 46.6939C13.9397 46.7823 14.1648 46.8547 14.398 46.9271C14.6633 47.0155 14.9367 47.0879 15.2181 47.1603C16.0543 47.3613 16.8744 47.4658 17.6624 47.4658C17.8313 47.4658 18.0082 47.4578 18.177 47.4497C18.362 47.4417 18.5549 47.4256 18.7399 47.4015C18.9007 47.3854 19.0695 47.3613 19.2303 47.3372C19.2866 47.3211 19.3349 47.3131 19.3831 47.305C19.6243 47.2568 19.8656 47.2005 20.0987 47.1442C20.2596 47.0959 20.4284 47.0477 20.5892 47.0075C20.6857 46.9753 20.7742 46.9432 20.8707 46.903C21.1199 46.8145 21.3611 46.7261 21.6023 46.6135C21.731 46.5572 21.8516 46.4929 21.9883 46.4366C22.2295 46.316 22.4707 46.1954 22.7039 46.0506C23.0577 45.8496 23.3954 45.6245 23.7331 45.3752C23.8457 45.2948 23.9502 45.2224 24.0627 45.1259C25.1723 44.2816 26.1774 43.2363 27.0699 42.0784C27.1584 41.9739 27.2307 41.8694 27.3111 41.7648C27.3433 41.7166 27.3835 41.6683 27.4156 41.6281C27.5282 41.4834 27.6328 41.3226 27.7373 41.1778C27.8499 41.0251 27.9544 40.8642 28.0589 40.7034C28.1474 40.5748 28.2197 40.4541 28.3001 40.3255C28.268 40.615 28.2439 40.9044 28.2117 41.2019C27.882 44.6676 27.5363 48.1332 27.1825 51.5989C25.0678 72.264 22.8808 93.6367 26.7563 116.577C26.9573 117.824 26.7563 118.282 26.6116 118.354C25.6548 118.805 21.8918 116.167 20.3399 114.431C17.5338 111.287 15.3789 107.073 13.7547 101.573C8.97861 85.3948 7.88511 67.9058 6.83179 50.9958Z" fill="white"/>
<path d="M17.6308 45.8983C16.9635 45.8983 16.2881 45.8098 15.5885 45.6409C15.2428 45.5525 14.9131 45.464 14.5915 45.3354C14.4468 45.2952 14.294 45.2389 14.1493 45.1826C14.0447 45.1424 13.9482 45.1022 13.8518 45.054C13.699 44.9977 13.5462 44.9253 13.4095 44.861C13.3452 44.8368 13.2809 44.8047 13.2246 44.7645C13.0799 44.6921 12.9271 44.6197 12.7904 44.5313C12.6617 44.467 12.5412 44.3946 12.4206 44.3222C12.2276 44.2016 12.0346 44.089 11.8577 43.9523C11.6728 43.8317 11.4879 43.7031 11.319 43.5583C11.1501 43.4216 10.9733 43.2769 10.8124 43.1402C10.6436 42.9955 10.4747 42.8427 10.322 42.6899C6.64743 39.1519 4.84633 33.3866 3.32667 28.4977C3.10957 27.8142 2.90052 27.1308 2.68343 26.4714C1.69444 23.3917 1.93564 20.0709 2.2653 16.9269C2.79598 11.8852 5.88355 7.75217 11.7049 4.30262L12.4045 3.8845C13.8116 3.0402 14.8006 2.43713 15.8458 2.43713C16.5775 2.43713 17.3414 2.72661 18.2982 3.41813C18.7404 3.75584 19.247 4.10161 19.7616 4.46345C21.2813 5.53289 23.01 6.7551 24.1357 7.92103C26.8775 10.7756 29.0967 13.1959 30.5922 16.171C32.2004 19.3633 31.7823 22.8369 31.324 26.5197L31.2516 27.0745C30.9058 29.921 30.0535 32.9685 28.7268 36.1285C26.6363 41.0657 22.7125 45.8983 17.6308 45.8983Z" fill="white"/>
<path d="M23.7414 45.3846C23.854 45.3042 23.9585 45.2238 24.0711 45.1353C23.9585 45.2238 23.8459 45.3042 23.7414 45.3846Z" fill="#534F59"/>
<path d="M23.7412 45.3835C23.4035 45.6248 23.0658 45.8499 22.712 46.059C23.0578 45.8499 23.4035 45.6248 23.7412 45.3835Z" fill="#534F59"/>
<path d="M21.9888 46.4374C22.23 46.3168 22.4632 46.1961 22.7044 46.0514C22.4712 46.1961 22.23 46.3168 21.9888 46.4374Z" fill="#534F59"/>
<path d="M21.6109 46.6138C21.3697 46.7264 21.1284 46.8149 20.8792 46.9033C21.1123 46.8149 21.3616 46.7264 21.6109 46.6138Z" fill="#534F59"/>
<path d="M20.5898 47.0089C20.6863 46.9768 20.7747 46.9446 20.8712 46.9044C20.7828 46.9446 20.6863 46.9768 20.5898 47.0089Z" fill="#534F59"/>
<path d="M18.7323 47.4022C18.8931 47.3861 19.0619 47.362 19.2227 47.3378C19.0619 47.362 18.9011 47.3861 18.7323 47.4022Z" fill="#534F59"/>
<path d="M17.6551 47.4662C17.824 47.4662 18.0008 47.4582 18.1697 47.4501C18.0008 47.4582 17.832 47.4662 17.6551 47.4662Z" fill="#534F59"/>
<path d="M14.3905 46.9271C14.6558 47.0155 14.9292 47.0879 15.2106 47.1603C14.9292 47.0879 14.6558 47.0075 14.3905 46.9271Z" fill="#534F59"/>
<path d="M14.5914 45.3364C14.4467 45.2962 14.2939 45.2399 14.1491 45.1836C14.2939 45.2399 14.4386 45.2962 14.5914 45.3364Z" fill="#534F59"/>
<path d="M14.3906 46.9288C14.1574 46.8564 13.9323 46.7841 13.7071 46.6956C13.9323 46.776 14.1574 46.8564 14.3906 46.9288Z" fill="#534F59"/>
<path d="M14.1411 45.1743C14.0366 45.1422 13.94 45.0939 13.8435 45.0457C13.94 45.102 14.0446 45.1341 14.1411 45.1743Z" fill="#534F59"/>
<path d="M13.4015 44.8526C13.5382 44.925 13.691 44.9893 13.8437 45.0456C13.699 44.9973 13.5463 44.925 13.4015 44.8526Z" fill="#534F59"/>
<path d="M12.7743 44.5325C12.911 44.6209 13.0637 44.6933 13.2085 44.7657C13.0637 44.6933 12.919 44.6129 12.7743 44.5325Z" fill="#534F59"/>
<path d="M12.7743 44.5317C12.6457 44.4754 12.5331 44.4031 12.4044 44.3227C12.525 44.387 12.6537 44.4674 12.7743 44.5317Z" fill="#534F59"/>
<path d="M12.1793 45.9952C12.316 46.0837 12.4768 46.148 12.6215 46.2204C12.4688 46.1561 12.3321 46.0837 12.1793 45.9952Z" fill="#534F59"/>
<path d="M11.8493 43.9523C12.0262 44.089 12.2192 44.2016 12.4122 44.3222C12.2192 44.2096 12.0343 44.089 11.8493 43.9523Z" fill="#534F59"/>
<path d="M11.5359 45.6328C11.7128 45.7453 11.8977 45.8499 12.0826 45.9463C11.8896 45.8499 11.7128 45.7373 11.5359 45.6328Z" fill="#534F59"/>
<path d="M10.8042 43.1406C10.965 43.2773 11.1419 43.4301 11.3108 43.5588C11.1339 43.4381 10.965 43.2934 10.8042 43.1406Z" fill="#534F59"/>
<path d="M10.8044 43.1407C10.6436 43.0041 10.4747 42.8593 10.3139 42.6905C10.4667 42.8432 10.6275 42.988 10.8044 43.1407Z" fill="#534F59"/>
<path d="M9.82337 44.379C9.7108 44.2825 9.59824 44.186 9.47763 44.0735C9.5902 44.186 9.7108 44.2906 9.82337 44.379Z" fill="#534F59"/>
<path d="M8.35986 42.9397C8.49655 43.0924 8.64126 43.2533 8.78599 43.398C8.64126 43.2452 8.49655 43.0924 8.35986 42.9397Z" fill="#534F59"/>
<path d="M7.95773 42.4649C8.08638 42.6177 8.21503 42.7865 8.35976 42.9313C8.21503 42.7865 8.08638 42.6338 7.95773 42.4649Z" fill="#534F59"/>
<path d="M7.44305 41.8148C7.5717 41.9836 7.70034 42.1605 7.83703 42.3213C7.6923 42.1525 7.55562 41.9836 7.44305 41.8148Z" fill="#534F59"/>
<path d="M7.01703 41.2188C7.15372 41.4198 7.29847 41.6209 7.4432 41.8138C7.29043 41.6128 7.14568 41.4198 7.01703 41.2188Z" fill="#534F59"/>
<path d="M6.21301 39.9807C6.34166 40.1897 6.4703 40.3988 6.60699 40.6159C6.4703 40.3988 6.33362 40.1897 6.21301 39.9807Z" fill="#534F59"/>
<path d="M6.83214 50.9962C7.88545 67.9063 8.97895 85.4033 13.747 101.565C15.3712 107.074 17.5261 111.279 20.3322 114.423C21.8841 116.168 25.6391 118.805 26.6039 118.347C26.7487 118.266 26.9577 117.816 26.7487 116.57C22.8731 93.6291 25.0601 72.2564 27.1748 51.5912C27.5286 48.1337 27.8743 44.668 28.204 41.1944C28.2362 40.8968 28.2603 40.6074 28.2924 40.3179C29.008 39.168 29.6352 37.9539 30.1498 36.7236C30.1659 36.6834 30.182 36.6512 30.198 36.611C30.1176 37.4071 30.0533 38.1871 29.9809 38.9751C29.9086 39.755 29.8443 40.543 29.7639 41.323C29.4342 44.8047 29.0884 48.2704 28.7347 51.736C26.6361 72.3046 24.4571 93.5648 28.2924 116.296C28.598 118.114 28.2522 119.272 27.2793 119.738C27.0059 119.875 26.7004 119.923 26.3707 119.923C23.7897 119.923 19.8739 116.232 19.1744 115.444C16.2074 112.123 13.948 107.725 12.2595 101.984C7.43518 85.6526 6.34167 68.0671 5.28031 51.0686C4.96673 46.0752 4.64512 40.9129 4.23505 35.9115C4.81397 37.3106 5.4572 38.6856 6.22909 39.9561C6.18085 39.8837 6.14067 39.8194 6.10047 39.755C6.3658 43.5182 6.59896 47.2974 6.83214 50.9962Z" fill="#534F59"/>
<path d="M7.0173 41.219C6.88061 41.018 6.73588 40.809 6.61527 40.6079C6.47858 40.3989 6.34994 40.1898 6.22129 39.9727C5.45744 38.7022 4.80617 37.3272 4.22725 35.9281C4.22725 35.8879 4.2192 35.8477 4.2192 35.8075L3.81717 30.8543L5.72278 35.4457C7.0334 38.5977 8.54504 40.9859 10.314 42.6744C10.4748 42.8433 10.6436 42.9961 10.8044 43.1247C10.9652 43.2775 11.1421 43.4223 11.311 43.5429C11.4798 43.6796 11.6648 43.8163 11.8497 43.9369C12.0346 44.0736 12.2276 44.1942 12.4125 44.3067C12.5412 44.3952 12.6538 44.4595 12.7824 44.5158C12.9191 44.6043 13.0719 44.6766 13.2166 44.749C13.2809 44.7892 13.3452 44.8214 13.4015 44.8455C13.5463 44.9179 13.699 44.9822 13.8437 45.0385C13.9402 45.0867 14.0368 45.135 14.1413 45.1671C14.286 45.2315 14.4388 45.2877 14.5835 45.3199C14.9132 45.4486 15.2428 45.537 15.5805 45.6255C16.2801 45.7943 16.9635 45.8828 17.6228 45.8828C22.7045 45.8828 26.6283 41.0582 28.7108 36.1131L30.6807 31.4333L30.2063 36.4829C30.1983 36.5232 30.1983 36.5714 30.1983 36.6116C30.1822 36.6518 30.1661 36.684 30.1501 36.7242C29.6355 37.9464 29.0083 39.1686 28.2927 40.3185C28.2123 40.4471 28.1399 40.5677 28.0515 40.6964C27.9389 40.8572 27.8424 41.018 27.7298 41.1708C27.6253 41.3155 27.5208 41.4764 27.4082 41.6211C27.3761 41.6693 27.3359 41.7176 27.3037 41.7578C27.2233 41.8704 27.1509 41.9668 27.0625 42.0714C26.17 43.2293 25.1649 44.2746 24.0553 45.1189C23.9427 45.2073 23.8382 45.2877 23.7256 45.3682C23.3879 45.6094 23.0502 45.8345 22.6964 46.0436C22.4552 46.1803 22.2221 46.3089 21.9809 46.4295C21.8442 46.4939 21.7235 46.5582 21.5949 46.6064C21.3537 46.719 21.1044 46.8075 20.8632 46.8959C20.7667 46.9361 20.6782 46.9683 20.5818 47.0005C20.4209 47.0487 20.2521 47.0969 20.0913 47.1372C19.8581 47.2015 19.6169 47.2578 19.3757 47.298C19.3194 47.306 19.2711 47.3141 19.2229 47.3301C19.0621 47.3543 18.8932 47.3784 18.7324 47.3945C18.5475 47.4186 18.3545 47.4347 18.1696 47.4427C18.0007 47.4508 17.8239 47.4588 17.655 47.4588C16.867 47.4588 16.0469 47.3543 15.2107 47.1532C14.9292 47.0809 14.6559 47.0085 14.3905 46.92C14.1574 46.8477 13.9322 46.7753 13.7071 46.6869C13.3292 46.5502 12.9834 46.3893 12.6297 46.2205C12.4849 46.1481 12.3241 46.0838 12.1874 45.9953C12.1552 45.9793 12.1231 45.9632 12.0829 45.9391C11.8979 45.8426 11.713 45.738 11.5361 45.6255C11.4718 45.5853 11.3994 45.537 11.3351 45.4888C11.1984 45.4084 11.0698 45.328 10.9411 45.2315C10.8285 45.1591 10.732 45.0948 10.6275 45.0063C10.3541 44.8133 10.0808 44.5962 9.82346 44.3711C9.70285 44.2746 9.59029 44.1781 9.47772 44.0655C9.2365 43.8484 9.00333 43.6233 8.78624 43.3901C8.64151 43.2453 8.4968 43.0845 8.36011 42.9318C8.22342 42.787 8.08673 42.6182 7.95809 42.4654C7.90984 42.4171 7.86961 42.3689 7.82941 42.3206C7.69272 42.1598 7.56408 41.9829 7.43543 41.8141C7.2907 41.6131 7.15399 41.4201 7.0173 41.219Z" fill="#534F59"/>
<path d="M1.8231 28.9568C1.60601 28.2733 1.39691 27.5898 1.17982 26.9385C0.102378 23.5774 0.351656 20.0636 0.697401 16.7587C1.27632 11.2588 4.7016 6.61915 10.8928 2.9525L11.5763 2.5424C14.0769 1.03875 16.0469 -0.151299 19.2068 2.15644C19.6491 2.48612 20.1395 2.83188 20.6461 3.17764C22.2301 4.29533 24.0231 5.5497 25.2533 6.82821C27.4805 9.15203 30.2546 12.0468 31.9753 15.4642C33.7924 19.0826 33.318 22.9502 32.8678 26.6973L32.7954 27.2521C32.4335 30.2112 31.5652 33.3552 30.2063 36.6117C30.2063 36.5715 30.2063 36.5233 30.2144 36.4831L30.6887 31.4334L28.7188 36.1132C30.0455 32.9612 30.8978 29.9137 31.2435 27.0591L31.3159 26.5043C31.7662 22.8296 32.1923 19.3479 30.5842 16.1557C29.0887 13.1805 26.8695 10.7602 24.1277 7.9057C23.002 6.73173 21.2813 5.51755 19.7536 4.44811C19.239 4.08627 18.7405 3.7405 18.2902 3.40279C17.3414 2.71127 16.5695 2.42179 15.8378 2.42179C14.7925 2.42179 13.8035 3.02486 12.3964 3.86916L11.6969 4.28729C5.87553 7.73684 2.78795 11.8699 2.25727 16.9115C1.92761 20.0475 1.68641 23.3764 2.6754 26.4561C2.88445 27.1154 3.0935 27.7909 3.31864 28.4824C4.8383 33.3793 6.6394 39.1446 10.3139 42.6746C8.54502 40.986 7.03337 38.5979 5.72276 35.4458L3.81715 30.8545L4.21918 35.8077C4.21918 35.8479 4.22723 35.8881 4.22723 35.9283C3.26236 33.6125 2.51459 31.2002 1.8231 28.9568Z" fill="#534F59"/>
</g>
</svg>
