<svg width="33" height="104" viewBox="0 0 33 104" fill="none" xmlns="http://www.w3.org/2000/svg">
<g opacity="0.5">
<path d="M6.42997 32.6022L6.90434 33.1812C7.05711 33.3661 7.226 33.5511 7.39485 33.728C7.70843 34.0657 8.03006 34.3873 8.35168 34.6768C8.53661 34.8457 8.73759 35.0145 8.92253 35.1673C9.1155 35.3281 9.31655 35.4889 9.50952 35.6337C11.7528 37.3062 14.358 38.1424 16.9551 38.1424C18.2818 38.1424 19.6085 37.9253 20.8869 37.4911C21.2085 37.3785 21.5221 37.2579 21.8357 37.1212C22.5191 36.8157 23.1945 36.4538 23.8378 36.0196C24.071 35.8669 24.2961 35.698 24.5213 35.5291C24.674 35.4005 24.8429 35.2799 24.9876 35.1432C25.052 35.103 25.1082 35.0467 25.1565 35.0065C25.1645 35.0065 25.1726 34.9984 25.1726 34.9904C25.3816 34.8135 25.5907 34.6205 25.7917 34.4275C25.9847 34.2506 26.1776 34.0577 26.3545 33.8647C26.3625 33.8486 26.3787 33.8325 26.3947 33.8164C26.5957 33.6074 26.7887 33.3903 26.9736 33.1571C27.3274 32.747 27.6571 32.2967 27.9787 31.8384C24.5936 53.7659 24.2479 74.0371 26.9575 92.1613C27.3194 94.5575 27.1827 96.9054 26.5555 99.1327C26.0087 101.103 25.2851 102.261 24.5213 102.405C24.0228 102.51 22.8729 102.269 20.8306 99.5669C19.528 97.8381 18.4667 95.852 17.6787 93.6408C11.8574 77.3017 7.8049 56.7973 5.31232 31.0504C5.38468 31.1629 5.44902 31.2675 5.52943 31.372C5.66612 31.5891 5.81887 31.7901 5.9636 31.9992L6.42997 32.6022Z" fill="white"/>
<path d="M30.9057 16.3761C30.9298 17.0033 30.9057 17.6868 30.8172 18.4587C30.6645 20.0026 30.3187 21.6188 29.9729 23.1466C29.6835 24.4331 29.3056 25.6634 28.8633 26.8052C28.7266 27.1912 28.5659 27.561 28.4051 27.9229C28.1799 28.4295 27.9306 28.928 27.6653 29.4104C26.5476 31.4287 25.1727 33.0691 23.5807 34.2993C19.6247 37.3549 14.4707 37.387 10.4585 34.3878C10.2816 34.2511 10.0966 34.1063 9.91973 33.9616C9.76695 33.8329 9.61423 33.7043 9.46146 33.5596C9.30064 33.4229 9.13981 33.262 8.98704 33.1093C8.85035 32.9726 8.7217 32.8439 8.58501 32.7072C8.53677 32.6509 8.48853 32.6027 8.44029 32.5544C8.01414 32.0881 7.60405 31.5815 7.2181 31.0508C7.08141 30.8578 6.94472 30.6568 6.81607 30.4638C6.67938 30.2708 6.55074 30.0618 6.42209 29.8607C6.29345 29.6597 6.17286 29.4506 6.04421 29.2335C5.8432 28.8717 5.64215 28.5099 5.45722 28.1239C5.36877 27.9631 5.29641 27.7942 5.21601 27.6254C5.03912 27.2555 4.87027 26.8776 4.7175 26.4916C4.51648 26.0011 4.3235 25.5106 4.15465 24.996C3.04505 21.7314 1.9998 17.9361 2.67521 14.4865C3.28629 11.3827 6.04421 9.34838 8.70564 7.37032C8.98706 7.16125 9.26846 6.96022 9.54184 6.74311C10.1288 6.3089 10.7318 5.80233 11.3027 5.31183C12.4686 4.33888 13.6667 3.31769 14.8888 2.70659C15.2748 2.5136 15.6768 2.4332 16.0788 2.4332C17.2528 2.4332 18.3785 3.10862 18.9091 3.47851C20.2841 4.44341 21.6349 5.55306 22.9455 6.63054C23.637 7.1934 24.3285 7.75627 25.02 8.30305L25.422 8.6247C28.1638 10.7797 30.7609 12.822 30.9057 16.3761Z" fill="white"/>
<path d="M26.9818 33.1728C27.3356 32.7627 27.6572 32.3125 27.9869 31.8541C27.6733 32.3125 27.3356 32.7627 26.9818 33.1728Z" fill="#534F59"/>
<path d="M26.4023 33.8324C26.5953 33.6234 26.7964 33.4063 26.9813 33.1731C26.7964 33.3982 26.6114 33.6234 26.4023 33.8324Z" fill="#534F59"/>
<path d="M25.8079 34.4363C25.9928 34.2594 26.1858 34.0664 26.3707 33.8734C26.1858 34.0745 26.0009 34.2594 25.8079 34.4363Z" fill="#534F59"/>
<path d="M25.1888 34.9988C25.3978 34.8219 25.5988 34.6289 25.8079 34.4359C25.6069 34.6369 25.3978 34.8219 25.1888 34.9988Z" fill="#534F59"/>
<path d="M23.8459 36.0355C24.0791 35.8828 24.3043 35.7139 24.5294 35.545C24.3043 35.7139 24.0791 35.8747 23.8459 36.0355Z" fill="#534F59"/>
<path d="M20.9029 37.4998C21.2245 37.3872 21.5381 37.2666 21.8517 37.1299C21.5301 37.2666 21.2245 37.3953 20.9029 37.4998Z" fill="#534F59"/>
<path d="M9.4534 33.5671C9.60617 33.7038 9.75895 33.8405 9.91172 33.9692C9.75895 33.8405 9.59813 33.7038 9.4534 33.5671Z" fill="#534F59"/>
<path d="M8.57648 32.7062C8.71317 32.8429 8.84182 32.9796 8.97851 33.1082C8.83378 32.9876 8.70513 32.8429 8.57648 32.7062Z" fill="#534F59"/>
<path d="M8.35977 34.6851C8.5447 34.854 8.7377 35.0228 8.93067 35.1756C8.74574 35.0148 8.5447 34.854 8.35977 34.6851Z" fill="#534F59"/>
<path d="M5.31214 31.0586C7.80472 56.8137 11.8572 77.318 17.6785 93.6491C18.4665 95.8603 19.5279 97.8464 20.8304 99.5752C22.8727 102.277 24.0226 102.518 24.5211 102.414C25.2849 102.277 26.0086 101.111 26.5553 99.141C27.1825 96.9137 27.3111 94.5658 26.9574 92.1696C24.2477 74.0453 24.5934 53.7742 27.9785 31.8466C28.3403 31.3159 28.6861 30.7531 29.0157 30.158C29.2972 29.6434 29.5706 29.1047 29.8118 28.5579C29.9726 28.1961 30.1334 27.8262 30.2781 27.4483C26.2176 51.0001 25.6146 72.7025 28.5012 91.9364C28.8952 94.5497 28.7424 97.1147 28.067 99.5591C27.3192 102.237 26.2578 103.676 24.8105 103.949C24.6578 103.982 24.4889 103.998 24.3281 103.998C22.913 103.998 21.3531 102.848 19.5922 100.508C18.1851 98.6666 17.0514 96.5277 16.2152 94.1637C10.0641 76.9159 5.87498 55.0929 3.40652 27.4402C4.01761 28.8715 4.72519 30.1822 5.52925 31.3642C5.45688 31.2757 5.3845 31.1712 5.31214 31.0586Z" fill="#534F59"/>
<path d="M3.39851 27.3278L2.97238 22.5032L4.70912 26.4915C4.8619 26.8775 5.03074 27.2554 5.20764 27.6253C5.28804 27.7941 5.3604 27.963 5.44884 28.1238C5.63378 28.5098 5.83482 28.8716 6.03584 29.2335C6.15645 29.4425 6.27703 29.6516 6.41372 29.8607C6.54237 30.0617 6.67101 30.2627 6.8077 30.4637C6.93635 30.6648 7.07304 30.8658 7.20973 31.0507C7.59568 31.5895 8.00576 32.088 8.43192 32.5544C8.4882 32.6107 8.53644 32.6589 8.57664 32.7072C8.70529 32.8438 8.83394 32.9886 8.97867 33.1092C9.13144 33.262 9.29227 33.4228 9.45308 33.5595C9.59781 33.6962 9.75863 33.8329 9.9114 33.9615C10.0883 34.1063 10.2732 34.259 10.4501 34.3877C14.4624 37.387 19.6164 37.3548 23.5723 34.2992C25.1644 33.077 26.5393 31.4286 27.6569 29.4104C27.9223 28.9279 28.1715 28.4294 28.3967 27.9228C28.5575 27.561 28.7183 27.1911 28.855 26.8051L28.9917 26.4754H30.4551L30.3023 27.3921C30.3023 27.4162 30.2942 27.4323 30.2942 27.4564C30.1495 27.8344 29.9887 28.2042 29.8279 28.5661C29.5867 29.1129 29.3133 29.6516 29.0319 30.1662C28.7022 30.7612 28.3565 31.3241 27.9947 31.8548C27.665 32.3131 27.3353 32.7634 26.9896 33.1735C26.8046 33.3987 26.6036 33.6158 26.4106 33.8329C26.3946 33.849 26.3785 33.865 26.3704 33.8811C26.1855 34.0741 25.9925 34.2671 25.8076 34.444C25.6066 34.637 25.3976 34.83 25.1885 35.0069C25.1885 35.0149 25.1804 35.0229 25.1724 35.0229C25.1161 35.0712 25.0598 35.1275 25.0035 35.1596C24.8588 35.2963 24.69 35.4169 24.5372 35.5456C24.3121 35.7145 24.0869 35.8833 23.8537 36.0361C23.2105 36.4703 22.5431 36.8321 21.8516 37.1377C21.5381 37.2744 21.2245 37.395 20.9029 37.5076C19.6244 37.9337 18.2977 38.1589 16.971 38.1589C14.3739 38.1589 11.7607 37.3226 9.52542 35.6501C9.33245 35.5054 9.13145 35.3446 8.93848 35.1838C8.7455 35.031 8.55251 34.8621 8.36758 34.6933C8.03791 34.3957 7.71629 34.0741 7.41075 33.7444C7.24189 33.5675 7.07305 33.3826 6.92028 33.1976C6.75947 33.0127 6.59869 32.8117 6.44592 32.6187C6.29315 32.4257 6.13233 32.2167 5.9876 32.0156C5.84287 31.8146 5.69007 31.6055 5.55338 31.3884C4.74932 30.1984 4.04178 28.8877 3.4307 27.4645C3.40658 27.4082 3.39851 27.368 3.39851 27.3278Z" fill="#534F59"/>
<path d="M1.13953 14.1729C1.85514 10.4902 4.99899 8.1583 7.76495 6.10787C8.04637 5.90685 8.31978 5.70582 8.59315 5.48872C9.13991 5.07863 9.70274 4.61227 10.2897 4.11373C11.5199 3.08449 12.7984 2.01505 14.1733 1.30745C15.7814 0.487275 17.8237 0.808911 19.7937 2.19999C21.2169 3.19706 22.5918 4.32279 23.9265 5.41635C24.6019 5.97922 25.2934 6.53404 25.9769 7.07278L26.3789 7.39442C29.2896 9.67804 32.2968 12.0421 32.4656 16.3118C32.4897 17.0113 32.4656 17.7752 32.3691 18.6195C32.2083 20.2438 31.8465 21.9163 31.4927 23.4843C31.1711 24.8834 30.7771 26.2101 30.2866 27.4484C30.2866 27.4243 30.2947 27.4082 30.2947 27.3841L30.4474 26.4675H28.984L28.8474 26.7971C29.2896 25.6473 29.6675 24.4251 29.957 23.1385C30.3027 21.6188 30.6404 20.0026 30.8012 18.4507C30.8897 17.6787 30.9138 16.9872 30.8897 16.3681C30.753 12.814 28.1478 10.7716 25.3899 8.61663L24.9879 8.295C24.2964 7.74822 23.6049 7.18535 22.9134 6.62249C21.6028 5.54501 20.252 4.43536 18.877 3.47045C18.3544 3.10057 17.2207 2.42513 16.0468 2.42513C15.6448 2.42513 15.2427 2.50554 14.8567 2.69852C13.6426 3.31767 12.4366 4.33083 11.2707 5.30378C10.6918 5.79428 10.0887 6.29281 9.50979 6.73506C9.23641 6.94413 8.95496 7.14515 8.67354 7.36225C6.01211 9.34032 3.25419 11.3747 2.64311 14.4785C1.9677 17.928 3.013 21.7233 4.1226 24.9879C4.29145 25.5025 4.48443 25.993 4.68545 26.4835L2.94866 22.4953L3.37483 27.3198C3.37483 27.36 3.38288 27.4082 3.38288 27.4484C3.11754 26.8132 2.8602 26.1699 2.63506 25.4865C1.48526 22.0369 0.391752 17.9843 1.13953 14.1729Z" fill="#534F59"/>
</g>
</svg>
