<svg width="34" height="106" viewBox="0 0 34 106" fill="none" xmlns="http://www.w3.org/2000/svg">
<g opacity="0.5">
<path d="M31.9344 17.0214C32.1836 19.8438 31.1143 23.4702 30.4067 25.8744C30.2861 26.2845 30.1654 26.6785 30.0207 27.0725C29.9966 27.1449 29.9725 27.2092 29.9484 27.2736C29.8197 27.6274 29.6991 27.9651 29.5704 28.2867C29.4418 28.6164 29.3131 28.938 29.1684 29.2436C27.6166 32.7816 24.7059 37.2604 19.6725 38.4906C14.43 39.7611 9.77454 36.5849 7.15331 33.1836C6.34121 32.1222 5.6256 30.9482 4.99039 29.6697C4.74918 29.1551 4.51601 28.6325 4.29892 28.0857C4.17027 27.764 4.04164 27.4344 3.92103 27.0967C3.12502 24.8774 2.56215 22.3927 2.23248 19.6588L2.21644 19.5141C1.88677 16.8043 1.5571 13.998 2.50588 11.5214C3.37427 9.2619 5.81861 7.81454 8.03781 6.49583C8.53632 6.19832 9.06697 5.85257 9.62177 5.49877C11.8008 4.09965 14.3657 2.43518 16.7377 2.43518C17.5418 2.43518 18.3297 2.62815 19.0614 3.10257C20.6052 4.06747 22.157 5.03239 23.7008 5.98926C25.3813 7.03458 27.0618 8.07989 28.7342 9.13325C29.5946 9.68003 30.3022 10.6289 30.8409 11.9637C31.3876 13.2824 31.7494 14.987 31.9344 17.0214Z" fill="white"/>
<path d="M21.5697 39.5362C21.6742 39.496 21.7627 39.4558 21.8592 39.4156C22.0763 39.3271 22.2853 39.2387 22.5024 39.1342C22.5105 39.1342 22.5185 39.1261 22.5265 39.1261C22.7436 39.0135 22.9527 38.909 23.1698 38.7884C23.6844 38.507 24.1668 38.1853 24.6332 37.8476C24.6412 37.8476 24.6493 37.8396 24.6653 37.8235C25.0915 37.5018 25.4935 37.1641 25.8795 36.8184C25.9679 36.738 26.0483 36.6656 26.1368 36.5771C26.386 36.3359 26.6272 36.0866 26.8604 35.8293C27.0051 35.6766 27.1499 35.5077 27.2866 35.3469C27.3348 35.2826 27.3911 35.2182 27.4394 35.1619C27.8575 34.6393 28.2595 34.1005 28.6213 33.5538C28.7499 33.3688 28.8706 33.1758 28.9831 32.9909C29.2002 32.6451 29.4013 32.3074 29.5942 31.9536C28.8545 40.7825 27.4474 50.8658 25.3488 62.6056C23.218 73.493 22.4462 84.5733 23.0653 95.5251C23.1055 96.2648 23.0894 96.9724 23.017 97.6237C22.422 102.786 21.3124 103.405 20.9908 103.469C20.6129 103.55 19.1656 103.349 16.0378 97.8247C10.6023 87.0178 7.66755 73.9272 7.05647 57.8453C6.99214 49.1451 6.31677 40.7745 5.03027 32.8542C5.16696 33.0713 5.31972 33.2804 5.4725 33.5055C5.61723 33.7146 5.77804 33.9236 5.93081 34.1407C6.16399 34.4383 6.40519 34.7358 6.66249 35.0333C6.91978 35.3308 7.19317 35.6203 7.47459 35.9017C7.86054 36.2877 8.26258 36.6495 8.68873 37.0033C8.89778 37.1722 9.11487 37.3491 9.34001 37.5099C9.34001 37.5099 9.34002 37.5099 9.34806 37.5099C9.56515 37.6787 9.79026 37.8396 10.0234 37.9923C10.2486 38.1451 10.4898 38.2979 10.731 38.4426C11.5833 38.9412 12.4838 39.3754 13.4246 39.689C13.6899 39.7855 13.9633 39.8659 14.2447 39.9382C15.2177 40.1956 16.2468 40.3483 17.3002 40.3483C17.3243 40.3483 17.3404 40.3483 17.3645 40.3483C18.0238 40.3483 18.6831 40.284 19.3585 40.1634C19.5917 40.1232 19.8249 40.0669 20.0581 40.0186C20.3234 39.9543 20.5888 39.8819 20.8461 39.8015C20.8863 39.7855 20.9185 39.7774 20.9587 39.7613C21.1516 39.689 21.3687 39.6086 21.5697 39.5362Z" fill="white"/>
<path d="M28.6132 33.5547C28.7418 33.3698 28.8624 33.1768 28.975 32.9919C28.8624 33.1768 28.7338 33.3698 28.6132 33.5547Z" fill="#534F59"/>
<path d="M27.2792 35.3476C27.3277 35.283 27.3842 35.2184 27.4326 35.1619C27.3761 35.2265 27.3277 35.283 27.2792 35.3476Z" fill="#534F59"/>
<path d="M26.8443 35.8295C26.989 35.6767 27.1338 35.5079 27.2705 35.347C27.1338 35.5159 26.9971 35.6767 26.8443 35.8295Z" fill="#534F59"/>
<path d="M26.121 36.5852C26.0326 36.6737 25.9522 36.7461 25.8637 36.8265C25.9522 36.7461 26.0326 36.6576 26.121 36.5852Z" fill="#534F59"/>
<path d="M24.6581 37.8313C24.6417 37.8477 24.6335 37.8559 24.6253 37.8559C24.6417 37.8477 24.6499 37.8395 24.6581 37.8313Z" fill="#534F59"/>
<path d="M22.5188 39.1265C22.7359 39.0139 22.9449 38.9094 23.162 38.7888C22.953 38.9094 22.7439 39.0219 22.5188 39.1265Z" fill="#534F59"/>
<path d="M20.943 39.7535C21.152 39.6891 21.3611 39.6168 21.5701 39.5364C21.3691 39.6087 21.152 39.6891 20.943 39.7535Z" fill="#534F59"/>
<path d="M20.0503 40.0106C20.3156 39.9463 20.581 39.8739 20.8383 39.7935C20.581 39.8659 20.3156 39.9463 20.0503 40.0106Z" fill="#534F59"/>
<path d="M17.3565 40.3478C18.0158 40.3478 18.6752 40.2835 19.3506 40.1629C18.6752 40.2835 18.0078 40.3478 17.3565 40.3478Z" fill="#534F59"/>
<path d="M13.4168 39.6891C13.6902 39.7856 13.9636 39.866 14.2369 39.9384C13.9555 39.866 13.6822 39.7856 13.4168 39.6891Z" fill="#534F59"/>
<path d="M10.0153 37.984C10.2485 38.1368 10.4816 38.2976 10.7229 38.4343C10.4816 38.2895 10.2404 38.1448 10.0153 37.984Z" fill="#534F59"/>
<path d="M9.33191 37.5033C9.549 37.6722 9.77411 37.833 10.0073 37.9857C9.78215 37.833 9.549 37.6802 9.33191 37.5033Z" fill="#534F59"/>
<path d="M8.68082 36.996C8.88987 37.1649 9.10697 37.3337 9.3321 37.5026C9.10697 37.3418 8.88987 37.1649 8.68082 36.996Z" fill="#534F59"/>
<path d="M5.01453 32.8539L5.45675 33.5053C5.30398 33.2882 5.15926 33.0791 5.01453 32.8539Z" fill="#534F59"/>
<path d="M4.30652 28.0864C4.52361 28.6332 4.75678 29.1558 4.998 29.6705C4.75678 29.1639 4.51557 28.6332 4.30652 28.0864Z" fill="#534F59"/>
<path d="M5.01423 32.8551C6.30072 40.7754 6.98419 49.146 7.04047 57.8463C7.65156 73.9361 10.5864 87.0187 16.0218 97.8257C19.1415 103.358 20.5968 103.551 20.9748 103.47C21.3044 103.398 22.414 102.787 23.001 97.6247C23.0734 96.9653 23.0894 96.2658 23.0492 95.526C22.4221 84.5743 23.194 73.4939 25.3328 62.6065C27.4314 50.8668 28.8385 40.7915 29.5782 31.9545C29.9722 31.255 30.3019 30.5474 30.5994 29.88C30.9129 29.1724 31.2024 28.4326 31.4597 27.6687C30.8406 37.5671 29.337 49.0978 26.8685 62.896C24.7538 73.6627 23.998 84.6145 24.6091 95.4456C24.6574 96.2738 24.6332 97.0698 24.5448 97.8016C24.0302 102.369 22.9929 104.66 21.2803 105.006C21.1356 105.038 20.9828 105.046 20.8381 105.046C19.0852 105.046 17.1555 103.02 14.6388 98.5655C9.09882 87.5253 6.10776 74.2256 5.4806 57.8865C5.40019 47.2403 4.40314 37.1168 2.49753 27.7411C3.17294 29.6146 4.0172 31.3273 5.01423 32.8551Z" fill="#534F59"/>
<path d="M3.92864 27.0971C4.04925 27.4429 4.16989 27.7726 4.30658 28.0862C4.51563 28.6329 4.75684 29.1637 4.99805 29.6702C5.63326 30.9487 6.34887 32.1227 7.16097 33.1841C9.77416 36.5854 14.4377 39.7696 19.6802 38.4911C24.7055 37.2689 27.6242 32.7821 29.1761 29.2441C29.3128 28.9305 29.4495 28.6088 29.5781 28.2872C29.7148 27.9495 29.8354 27.6118 29.956 27.274C29.9802 27.2017 30.0042 27.1373 30.0284 27.073L31.8295 21.9349L31.4757 27.5635C31.4757 27.5957 31.4676 27.6359 31.4676 27.668C31.2103 28.4319 30.9209 29.1636 30.6073 29.8793C30.3098 30.5547 29.9721 31.2543 29.5862 31.9538C29.4012 32.3076 29.1922 32.6454 28.9751 32.9911C28.8625 33.1761 28.7419 33.369 28.6132 33.554C28.2514 34.1008 27.8574 34.6395 27.4313 35.1622C27.375 35.2265 27.3187 35.2908 27.2785 35.3471C27.1418 35.5079 26.9971 35.6768 26.8523 35.8296C26.6192 36.0869 26.378 36.3361 26.1287 36.5774C26.0403 36.6578 25.9599 36.7382 25.8714 36.8186C25.4855 37.1724 25.0915 37.5021 24.6573 37.8237C24.6492 37.8318 24.6412 37.8398 24.6251 37.8478C24.1668 38.1856 23.6763 38.5072 23.1617 38.7886C22.9527 38.9092 22.7436 39.0138 22.5185 39.1263C22.5105 39.1263 22.5024 39.1344 22.4944 39.1344C22.2853 39.2389 22.0763 39.3274 21.8511 39.4158C21.7546 39.456 21.6662 39.4962 21.5617 39.5364C21.3607 39.6168 21.1516 39.6892 20.9345 39.7535C20.8943 39.7696 20.8621 39.7776 20.8219 39.7937C20.5646 39.8741 20.2993 39.9465 20.0339 40.0108C19.8008 40.0671 19.5676 40.1234 19.3344 40.1556C18.659 40.2842 17.9997 40.3405 17.3404 40.3405C17.3162 40.3405 17.3002 40.3405 17.276 40.3405C16.2227 40.3405 15.2016 40.1958 14.2206 39.9304C13.9472 39.8581 13.6738 39.7776 13.4005 39.6812C12.4517 39.3595 11.5592 38.9334 10.7069 38.4348C10.4657 38.2981 10.2325 38.1373 9.99932 37.9845C9.76614 37.8317 9.54098 37.6709 9.32389 37.5021C9.31585 37.5021 9.31584 37.5021 9.31584 37.5021C9.09874 37.3332 8.88165 37.1644 8.66455 36.9955C8.24644 36.6417 7.83637 36.2799 7.45042 35.8939C7.169 35.6125 6.89566 35.323 6.63836 35.0255C6.38106 34.728 6.13982 34.4304 5.90664 34.1329C5.75387 33.9239 5.59305 33.7148 5.44832 33.4977L5.0061 32.8464C4.00907 31.3186 3.16481 29.6059 2.4894 27.7243C2.48136 27.7002 2.48134 27.6841 2.4733 27.66L2.28033 26.7192H3.77587L3.92864 27.0971Z" fill="#534F59"/>
<path d="M1.05841 10.9594C2.11977 8.19334 4.93393 6.52084 7.19333 5.16996C7.73205 4.84833 8.24668 4.51865 8.7854 4.17289C11.8971 2.16266 16.1667 -0.579291 19.9055 1.76061C21.4413 2.72552 22.9931 3.69044 24.5369 4.65535C26.2173 5.70066 27.8978 6.74599 29.5703 7.79935C31.7573 9.17434 33.076 12.2299 33.4941 16.8775C33.7433 19.7481 32.8428 23.1092 31.9021 26.3015C31.7654 26.7598 31.6206 27.2101 31.4678 27.6524C31.4678 27.6202 31.4759 27.58 31.4759 27.5478L31.8297 21.9192L30.0286 27.0573C30.1653 26.6633 30.2939 26.2693 30.4145 25.8592C31.1221 23.455 32.1915 19.8205 31.9422 17.0062C31.7654 14.9718 31.3955 13.2672 30.8648 11.9404C30.3261 10.6137 29.6185 9.65679 28.7582 9.11001C27.0777 8.05665 25.3972 7.01134 23.7248 5.96602C22.181 5.00915 20.6292 4.04423 19.0854 3.07932C18.3537 2.61295 17.5657 2.41193 16.7616 2.41193C14.3977 2.41193 11.8247 4.0764 9.64574 5.47552C9.09094 5.83736 8.56024 6.17507 8.06172 6.47259C5.84253 7.7913 3.39819 9.2467 2.5298 11.4982C1.58102 13.9828 1.91069 16.781 2.24036 19.4908L2.25645 19.6356C2.58612 22.3695 3.14894 24.8541 3.94495 27.0734L3.80828 26.7116H2.31274L2.50571 27.6524C2.51375 27.6765 2.51372 27.6925 2.52176 27.7167C1.66141 25.3607 1.05033 22.7152 0.712626 19.8285L0.696579 19.6758C0.342793 16.9258 -0.0270635 13.7979 1.05841 10.9594Z" fill="#534F59"/>
</g>
</svg>
