<svg width="60" height="102" viewBox="0 0 60 102" fill="none" xmlns="http://www.w3.org/2000/svg">
<g opacity="0.5">
<path d="M23.1977 32.7521C25.1355 32.3501 27.1295 32.6155 28.8422 33.508C31.7689 35.0438 35.2344 35.663 39.3914 35.3735C39.9864 35.3413 40.5975 35.277 41.2086 35.2046C41.2166 35.2046 41.2247 35.2046 41.2327 35.2046C42.1172 35.0921 42.9855 35.1483 43.8137 35.3735C44.5615 35.5826 45.2932 35.6871 45.9847 35.6871C46.4189 35.6871 46.845 35.6469 47.2551 35.5584C47.4481 35.5182 47.6491 35.47 47.834 35.4217C47.8903 35.4057 47.9546 35.3896 47.9948 35.3654C48.1235 35.3252 48.2441 35.285 48.3647 35.2288C48.4371 35.2046 48.5014 35.1805 48.5496 35.1483C48.6461 35.1081 48.7345 35.0599 48.831 35.0116C48.9275 34.9714 49.024 34.9152 49.1205 34.8669C49.402 34.7141 49.6673 34.5292 49.9326 34.3282C50.0693 34.2397 50.1899 34.1352 50.3186 34.0146C50.4231 33.9342 50.5196 33.8538 50.6161 33.7573C48.0511 55.717 50.1899 74.7498 56.9681 90.3974C57.8767 92.4881 58.2948 94.6189 58.2144 96.7256C58.1421 98.5429 57.7641 99.6847 57.1289 99.942C56.5339 100.167 54.9821 100.022 51.1307 96.3075L51.0261 96.1949L50.8894 96.1386C45.8721 94.0802 39.0778 80.6518 32.5006 67.6738C31.6966 66.0737 30.8845 64.4816 30.0804 62.9056C29.4532 61.6833 28.2311 60.9355 26.8642 60.9355C26.8079 60.9355 26.7597 60.9355 26.7194 60.9355C25.2882 60.9918 24.0741 61.8442 23.5274 63.1548C20.4237 70.6007 21.1634 78.5532 25.7063 86.7951C27.0571 89.2476 27.427 92.1664 26.6954 94.8039C26.43 95.7527 25.9717 96.9106 25.2078 97.1277C24.5324 97.3206 23.5033 96.806 22.1846 95.5999C12.3188 87.7359 7.79196 75.4574 7.95277 56.9473C9.68954 48.4882 9.70559 40.4956 7.96882 32.0285C8.04923 32.0606 8.11357 32.0848 8.19398 32.1089C8.34675 32.1732 8.50758 32.2295 8.6684 32.2697C8.6684 32.2697 8.66835 32.2777 8.6764 32.2697C8.86937 32.3421 9.07842 32.3983 9.27944 32.4627C9.41613 32.5109 9.55282 32.5511 9.68147 32.5833C9.89052 32.6476 10.1076 32.7119 10.3328 32.7521C10.4775 32.8004 10.6383 32.8406 10.783 32.8728C10.9358 32.9049 11.0966 32.9451 11.2494 32.9773C11.4986 33.0336 11.7479 33.0818 12.0052 33.122C12.0213 33.122 12.0374 33.1301 12.0615 33.1301C12.367 33.1864 12.6806 33.2346 12.9942 33.2668C13.4847 33.3391 13.9832 33.3874 14.4898 33.4115C14.739 33.4356 14.9883 33.4517 15.2456 33.4598C16.9421 33.5321 18.695 33.4356 20.5362 33.1864C21.0589 33.114 21.5976 33.0336 22.1364 32.9291C22.4901 32.8888 22.8439 32.8245 23.1977 32.7521Z" fill="white"/>
<path d="M53.7117 11.9029C54.3791 19.6543 53.5107 25.8056 51.1066 30.6302C51.0905 30.6463 51.0825 30.6704 51.0744 30.6865C49.2814 33.6455 47.1024 34.6587 44.2239 33.8707C43.8781 33.7742 43.5243 33.7098 43.1625 33.6616C42.9856 33.6375 42.8087 33.6214 42.6318 33.6053C42.4469 33.5973 42.262 33.5892 42.0851 33.5892C41.7393 33.5892 41.3936 33.6134 41.0478 33.6536C36.3762 34.2325 32.6294 33.734 29.5659 32.1338C28.1508 31.3941 26.5667 31.0081 24.9586 31.0081C24.2671 31.0081 23.5676 31.0885 22.8761 31.2252C17.304 32.3992 12.4877 32.1499 8.18599 30.4613C7.7518 29.7618 7.34172 29.0702 6.96381 28.3868C2.81487 21.0052 1.51233 14.5323 2.97571 8.67045C4.64011 5.25306 6.76281 3.21067 9.2956 2.61565C12.6083 1.83568 16.8698 3.44387 21.9756 7.38391L22.45 7.75379L22.9244 7.38391C29.9438 1.9563 36.7461 2.26989 43.7173 8.33273L44.1032 8.67045L44.5616 8.45334C48.011 6.813 50.4955 7.11052 52.6423 9.4263C53.2534 10.0937 53.6313 10.9621 53.7117 11.9029Z" fill="white"/>
<path d="M49.9403 34.3368C50.077 34.2322 50.1976 34.1357 50.3263 34.0232C50.1976 34.1438 50.069 34.2483 49.9403 34.3368Z" fill="#534F59"/>
<path d="M48.8386 35.021C48.935 34.9727 49.0315 34.9245 49.128 34.8762C49.0315 34.9325 48.935 34.9888 48.8386 35.021Z" fill="#534F59"/>
<path d="M48.5576 35.1577C48.654 35.1175 48.7425 35.0773 48.839 35.021C48.7425 35.0692 48.654 35.1175 48.5576 35.1577Z" fill="#534F59"/>
<path d="M48.0025 35.3665C48.1312 35.3263 48.2437 35.2861 48.3723 35.2298C48.2517 35.2942 48.1312 35.3263 48.0025 35.3665Z" fill="#534F59"/>
<path d="M47.8419 35.4219C47.657 35.4782 47.456 35.5264 47.263 35.5586C47.456 35.5264 47.6409 35.4782 47.8419 35.4219Z" fill="#534F59"/>
<path d="M43.8215 35.3746C45.0437 35.7124 46.1935 35.7767 47.2629 35.5596C46.8529 35.648 46.4267 35.6882 45.9925 35.6882C45.293 35.6882 44.5693 35.5837 43.8215 35.3746Z" fill="#534F59"/>
<path d="M43.1625 33.6608C42.9937 33.6367 42.8088 33.6206 42.6319 33.6045C42.8088 33.6206 42.9856 33.6367 43.1625 33.6608Z" fill="#534F59"/>
<path d="M39.3906 35.3741C39.9856 35.3339 40.5887 35.2776 41.2078 35.2052C40.5887 35.2856 39.9856 35.3419 39.3906 35.3741Z" fill="#534F59"/>
<path d="M20.5519 33.2107C21.0826 33.1384 21.6132 33.058 22.1519 32.9534C21.6132 33.058 21.0745 33.1384 20.5519 33.2107Z" fill="#534F59"/>
<path d="M14.4974 33.4371C14.7466 33.4612 15.0039 33.4773 15.2531 33.4853C14.9958 33.4773 14.7466 33.4612 14.4974 33.4371Z" fill="#534F59"/>
<path d="M10.7907 32.8904C10.9435 32.9306 11.1043 32.9628 11.2571 32.9949C11.1043 32.9628 10.9435 32.9225 10.7907 32.8904Z" fill="#534F59"/>
<path d="M10.3327 32.7771C10.4774 32.8253 10.6302 32.8575 10.7829 32.8977C10.6382 32.8575 10.4854 32.8253 10.3327 32.7771Z" fill="#534F59"/>
<path d="M9.68945 32.5998C9.90655 32.6722 10.1156 32.7285 10.3407 32.7687C10.1156 32.7285 9.89851 32.6641 9.68945 32.5998Z" fill="#534F59"/>
<path d="M6.9956 31.5076C6.56945 30.8241 6.15937 30.1326 5.78147 29.4652C5.77343 29.4331 5.76536 29.3928 5.75732 29.3607L5.51611 28.3877H6.97146C7.3574 29.0712 7.75945 29.7627 8.19364 30.4623C12.4953 32.1509 17.3036 32.4002 22.8838 31.2262C23.5753 31.0895 24.2748 31.0091 24.9663 31.0091C26.5744 31.0091 28.1584 31.395 29.5736 32.1348C32.637 33.7349 36.3839 34.2335 41.0555 33.6545C41.4012 33.6143 41.7469 33.5902 42.0927 33.5902C42.2696 33.5902 42.4546 33.5982 42.6395 33.6063C42.8164 33.6224 43.0013 33.6385 43.1701 33.6626C43.532 33.7108 43.8858 33.7832 44.2315 33.8716C47.102 34.6596 49.281 33.6465 51.0821 30.6874C51.0901 30.6714 51.0982 30.6472 51.1142 30.6311L53.0118 27.5032L52.5213 31.194C52.5133 31.2423 52.5052 31.2905 52.5052 31.3307C52.4892 31.3709 52.465 31.4031 52.449 31.4433C51.8057 32.5047 51.0981 33.3731 50.3343 34.0244C50.2056 34.137 50.085 34.2335 49.9483 34.338C49.683 34.539 49.4177 34.724 49.1362 34.8767C49.0398 34.933 48.9433 34.9813 48.8468 35.0215C48.7503 35.0778 48.6619 35.118 48.5654 35.1582C48.5091 35.1903 48.4447 35.2145 48.3804 35.2386C48.2518 35.2949 48.1392 35.3351 48.0106 35.3753C47.9623 35.3994 47.898 35.4155 47.8498 35.4316C47.6568 35.4879 47.4638 35.5361 47.2708 35.5683C46.2014 35.7773 45.0516 35.713 43.8295 35.3833C42.9933 35.1582 42.1249 35.1019 41.2484 35.2145C41.2404 35.2145 41.2324 35.2145 41.2243 35.2145C40.5972 35.2949 40.0022 35.3512 39.4072 35.3833C35.2502 35.6728 31.7847 35.0537 28.8579 33.5178C27.1453 32.6253 25.1512 32.36 23.2134 32.762C22.8596 32.8344 22.5139 32.8987 22.1682 32.963C21.6294 33.0676 21.0988 33.148 20.5681 33.2203C18.7268 33.4696 16.9659 33.5661 15.2774 33.4937C15.0281 33.4857 14.7708 33.4696 14.5216 33.4455C14.015 33.4133 13.5165 33.3651 13.026 33.3007C12.7125 33.2605 12.3988 33.2123 12.0933 33.164C12.0692 33.164 12.0531 33.156 12.037 33.156C11.7797 33.1077 11.5305 33.0595 11.2812 33.0113C11.1285 32.9791 10.9676 32.9469 10.8149 32.9067C10.6621 32.8665 10.5093 32.8344 10.3646 32.7861C10.1475 32.7379 9.93846 32.6816 9.71332 32.6173C9.57663 32.5851 9.43994 32.5449 9.31129 32.4966C9.11028 32.4404 8.90122 32.376 8.70825 32.3037C8.70021 32.3117 8.7002 32.3037 8.7002 32.3037C8.53939 32.2554 8.37855 32.1991 8.22578 32.1428C7.94436 32.0464 7.67101 31.9418 7.39763 31.8292L7.16442 31.7328L6.9956 31.5076Z" fill="#534F59"/>
<path d="M7.13233 31.7236L7.36549 31.8201C7.63887 31.9327 7.91227 32.0372 8.19369 32.1337C8.11328 32.1096 8.04894 32.0854 7.96853 32.0533C9.70529 40.5204 9.68925 48.513 7.95248 56.9721C7.79971 75.4822 12.3185 87.7607 22.1843 95.6247C23.503 96.8389 24.5321 97.3535 25.2075 97.1525C25.9633 96.9354 26.4297 95.7695 26.6951 94.8287C27.4187 92.1913 27.0569 89.2724 25.706 86.8199C21.1631 78.578 20.4315 70.6336 23.5271 63.1796C24.0738 61.869 25.2879 61.0166 26.7192 60.9604C26.7674 60.9604 26.8156 60.9604 26.8639 60.9604C28.2308 60.9604 29.4529 61.7001 30.0801 62.9304C30.8842 64.5064 31.6963 66.0985 32.5003 67.6986C39.0775 80.6767 45.8718 94.097 50.8891 96.1635L51.0259 96.2197L51.1304 96.3323C54.9818 100.039 56.5336 100.192 57.1286 99.9668C57.7638 99.7095 58.1418 98.5677 58.2141 96.7504C58.2945 94.6518 57.8684 92.5209 56.9678 90.4222C50.1896 74.7746 48.0589 55.7338 50.6158 33.7821C50.5193 33.8786 50.4228 33.959 50.3183 34.0394C51.0821 33.38 51.7978 32.5197 52.433 31.4583C52.449 31.418 52.4732 31.3859 52.4892 31.3457C49.474 54.1336 51.46 73.7937 58.391 89.8031C59.3961 92.1189 59.8625 94.4749 59.774 96.8148C59.6695 99.3879 59.0021 100.892 57.7076 101.414C57.4101 101.543 57.0804 101.599 56.7427 101.599C55.1346 101.599 53.0038 100.28 50.1575 97.5545C44.6255 95.1101 38.0644 82.1401 31.1093 68.4143C30.2972 66.8222 29.4932 65.2301 28.6891 63.6541C28.3112 62.9223 27.6197 62.4881 26.7674 62.5364C25.9473 62.5685 25.2799 63.0349 24.9663 63.7908C22.0154 70.8748 22.6989 78.1679 27.0649 86.0721C28.6167 88.8864 29.0268 92.2234 28.1906 95.2548C27.6519 97.2168 26.8157 98.3345 25.6418 98.6642C24.3794 99.026 22.916 98.4229 21.1712 96.8228C10.9275 88.6532 6.21572 75.9566 6.39261 56.8917L6.40866 56.7469C8.31427 47.516 8.11328 38.8479 5.77347 29.4802C6.15942 30.1556 6.56145 30.8391 6.9876 31.5226L7.13233 31.7236Z" fill="#534F59"/>
<path d="M9.28713 2.60778C6.75435 3.20281 4.63165 5.23716 2.96725 8.66259C1.50386 14.5244 2.81449 20.9973 6.95539 28.3789H5.50005L5.74126 29.3518C5.7493 29.384 5.75731 29.4242 5.76535 29.4564C1.25459 21.5441 -0.144451 14.5726 1.46366 8.20425L1.51995 8.05952C3.40949 4.15164 5.90204 1.81172 8.92529 1.10412C12.6561 0.219623 17.0865 1.75544 22.4415 5.79198C29.7504 0.396525 37.1156 0.750327 44.3521 6.8373C48.1874 5.15675 51.267 5.66333 53.7837 8.37311C54.628 9.28978 55.1586 10.4959 55.2712 11.7744C55.9466 19.7992 55.0461 26.2079 52.4892 31.338C52.4892 31.2897 52.4972 31.2415 52.5052 31.2013L52.9957 27.5105L51.0981 30.6384C53.5023 25.8139 54.3706 19.6706 53.7033 11.9111C53.6229 10.9703 53.245 10.1019 52.6339 9.43451C50.4871 7.11872 48.0025 6.82122 44.5531 8.46156L44.0948 8.67866L43.7088 8.34094C36.7377 2.27006 29.9353 1.96451 22.9159 7.39212L22.4415 7.762L21.9671 7.39212C16.8614 3.43599 12.5998 1.82781 9.28713 2.60778Z" fill="#534F59"/>
</g>
</svg>
