<svg width="54" height="94" viewBox="0 0 54 94" fill="none" xmlns="http://www.w3.org/2000/svg">
<mask id="path-1-inside-1_243_5671" fill="white">
<path fill-rule="evenodd" clip-rule="evenodd" d="M7.78803 1.11298C5.19896 1.77234 3.12452 3.72628 1.62897 6.91852C1.25106 7.7387 1.00179 8.59103 0.865104 9.4514C-0.0595622 16.4148 0.59176 21.7862 2.81096 25.493C2.81096 25.4287 2.8029 25.3805 2.79486 25.3403L2.29635 21.6575L2.31644 21.6903L2.81057 25.3403C2.81861 25.3725 2.82662 25.4207 2.82662 25.4931L2.82677 25.4934C3.33418 29.1258 9.94327 75.8616 19.4626 87.0216C22.1964 90.2138 24.4317 92.2803 27.1334 92.6985C27.3441 92.7266 27.5548 92.7854 27.7601 92.8427L27.8489 92.8674L27.9457 92.8931L27.9459 92.8931C28.3465 92.9997 28.7858 93.1166 29.2319 93.1166C29.65 93.1166 30.0842 93.0121 30.4863 92.7146C31.0169 92.3206 31.3788 91.7094 31.5798 90.8169C32.0783 88.6861 31.7647 86.3301 30.5747 83.3951C28.2429 77.6298 25.1714 66.067 24.5282 59.2161C24.4799 58.7498 24.8337 58.5889 24.9463 58.5487C25.0508 58.5005 25.4368 58.396 25.7021 58.7819C27.9525 61.9867 30.0377 65.8049 32.2456 69.8476L32.2456 69.8476L32.3195 69.9829L32.3339 70.0093C36.5105 77.656 40.8252 85.5556 46.7684 90.3425C47.2991 90.7767 48.0228 91.3637 48.9394 91.5728C50.6601 91.9748 52.0832 90.8089 52.6461 88.5252C53.8924 83.4273 51.834 79.0611 49.8319 74.8396C49.4218 73.9873 49.0198 73.1189 48.6338 72.2505C47.1946 68.9778 46.1252 65.4076 45.3533 61.355C43.6085 52.1723 45.0477 42.5875 46.4548 33.3244L46.5459 32.7107C46.9923 29.7027 47.4508 26.6131 47.7895 23.5869L47.8576 22.9749L47.886 22.92L47.8966 22.826C48.5236 20.583 48.5945 20.1071 48.6342 19.6312C49.1568 12.6919 47.5487 7.71457 43.8581 4.86005C41.2529 2.84178 37.8276 2.15026 34.4506 2.9624C30.7198 3.85494 28.1066 4.9083 26.209 6.29133C24.9949 7.16779 23.2581 7.14367 21.9958 6.20288C16.1342 1.84471 11.4787 0.180238 7.78803 1.11298ZM48.4916 17.3997L48.4975 17.3476L46.4471 22.2927C46.7929 21.4243 47.01 20.4916 47.0904 19.5186C47.5648 13.1341 46.1577 8.61515 42.9013 6.09835C40.7062 4.40171 37.6749 3.79865 34.8124 4.48213C31.2987 5.32642 28.8624 6.29937 27.1337 7.55375C25.3728 8.84029 22.8722 8.80009 21.063 7.45726C15.6758 3.46093 11.3339 1.83666 8.16596 2.63272C6.01913 3.1795 4.34669 4.79572 3.04412 7.58592C2.72249 8.26136 2.51342 8.96091 2.41693 9.66851C1.58345 15.9277 2.06486 20.7951 3.85363 24.1729L3.99251 24.3995C4.02426 24.4515 4.05394 24.5034 4.0834 24.555C4.13602 24.6471 4.18797 24.7381 4.24982 24.8257C4.38651 25.0508 4.53122 25.2679 4.68399 25.4851C4.68399 25.4931 4.684 25.4931 4.69203 25.5011L4.69204 25.5011C4.83677 25.7182 5.0056 25.9193 5.17445 26.1203C5.48 26.4902 5.81773 26.8198 6.16348 27.1334C6.17554 27.1455 6.1896 27.1576 6.20367 27.1696L6.20368 27.1696C6.21774 27.1817 6.23181 27.1937 6.24387 27.2058C6.41272 27.3505 6.60569 27.4953 6.79062 27.632C6.97555 27.7687 7.1846 27.9134 7.38561 28.034C7.54643 28.1466 7.72332 28.2431 7.89217 28.3315C7.9967 28.3959 8.09319 28.4522 8.19772 28.4924C8.2138 28.5004 8.23189 28.5084 8.24999 28.5165C8.26808 28.5245 8.28617 28.5326 8.30225 28.5406C8.43894 28.613 8.57564 28.6773 8.71233 28.7336C8.81416 28.7765 8.92313 28.8193 9.0321 28.8622L9.03215 28.8622C9.08664 28.8837 9.14114 28.9051 9.19474 28.9266C9.35555 28.9909 9.52445 29.0552 9.6933 29.0954C9.83803 29.1517 9.99881 29.208 10.1596 29.2321C10.1918 29.2482 10.2239 29.2562 10.256 29.2643L10.256 29.2643L10.2561 29.2643C11.1406 29.5055 12.0653 29.6583 13.006 29.7065C13.207 29.7307 13.416 29.7387 13.6171 29.7387C14.0754 29.7628 14.5498 29.7548 15.0081 29.7307C15.2654 29.7226 15.5307 29.7065 15.8041 29.6824C16.0775 29.6663 16.3509 29.6422 16.6243 29.602C16.8896 29.5779 17.1469 29.5457 17.4122 29.5055C17.4283 29.4975 17.4524 29.4975 17.4846 29.4975H17.4846C17.758 29.4492 18.0394 29.401 18.3128 29.3608C18.5862 29.3125 18.8596 29.2562 19.1329 29.2C19.2696 29.1758 19.3902 29.1517 19.5269 29.1195C19.6102 29.101 19.6946 29.0814 19.7802 29.0614C19.9179 29.0293 20.0585 28.9965 20.2023 28.9668C20.3198 28.9383 20.4373 28.9082 20.5555 28.878L20.5559 28.8779C20.7045 28.8399 20.8542 28.8016 21.0064 28.7657C21.5612 28.621 22.1321 28.5486 22.703 28.5486C23.5713 28.5486 24.4316 28.7175 25.2277 29.0552C34.2813 32.8746 40.9792 31.1459 45.7151 23.7723C45.7942 23.6537 45.8693 23.5231 45.9432 23.3946L45.9433 23.3946L45.9433 23.3945C45.9745 23.3402 46.0056 23.2862 46.0367 23.2336C46.093 23.1291 46.1412 23.0326 46.1894 22.92C46.294 22.719 46.3824 22.5099 46.4628 22.2928L48.4916 17.3997ZM5.13426 28.2994L5.12524 28.2915C4.99998 28.1894 4.88224 28.0869 4.76447 27.9692C6.38062 38.6877 12.5638 76.5202 20.6526 85.9763C23.1532 88.8951 25.1473 90.7767 27.3746 91.1225C27.633 91.1688 27.8805 91.2316 28.1215 91.2928L28.1217 91.2928C28.1731 91.3058 28.2242 91.3188 28.2751 91.3315C28.9183 91.5084 29.3204 91.6129 29.5696 91.436C29.7787 91.2752 29.9475 90.9536 30.0681 90.439C30.4862 88.6459 30.1968 86.5874 29.1274 83.9661C26.7635 78.1042 23.6196 66.3243 22.9763 59.3448C22.8799 58.3397 23.4588 57.423 24.4156 57.0692C25.3644 56.7154 26.4097 57.037 26.9886 57.8733C29.3043 61.1942 31.4431 65.086 33.6944 69.219C37.7951 76.7373 42.0325 84.5048 47.7413 89.1122C48.28 89.5384 48.7705 89.9163 49.2851 90.0369C50.4671 90.3103 50.9656 88.8067 51.1264 88.1393C52.244 83.5801 50.3867 79.6481 48.4167 75.499C48.3688 75.3965 48.3208 75.2941 48.2727 75.1916L48.1913 75.0183C47.8549 74.3019 47.518 73.5844 47.2026 72.8616C45.7151 69.4844 44.6135 65.8097 43.8256 61.6445C42.0245 52.1884 43.4879 42.475 44.9111 33.0832C45.2565 30.8096 45.6019 28.496 45.8992 26.1983C45.7119 26.4399 45.5245 26.6736 45.3371 26.8922C45.2865 26.9581 45.2358 27.0176 45.1871 27.0747L45.1871 27.0748L45.187 27.0749C45.1585 27.1084 45.1307 27.141 45.104 27.1736C44.5009 27.8652 43.8899 28.4843 43.2386 29.0472C43.0778 29.1839 42.9009 29.3286 42.7401 29.4573C42.4828 29.6663 42.2174 29.8674 41.944 30.0523L41.9438 30.0525C41.8635 30.1087 41.7832 30.1649 41.7028 30.2131C41.2767 30.5026 40.8264 30.7679 40.3681 31.0011C40.2516 31.0658 40.1247 31.1253 39.9999 31.1838L39.9999 31.1839L39.9098 31.2263C39.8834 31.2384 39.8569 31.2512 39.8303 31.264L39.8302 31.264C39.7514 31.3019 39.6702 31.341 39.5801 31.371C39.4515 31.4353 39.3228 31.4916 39.1861 31.5318C38.9851 31.6203 38.776 31.6926 38.5589 31.765C38.5268 31.7811 38.4946 31.7891 38.4625 31.7972C38.2132 31.8937 37.9559 31.966 37.6986 32.0304C37.6423 32.0545 37.578 32.0706 37.5298 32.0786C37.3046 32.151 37.0714 32.2073 36.8382 32.2394C36.8126 32.2453 36.788 32.2512 36.7638 32.257C36.6894 32.2749 36.6197 32.2916 36.5408 32.3038C36.3719 32.3359 36.203 32.3681 36.0342 32.3842C35.8895 32.4163 35.7447 32.4404 35.6 32.4485C35.3025 32.4887 35.005 32.5209 34.7075 32.5369C34.3779 32.5611 34.0482 32.5691 33.7185 32.5691C32.3275 32.5691 30.8802 32.4002 29.3525 32.0464C28.9746 31.958 28.5967 31.8695 28.2027 31.757C27.6157 31.5961 27.0207 31.4032 26.4337 31.1941C26.0317 31.0494 25.6377 30.8966 25.2277 30.7358C25.1964 30.7233 25.165 30.7108 25.1335 30.6983C25.1075 30.688 25.0814 30.6777 25.0552 30.6673C24.9083 30.6092 24.7585 30.5499 24.6086 30.4865C23.6035 30.0684 22.4617 29.988 21.3923 30.2694C21.0707 30.3578 20.741 30.4383 20.4355 30.5106C20.4275 30.5106 20.4194 30.5187 20.4194 30.5187C20.1521 30.5839 19.89 30.6385 19.6376 30.6911L19.6374 30.6912L19.4626 30.7277C13.3357 32.0062 8.41482 31.178 5.13426 28.2994Z"/>
</mask>
<path fill-rule="evenodd" clip-rule="evenodd" d="M7.78803 1.11298C5.19896 1.77234 3.12452 3.72628 1.62897 6.91852C1.25106 7.7387 1.00179 8.59103 0.865104 9.4514C-0.0595622 16.4148 0.59176 21.7862 2.81096 25.493C2.81096 25.4287 2.8029 25.3805 2.79486 25.3403L2.29635 21.6575L2.31644 21.6903L2.81057 25.3403C2.81861 25.3725 2.82662 25.4207 2.82662 25.4931L2.82677 25.4934C3.33418 29.1258 9.94327 75.8616 19.4626 87.0216C22.1964 90.2138 24.4317 92.2803 27.1334 92.6985C27.3441 92.7266 27.5548 92.7854 27.7601 92.8427L27.8489 92.8674L27.9457 92.8931L27.9459 92.8931C28.3465 92.9997 28.7858 93.1166 29.2319 93.1166C29.65 93.1166 30.0842 93.0121 30.4863 92.7146C31.0169 92.3206 31.3788 91.7094 31.5798 90.8169C32.0783 88.6861 31.7647 86.3301 30.5747 83.3951C28.2429 77.6298 25.1714 66.067 24.5282 59.2161C24.4799 58.7498 24.8337 58.5889 24.9463 58.5487C25.0508 58.5005 25.4368 58.396 25.7021 58.7819C27.9525 61.9867 30.0377 65.8049 32.2456 69.8476L32.2456 69.8476L32.3195 69.9829L32.3339 70.0093C36.5105 77.656 40.8252 85.5556 46.7684 90.3425C47.2991 90.7767 48.0228 91.3637 48.9394 91.5728C50.6601 91.9748 52.0832 90.8089 52.6461 88.5252C53.8924 83.4273 51.834 79.0611 49.8319 74.8396C49.4218 73.9873 49.0198 73.1189 48.6338 72.2505C47.1946 68.9778 46.1252 65.4076 45.3533 61.355C43.6085 52.1723 45.0477 42.5875 46.4548 33.3244L46.5459 32.7107C46.9923 29.7027 47.4508 26.6131 47.7895 23.5869L47.8576 22.9749L47.886 22.92L47.8966 22.826C48.5236 20.583 48.5945 20.1071 48.6342 19.6312C49.1568 12.6919 47.5487 7.71457 43.8581 4.86005C41.2529 2.84178 37.8276 2.15026 34.4506 2.9624C30.7198 3.85494 28.1066 4.9083 26.209 6.29133C24.9949 7.16779 23.2581 7.14367 21.9958 6.20288C16.1342 1.84471 11.4787 0.180238 7.78803 1.11298ZM48.4916 17.3997L48.4975 17.3476L46.4471 22.2927C46.7929 21.4243 47.01 20.4916 47.0904 19.5186C47.5648 13.1341 46.1577 8.61515 42.9013 6.09835C40.7062 4.40171 37.6749 3.79865 34.8124 4.48213C31.2987 5.32642 28.8624 6.29937 27.1337 7.55375C25.3728 8.84029 22.8722 8.80009 21.063 7.45726C15.6758 3.46093 11.3339 1.83666 8.16596 2.63272C6.01913 3.1795 4.34669 4.79572 3.04412 7.58592C2.72249 8.26136 2.51342 8.96091 2.41693 9.66851C1.58345 15.9277 2.06486 20.7951 3.85363 24.1729L3.99251 24.3995C4.02426 24.4515 4.05394 24.5034 4.0834 24.555C4.13602 24.6471 4.18797 24.7381 4.24982 24.8257C4.38651 25.0508 4.53122 25.2679 4.68399 25.4851C4.68399 25.4931 4.684 25.4931 4.69203 25.5011L4.69204 25.5011C4.83677 25.7182 5.0056 25.9193 5.17445 26.1203C5.48 26.4902 5.81773 26.8198 6.16348 27.1334C6.17554 27.1455 6.1896 27.1576 6.20367 27.1696L6.20368 27.1696C6.21774 27.1817 6.23181 27.1937 6.24387 27.2058C6.41272 27.3505 6.60569 27.4953 6.79062 27.632C6.97555 27.7687 7.1846 27.9134 7.38561 28.034C7.54643 28.1466 7.72332 28.2431 7.89217 28.3315C7.9967 28.3959 8.09319 28.4522 8.19772 28.4924C8.2138 28.5004 8.23189 28.5084 8.24999 28.5165C8.26808 28.5245 8.28617 28.5326 8.30225 28.5406C8.43894 28.613 8.57564 28.6773 8.71233 28.7336C8.81416 28.7765 8.92313 28.8193 9.0321 28.8622L9.03215 28.8622C9.08664 28.8837 9.14114 28.9051 9.19474 28.9266C9.35555 28.9909 9.52445 29.0552 9.6933 29.0954C9.83803 29.1517 9.99881 29.208 10.1596 29.2321C10.1918 29.2482 10.2239 29.2562 10.256 29.2643L10.256 29.2643L10.2561 29.2643C11.1406 29.5055 12.0653 29.6583 13.006 29.7065C13.207 29.7307 13.416 29.7387 13.6171 29.7387C14.0754 29.7628 14.5498 29.7548 15.0081 29.7307C15.2654 29.7226 15.5307 29.7065 15.8041 29.6824C16.0775 29.6663 16.3509 29.6422 16.6243 29.602C16.8896 29.5779 17.1469 29.5457 17.4122 29.5055C17.4283 29.4975 17.4524 29.4975 17.4846 29.4975H17.4846C17.758 29.4492 18.0394 29.401 18.3128 29.3608C18.5862 29.3125 18.8596 29.2562 19.1329 29.2C19.2696 29.1758 19.3902 29.1517 19.5269 29.1195C19.6102 29.101 19.6946 29.0814 19.7802 29.0614C19.9179 29.0293 20.0585 28.9965 20.2023 28.9668C20.3198 28.9383 20.4373 28.9082 20.5555 28.878L20.5559 28.8779C20.7045 28.8399 20.8542 28.8016 21.0064 28.7657C21.5612 28.621 22.1321 28.5486 22.703 28.5486C23.5713 28.5486 24.4316 28.7175 25.2277 29.0552C34.2813 32.8746 40.9792 31.1459 45.7151 23.7723C45.7942 23.6537 45.8693 23.5231 45.9432 23.3946L45.9433 23.3946L45.9433 23.3945C45.9745 23.3402 46.0056 23.2862 46.0367 23.2336C46.093 23.1291 46.1412 23.0326 46.1894 22.92C46.294 22.719 46.3824 22.5099 46.4628 22.2928L48.4916 17.3997ZM5.13426 28.2994L5.12524 28.2915C4.99998 28.1894 4.88224 28.0869 4.76447 27.9692C6.38062 38.6877 12.5638 76.5202 20.6526 85.9763C23.1532 88.8951 25.1473 90.7767 27.3746 91.1225C27.633 91.1688 27.8805 91.2316 28.1215 91.2928L28.1217 91.2928C28.1731 91.3058 28.2242 91.3188 28.2751 91.3315C28.9183 91.5084 29.3204 91.6129 29.5696 91.436C29.7787 91.2752 29.9475 90.9536 30.0681 90.439C30.4862 88.6459 30.1968 86.5874 29.1274 83.9661C26.7635 78.1042 23.6196 66.3243 22.9763 59.3448C22.8799 58.3397 23.4588 57.423 24.4156 57.0692C25.3644 56.7154 26.4097 57.037 26.9886 57.8733C29.3043 61.1942 31.4431 65.086 33.6944 69.219C37.7951 76.7373 42.0325 84.5048 47.7413 89.1122C48.28 89.5384 48.7705 89.9163 49.2851 90.0369C50.4671 90.3103 50.9656 88.8067 51.1264 88.1393C52.244 83.5801 50.3867 79.6481 48.4167 75.499C48.3688 75.3965 48.3208 75.2941 48.2727 75.1916L48.1913 75.0183C47.8549 74.3019 47.518 73.5844 47.2026 72.8616C45.7151 69.4844 44.6135 65.8097 43.8256 61.6445C42.0245 52.1884 43.4879 42.475 44.9111 33.0832C45.2565 30.8096 45.6019 28.496 45.8992 26.1983C45.7119 26.4399 45.5245 26.6736 45.3371 26.8922C45.2865 26.9581 45.2358 27.0176 45.1871 27.0747L45.1871 27.0748L45.187 27.0749C45.1585 27.1084 45.1307 27.141 45.104 27.1736C44.5009 27.8652 43.8899 28.4843 43.2386 29.0472C43.0778 29.1839 42.9009 29.3286 42.7401 29.4573C42.4828 29.6663 42.2174 29.8674 41.944 30.0523L41.9438 30.0525C41.8635 30.1087 41.7832 30.1649 41.7028 30.2131C41.2767 30.5026 40.8264 30.7679 40.3681 31.0011C40.2516 31.0658 40.1247 31.1253 39.9999 31.1838L39.9999 31.1839L39.9098 31.2263C39.8834 31.2384 39.8569 31.2512 39.8303 31.264L39.8302 31.264C39.7514 31.3019 39.6702 31.341 39.5801 31.371C39.4515 31.4353 39.3228 31.4916 39.1861 31.5318C38.9851 31.6203 38.776 31.6926 38.5589 31.765C38.5268 31.7811 38.4946 31.7891 38.4625 31.7972C38.2132 31.8937 37.9559 31.966 37.6986 32.0304C37.6423 32.0545 37.578 32.0706 37.5298 32.0786C37.3046 32.151 37.0714 32.2073 36.8382 32.2394C36.8126 32.2453 36.788 32.2512 36.7638 32.257C36.6894 32.2749 36.6197 32.2916 36.5408 32.3038C36.3719 32.3359 36.203 32.3681 36.0342 32.3842C35.8895 32.4163 35.7447 32.4404 35.6 32.4485C35.3025 32.4887 35.005 32.5209 34.7075 32.5369C34.3779 32.5611 34.0482 32.5691 33.7185 32.5691C32.3275 32.5691 30.8802 32.4002 29.3525 32.0464C28.9746 31.958 28.5967 31.8695 28.2027 31.757C27.6157 31.5961 27.0207 31.4032 26.4337 31.1941C26.0317 31.0494 25.6377 30.8966 25.2277 30.7358C25.1964 30.7233 25.165 30.7108 25.1335 30.6983C25.1075 30.688 25.0814 30.6777 25.0552 30.6673C24.9083 30.6092 24.7585 30.5499 24.6086 30.4865C23.6035 30.0684 22.4617 29.988 21.3923 30.2694C21.0707 30.3578 20.741 30.4383 20.4355 30.5106C20.4275 30.5106 20.4194 30.5187 20.4194 30.5187C20.1521 30.5839 19.89 30.6385 19.6376 30.6911L19.6374 30.6912L19.4626 30.7277C13.3357 32.0062 8.41482 31.178 5.13426 28.2994Z" fill="#88868C"/>
<path d="M1.62897 6.91852L0.723402 6.49427L0.720742 6.50004L1.62897 6.91852ZM7.78803 1.11298L7.543 0.143466L7.54124 0.143915L7.78803 1.11298ZM0.865104 9.4514L-0.12251 9.2945L-0.124513 9.30711L-0.126194 9.31977L0.865104 9.4514ZM2.81096 25.493L1.95296 26.0067L3.81096 29.1102V25.493H2.81096ZM2.79486 25.3403L1.8039 25.4744L1.80812 25.5055L1.81428 25.5364L2.79486 25.3403ZM2.29635 21.6575L3.14897 21.135L1.30539 21.7917L2.29635 21.6575ZM2.31644 21.6903L3.3074 21.5561L3.27914 21.3474L3.16906 21.1678L2.31644 21.6903ZM2.81057 25.3403L1.81961 25.4745L1.82703 25.5292L1.84043 25.5828L2.81057 25.3403ZM2.82662 25.4931H1.82662V25.7663L1.96553 26.0016L2.82662 25.4931ZM2.82677 25.4934L3.81716 25.355L3.7895 25.157L3.68786 24.9849L2.82677 25.4934ZM19.4626 87.0216L18.7018 87.6706L18.7031 87.6721L19.4626 87.0216ZM27.1334 92.6985L26.9804 93.6867L26.9908 93.6883L27.0012 93.6897L27.1334 92.6985ZM27.7601 92.8427L27.4913 93.8059L27.4923 93.8061L27.7601 92.8427ZM27.8489 92.8674L27.5811 93.8309L27.5923 93.8339L27.8489 92.8674ZM27.9457 92.8931L28.2398 91.9373L28.2212 91.9316L28.2024 91.9266L27.9457 92.8931ZM27.9459 92.8931L27.6518 93.8489L27.6701 93.8545L27.6887 93.8595L27.9459 92.8931ZM30.4863 92.7146L31.0811 93.5184L31.0824 93.5175L30.4863 92.7146ZM31.5798 90.8169L30.606 90.5891L30.6042 90.5972L31.5798 90.8169ZM30.5747 83.3951L29.6476 83.7701L29.648 83.7709L30.5747 83.3951ZM24.5282 59.2161L25.5238 59.1226L25.5229 59.1132L24.5282 59.2161ZM24.9463 58.5487L25.2826 59.4905L25.3247 59.4754L25.3654 59.4567L24.9463 58.5487ZM25.7021 58.7819L24.878 59.3485L24.8837 59.3566L25.7021 58.7819ZM32.2456 69.8476L33.14 69.4004L33.1319 69.3842L33.1232 69.3683L32.2456 69.8476ZM32.2456 69.8476L31.3512 70.2949L31.3593 70.3111L31.368 70.327L32.2456 69.8476ZM32.3195 69.9829L31.4418 70.4622L31.442 70.4624L32.3195 69.9829ZM32.3339 70.0093L33.2115 69.5299L33.2114 69.5298L32.3339 70.0093ZM46.7684 90.3425L47.4017 89.5685L47.3957 89.5637L46.7684 90.3425ZM48.9394 91.5728L49.1669 90.599L49.1618 90.5978L48.9394 91.5728ZM52.6461 88.5252L53.617 88.7646L53.6175 88.7627L52.6461 88.5252ZM49.8319 74.8396L50.7354 74.4111L50.733 74.4061L49.8319 74.8396ZM48.6338 72.2505L47.7185 72.653L47.72 72.6566L48.6338 72.2505ZM45.3533 61.355L44.3709 61.5417L44.3709 61.5421L45.3533 61.355ZM46.4548 33.3244L47.4435 33.4746L47.444 33.4711L46.4548 33.3244ZM46.5459 32.7107L45.5567 32.5639L45.5567 32.5639L46.5459 32.7107ZM47.7895 23.5869L48.7833 23.6981L48.7834 23.6973L47.7895 23.5869ZM47.8576 22.9749L46.97 22.5142L46.8842 22.6794L46.8637 22.8644L47.8576 22.9749ZM47.886 22.92L48.7736 23.3807L48.859 23.2161L48.8798 23.0318L47.886 22.92ZM47.8966 22.826L46.9335 22.5568L46.9119 22.6342L46.9029 22.7141L47.8966 22.826ZM48.6342 19.6312L49.6308 19.7142L49.6314 19.7063L48.6342 19.6312ZM43.8581 4.86005L43.2457 5.65057L43.2463 5.65106L43.8581 4.86005ZM34.4506 2.9624L34.6833 3.93495L34.6844 3.93468L34.4506 2.9624ZM26.209 6.29133L26.7943 7.10215L26.798 7.09946L26.209 6.29133ZM21.9958 6.20288L22.5933 5.40106L22.5924 5.40039L21.9958 6.20288ZM48.4916 17.3997L49.4153 17.7827L49.4695 17.6521L49.4853 17.5116L48.4916 17.3997ZM48.4975 17.3476L49.4912 17.4594L47.5737 16.9646L48.4975 17.3476ZM46.4471 22.2927L45.5181 21.9228L47.3709 22.6757L46.4471 22.2927ZM47.0904 19.5186L48.087 19.601L48.0876 19.5927L47.0904 19.5186ZM42.9013 6.09835L42.2897 6.88956L42.2897 6.88958L42.9013 6.09835ZM34.8124 4.48213L34.5802 3.50947L34.5788 3.5098L34.8124 4.48213ZM27.1337 7.55375L26.5464 6.74437L26.5438 6.7463L27.1337 7.55375ZM21.063 7.45726L21.659 6.65429L21.6588 6.65412L21.063 7.45726ZM8.16596 2.63272L7.92226 1.66286L7.91915 1.66365L8.16596 2.63272ZM3.04412 7.58592L3.94701 8.01585L3.95024 8.00893L3.04412 7.58592ZM2.41693 9.66851L1.42609 9.5334L1.42568 9.53652L2.41693 9.66851ZM3.85363 24.1729L2.9699 24.6409L2.9846 24.6687L3.00102 24.6955L3.85363 24.1729ZM3.99251 24.3995L4.8458 23.8781L4.84512 23.877L3.99251 24.3995ZM4.0834 24.555L3.21508 25.051L3.21508 25.051L4.0834 24.555ZM4.24982 24.8257L5.10462 24.3067L5.0867 24.2772L5.0668 24.249L4.24982 24.8257ZM4.68399 25.4851H5.68399V25.1685L5.50181 24.9096L4.68399 25.4851ZM4.69203 25.5011L3.98482 26.2081L4.00564 26.229L4.02766 26.2485L4.69203 25.5011ZM4.69204 25.5011L5.5241 24.9465L5.45266 24.8393L5.3564 24.7537L4.69204 25.5011ZM5.17445 26.1203L5.94545 25.4834L5.94017 25.4771L5.17445 26.1203ZM6.16348 27.1334L6.8706 26.4263L6.85336 26.4091L6.83531 26.3927L6.16348 27.1334ZM6.20367 27.1696L6.95625 26.5111L6.90901 26.4571L6.85454 26.4104L6.20367 27.1696ZM6.20368 27.1696L5.4511 27.8281L5.49833 27.8821L5.55278 27.9288L6.20368 27.1696ZM6.24387 27.2058L5.53673 27.9129L5.56389 27.94L5.59306 27.965L6.24387 27.2058ZM6.79062 27.632L7.38503 26.8278L7.38502 26.8278L6.79062 27.632ZM7.38561 28.034L7.95909 27.2148L7.93028 27.1946L7.90012 27.1765L7.38561 28.034ZM7.89217 28.3315L8.41629 27.4799L8.38684 27.4618L8.3562 27.4457L7.89217 28.3315ZM8.19772 28.4924L8.64489 27.5979L8.60174 27.5763L8.55672 27.559L8.19772 28.4924ZM8.24999 28.5165L7.84384 29.4303L7.84392 29.4303L8.24999 28.5165ZM8.30225 28.5406L8.77016 27.6568L8.75989 27.6514L8.74951 27.6462L8.30225 28.5406ZM8.71233 28.7336L9.10041 27.8119L9.09309 27.8089L8.71233 28.7336ZM9.0321 28.8622L8.66596 29.7928L8.68251 29.7993L8.69928 29.8052L9.0321 28.8622ZM9.03215 28.8622L9.39827 27.9317L9.38173 27.9252L9.36497 27.9192L9.03215 28.8622ZM9.19474 28.9266L9.56615 27.9981L9.56615 27.9981L9.19474 28.9266ZM9.6933 29.0954L10.0558 28.1634L9.99175 28.1385L9.92493 28.1226L9.6933 29.0954ZM10.1596 29.2321L10.6068 28.3377L10.4649 28.2667L10.308 28.2432L10.1596 29.2321ZM10.256 29.2643L10.5723 28.3156L10.5358 28.3034L10.4986 28.2941L10.256 29.2643ZM10.256 29.2643L9.93981 30.2129L9.96615 30.2217L9.99293 30.229L10.256 29.2643ZM10.2561 29.2643L10.5192 28.2995L10.5192 28.2995L10.2561 29.2643ZM13.006 29.7065L13.1252 28.7137L13.0913 28.7096L13.0572 28.7078L13.006 29.7065ZM13.6171 29.7387L13.6696 28.7401L13.6434 28.7387H13.6171V29.7387ZM15.0081 29.7307L14.9769 28.7311L14.9662 28.7315L14.9555 28.732L15.0081 29.7307ZM15.8041 29.6824L15.7454 28.6841L15.7308 28.685L15.7162 28.6863L15.8041 29.6824ZM16.6243 29.602L16.5337 28.6061L16.5062 28.6086L16.4788 28.6126L16.6243 29.602ZM17.4122 29.5055L17.562 30.4942L17.7182 30.4706L17.8595 30.3999L17.4122 29.5055ZM17.4846 29.4975V30.4975H17.5722L17.6584 30.4823L17.4846 29.4975ZM18.3128 29.3608L18.4583 30.3501L18.4725 30.3481L18.4866 30.3456L18.3128 29.3608ZM19.1329 29.2L18.9591 28.2152L18.9452 28.2176L18.9313 28.2205L19.1329 29.2ZM19.5269 29.1195L19.31 28.1433L19.2979 28.1461L19.5269 29.1195ZM19.7802 29.0614L19.5532 28.0875L19.5532 28.0875L19.7802 29.0614ZM20.2023 28.9668L20.4049 29.946L20.4215 29.9426L20.4379 29.9386L20.2023 28.9668ZM20.5555 28.878L20.3095 27.9087L20.3076 27.9092L20.5555 28.878ZM20.5559 28.8779L20.8018 29.8472L20.8037 29.8467L20.5559 28.8779ZM21.0064 28.7657L21.2354 29.7392L21.2471 29.7364L21.2588 29.7334L21.0064 28.7657ZM25.2277 29.0552L24.8371 29.9758L24.839 29.9766L25.2277 29.0552ZM45.7151 23.7723L44.883 23.2177L44.8783 23.2248L44.8737 23.2319L45.7151 23.7723ZM45.9432 23.3946L46.81 23.8933L46.8246 23.8679L46.8377 23.8418L45.9432 23.3946ZM45.9433 23.3945L45.0765 22.8958L45.0619 22.9212L45.0489 22.9473L45.9433 23.3945ZM46.0367 23.2336L46.8976 23.7423L46.9077 23.7252L46.9171 23.7077L46.0367 23.2336ZM46.1894 22.92L45.3022 22.4587L45.285 22.4918L45.2703 22.5261L46.1894 22.92ZM46.4628 22.2928L45.5391 21.9098L45.5318 21.9275L45.5251 21.9455L46.4628 22.2928ZM5.12524 28.2915L5.78461 27.5396L5.77101 27.5277L5.75699 27.5163L5.12524 28.2915ZM5.13426 28.2994L5.79382 27.5477L5.79363 27.5476L5.13426 28.2994ZM4.76447 27.9692L5.47159 27.2621L3.32249 25.1129L3.77564 28.1182L4.76447 27.9692ZM20.6526 85.9763L19.8927 86.6263L19.8932 86.6269L20.6526 85.9763ZM27.3746 91.1225L27.5512 90.1382L27.5396 90.1361L27.528 90.1343L27.3746 91.1225ZM28.1215 91.2928L28.4263 90.3403L28.3971 90.331L28.3674 90.3234L28.1215 91.2928ZM28.1217 91.2928L27.8169 92.2452L27.8461 92.2546L27.8757 92.2621L28.1217 91.2928ZM28.2751 91.3315L28.5403 90.3673L28.529 90.3642L28.5176 90.3614L28.2751 91.3315ZM29.5696 91.436L30.1484 92.2515L30.1641 92.2404L30.1793 92.2287L29.5696 91.436ZM30.0681 90.439L31.0418 90.6672L31.042 90.6661L30.0681 90.439ZM29.1274 83.9661L28.2 84.3401L28.2015 84.3438L29.1274 83.9661ZM22.9763 59.3448L23.9721 59.253L23.9718 59.2492L22.9763 59.3448ZM24.4156 57.0692L24.7625 58.0071L24.765 58.0062L24.4156 57.0692ZM26.9886 57.8733L26.1664 58.4425L26.1683 58.4453L26.9886 57.8733ZM33.6944 69.219L32.8163 69.6974L32.8165 69.6979L33.6944 69.219ZM47.7413 89.1122L47.1132 89.8904L47.1209 89.8965L47.7413 89.1122ZM49.2851 90.0369L49.0569 91.0106L49.0598 91.0112L49.2851 90.0369ZM51.1264 88.1393L50.1552 87.9012L50.1542 87.905L51.1264 88.1393ZM48.4167 75.499L47.511 75.9228L47.5134 75.9279L48.4167 75.499ZM48.2727 75.1916L49.1779 74.7668L49.1779 74.7667L48.2727 75.1916ZM48.1913 75.0183L49.0965 74.5934L49.0965 74.5933L48.1913 75.0183ZM47.2026 72.8616L48.1192 72.4616L48.1178 72.4585L47.2026 72.8616ZM43.8256 61.6445L44.8081 61.4586L44.8079 61.4574L43.8256 61.6445ZM44.9111 33.0832L43.9224 32.933L43.9223 32.9333L44.9111 33.0832ZM45.8992 26.1983L46.891 26.3267L47.3629 22.6797L45.1091 25.5855L45.8992 26.1983ZM45.3371 26.8922L44.5779 26.2414L44.5606 26.2615L44.5445 26.2825L45.3371 26.8922ZM45.1871 27.0747L44.4259 26.4263L44.4058 26.4499L44.3871 26.4747L45.1871 27.0747ZM45.1871 27.0748L45.9553 27.7149L45.9717 27.6953L45.9871 27.6748L45.1871 27.0748ZM45.187 27.0749L45.9483 27.7233L45.9552 27.7151L45.187 27.0749ZM45.104 27.1736L45.8577 27.8309L45.868 27.819L45.878 27.8068L45.104 27.1736ZM43.2386 29.0472L43.8863 29.8091L43.8924 29.8038L43.2386 29.0472ZM42.7401 29.4573L42.1153 28.6764L42.1094 28.6812L42.7401 29.4573ZM41.944 30.0523L41.3837 29.224L41.3759 29.2294L41.944 30.0523ZM41.9438 30.0525L41.3756 29.2295L41.3703 29.2332L41.9438 30.0525ZM41.7028 30.2131L41.1883 29.3556L41.1642 29.3701L41.1409 29.3859L41.7028 30.2131ZM40.3681 31.0011L39.9146 30.1098L39.8983 30.1181L39.8824 30.127L40.3681 31.0011ZM39.9999 31.1838L39.5754 30.2784L39.564 30.2838L39.5527 30.2894L39.9999 31.1838ZM39.9999 31.1839L40.4256 32.0887L40.4364 32.0836L40.4471 32.0783L39.9999 31.1839ZM39.9098 31.2263L40.3289 32.1342L40.3355 32.1311L39.9098 31.2263ZM39.8303 31.264L39.3968 30.3628L39.3899 30.3661L39.3831 30.3695L39.8303 31.264ZM39.8302 31.264L40.2637 32.1652L40.2706 32.1619L40.2775 32.1584L39.8302 31.264ZM39.5801 31.371L39.2638 30.4223L39.1964 30.4448L39.1329 30.4766L39.5801 31.371ZM39.1861 31.5318L38.904 30.5725L38.8423 30.5906L38.7834 30.6165L39.1861 31.5318ZM38.5589 31.765L38.2427 30.8163L38.1753 30.8388L38.1117 30.8706L38.5589 31.765ZM38.4625 31.7972L38.2199 30.827L38.1595 30.8421L38.1015 30.8646L38.4625 31.7972ZM37.6986 32.0304L37.4561 31.0602L37.3783 31.0796L37.3047 31.1112L37.6986 32.0304ZM37.5298 32.0786L37.3654 31.0922L37.2933 31.1042L37.2238 31.1266L37.5298 32.0786ZM36.8382 32.2394L36.7016 31.2488L36.6571 31.2549L36.6134 31.265L36.8382 32.2394ZM36.7638 32.257L36.5307 31.2846L36.5306 31.2846L36.7638 32.257ZM36.5408 32.3038L36.3887 31.3154L36.3711 31.3181L36.3536 31.3214L36.5408 32.3038ZM36.0342 32.3842L35.9394 31.3887L35.8777 31.3945L35.8173 31.408L36.0342 32.3842ZM35.6 32.4485L35.5446 31.45L35.5052 31.4522L35.4661 31.4575L35.6 32.4485ZM34.7075 32.5369L34.6535 31.5384L34.644 31.5389L34.6345 31.5396L34.7075 32.5369ZM29.3525 32.0464L29.1246 33.0201L29.1269 33.0207L29.3525 32.0464ZM28.2027 31.757L28.4774 30.7954L28.4669 30.7925L28.2027 31.757ZM26.4337 31.1941L26.095 32.135L26.0982 32.1361L26.4337 31.1941ZM25.2277 30.7358L24.8563 31.6643L24.8626 31.6667L25.2277 30.7358ZM25.1335 30.6983L24.7649 31.6279L24.7649 31.6279L25.1335 30.6983ZM25.0552 30.6673L25.4231 29.7374L25.4231 29.7374L25.0552 30.6673ZM24.6086 30.4865L24.9982 29.5655L24.9927 29.5632L24.6086 30.4865ZM21.3923 30.2694L21.1378 29.3023L21.1272 29.3052L21.3923 30.2694ZM20.4355 30.5106V31.5106H20.5523L20.666 31.4837L20.4355 30.5106ZM20.4194 30.5187L20.6564 31.4902L20.9282 31.4239L21.1261 31.2262L20.4194 30.5187ZM19.6376 30.6911L19.8337 31.6717L19.8416 31.6701L19.6376 30.6911ZM19.6374 30.6912L19.4413 29.7105L19.4327 29.7123L19.6374 30.6912ZM19.4626 30.7277L19.6668 31.7066L19.6673 31.7066L19.4626 30.7277ZM2.53452 7.34277C3.94634 4.32924 5.82195 2.6456 8.03482 2.08205L7.54124 0.143915C4.57597 0.899076 2.30269 3.12333 0.723421 6.49428L2.53452 7.34277ZM1.85272 9.60831C1.97587 8.83314 2.19975 8.06937 2.53719 7.337L0.720742 6.50004C0.302377 7.40802 0.0277166 8.34892 -0.12251 9.2945L1.85272 9.60831ZM3.66895 24.9794C1.6188 21.5549 0.94423 16.4524 1.8564 9.58304L-0.126194 9.31977C-1.06335 16.3773 -0.435282 22.0175 1.95296 26.0067L3.66895 24.9794ZM1.81428 25.5364C1.81571 25.5435 1.81436 25.5377 1.81307 25.5269C1.81168 25.5154 1.81096 25.5036 1.81096 25.493H3.81096C3.81096 25.3378 3.79033 25.2186 3.77545 25.1441L1.81428 25.5364ZM1.30539 21.7917L1.8039 25.4744L3.78582 25.2061L3.28731 21.5234L1.30539 21.7917ZM3.16906 21.1678L3.14897 21.135L1.44373 22.18L1.46382 22.2128L3.16906 21.1678ZM3.80153 25.2062L3.3074 21.5561L1.32548 21.8244L1.81961 25.4745L3.80153 25.2062ZM3.82662 25.4931C3.82662 25.3436 3.80968 25.2136 3.78072 25.0978L1.84043 25.5828C1.83452 25.5592 1.8308 25.538 1.82869 25.5204C1.82668 25.5036 1.82662 25.494 1.82662 25.4931H3.82662ZM3.68786 24.9849L3.68771 24.9846L1.96553 26.0016L1.96568 26.0018L3.68786 24.9849ZM20.2234 86.3726C17.9826 83.7456 15.8332 78.901 13.869 72.8995C11.9182 66.9387 10.1922 59.9747 8.74293 53.2247C5.845 39.7275 4.06982 27.1638 3.81716 25.355L1.83639 25.6317C2.09113 27.4554 3.8742 40.0758 6.7875 53.6446C8.24385 60.4276 9.98674 67.4671 11.9682 73.5216C13.9364 79.5352 16.183 84.7177 18.7018 87.6706L20.2234 86.3726ZM27.2863 91.7102C24.9924 91.3552 22.9738 89.5842 20.2222 86.3711L18.7031 87.6721C21.419 90.8434 23.871 93.2055 26.9804 93.6867L27.2863 91.7102ZM28.0289 91.8795C27.8359 91.8256 27.5574 91.7462 27.2655 91.7072L27.0012 93.6897C27.1307 93.707 27.2736 93.7451 27.4913 93.8059L28.0289 91.8795ZM28.1168 91.9039L28.028 91.8792L27.4923 93.8061L27.5811 93.8308L28.1168 91.9039ZM28.2024 91.9266L28.1056 91.9008L27.5923 93.8339L27.6891 93.8596L28.2024 91.9266ZM28.24 91.9373L28.2398 91.9373L27.6516 93.8488L27.6518 93.8489L28.24 91.9373ZM29.2319 92.1166C28.9381 92.1166 28.6247 92.0389 28.203 91.9267L27.6887 93.8595C28.0683 93.9605 28.6335 94.1166 29.2319 94.1166V92.1166ZM29.8914 91.9107C29.6908 92.0592 29.4755 92.1166 29.2319 92.1166V94.1166C29.8246 94.1166 30.4776 93.965 31.0811 93.5184L29.8914 91.9107ZM30.6042 90.5972C30.4387 91.3321 30.1742 91.7008 29.8901 91.9117L31.0824 93.5175C31.8597 92.9404 32.3188 92.0868 32.5553 91.0366L30.6042 90.5972ZM29.648 83.7709C30.7926 86.5938 31.0411 88.7294 30.6061 90.5891L32.5535 91.0447C33.1154 88.6427 32.7368 86.0663 31.5014 83.0194L29.648 83.7709ZM23.5325 59.3096C24.1862 66.2711 27.2851 77.9287 29.6476 83.7701L31.5017 83.0202C29.2007 77.3309 26.1566 65.8629 25.5238 59.1226L23.5325 59.3096ZM24.61 57.607C24.4832 57.6523 24.1971 57.7708 23.9454 58.0408C23.6618 58.3451 23.4782 58.7845 23.5335 59.319L25.5229 59.1132C25.5247 59.1307 25.5255 59.181 25.5023 59.2479C25.4795 59.3137 25.4436 59.3667 25.4084 59.4044C25.3498 59.4674 25.2968 59.4854 25.2826 59.4905L24.61 57.607ZM26.5262 58.2154C26.2184 57.7677 25.787 57.5551 25.3759 57.5088C25.0133 57.4679 24.7065 57.5581 24.5272 57.6408L25.3654 59.4567C25.3152 59.4798 25.2812 59.4885 25.2595 59.4926C25.2346 59.4974 25.1982 59.5014 25.1519 59.4962C25.1025 59.4907 25.0427 59.4744 24.9838 59.4402C24.9234 59.405 24.8901 59.366 24.8781 59.3484L26.5262 58.2154ZM33.1232 69.3683C30.9224 65.3384 28.8095 61.467 26.5205 58.2073L24.8837 59.3566C27.0955 62.5063 29.1531 66.2713 31.3679 70.3269L33.1232 69.3683ZM33.14 69.4004L33.14 69.4004L31.3511 70.2948L31.3512 70.2949L33.14 69.4004ZM33.1971 69.5036L33.1232 69.3683L31.368 70.327L31.4418 70.4622L33.1971 69.5036ZM33.2114 69.5298L33.197 69.5034L31.442 70.4624L31.4564 70.4888L33.2114 69.5298ZM47.3957 89.5637C41.6389 84.927 37.4166 77.2288 33.2115 69.5299L31.4563 70.4886C35.6044 78.0832 40.0115 86.1843 46.1412 91.1213L47.3957 89.5637ZM49.1618 90.5978C48.5049 90.448 47.9497 90.0169 47.4017 89.5686L46.1352 91.1164C46.6486 91.5365 47.5406 92.2794 48.717 92.5477L49.1618 90.5978ZM51.6751 88.2859C51.4279 89.2892 51.018 89.9336 50.5922 90.2834C50.1946 90.6099 49.7282 90.7301 49.1669 90.599L48.7119 92.5465C49.8712 92.8174 50.9768 92.5557 51.8616 91.8289C52.7183 91.1252 53.3015 90.0449 53.617 88.7646L51.6751 88.2859ZM48.9283 75.2681C50.9522 79.5355 52.8246 83.5841 51.6747 88.2878L53.6175 88.7627C54.9602 83.2705 52.7158 78.5867 50.7354 74.4111L48.9283 75.2681ZM47.72 72.6566C48.1101 73.5343 48.5164 74.4119 48.9308 75.2732L50.733 74.4061C50.3273 73.5627 49.9295 72.7034 49.5477 71.8443L47.72 72.6566ZM44.3709 61.5421C45.1546 65.6563 46.2441 69.3005 47.7185 72.653L49.5492 71.8479C48.1451 68.6551 47.0958 65.159 46.3356 61.1679L44.3709 61.5421ZM45.4662 33.1742C44.0639 42.4055 42.5887 52.1625 44.3709 61.5417L46.3357 61.1683C44.6282 52.1821 46.0316 42.7696 47.4435 33.4746L45.4662 33.1742ZM45.5567 32.5639L45.4657 33.1777L47.444 33.4711L47.5351 32.8574L45.5567 32.5639ZM46.7958 23.4756C46.4593 26.481 46.0036 29.5528 45.5567 32.5639L47.535 32.8575C47.981 29.8527 48.4423 26.7452 48.7833 23.6981L46.7958 23.4756ZM46.8637 22.8644L46.7957 23.4764L48.7834 23.6973L48.8514 23.0853L46.8637 22.8644ZM46.9985 22.4593L46.97 22.5142L48.7451 23.4356L48.7736 23.3807L46.9985 22.4593ZM46.9029 22.7141L46.8923 22.8082L48.8798 23.0318L48.8904 22.9378L46.9029 22.7141ZM47.6376 19.5482C47.6067 19.9197 47.5604 20.3141 46.9335 22.5568L48.8597 23.0952C49.4868 20.8518 49.5824 20.2944 49.6307 19.7142L47.6376 19.5482ZM43.2463 5.65106C46.5569 8.21164 48.1476 12.7765 47.637 19.5561L49.6314 19.7063C50.166 12.6073 48.5406 7.21751 44.4699 4.06904L43.2463 5.65106ZM34.6844 3.93468C37.7846 3.18913 40.8948 3.82931 43.2457 5.65057L44.4705 4.06953C41.6111 1.85426 37.8707 1.1114 34.2168 1.99012L34.6844 3.93468ZM26.798 7.09946C28.5419 5.82842 31.0088 4.814 34.6833 3.93495L34.2179 1.98984C30.4307 2.89587 27.6713 3.98817 25.62 5.4832L26.798 7.09946ZM21.3982 7.0047C22.9955 8.1951 25.2112 8.245 26.7943 7.10214L25.6237 5.48052C24.7786 6.09058 23.5208 6.09224 22.5933 5.40106L21.3982 7.0047ZM8.03306 2.0825C11.2542 1.2684 15.5769 2.67645 21.3991 7.00537L22.5924 5.40039C16.6915 1.01297 11.7031 -0.907925 7.543 0.143468L8.03306 2.0825ZM49.4853 17.5116L49.4912 17.4594L47.5037 17.2357L47.4979 17.2879L49.4853 17.5116ZM47.5737 16.9646L45.5234 21.9097L47.3709 22.6757L49.4212 17.7306L47.5737 16.9646ZM47.3762 22.6626C47.7599 21.699 47.9987 20.669 48.087 19.601L46.0938 19.4363C46.0212 20.3141 45.8259 21.1497 45.5181 21.9228L47.3762 22.6626ZM48.0876 19.5927C48.5724 13.0687 47.1595 8.12556 43.5128 5.30712L42.2897 6.88958C45.1559 9.10475 46.5571 13.1996 46.0931 19.4445L48.0876 19.5927ZM43.5128 5.30714C41.0613 3.41232 37.7152 2.76091 34.5802 3.50947L35.0447 5.45478C37.6345 4.83639 40.351 5.39111 42.2897 6.88956L43.5128 5.30714ZM34.5788 3.5098C31.0143 4.36629 28.4304 5.37733 26.5464 6.74437L27.721 8.36312C29.2945 7.2214 31.5831 6.28655 35.0461 5.45445L34.5788 3.5098ZM26.5438 6.7463C25.1527 7.76267 23.1328 7.7482 21.659 6.65429L20.467 8.26024C22.6115 9.85199 25.593 9.91792 27.7236 8.3612L26.5438 6.7463ZM21.6588 6.65412C18.9208 4.62299 16.405 3.16126 14.1327 2.31123C11.8635 1.46238 9.76914 1.19878 7.92226 1.66287L8.40966 3.60257C9.73076 3.2706 11.3913 3.42111 13.4319 4.18446C15.4694 4.94663 17.8181 6.2952 20.4672 8.2604L21.6588 6.65412ZM7.91915 1.66365C5.38093 2.31012 3.51557 4.21206 2.13799 7.16291L3.95024 8.00893C5.17782 5.37939 6.65732 4.04888 8.41277 3.60178L7.91915 1.66365ZM2.14125 7.156C1.77646 7.92209 1.53689 8.72089 1.4261 9.5334L3.40776 9.80362C3.48994 9.20093 3.66853 8.60062 3.94699 8.01584L2.14125 7.156ZM1.42568 9.53652C0.581024 15.8797 1.03859 20.994 2.9699 24.6409L4.73736 23.7049C3.09113 20.5963 2.58587 15.9758 3.40818 9.80051L1.42568 9.53652ZM3.00102 24.6955L3.13991 24.9221L4.84512 23.877L4.70624 23.6504L3.00102 24.6955ZM3.13922 24.921C3.16202 24.9583 3.18451 24.9975 3.21508 25.051L4.95173 24.059C4.92337 24.0094 4.8865 23.9447 4.8458 23.8781L3.13922 24.921ZM3.21508 25.051C3.26407 25.1368 3.33892 25.2693 3.43284 25.4024L5.0668 24.249C5.03701 24.2068 5.00798 24.1575 4.95173 24.059L3.21508 25.051ZM3.39502 25.3447C3.54619 25.5937 3.70396 25.83 3.86617 26.0605L5.50181 24.9096C5.35848 24.7059 5.22683 24.508 5.10462 24.3067L3.39502 25.3447ZM3.68399 25.4851C3.68399 25.4851 3.68399 25.4879 3.684 25.491C3.68402 25.4943 3.68406 25.5004 3.68421 25.508C3.68449 25.5215 3.68531 25.5518 3.68913 25.5898C3.69813 25.6794 3.7228 25.8048 3.79065 25.9405C3.84996 26.059 3.91922 26.1377 3.944 26.1652C3.95825 26.1811 3.97008 26.1932 3.97506 26.1983C3.97798 26.2013 3.98041 26.2037 3.98184 26.2051C3.98321 26.2065 3.98449 26.2078 3.98482 26.2081L5.39924 24.7941C5.38966 24.7845 5.41018 24.8046 5.43077 24.8275C5.45329 24.8525 5.52104 24.9292 5.57935 25.0457C5.64619 25.1793 5.67036 25.3028 5.67911 25.3899C5.68511 25.4496 5.68399 25.5053 5.68399 25.4851H3.68399ZM4.02766 26.2485L4.02768 26.2485L5.3564 24.7537L5.35639 24.7537L4.02766 26.2485ZM3.85998 26.0558C4.04059 26.3267 4.24599 26.5697 4.40874 26.7635L5.94017 25.4771C5.76521 25.2688 5.63295 25.1097 5.5241 24.9465L3.85998 26.0558ZM4.40348 26.7572C4.75237 27.1795 5.12936 27.5456 5.49165 27.8741L6.83531 26.3927C6.50611 26.0941 6.20762 25.8008 5.94543 25.4834L4.40348 26.7572ZM5.45636 27.8405C5.5006 27.8848 5.54539 27.9225 5.55279 27.9288L6.85454 26.4104C6.85074 26.4072 6.84891 26.4056 6.84738 26.4043C6.84602 26.4031 6.84619 26.4032 6.84726 26.4042C6.84834 26.4051 6.85099 26.4075 6.85473 26.411C6.85846 26.4145 6.86392 26.4197 6.8706 26.4263L5.45636 27.8405ZM5.45109 27.8281L5.4511 27.8281L6.95626 26.5111L6.95625 26.5111L5.45109 27.8281ZM5.55278 27.9288C5.55658 27.9321 5.55841 27.9336 5.55994 27.9349C5.5613 27.9361 5.56113 27.936 5.56007 27.935C5.55899 27.9341 5.55633 27.9317 5.5526 27.9282C5.54887 27.9248 5.54341 27.9196 5.53673 27.9129L6.951 26.4987C6.90677 26.4545 6.86198 26.4168 6.85458 26.4105L5.55278 27.9288ZM5.59306 27.965C5.79237 28.1359 6.01183 28.2999 6.19622 28.4361L7.38502 26.8278C7.19954 26.6907 7.03306 26.5652 6.89468 26.4466L5.59306 27.965ZM6.19621 28.4361C6.39669 28.5843 6.63354 28.749 6.8711 28.8915L7.90012 27.1765C7.73566 27.0779 7.55441 26.953 7.38503 26.8278L6.19621 28.4361ZM6.81213 28.8532C7.0291 29.0051 7.2546 29.1265 7.42815 29.2174L8.3562 27.4457C8.19204 27.3597 8.06375 27.2881 7.95909 27.2148L6.81213 28.8532ZM7.36806 29.1832C7.47645 29.2499 7.64077 29.3496 7.83872 29.4257L8.55672 27.559C8.54562 27.5547 8.51695 27.5418 8.41629 27.4799L7.36806 29.1832ZM7.75055 29.3868C7.79076 29.4069 7.83068 29.4244 7.84384 29.4303L8.65613 27.6027C8.65141 27.6006 8.64807 27.5991 8.64496 27.5977C8.64197 27.5964 8.64007 27.5955 8.63886 27.5949C8.63593 27.5936 8.63878 27.5949 8.64489 27.5979L7.75055 29.3868ZM7.84392 29.4303C7.84864 29.4324 7.85197 29.4339 7.85508 29.4353C7.85807 29.4366 7.85995 29.4375 7.86115 29.438C7.86406 29.4394 7.86116 29.4381 7.85499 29.435L8.74951 27.6462C8.7092 27.626 8.66919 27.6085 8.65605 27.6026L7.84392 29.4303ZM7.83435 29.4244C7.9981 29.5111 8.16385 29.5892 8.33157 29.6583L9.09309 27.8089C8.98742 27.7654 8.87978 27.7149 8.77016 27.6568L7.83435 29.4244ZM8.32425 29.6552C8.43897 29.7035 8.55929 29.7508 8.66596 29.7928L9.39824 27.9317C9.28696 27.8879 9.18935 27.8494 9.1004 27.812L8.32425 29.6552ZM8.69928 29.8052L8.69933 29.8052L9.36497 27.9192L9.36492 27.9192L8.69928 29.8052ZM8.66603 29.7928C8.72097 29.8144 8.77281 29.8348 8.82334 29.855L9.56615 27.9981C9.50946 27.9754 9.45232 27.9529 9.39827 27.9317L8.66603 29.7928ZM8.82334 29.855C8.98652 29.9203 9.21495 30.0095 9.46168 30.0682L9.92493 28.1226C9.83396 28.101 9.72459 28.0615 9.56615 27.9981L8.82334 29.855ZM9.33084 30.0274C9.48795 30.0885 9.73484 30.1796 10.0113 30.2211L10.308 28.2432C10.2628 28.2364 10.1881 28.2149 10.0558 28.1634L9.33084 30.0274ZM9.71241 30.1265C9.85702 30.1989 9.99312 30.2293 10.0135 30.2344L10.4986 28.2941C10.4781 28.289 10.49 28.2917 10.5061 28.2967C10.5264 28.3031 10.5628 28.3157 10.6068 28.3377L9.71241 30.1265ZM9.9398 30.2129L9.93981 30.2129L10.5723 28.3156L10.5723 28.3156L9.9398 30.2129ZM9.99293 30.229L9.99299 30.229L10.5192 28.2995L10.5192 28.2995L9.99293 30.229ZM9.99298 30.229C10.9443 30.4885 11.94 30.6532 12.9548 30.7052L13.0572 28.7078C12.1905 28.6634 11.3368 28.5225 10.5192 28.2995L9.99298 30.229ZM12.8869 30.6994C13.1404 30.7298 13.3918 30.7387 13.6171 30.7387V28.7387C13.4403 28.7387 13.2737 28.7315 13.1252 28.7137L12.8869 30.6994ZM13.5645 30.7373C14.0684 30.7638 14.5798 30.7546 15.0607 30.7293L14.9555 28.732C14.5198 28.755 14.0824 28.7618 13.6696 28.7401L13.5645 30.7373ZM15.0394 30.7302C15.3168 30.7215 15.601 30.7042 15.892 30.6785L15.7162 28.6863C15.4605 28.7088 15.2141 28.7237 14.9769 28.7311L15.0394 30.7302ZM15.8628 30.6807C16.155 30.6635 16.459 30.6371 16.7698 30.5914L16.4788 28.6126C16.2428 28.6474 16 28.6692 15.7454 28.6841L15.8628 30.6807ZM16.7148 30.5979C17.0025 30.5717 17.2797 30.537 17.562 30.4942L17.2624 28.5168C17.0141 28.5544 16.7767 28.584 16.5337 28.6061L16.7148 30.5979ZM17.8595 30.3999C17.7748 30.4423 17.699 30.4644 17.6453 30.4765C17.592 30.4885 17.5493 30.493 17.5254 30.495C17.4873 30.4982 17.4556 30.4975 17.4846 30.4975V28.4975C17.4814 28.4975 17.4216 28.4967 17.3594 28.5019C17.3006 28.5068 17.1415 28.5228 16.9649 28.6111L17.8595 30.3999ZM17.4846 30.4975H17.4846V28.4975H17.4846V30.4975ZM17.6584 30.4823C17.9298 30.4344 18.1996 30.3882 18.4583 30.3501L18.1673 28.3714C17.8792 28.4138 17.5862 28.4641 17.3108 28.5127L17.6584 30.4823ZM18.4866 30.3456C18.7763 30.2944 19.0636 30.2352 19.3346 30.1794L18.9313 28.2205C18.6555 28.2773 18.3961 28.3306 18.139 28.376L18.4866 30.3456ZM19.3067 30.1847C19.4586 30.1579 19.5979 30.1302 19.7559 30.093L19.2979 28.1461C19.1825 28.1733 19.0807 28.1937 18.9591 28.2152L19.3067 30.1847ZM19.7439 30.0957C19.833 30.0759 19.9226 30.055 20.0073 30.0353L19.5532 28.0875C19.4666 28.1077 19.3873 28.1262 19.31 28.1434L19.7439 30.0957ZM20.0073 30.0353C20.1467 30.0028 20.2754 29.9728 20.4049 29.946L19.9997 27.9875C19.8417 28.0202 19.689 28.0559 19.5532 28.0875L20.0073 30.0353ZM20.4379 29.9386C20.5626 29.9084 20.6862 29.8767 20.8034 29.8468L20.3076 27.9092C20.1884 27.9397 20.077 27.9682 19.9667 27.9949L20.4379 29.9386ZM20.8014 29.8473L20.8018 29.8472L20.3099 27.9086L20.3095 27.9087L20.8014 29.8473ZM20.8037 29.8467C20.9538 29.8083 21.0942 29.7724 21.2354 29.7392L20.7773 27.7923C20.6141 27.8307 20.4551 27.8714 20.308 27.9091L20.8037 29.8467ZM21.2588 29.7334C21.7304 29.6103 22.2164 29.5486 22.703 29.5486V27.5486C22.0477 27.5486 21.3919 27.6317 20.7539 27.7981L21.2588 29.7334ZM22.703 29.5486C23.4422 29.5486 24.1692 29.6924 24.8371 29.9758L25.6182 28.1346C24.6941 27.7426 23.7005 27.5486 22.703 27.5486V29.5486ZM24.839 29.9766C29.487 31.9374 33.6584 32.5291 37.3403 31.5794C41.0411 30.6249 44.0889 28.1546 46.5565 24.3128L44.8737 23.2319C42.6054 26.7636 39.9363 28.8444 36.8408 29.6428C33.7264 30.4461 30.022 29.9924 25.6163 28.1339L24.839 29.9766ZM46.5471 24.327C46.6478 24.176 46.7394 24.016 46.81 23.8933L45.0764 22.8959C44.9991 23.0303 44.9406 23.1313 44.883 23.2177L46.5471 24.327ZM46.8377 23.8418L46.8377 23.8418L45.0488 22.9473L45.0488 22.9474L46.8377 23.8418ZM46.8377 23.8418L46.8377 23.8417L45.0489 22.9473L45.0488 22.9473L46.8377 23.8418ZM46.8101 23.8932C46.8419 23.8379 46.87 23.789 46.8976 23.7423L45.1758 22.7249C45.1412 22.7833 45.1072 22.8424 45.0765 22.8958L46.8101 23.8932ZM46.9171 23.7077C46.9832 23.585 47.0456 23.461 47.1086 23.3139L45.2703 22.5261C45.2369 22.6041 45.2027 22.6731 45.1562 22.7595L46.9171 23.7077ZM47.0767 23.3813C47.2054 23.1338 47.3101 22.8846 47.4006 22.6401L45.5251 21.9455C45.4548 22.1352 45.3826 22.3042 45.3022 22.4587L47.0767 23.3813ZM47.3866 22.6758L49.4153 17.7827L47.5679 17.0167L45.5391 21.9098L47.3866 22.6758ZM4.46587 29.0433L4.47489 29.0512L5.79363 27.5476L5.78461 27.5396L4.46587 29.0433ZM4.05735 28.6762C4.20656 28.8255 4.3517 28.9511 4.49349 29.0666L5.75699 27.5163C5.64826 27.4277 5.55792 27.3484 5.47159 27.2621L4.05735 28.6762ZM21.4125 85.3263C19.5223 83.1166 17.6685 79.1366 15.9301 74.1042C14.2039 69.107 12.6313 63.1945 11.2558 57.2217C8.50531 45.2784 6.55992 33.1697 5.75329 27.8201L3.77564 28.1182C4.58517 33.4871 6.53944 45.6539 9.30679 57.6705C10.6902 63.6777 12.2811 69.6662 14.0397 74.7572C15.7861 79.8128 17.7385 84.108 19.8927 86.6263L21.4125 85.3263ZM27.528 90.1343C26.6487 89.9978 25.7537 89.5501 24.7438 88.7358C23.7289 87.9176 22.6541 86.7755 21.412 85.3257L19.8932 86.6269C21.1517 88.096 22.3242 89.3541 23.4884 90.2928C24.6576 91.2354 25.8732 91.9014 27.2212 92.1106L27.528 90.1343ZM28.3674 90.3234C28.1311 90.2635 27.85 90.1918 27.5512 90.1382L27.1979 92.1067C27.416 92.1459 27.6298 92.1997 27.8757 92.2621L28.3674 90.3234ZM28.4264 90.3404L28.4263 90.3403L27.8167 92.2452L27.8169 92.2452L28.4264 90.3404ZM28.5176 90.3614C28.4687 90.3492 28.4193 90.3366 28.3676 90.3235L27.8757 92.2621C27.9269 92.2751 27.9797 92.2885 28.0326 92.3017L28.5176 90.3614ZM28.9909 90.6206C29.1708 90.4929 29.3162 90.5392 29.1924 90.524C29.1406 90.5176 29.0639 90.5032 28.9486 90.4754C28.834 90.4477 28.7028 90.412 28.5403 90.3673L28.0099 92.2957C28.3095 92.3781 28.648 92.472 28.9478 92.509C29.2481 92.546 29.7192 92.5561 30.1484 92.2515L28.9909 90.6206ZM29.0945 90.2108C29.0462 90.417 28.9969 90.5454 28.9598 90.6186C28.9223 90.6928 28.9131 90.6794 28.9599 90.6434L30.1793 92.2287C30.6707 91.8507 30.907 91.242 31.0418 90.6672L29.0945 90.2108ZM28.2015 84.3438C29.2299 86.8647 29.447 88.699 29.0943 90.2119L31.042 90.6661C31.5255 88.5928 31.1637 86.3101 30.0533 83.5883L28.2015 84.3438ZM21.9806 59.4366C22.6342 66.5289 25.8062 78.4041 28.2 84.3401L30.0548 83.5921C27.7208 77.8043 24.605 66.1197 23.9721 59.253L21.9806 59.4366ZM24.0688 56.1313C22.6916 56.6405 21.8405 57.9779 21.9809 59.4403L23.9718 59.2492C23.9192 58.7014 24.226 58.2055 24.7625 58.0071L24.0688 56.1313ZM27.8108 57.3041C26.969 56.0882 25.4397 55.6201 24.0662 56.1322L24.765 58.0062C25.2892 57.8107 25.8503 57.9859 26.1664 58.4425L27.8108 57.3041ZM34.5726 68.7407C32.326 64.6164 30.1615 60.6752 27.8088 57.3013L26.1683 58.4453C28.4471 61.7132 30.5601 65.5556 32.8163 69.6974L34.5726 68.7407ZM48.3694 88.3341C42.8473 83.8773 38.7029 76.3132 34.5723 68.7402L32.8165 69.6979C36.8873 77.1613 41.2177 85.1322 47.1133 89.8904L48.3694 88.3341ZM49.5133 89.0633C49.258 89.0035 48.9476 88.7915 48.3617 88.328L47.1209 89.8965C47.6124 90.2853 48.283 90.8292 49.0569 91.0105L49.5133 89.0633ZM50.1542 87.905C50.0822 88.204 49.9517 88.6025 49.7648 88.8741C49.6759 89.0035 49.6099 89.0506 49.5846 89.0639C49.5817 89.0655 49.5736 89.0773 49.5105 89.0627L49.0598 91.0112C49.5876 91.1333 50.0851 91.0597 50.5131 90.8353C50.9187 90.6227 51.2091 90.3035 51.4126 90.0077C51.8107 89.4289 52.0098 88.742 52.0986 88.3735L50.1542 87.905ZM47.5134 75.9279C49.5097 80.1325 51.1751 83.7406 50.1552 87.9012L52.0977 88.3774C53.313 83.4196 51.2637 79.1637 49.3201 75.0701L47.5134 75.9279ZM47.3674 75.6165C47.4154 75.7188 47.4633 75.8208 47.511 75.9228L49.3225 75.0752C49.2743 74.9722 49.2261 74.8694 49.1779 74.7668L47.3674 75.6165ZM47.2861 75.4433L47.3675 75.6166L49.1779 74.7667L49.0965 74.5934L47.2861 75.4433ZM46.2861 73.2615C46.6079 73.9991 46.9507 74.729 47.2861 75.4434L49.0965 74.5933C48.7591 73.8747 48.4281 73.1697 48.1191 72.4616L46.2861 73.2615ZM42.843 61.8304C43.6428 66.0583 44.7647 69.8075 46.2874 73.2647L48.1178 72.4585C46.6655 69.1613 45.5842 65.5611 44.8081 61.4586L42.843 61.8304ZM43.9223 32.9333C42.5038 42.2944 41.0048 52.1793 42.8432 61.8316L44.8079 61.4574C43.0442 52.1974 44.4719 42.6555 45.8998 33.233L43.9223 32.9333ZM44.9075 26.07C44.6117 28.3558 44.2677 30.6601 43.9224 32.933L45.8997 33.2334C46.2452 30.9592 46.5921 28.6362 46.891 26.3267L44.9075 26.07ZM46.0964 27.543C46.298 27.3078 46.4962 27.0604 46.6894 26.8112L45.1091 25.5855C44.9276 25.8194 44.751 26.0394 44.5779 26.2414L46.0964 27.543ZM45.9484 27.7231C45.9953 27.6681 46.0617 27.5904 46.1298 27.5019L44.5445 26.2825C44.5112 26.3258 44.4763 26.3671 44.4259 26.4263L45.9484 27.7231ZM45.9871 27.6748L45.9871 27.6747L44.3871 26.4747L44.3871 26.4748L45.9871 27.6748ZM45.9552 27.7151L45.9553 27.7149L44.4189 26.4346L44.4188 26.4347L45.9552 27.7151ZM45.878 27.8068C45.8973 27.7832 45.9186 27.7582 45.9483 27.7233L44.4257 26.4265C44.3984 26.4586 44.364 26.4988 44.33 26.5405L45.878 27.8068ZM43.8924 29.8038C44.5846 29.2056 45.2287 28.5521 45.8577 27.8309L44.3503 26.5164C43.7731 27.1782 43.1951 27.7631 42.5847 28.2906L43.8924 29.8038ZM43.3648 30.2381C43.5312 30.105 43.716 29.9538 43.8862 29.8091L42.5909 28.2853C42.4395 28.414 42.2706 28.5522 42.1153 28.6764L43.3648 30.2381ZM42.5044 30.8806C42.8071 30.6758 43.0962 30.4564 43.3707 30.2334L42.1094 28.6812C41.8694 28.8762 41.6277 29.0589 41.3837 29.224L42.5044 30.8806ZM42.512 30.8754L42.5122 30.8752L41.3759 29.2294L41.3756 29.2296L42.512 30.8754ZM42.2173 31.0706C42.3332 31.0011 42.4428 30.9239 42.5173 30.8717L41.3703 29.2332C41.2842 29.2935 41.2331 29.3287 41.1883 29.3556L42.2173 31.0706ZM40.8215 31.8924C41.3166 31.6405 41.8032 31.3538 42.2647 31.0403L41.1409 29.3859C40.7502 29.6513 40.3361 29.8954 39.9146 30.1098L40.8215 31.8924ZM40.4244 32.0893C40.543 32.0337 40.7019 31.9596 40.8537 31.8753L39.8824 30.127C39.8013 30.172 39.7064 30.217 39.5754 30.2784L40.4244 32.0893ZM40.4471 32.0783L40.4471 32.0783L39.5527 30.2894L39.5527 30.2894L40.4471 32.0783ZM40.3355 32.1311L40.4256 32.0887L39.5742 30.279L39.484 30.3214L40.3355 32.1311ZM40.2638 32.1651C40.2917 32.1517 40.3109 32.1425 40.3288 32.1342L39.4907 30.3183C39.4558 30.3344 39.4222 30.3506 39.3968 30.3628L40.2638 32.1651ZM40.2775 32.1584L40.2775 32.1584L39.3831 30.3695L39.383 30.3696L40.2775 32.1584ZM39.8964 32.3197C40.0556 32.2666 40.1918 32.1998 40.2637 32.1652L39.3968 30.3628C39.3551 30.3829 39.3298 30.3949 39.306 30.4054C39.2841 30.4151 39.2713 30.4198 39.2638 30.4223L39.8964 32.3197ZM39.4683 32.4912C39.6835 32.4279 39.8707 32.3438 40.0273 32.2654L39.1329 30.4766C39.0323 30.5269 38.9622 30.5553 38.904 30.5725L39.4683 32.4912ZM38.8752 32.7137C39.0947 32.6405 39.342 32.5558 39.5889 32.4471L38.7834 30.6165C38.6283 30.6848 38.4574 30.7448 38.2427 30.8163L38.8752 32.7137ZM38.705 32.7673C38.7256 32.7622 38.8616 32.7317 39.0062 32.6594L38.1117 30.8706C38.1557 30.8486 38.192 30.836 38.2123 30.8297C38.2284 30.8246 38.2402 30.822 38.2199 30.827L38.705 32.7673ZM37.9411 33.0005C38.2146 32.9321 38.5178 32.8481 38.8235 32.7297L38.1015 30.8646C37.9086 30.9392 37.6972 30.9999 37.4561 31.0602L37.9411 33.0005ZM37.6942 33.065C37.799 33.0475 37.9445 33.0129 38.0925 32.9495L37.3047 31.1112C37.3269 31.1017 37.341 31.0977 37.3452 31.0965C37.35 31.0952 37.3558 31.0938 37.3654 31.0922L37.6942 33.065ZM36.9749 33.23C37.2739 33.1888 37.5641 33.1179 37.8358 33.0306L37.2238 31.1266C37.0452 31.184 36.8689 31.2257 36.7016 31.2488L36.9749 33.23ZM36.997 33.2295C37.0217 33.2235 37.0423 33.2186 37.0631 33.2138L36.6134 31.265C36.583 31.2721 36.5543 31.2789 36.5307 31.2846L36.997 33.2295ZM36.6928 33.2921C36.8185 33.2728 36.9268 33.2463 36.9971 33.2295L36.5306 31.2846C36.4521 31.3034 36.4208 31.3104 36.3887 31.3154L36.6928 33.2921ZM36.129 33.3796C36.3522 33.3584 36.5671 33.3167 36.7279 33.2861L36.3536 31.3214C36.1767 31.3551 36.0539 31.3778 35.9394 31.3887L36.129 33.3796ZM35.6555 33.4469C35.8722 33.4349 36.0739 33.3997 36.2511 33.3603L35.8173 31.408C35.705 31.4329 35.6173 31.446 35.5446 31.45L35.6555 33.4469ZM34.7615 33.5355C35.0941 33.5175 35.4197 33.4819 35.7339 33.4395L35.4661 31.4575C35.1853 31.4954 34.916 31.5242 34.6535 31.5384L34.7615 33.5355ZM33.7185 33.5691C34.0638 33.5691 34.4192 33.5607 34.7805 33.5343L34.6345 31.5396C34.3366 31.5614 34.0326 31.5691 33.7185 31.5691V33.5691ZM29.1269 33.0207C30.7224 33.3902 32.2455 33.5691 33.7185 33.5691V31.5691C32.4095 31.5691 31.038 31.4103 29.5781 31.0722L29.1269 33.0207ZM27.9279 32.7185C28.3488 32.8387 28.7496 32.9324 29.1246 33.0201L29.5804 31.0728C29.1995 30.9836 28.8446 30.9004 28.4774 30.7954L27.9279 32.7185ZM26.0982 32.1361C26.7024 32.3513 27.3218 32.5525 27.9384 32.7214L28.4669 30.7925C27.9096 30.6398 27.339 30.455 26.7693 30.2521L26.0982 32.1361ZM24.8626 31.6667C25.2738 31.828 25.6788 31.9852 26.095 32.135L26.7725 30.2532C26.3846 30.1136 26.0017 29.9652 25.5928 29.8048L24.8626 31.6667ZM24.7649 31.6279C24.796 31.6402 24.8263 31.6523 24.8563 31.6643L25.599 29.8073C25.5665 29.7943 25.5341 29.7814 25.502 29.7687L24.7649 31.6279ZM24.6874 31.5972C24.7136 31.6076 24.7393 31.6177 24.7649 31.6279L25.502 29.7687C25.4756 29.7582 25.4492 29.7478 25.4231 29.7374L24.6874 31.5972ZM24.2189 31.4075C24.3814 31.4762 24.5422 31.5398 24.6874 31.5972L25.4231 29.7374C25.2745 29.6786 25.1355 29.6236 24.9982 29.5655L24.2189 31.4075ZM21.6468 31.2365C22.5047 31.0107 23.4221 31.076 24.2245 31.4098L24.9927 29.5632C23.7849 29.0608 22.4188 28.9652 21.1378 29.3023L21.6468 31.2365ZM20.666 31.4837C20.9749 31.4105 21.3184 31.3269 21.6575 31.2336L21.1272 29.3052C20.823 29.3888 20.5072 29.466 20.205 29.5375L20.666 31.4837ZM20.4194 30.5187C21.1261 31.2262 21.1259 31.2264 21.1257 31.2265C21.1257 31.2266 21.1255 31.2268 21.1254 31.2269C21.1252 31.2271 21.1249 31.2273 21.1247 31.2276C21.1242 31.228 21.1238 31.2285 21.1233 31.229C21.1224 31.2299 21.1214 31.2308 21.1204 31.2318C21.1185 31.2337 21.1165 31.2356 21.1145 31.2376C21.1105 31.2415 21.1062 31.2455 21.1017 31.2497C21.0928 31.2581 21.0826 31.2672 21.0712 31.277C21.0496 31.2955 21.0185 31.3205 20.9789 31.3468C20.9409 31.3721 20.8807 31.4085 20.801 31.4404C20.7233 31.4714 20.5965 31.5106 20.4355 31.5106V29.5106C20.1309 29.5106 19.9225 29.6474 19.87 29.6825C19.8273 29.7109 19.7938 29.7378 19.7703 29.7579C19.7581 29.7683 19.7472 29.7781 19.7378 29.7869C19.7331 29.7913 19.7286 29.7956 19.7245 29.7996C19.7224 29.8016 19.7204 29.8036 19.7184 29.8055C19.7174 29.8065 19.7165 29.8074 19.7155 29.8084C19.715 29.8088 19.7146 29.8093 19.7141 29.8098C19.7139 29.81 19.7136 29.8102 19.7134 29.8105C19.7133 29.8106 19.7131 29.8107 19.7131 29.8108C19.7129 29.811 19.7127 29.8111 20.4194 30.5187ZM19.8416 31.6701C20.0919 31.6179 20.3701 31.56 20.6564 31.4902L20.1824 29.5472C19.9341 29.6077 19.6882 29.6591 19.4335 29.7122L19.8416 31.6701ZM19.8335 31.6717L19.8337 31.6717L19.4415 29.7106L19.4413 29.7106L19.8335 31.6717ZM19.6673 31.7066L19.8421 31.67L19.4327 29.7123L19.2579 29.7489L19.6673 31.7066ZM4.4747 29.051C8.08277 32.2171 13.3746 33.0196 19.6668 31.7066L19.2583 29.7488C13.2967 30.9928 8.74686 30.139 5.79382 27.5477L4.4747 29.051Z" fill="#A9A7AC" mask="url(#path-1-inside-1_243_5671)"/>
</svg>
