<svg width="62" height="85" viewBox="0 0 62 85" fill="none" xmlns="http://www.w3.org/2000/svg">
<path d="M46.1078 23.4717C46.0917 23.5121 46.0594 23.5524 46.0271 23.5928L46.1078 23.4717Z" fill="#88868C"/>
<path d="M46.0272 23.584C45.9307 23.7287 45.8342 23.8735 45.7136 24.0102C45.8262 23.8735 45.9307 23.7368 46.0272 23.584Z" fill="#88868C"/>
<path d="M45.3838 24.4296C45.4964 24.2929 45.6089 24.1562 45.7215 24.0195C45.617 24.1562 45.5044 24.301 45.3838 24.4296Z" fill="#88868C"/>
<path d="M44.676 27.2191C43.8076 27.8623 42.8588 28.385 41.8376 28.7629C43.2608 28.2161 44.5554 27.404 45.665 26.3828V26.3909C45.3514 26.6884 45.0217 26.9618 44.676 27.2191Z" fill="#88868C"/>
<path d="M42.5054 26.7443C43.5989 26.1492 44.5638 25.3693 45.3759 24.4365C44.5879 25.3773 43.6069 26.1573 42.5054 26.7443Z" fill="#88868C"/>
<path d="M40.5352 27.5563C41.2186 27.3553 41.886 27.0819 42.5132 26.7441C41.886 27.0819 41.2266 27.3553 40.5352 27.5563Z" fill="#88868C"/>
<path d="M41.3477 28.9401C41.3718 28.9241 41.3879 28.9241 41.412 28.916C41.3879 28.9401 41.3637 28.9401 41.3477 28.9401Z" fill="#88868C"/>
<path d="M40.5273 29.1805C40.648 29.1563 40.7605 29.1161 40.8811 29.084C40.7605 29.1242 40.6399 29.1563 40.5273 29.1805Z" fill="#88868C"/>
<path d="M40.1333 27.6694C40.27 27.6292 40.3986 27.5971 40.5353 27.5488C40.3986 27.5971 40.27 27.6373 40.1333 27.6694Z" fill="#88868C"/>
<path d="M39.6108 27.7905C39.7797 27.7584 39.9646 27.7182 40.1334 27.6699C39.9646 27.7182 39.7877 27.7584 39.6108 27.7905Z" fill="#88868C"/>
<path d="M39.7476 29.3575C39.8601 29.3334 39.9646 29.3093 40.0852 29.2852C39.9727 29.3173 39.8521 29.3334 39.7476 29.3575Z" fill="#88868C"/>
<path d="M39.1687 29.4549C39.3536 29.4308 39.5547 29.3986 39.7396 29.3584C39.5466 29.3986 39.3536 29.4308 39.1687 29.4549Z" fill="#88868C"/>
<path d="M39.6105 27.7891C39.3934 27.8373 39.1683 27.8775 38.9431 27.9097C39.1763 27.8695 39.3934 27.8373 39.6105 27.7891Z" fill="#88868C"/>
<path d="M29.6406 29.5342C30.1954 29.6146 30.7502 29.6709 31.3211 29.7191C30.7502 29.6789 30.1954 29.6146 29.6406 29.5342Z" fill="#88868C"/>
<path d="M23.4253 27.8145C23.9077 28.0235 24.4062 28.2165 24.9128 28.3934C24.4062 28.2085 23.9077 28.0235 23.4253 27.8145Z" fill="#88868C"/>
<path d="M21.978 27.1387C22.4444 27.3799 22.9268 27.597 23.4253 27.8141C22.9348 27.605 22.4524 27.3799 21.978 27.1387Z" fill="#88868C"/>
<path d="M17.668 25.8604C18.0459 25.9247 18.4157 25.989 18.7776 26.0614C18.4238 25.989 18.0539 25.9247 17.668 25.8604Z" fill="#88868C"/>
<path d="M18.4319 24.4047C18.1264 24.3484 17.8128 24.2922 17.4912 24.252C17.8128 24.3002 18.1264 24.3484 18.4319 24.4047Z" fill="#88868C"/>
<path d="M16.1241 24.0745C15.6979 24.0262 15.2557 23.9941 14.8135 23.9619C15.2557 23.9941 15.6979 24.0343 16.1241 24.0745Z" fill="#88868C"/>
<path d="M10.5679 25.4578C13.1409 25.3693 15.553 25.506 17.6757 25.8598C15.553 25.506 13.1489 25.3774 10.5679 25.4578Z" fill="#88868C"/>
<path d="M14.7978 23.9698C14.3636 23.9377 13.9053 23.9135 13.447 23.8975C13.9053 23.9135 14.3556 23.9377 14.7978 23.9698Z" fill="#88868C"/>
<path d="M13.4302 23.8972C12.988 23.8811 12.5377 23.873 12.0793 23.873C12.5296 23.873 12.988 23.8811 13.4302 23.8972Z" fill="#88868C"/>
<path d="M11.9998 23.873C11.6058 23.873 11.2118 23.8811 10.8018 23.8891C11.2118 23.8811 11.6138 23.873 11.9998 23.873Z" fill="#88868C"/>
<mask id="path-24-inside-1_188_2940" fill="white">
<path fill-rule="evenodd" clip-rule="evenodd" d="M4.24919 24.4931L4.94005 24.3978C5.45465 24.3255 5.96923 24.2612 6.47578 24.2049C6.56553 24.189 6.65874 24.1801 6.75087 24.1713L6.75099 24.1713C6.79914 24.1667 6.847 24.1621 6.89391 24.1566C6.9596 24.1489 7.02716 24.143 7.09389 24.1372L7.09397 24.1372C7.16606 24.1309 7.23719 24.1248 7.30399 24.1164C7.42459 24.1003 7.53711 24.0923 7.65772 24.0842C8.05975 24.044 8.44573 24.0119 8.83971 23.9878C9.28298 23.9572 9.72624 23.9339 10.1626 23.9109H10.1626L10.2307 23.9073H10.3192C10.3987 23.9034 10.4801 23.9014 10.5605 23.8994L10.5608 23.8994C10.6431 23.8973 10.7244 23.8953 10.8016 23.8913L10.8486 23.8904H10.8487C11.2419 23.8826 11.6208 23.8752 11.9997 23.8752H12.0238H12.08C12.5384 23.8752 12.9887 23.8832 13.4309 23.8993H13.4469C13.9053 23.9154 14.3636 23.9395 14.7978 23.9717H14.8139H14.8139H14.8139C15.2561 24.0038 15.6983 24.036 16.1245 24.0842C16.4707 24.1201 16.8126 24.1648 17.1467 24.2084C17.2626 24.2236 17.3775 24.2386 17.4914 24.2531C17.679 24.2813 17.8639 24.3121 18.046 24.3426L18.0461 24.3426L18.0462 24.3426C18.1762 24.3643 18.3049 24.3858 18.4321 24.4059C19.6864 24.6391 20.8363 24.9446 21.8655 25.3226L21.978 25.3788C26.7541 28.0002 32.3102 28.8284 38.9517 27.9117C39.1688 27.8796 39.3939 27.8394 39.619 27.7911C39.7879 27.7589 39.9728 27.7187 40.1417 27.6705C40.2784 27.6383 40.407 27.5981 40.5437 27.5499C41.2352 27.3569 41.8945 27.0835 42.5217 26.7377C43.6233 26.1508 44.5962 25.3708 45.3922 24.43C45.5207 24.2935 45.6251 24.1569 45.7295 24.0204L45.7299 24.0199C45.8505 23.8832 45.947 23.7385 46.0435 23.5938C46.0756 23.5535 46.1078 23.5133 46.1239 23.4731L46.4696 22.9746L47.5144 23.6316V23.6167L46.4531 22.9493L46.1505 23.3856C46.4528 22.9445 46.7048 22.4675 46.9275 21.9684C48.3185 18.8565 48.7125 15.5035 48.1416 11.7082C47.9084 10.1643 47.4019 8.78127 46.6219 7.61534C45.0219 5.20306 43.5504 5.42821 42.5856 5.81417C41.3312 6.30466 39.892 6.22426 38.6537 5.58902C33.6927 3.0481 28.989 2.81492 24.2611 4.86535C22.8299 5.4845 21.1976 5.51665 19.7905 4.94575C12.7711 2.13947 7.72966 1.6731 4.80289 3.56271C2.81687 4.84926 1.73143 7.32587 1.57062 10.9202C1.98791 14.8177 4.54083 21.622 5.46211 24.0775C5.48166 24.1296 5.50047 24.1797 5.51852 24.2279C5.52656 24.252 5.53462 24.2761 5.54266 24.2922C5.58298 24.2871 5.62318 24.2821 5.66325 24.2771C5.94278 24.242 6.21616 24.2078 6.4834 24.1796C6.15329 24.2163 5.81976 24.2598 5.48505 24.3035C5.30613 24.3268 5.12687 24.3502 4.94762 24.3726L4.24809 24.4691L4.24919 24.4931ZM46.1505 23.3856L46.1073 23.4479C46.1218 23.4272 46.1362 23.4065 46.1505 23.3856ZM47.531 24.1412V24.1807V24.1968L47.4911 24.2443C44.232 48.9605 48.1027 64.0452 60.0098 73.1566L60.1464 73.2853C61.7706 75.2473 62.3174 76.7831 61.8269 77.9892C61.3686 79.1149 60.0821 79.7582 57.9031 79.9753C54.6306 80.297 51.2455 79.4446 48.3509 77.5711C39.6832 71.9505 32.0607 60.6691 28.161 51.6553C29.158 59.9776 32.5512 69.7393 36.3785 75.191C37.3996 76.6625 38.1474 78.2707 38.6057 79.9753L38.6107 79.9945C38.8007 80.7292 39.3585 82.8865 38.1072 83.835C37.7534 84.1003 37.3273 84.237 36.7966 84.237C35.6951 84.2451 34.1754 83.642 32.0928 82.4278C14.5885 72.7466 5.47052 54.1158 4.28052 25.4821L4.29657 25.5223C4.64231 26.2701 5.30972 25.9967 5.34188 25.9806C5.39669 25.9571 5.44387 25.9336 5.48343 25.9101C5.45103 25.9213 5.42056 25.9348 5.38856 25.949C5.37604 25.9545 5.36328 25.9602 5.35008 25.9658C5.31792 25.9819 4.65056 26.2553 4.30482 25.5075L4.28877 25.4673L4.28872 25.4668C4.28843 25.4635 4.28813 25.4603 4.28784 25.4571L3.85411 24.5334L3.95864 24.5254C2.97769 21.9201 0.428811 15.0612 0.0187415 11.0408L0.0107422 10.9764V10.9202C0.179594 6.75496 1.51431 3.84415 3.95864 2.26009C7.36785 0.048838 12.739 0.458927 20.3614 3.50643C21.3906 3.90848 22.5886 3.8924 23.642 3.43407C28.7477 1.22282 34.0385 1.48012 39.3613 4.20599C40.2056 4.63216 41.1785 4.69648 42.0147 4.3668C43.5746 3.74765 45.8661 3.67529 47.9245 6.75495C48.8331 8.11387 49.4201 9.70597 49.6854 11.483C50.3045 15.5839 49.8623 19.2184 48.3587 22.6197L47.531 24.1412ZM41.8543 28.7721C43.2619 28.2313 44.5437 27.4309 45.6451 26.4254C43.6876 43.0147 43.907 62.7437 58.9966 74.3467C60.5163 76.2122 60.5163 77.0484 60.3796 77.3942C60.1705 77.9088 59.2379 78.2787 57.7504 78.4154C54.8397 78.7049 51.8003 77.941 49.2113 76.2604C41.822 71.46 33.6206 60.7576 29.2545 50.2159C28.9812 49.5405 28.2897 49.2028 27.5901 49.3716C26.8826 49.5485 26.4403 50.1838 26.5127 50.9074C27.3971 59.6479 31.0074 70.2378 35.1 76.0755C36.0247 77.3862 36.6921 78.8335 37.1022 80.3613C37.5765 82.1946 37.2147 82.5404 37.1664 82.5806C37.086 82.6369 36.3303 83.0791 32.8728 81.0528C15.9577 71.6945 7.11318 53.6302 5.865 25.8552L5.88079 25.8532L5.91909 25.8484L5.91917 25.8484C6.03364 25.834 6.14289 25.8203 6.25867 25.813L6.26008 25.8129C6.66164 25.7647 7.06321 25.7165 7.47281 25.6763C7.47817 25.6763 7.48353 25.6755 7.48889 25.6746C7.49961 25.6728 7.51033 25.671 7.52105 25.6763C8.03564 25.6201 8.54222 25.5799 9.04878 25.5477C9.56337 25.5075 10.0699 25.4834 10.5765 25.4673C13.1575 25.3869 15.5616 25.5155 17.6843 25.8693C17.7628 25.8827 17.841 25.8957 17.9188 25.9087L17.9195 25.9088L17.9196 25.9088C18.2161 25.9582 18.5075 26.0067 18.7939 26.0704C19.6945 26.2633 20.5307 26.4965 21.2865 26.7699C21.4449 26.8573 21.6034 26.941 21.7643 27.0261L21.7647 27.0262C21.8405 27.0663 21.9169 27.1067 21.9941 27.1478C22.4685 27.3971 22.9509 27.6142 23.4414 27.8233C23.9319 28.0323 24.4304 28.2253 24.9289 28.4022C26.4486 28.9249 28.0165 29.3108 29.6648 29.5521C30.2196 29.6244 30.7744 29.6888 31.3453 29.737C32.1895 29.8094 33.0499 29.8496 33.9424 29.8496C34.3605 29.8496 34.7866 29.8415 35.2128 29.8255C36.4832 29.7772 37.7938 29.6566 39.1527 29.4636H39.1848C39.3698 29.4395 39.5708 29.4073 39.7557 29.3671H39.7638C39.8014 29.3591 39.8381 29.351 39.8748 29.343C39.948 29.3269 40.0212 29.3108 40.1015 29.2948L40.141 29.286L40.1411 29.286C40.2739 29.2566 40.4121 29.226 40.5437 29.1822C40.6208 29.1668 40.6946 29.1448 40.7693 29.1225C40.8115 29.11 40.854 29.0973 40.8975 29.0857C41.0503 29.0535 41.2111 29.0053 41.3639 28.949C41.3808 28.9377 41.3937 28.9343 41.4083 28.9306L41.4083 28.9306C41.4145 28.929 41.421 28.9273 41.4281 28.9249C41.5648 28.8927 41.7176 28.8364 41.8543 28.7721ZM5.5109 25.9015L5.52254 25.9L5.49527 25.9062L5.5109 25.9015Z"/>
</mask>
<path fill-rule="evenodd" clip-rule="evenodd" d="M4.24919 24.4931L4.94005 24.3978C5.45465 24.3255 5.96923 24.2612 6.47578 24.2049C6.56553 24.189 6.65874 24.1801 6.75087 24.1713L6.75099 24.1713C6.79914 24.1667 6.847 24.1621 6.89391 24.1566C6.9596 24.1489 7.02716 24.143 7.09389 24.1372L7.09397 24.1372C7.16606 24.1309 7.23719 24.1248 7.30399 24.1164C7.42459 24.1003 7.53711 24.0923 7.65772 24.0842C8.05975 24.044 8.44573 24.0119 8.83971 23.9878C9.28298 23.9572 9.72624 23.9339 10.1626 23.9109H10.1626L10.2307 23.9073H10.3192C10.3987 23.9034 10.4801 23.9014 10.5605 23.8994L10.5608 23.8994C10.6431 23.8973 10.7244 23.8953 10.8016 23.8913L10.8486 23.8904H10.8487C11.2419 23.8826 11.6208 23.8752 11.9997 23.8752H12.0238H12.08C12.5384 23.8752 12.9887 23.8832 13.4309 23.8993H13.4469C13.9053 23.9154 14.3636 23.9395 14.7978 23.9717H14.8139H14.8139H14.8139C15.2561 24.0038 15.6983 24.036 16.1245 24.0842C16.4707 24.1201 16.8126 24.1648 17.1467 24.2084C17.2626 24.2236 17.3775 24.2386 17.4914 24.2531C17.679 24.2813 17.8639 24.3121 18.046 24.3426L18.0461 24.3426L18.0462 24.3426C18.1762 24.3643 18.3049 24.3858 18.4321 24.4059C19.6864 24.6391 20.8363 24.9446 21.8655 25.3226L21.978 25.3788C26.7541 28.0002 32.3102 28.8284 38.9517 27.9117C39.1688 27.8796 39.3939 27.8394 39.619 27.7911C39.7879 27.7589 39.9728 27.7187 40.1417 27.6705C40.2784 27.6383 40.407 27.5981 40.5437 27.5499C41.2352 27.3569 41.8945 27.0835 42.5217 26.7377C43.6233 26.1508 44.5962 25.3708 45.3922 24.43C45.5207 24.2935 45.6251 24.1569 45.7295 24.0204L45.7299 24.0199C45.8505 23.8832 45.947 23.7385 46.0435 23.5938C46.0756 23.5535 46.1078 23.5133 46.1239 23.4731L46.4696 22.9746L47.5144 23.6316V23.6167L46.4531 22.9493L46.1505 23.3856C46.4528 22.9445 46.7048 22.4675 46.9275 21.9684C48.3185 18.8565 48.7125 15.5035 48.1416 11.7082C47.9084 10.1643 47.4019 8.78127 46.6219 7.61534C45.0219 5.20306 43.5504 5.42821 42.5856 5.81417C41.3312 6.30466 39.892 6.22426 38.6537 5.58902C33.6927 3.0481 28.989 2.81492 24.2611 4.86535C22.8299 5.4845 21.1976 5.51665 19.7905 4.94575C12.7711 2.13947 7.72966 1.6731 4.80289 3.56271C2.81687 4.84926 1.73143 7.32587 1.57062 10.9202C1.98791 14.8177 4.54083 21.622 5.46211 24.0775C5.48166 24.1296 5.50047 24.1797 5.51852 24.2279C5.52656 24.252 5.53462 24.2761 5.54266 24.2922C5.58298 24.2871 5.62318 24.2821 5.66325 24.2771C5.94278 24.242 6.21616 24.2078 6.4834 24.1796C6.15329 24.2163 5.81976 24.2598 5.48505 24.3035C5.30613 24.3268 5.12687 24.3502 4.94762 24.3726L4.24809 24.4691L4.24919 24.4931ZM46.1505 23.3856L46.1073 23.4479C46.1218 23.4272 46.1362 23.4065 46.1505 23.3856ZM47.531 24.1412V24.1807V24.1968L47.4911 24.2443C44.232 48.9605 48.1027 64.0452 60.0098 73.1566L60.1464 73.2853C61.7706 75.2473 62.3174 76.7831 61.8269 77.9892C61.3686 79.1149 60.0821 79.7582 57.9031 79.9753C54.6306 80.297 51.2455 79.4446 48.3509 77.5711C39.6832 71.9505 32.0607 60.6691 28.161 51.6553C29.158 59.9776 32.5512 69.7393 36.3785 75.191C37.3996 76.6625 38.1474 78.2707 38.6057 79.9753L38.6107 79.9945C38.8007 80.7292 39.3585 82.8865 38.1072 83.835C37.7534 84.1003 37.3273 84.237 36.7966 84.237C35.6951 84.2451 34.1754 83.642 32.0928 82.4278C14.5885 72.7466 5.47052 54.1158 4.28052 25.4821L4.29657 25.5223C4.64231 26.2701 5.30972 25.9967 5.34188 25.9806C5.39669 25.9571 5.44387 25.9336 5.48343 25.9101C5.45103 25.9213 5.42056 25.9348 5.38856 25.949C5.37604 25.9545 5.36328 25.9602 5.35008 25.9658C5.31792 25.9819 4.65056 26.2553 4.30482 25.5075L4.28877 25.4673L4.28872 25.4668C4.28843 25.4635 4.28813 25.4603 4.28784 25.4571L3.85411 24.5334L3.95864 24.5254C2.97769 21.9201 0.428811 15.0612 0.0187415 11.0408L0.0107422 10.9764V10.9202C0.179594 6.75496 1.51431 3.84415 3.95864 2.26009C7.36785 0.048838 12.739 0.458927 20.3614 3.50643C21.3906 3.90848 22.5886 3.8924 23.642 3.43407C28.7477 1.22282 34.0385 1.48012 39.3613 4.20599C40.2056 4.63216 41.1785 4.69648 42.0147 4.3668C43.5746 3.74765 45.8661 3.67529 47.9245 6.75495C48.8331 8.11387 49.4201 9.70597 49.6854 11.483C50.3045 15.5839 49.8623 19.2184 48.3587 22.6197L47.531 24.1412ZM41.8543 28.7721C43.2619 28.2313 44.5437 27.4309 45.6451 26.4254C43.6876 43.0147 43.907 62.7437 58.9966 74.3467C60.5163 76.2122 60.5163 77.0484 60.3796 77.3942C60.1705 77.9088 59.2379 78.2787 57.7504 78.4154C54.8397 78.7049 51.8003 77.941 49.2113 76.2604C41.822 71.46 33.6206 60.7576 29.2545 50.2159C28.9812 49.5405 28.2897 49.2028 27.5901 49.3716C26.8826 49.5485 26.4403 50.1838 26.5127 50.9074C27.3971 59.6479 31.0074 70.2378 35.1 76.0755C36.0247 77.3862 36.6921 78.8335 37.1022 80.3613C37.5765 82.1946 37.2147 82.5404 37.1664 82.5806C37.086 82.6369 36.3303 83.0791 32.8728 81.0528C15.9577 71.6945 7.11318 53.6302 5.865 25.8552L5.88079 25.8532L5.91909 25.8484L5.91917 25.8484C6.03364 25.834 6.14289 25.8203 6.25867 25.813L6.26008 25.8129C6.66164 25.7647 7.06321 25.7165 7.47281 25.6763C7.47817 25.6763 7.48353 25.6755 7.48889 25.6746C7.49961 25.6728 7.51033 25.671 7.52105 25.6763C8.03564 25.6201 8.54222 25.5799 9.04878 25.5477C9.56337 25.5075 10.0699 25.4834 10.5765 25.4673C13.1575 25.3869 15.5616 25.5155 17.6843 25.8693C17.7628 25.8827 17.841 25.8957 17.9188 25.9087L17.9195 25.9088L17.9196 25.9088C18.2161 25.9582 18.5075 26.0067 18.7939 26.0704C19.6945 26.2633 20.5307 26.4965 21.2865 26.7699C21.4449 26.8573 21.6034 26.941 21.7643 27.0261L21.7647 27.0262C21.8405 27.0663 21.9169 27.1067 21.9941 27.1478C22.4685 27.3971 22.9509 27.6142 23.4414 27.8233C23.9319 28.0323 24.4304 28.2253 24.9289 28.4022C26.4486 28.9249 28.0165 29.3108 29.6648 29.5521C30.2196 29.6244 30.7744 29.6888 31.3453 29.737C32.1895 29.8094 33.0499 29.8496 33.9424 29.8496C34.3605 29.8496 34.7866 29.8415 35.2128 29.8255C36.4832 29.7772 37.7938 29.6566 39.1527 29.4636H39.1848C39.3698 29.4395 39.5708 29.4073 39.7557 29.3671H39.7638C39.8014 29.3591 39.8381 29.351 39.8748 29.343C39.948 29.3269 40.0212 29.3108 40.1015 29.2948L40.141 29.286L40.1411 29.286C40.2739 29.2566 40.4121 29.226 40.5437 29.1822C40.6208 29.1668 40.6946 29.1448 40.7693 29.1225C40.8115 29.11 40.854 29.0973 40.8975 29.0857C41.0503 29.0535 41.2111 29.0053 41.3639 28.949C41.3808 28.9377 41.3937 28.9343 41.4083 28.9306L41.4083 28.9306C41.4145 28.929 41.421 28.9273 41.4281 28.9249C41.5648 28.8927 41.7176 28.8364 41.8543 28.7721ZM5.5109 25.9015L5.52254 25.9L5.49527 25.9062L5.5109 25.9015Z" fill="#88868C"/>
<path d="M4.94005 24.3978L5.0767 25.3885L5.07932 25.3881L4.94005 24.3978ZM4.24919 24.4931L3.25022 24.5386L3.30005 25.6335L4.38583 25.4838L4.24919 24.4931ZM6.47578 24.2049L6.58622 25.1988L6.61805 25.1952L6.64958 25.1896L6.47578 24.2049ZM6.75087 24.1713L6.846 25.1668L6.84681 25.1667L6.75087 24.1713ZM6.75099 24.1713L6.65588 23.1758L6.65505 23.1759L6.75099 24.1713ZM6.89391 24.1566L7.01074 25.1498L7.01075 25.1498L6.89391 24.1566ZM7.09389 24.1372L7.02625 23.1395L7.01678 23.1401L7.00733 23.141L7.09389 24.1372ZM7.09397 24.1372L7.16161 25.1349L7.17107 25.1343L7.18051 25.1335L7.09397 24.1372ZM7.30399 24.1164L7.42804 25.1087L7.43615 25.1076L7.30399 24.1164ZM7.65772 24.0842L7.72423 25.082L7.74076 25.0809L7.75723 25.0793L7.65772 24.0842ZM8.83971 23.9878L8.90083 24.9859L8.90852 24.9854L8.83971 23.9878ZM10.1626 23.9109V22.9109H10.1363L10.1101 22.9123L10.1626 23.9109ZM10.1626 23.9109V24.9109H10.1889L10.2152 24.9095L10.1626 23.9109ZM10.2307 23.9073V22.9073H10.2044L10.1782 22.9087L10.2307 23.9073ZM10.3192 23.9073V24.9073H10.3442L10.3691 24.9061L10.3192 23.9073ZM10.5605 23.8994L10.5378 22.8996L10.5359 22.8997L10.5605 23.8994ZM10.5608 23.8994L10.5835 24.8991L10.5854 24.8991L10.5608 23.8994ZM10.8016 23.8913L10.782 22.8915L10.7655 22.8918L10.749 22.8927L10.8016 23.8913ZM10.8486 23.8904V22.8904H10.8388L10.829 22.8905L10.8486 23.8904ZM10.8487 23.8904V24.8904H10.8585L10.8683 24.8902L10.8487 23.8904ZM13.4309 23.8993L13.3946 24.8986L13.4127 24.8993H13.4309V23.8993ZM13.4469 23.8993L13.482 22.8999L13.4645 22.8993H13.4469V23.8993ZM14.7978 23.9717L14.7239 24.9689L14.7608 24.9717H14.7978V23.9717ZM14.8139 23.9717L14.8864 22.9743L14.8502 22.9717H14.8139V23.9717ZM16.1245 24.0842L16.012 25.0779L16.0216 25.0789L16.1245 24.0842ZM17.1467 24.2084L17.0171 25.2L17.0171 25.2L17.1467 24.2084ZM17.4914 24.2531L17.6397 23.2642L17.6287 23.2625L17.6176 23.2611L17.4914 24.2531ZM18.046 24.3426L18.2198 23.3577L18.2108 23.3562L18.046 24.3426ZM18.0461 24.3426L18.225 23.3587L18.2199 23.3578L18.0461 24.3426ZM18.0462 24.3426L17.8673 25.3265L17.8744 25.3277L17.8815 25.3289L18.0462 24.3426ZM18.4321 24.4059L18.6149 23.4227L18.6015 23.4203L18.5881 23.4181L18.4321 24.4059ZM21.8655 25.3226L22.3126 24.4281L22.2626 24.4031L22.2102 24.3838L21.8655 25.3226ZM21.978 25.3788L22.4592 24.5022L22.4424 24.493L22.4252 24.4844L21.978 25.3788ZM38.9517 27.9117L39.0884 28.9024L39.0982 28.9009L38.9517 27.9117ZM39.619 27.7911L39.4319 26.8088L39.4207 26.8109L39.4095 26.8133L39.619 27.7911ZM40.1417 27.6705L39.9126 26.6971L39.8896 26.7025L39.8669 26.709L40.1417 27.6705ZM40.5437 27.5499L40.2749 26.5867L40.2425 26.5957L40.2109 26.6069L40.5437 27.5499ZM42.5217 26.7377L42.0514 25.8552L42.0451 25.8586L42.0389 25.862L42.5217 26.7377ZM45.3922 24.43L44.664 23.7447L44.6459 23.7639L44.6288 23.7841L45.3922 24.43ZM45.7295 24.0204L44.9369 23.4107L44.9352 23.4129L45.7295 24.0204ZM45.7299 24.0199L44.98 23.3583L44.9578 23.3835L44.9373 23.4102L45.7299 24.0199ZM46.0435 23.5938L45.2626 22.9691L45.2355 23.003L45.2114 23.0391L46.0435 23.5938ZM46.1239 23.4731L45.3021 22.9033L45.2375 22.9965L45.1954 23.1018L46.1239 23.4731ZM46.4696 22.9746L47.0019 22.1281L46.1927 21.6192L45.6479 22.4047L46.4696 22.9746ZM47.5144 23.6316L46.9821 24.4781L48.5144 25.4417V23.6316H47.5144ZM47.5144 23.6167H48.5144V23.0643L48.0467 22.7702L47.5144 23.6167ZM46.4531 22.9493L46.9854 22.1028L46.1761 21.5939L45.6313 22.3795L46.4531 22.9493ZM46.9275 21.9684L46.0145 21.5603L46.0142 21.5609L46.9275 21.9684ZM48.1416 11.7082L49.1305 11.5594L49.1304 11.5588L48.1416 11.7082ZM46.6219 7.61534L45.7886 8.1681L45.7908 8.17135L46.6219 7.61534ZM42.5856 5.81417L42.9498 6.74552L42.957 6.74264L42.5856 5.81417ZM38.6537 5.58902L39.1102 4.69927L39.1096 4.69897L38.6537 5.58902ZM24.2611 4.86535L24.6581 5.78315L24.659 5.78278L24.2611 4.86535ZM19.7905 4.94575L20.1665 4.0191L20.1618 4.0172L19.7905 4.94575ZM4.80289 3.56271L4.26049 2.72259L4.2592 2.72343L4.80289 3.56271ZM1.57062 10.9202L0.571615 10.8755L0.568226 10.9512L0.576299 11.0266L1.57062 10.9202ZM5.46211 24.0775L6.39838 23.7262L6.39838 23.7262L5.46211 24.0775ZM5.51852 24.2279L6.4672 23.9116L6.46135 23.8941L6.45485 23.8767L5.51852 24.2279ZM5.54266 24.2922L4.64822 24.7394L4.96464 25.3722L5.66672 25.2845L5.54266 24.2922ZM5.66325 24.2771L5.78766 25.2693L5.78767 25.2693L5.66325 24.2771ZM6.4834 24.1796L6.59383 25.1735L6.37871 23.1851L6.4834 24.1796ZM5.48505 24.3035L5.3557 23.3119L5.3557 23.3119L5.48505 24.3035ZM4.94762 24.3726L4.82357 23.3802L4.81098 23.382L4.94762 24.3726ZM4.24809 24.4691L4.11145 23.4785L3.20765 23.6031L3.24913 24.5145L4.24809 24.4691ZM46.1073 23.4479L45.2856 22.878L46.9259 24.0223L46.1073 23.4479ZM47.531 24.1412L46.6525 23.6633L46.531 23.8868V24.1412H47.531ZM47.531 24.1968L48.2969 24.8397L48.531 24.5609V24.1968H47.531ZM47.4911 24.2443L46.7252 23.6014L46.5378 23.8246L46.4997 24.1136L47.4911 24.2443ZM60.0098 73.1566L60.6952 72.4285L60.658 72.3935L60.6175 72.3625L60.0098 73.1566ZM60.1464 73.2853L60.9167 72.6476L60.8771 72.5998L60.8319 72.5572L60.1464 73.2853ZM61.8269 77.9892L62.7531 78.3663L62.7533 78.3659L61.8269 77.9892ZM57.9031 79.9753L58.0009 80.9705L58.0023 80.9704L57.9031 79.9753ZM48.3509 77.5711L47.8068 78.4101L47.8075 78.4106L48.3509 77.5711ZM28.161 51.6553L29.0788 51.2582L27.1681 51.7742L28.161 51.6553ZM36.3785 75.191L37.2001 74.6209L37.1969 74.6164L36.3785 75.191ZM38.6057 79.9753L39.574 79.7251L39.5714 79.7157L38.6057 79.9753ZM38.6107 79.9945L37.6425 80.2447L37.6425 80.2448L38.6107 79.9945ZM38.1072 83.835L38.7073 84.635L38.7113 84.6319L38.1072 83.835ZM36.7966 84.237V83.237L36.7893 83.2371L36.7966 84.237ZM32.0928 82.4278L32.5965 81.5639L32.5867 81.5582L32.5768 81.5527L32.0928 82.4278ZM4.28052 25.4821L5.20927 25.1114L3.28138 25.5236L4.28052 25.4821ZM4.29657 25.5223L3.36781 25.893L3.3777 25.9178L3.38888 25.942L4.29657 25.5223ZM5.34188 25.9806L4.94796 25.0615L4.92093 25.0731L4.89463 25.0862L5.34188 25.9806ZM5.48343 25.9101L5.99399 26.77L5.15917 24.9642L5.48343 25.9101ZM5.38856 25.949L4.98324 25.0348L4.98322 25.0348L5.38856 25.949ZM5.35008 25.9658L4.95611 25.0467L4.92911 25.0583L4.90283 25.0714L5.35008 25.9658ZM4.30482 25.5075L3.37606 25.8782L3.38594 25.9029L3.39714 25.9272L4.30482 25.5075ZM4.28877 25.4673L3.29288 25.5578L3.30605 25.7028L3.36001 25.838L4.28877 25.4673ZM4.28872 25.4668L3.29283 25.5573L3.29283 25.5573L4.28872 25.4668ZM4.28784 25.4571L5.28375 25.3667L5.26784 25.1914L5.19301 25.032L4.28784 25.4571ZM3.85411 24.5334L3.77746 23.5363L2.33329 23.6474L2.94894 24.9585L3.85411 24.5334ZM3.95864 24.5254L4.03529 25.5224L5.36414 25.4203L4.8945 24.173L3.95864 24.5254ZM0.0187415 11.0408L1.01358 10.9393L1.01246 10.9283L1.0111 10.9174L0.0187415 11.0408ZM0.0107422 10.9764H-0.989258V11.0384L-0.981615 11.0998L0.0107422 10.9764ZM0.0107422 10.9202L-0.988437 10.8796L-0.989258 10.8999V10.9202H0.0107422ZM3.95864 2.26009L4.50248 3.09928L4.50281 3.09906L3.95864 2.26009ZM20.3614 3.50643L19.9902 4.435L19.9976 4.43788L20.3614 3.50643ZM23.642 3.43407L23.2445 2.51643L23.243 2.51711L23.642 3.43407ZM39.3613 4.20599L38.9055 5.09608L38.9107 5.0987L39.3613 4.20599ZM42.0147 4.3668L42.3815 5.29712L42.3836 5.29626L42.0147 4.3668ZM47.9245 6.75495L47.0931 7.31064L47.0932 7.31077L47.9245 6.75495ZM49.6854 11.483L48.6964 11.6307L48.6966 11.6323L49.6854 11.483ZM48.3587 22.6197L49.2371 23.0976L49.2568 23.0615L49.2733 23.024L48.3587 22.6197ZM45.6451 26.4254L46.6383 26.5426L46.9527 23.8778L44.9709 25.6869L45.6451 26.4254ZM41.8543 28.7721L41.4957 27.8386L41.4616 27.8517L41.4285 27.8673L41.8543 28.7721ZM58.9966 74.3467L59.7719 73.7151L59.6984 73.6249L59.6062 73.554L58.9966 74.3467ZM60.3796 77.3942L61.3061 77.7706L61.3095 77.7619L60.3796 77.3942ZM57.7504 78.4154L57.6588 77.4196L57.6514 77.4203L57.7504 78.4154ZM49.2113 76.2604L48.6665 77.099L48.6668 77.0992L49.2113 76.2604ZM29.2545 50.2159L28.3276 50.5911L28.3307 50.5986L29.2545 50.2159ZM27.5901 49.3716L27.3555 48.3995L27.3476 48.4015L27.5901 49.3716ZM26.5127 50.9074L25.5176 51.0069L25.5178 51.0081L26.5127 50.9074ZM35.1 76.0755L34.2812 76.6495L34.2829 76.652L35.1 76.0755ZM37.1022 80.3613L38.0703 80.1108L38.068 80.1021L37.1022 80.3613ZM37.1664 82.5806L37.7399 83.3998L37.7744 83.3757L37.8067 83.3488L37.1664 82.5806ZM32.8728 81.0528L33.3784 80.1901L33.3678 80.1838L33.3569 80.1778L32.8728 81.0528ZM5.865 25.8552L5.74036 24.863L4.82457 24.9781L4.866 25.9001L5.865 25.8552ZM5.88079 25.8532L5.75623 24.861L5.75616 24.861L5.88079 25.8532ZM5.91909 25.8484L6.04366 26.8407L6.05573 26.8391L5.91909 25.8484ZM5.91917 25.8484L5.79436 24.8562L5.78253 24.8578L5.91917 25.8484ZM6.25867 25.813L6.32105 26.8111L6.35047 26.8093L6.37973 26.8057L6.25867 25.813ZM6.26008 25.8129L6.14093 24.82L6.13902 24.8202L6.26008 25.8129ZM7.47281 25.6763V24.6763H7.4239L7.37523 24.6811L7.47281 25.6763ZM7.48889 25.6746L7.32444 24.6882L7.32427 24.6882L7.48889 25.6746ZM7.52105 25.6763L7.07377 26.5707L7.3371 26.7024L7.62978 26.6704L7.52105 25.6763ZM9.04878 25.5477L9.11214 26.5457L9.11941 26.5452L9.12667 26.5447L9.04878 25.5477ZM10.5765 25.4673L10.5453 24.4678L10.5447 24.4678L10.5765 25.4673ZM17.6843 25.8693L17.8521 24.8835L17.8488 24.8829L17.6843 25.8693ZM17.9188 25.9087L17.7545 26.8951L17.7557 26.8953L17.9188 25.9087ZM17.9195 25.9088L18.1621 24.9386L18.1227 24.9288L18.0827 24.9222L17.9195 25.9088ZM17.9196 25.9088L17.677 26.8789L17.7158 26.8886L17.7553 26.8952L17.9196 25.9088ZM18.7939 26.0704L18.577 27.0466L18.5844 27.0482L18.7939 26.0704ZM21.2865 26.7699L21.7696 25.8943L21.7007 25.8563L21.6267 25.8295L21.2865 26.7699ZM21.7643 27.0261L21.2972 27.9102L21.3003 27.9119L21.7643 27.0261ZM21.7647 27.0262L22.2318 26.1421L22.2287 26.1404L21.7647 27.0262ZM21.9941 27.1478L21.5235 28.0302L21.5289 28.0331L21.9941 27.1478ZM23.4414 27.8233L23.8335 26.9034L23.8335 26.9034L23.4414 27.8233ZM24.9289 28.4022L24.5945 29.3447L24.6037 29.3479L24.9289 28.4022ZM29.6648 29.5521L29.52 30.5415L29.5277 30.5427L29.5355 30.5437L29.6648 29.5521ZM31.3453 29.737L31.4307 28.7407L31.4295 28.7406L31.3453 29.737ZM35.2128 29.8255L35.2505 30.8247L35.2507 30.8247L35.2128 29.8255ZM39.1527 29.4636V28.4636H39.082L39.0121 28.4736L39.1527 29.4636ZM39.1848 29.4636V30.4636H39.2498L39.3142 30.4552L39.1848 29.4636ZM39.7557 29.3671V28.3671H39.6483L39.5433 28.39L39.7557 29.3671ZM39.7638 29.3671V30.3671H39.8697L39.9733 30.3449L39.7638 29.3671ZM39.8748 29.343L39.6604 28.3662L39.6603 28.3662L39.8748 29.343ZM40.1015 29.2948L40.2976 30.2753L40.3077 30.2733L40.3177 30.2711L40.1015 29.2948ZM40.141 29.286L39.9449 28.3054L39.9348 28.3074L39.9248 28.3097L40.141 29.286ZM40.1411 29.286L40.3372 30.2666L40.3471 30.2646L40.357 30.2624L40.1411 29.286ZM40.5437 29.1822L40.3476 28.2016L40.2865 28.2138L40.2274 28.2335L40.5437 29.1822ZM40.7693 29.1225L40.4838 28.1641L40.4838 28.1641L40.7693 29.1225ZM40.8975 29.0857L40.6915 28.1071L40.6655 28.1126L40.6398 28.1195L40.8975 29.0857ZM41.3639 28.949L41.7096 29.8873L41.8203 29.8465L41.9186 29.781L41.3639 28.949ZM41.4083 28.9306L41.6598 29.8984L41.6925 29.8899L41.7245 29.8793L41.4083 28.9306ZM41.4083 28.9306L41.1569 27.9627L41.1242 27.9712L41.0921 27.9819L41.4083 28.9306ZM41.4281 28.9249L41.1991 27.9515L41.1549 27.9619L41.1118 27.9762L41.4281 28.9249ZM5.52254 25.9L5.74388 26.8752L5.39802 24.9078L5.52254 25.9ZM5.5109 25.9015L5.38638 24.9093L5.30238 24.9198L5.22135 24.9443L5.5109 25.9015ZM5.49527 25.9062L5.20571 24.9491L5.71661 26.8814L5.49527 25.9062ZM4.80341 23.4072L4.11254 23.5025L4.38583 25.4838L5.0767 25.3885L4.80341 23.4072ZM6.36535 23.211C5.84963 23.2683 5.32544 23.3338 4.80079 23.4076L5.07932 25.3881C5.58386 25.3171 6.08882 25.254 6.58622 25.1988L6.36535 23.211ZM6.65574 23.1759C6.57091 23.184 6.43759 23.1962 6.30198 23.2201L6.64958 25.1896C6.69346 25.1819 6.74658 25.1763 6.846 25.1668L6.65574 23.1759ZM6.65505 23.1759L6.65493 23.1759L6.84681 25.1667L6.84693 25.1667L6.65505 23.1759ZM6.77708 23.1635C6.74287 23.1675 6.70598 23.1711 6.65588 23.1758L6.84609 25.1668C6.89231 25.1624 6.95113 25.1568 7.01074 25.1498L6.77708 23.1635ZM7.00733 23.141C6.94334 23.1465 6.86047 23.1536 6.77707 23.1635L7.01075 25.1498C7.05874 25.1441 7.11097 25.1395 7.18045 25.1335L7.00733 23.141ZM7.02633 23.1395L7.02625 23.1395L7.16153 25.1349L7.16161 25.1349L7.02633 23.1395ZM7.17993 23.1241C7.13526 23.1297 7.08353 23.1344 7.00744 23.141L7.18051 25.1335C7.2486 25.1275 7.33912 25.1198 7.42804 25.1087L7.17993 23.1241ZM7.59121 23.0865C7.47032 23.0945 7.32845 23.1043 7.17182 23.1252L7.43615 25.1076C7.52074 25.0964 7.60391 25.0901 7.72423 25.082L7.59121 23.0865ZM8.7786 22.9896C8.36994 23.0147 7.97102 23.0479 7.55821 23.0892L7.75723 25.0793C8.14848 25.0402 8.52151 25.0091 8.90083 24.9859L8.7786 22.9896ZM10.1101 22.9123C9.67504 22.9352 9.22366 22.9589 8.77091 22.9901L8.90852 24.9854C9.34231 24.9555 9.77744 24.9326 10.2151 24.9095L10.1101 22.9123ZM10.1626 22.9109H10.1626V24.9109H10.1626V22.9109ZM10.1782 22.9087L10.1101 22.9123L10.2152 24.9095L10.2833 24.906L10.1782 22.9087ZM10.3192 22.9073H10.2307V24.9073H10.3192V22.9073ZM10.5359 22.8997C10.4577 22.9016 10.3635 22.9039 10.2693 22.9086L10.3691 24.9061C10.4338 24.9029 10.5024 24.9011 10.5852 24.8991L10.5359 22.8997ZM10.5381 22.8996L10.5378 22.8996L10.5832 24.8991L10.5835 24.8991L10.5381 22.8996ZM10.749 22.8927C10.6883 22.8959 10.6213 22.8976 10.5361 22.8997L10.5854 24.8991C10.6649 24.8971 10.7605 24.8948 10.8542 24.8899L10.749 22.8927ZM10.829 22.8905L10.782 22.8915L10.8212 24.8911L10.8682 24.8902L10.829 22.8905ZM10.8487 22.8904H10.8486V24.8904H10.8487V22.8904ZM11.9997 22.8752C11.6093 22.8752 11.2205 22.8829 10.8291 22.8905L10.8683 24.8902C11.2633 24.8824 11.6323 24.8752 11.9997 24.8752V22.8752ZM12.0238 22.8752H11.9997V24.8752H12.0238V22.8752ZM12.08 22.8752H12.0238V24.8752H12.08V22.8752ZM13.4672 22.9C13.0125 22.8834 12.55 22.8752 12.08 22.8752V24.8752C12.5267 24.8752 12.9649 24.883 13.3946 24.8986L13.4672 22.9ZM13.4469 22.8993H13.4309V24.8993H13.4469V22.8993ZM14.8716 22.9744C14.4229 22.9412 13.9516 22.9164 13.482 22.8999L13.4119 24.8987C13.8589 24.9144 14.3042 24.9379 14.7239 24.9689L14.8716 22.9744ZM14.8139 22.9717H14.7978V24.9717H14.8139V22.9717ZM14.8139 22.9717H14.8139V24.9717H14.8139V22.9717ZM14.8139 22.9717H14.8139V24.9717H14.8139V22.9717ZM16.237 23.0906C15.7874 23.0397 15.3248 23.0062 14.8864 22.9743L14.7414 24.969C15.1874 25.0015 15.6093 25.0323 16.012 25.0779L16.237 23.0906ZM17.2763 23.2169C16.9443 23.1735 16.5892 23.127 16.2274 23.0896L16.0216 25.0789C16.3523 25.1132 16.6809 25.1561 17.0171 25.2L17.2763 23.2169ZM17.6176 23.2611C17.5057 23.2469 17.3925 23.2321 17.2763 23.2169L17.0171 25.2C17.1326 25.2151 17.2493 25.2304 17.3651 25.2451L17.6176 23.2611ZM18.2108 23.3562C18.0299 23.326 17.8369 23.2938 17.6397 23.2642L17.343 25.242C17.5211 25.2688 17.6979 25.2983 17.8813 25.3289L18.2108 23.3562ZM18.2199 23.3578L18.2198 23.3578L17.8723 25.3273L17.8724 25.3274L18.2199 23.3578ZM18.2251 23.3587L18.225 23.3587L17.8673 25.3265L17.8673 25.3265L18.2251 23.3587ZM18.5881 23.4181C18.466 23.3988 18.3418 23.3781 18.211 23.3563L17.8815 25.3289C18.0107 25.3505 18.1438 25.3727 18.2761 25.3937L18.5881 23.4181ZM22.2102 24.3838C21.1196 23.9834 19.9144 23.6643 18.6149 23.4227L18.2493 25.389C19.4585 25.6138 20.5529 25.9059 21.5208 26.2613L22.2102 24.3838ZM22.4252 24.4844L22.3126 24.4281L21.4183 26.217L21.5309 26.2733L22.4252 24.4844ZM38.815 26.9211C32.3361 27.8153 27.0069 26.9982 22.4592 24.5022L21.4969 26.2555C26.5014 29.0022 32.2842 29.8415 39.0884 28.9023L38.815 26.9211ZM39.4095 26.8133C39.2062 26.8569 39.0022 26.8933 38.8051 26.9225L39.0982 28.9009C39.3354 28.8658 39.5815 28.8218 39.8285 28.7689L39.4095 26.8133ZM39.8669 26.709C39.7382 26.7458 39.5855 26.7795 39.4319 26.8088L39.8061 28.7734C39.9902 28.7384 40.2075 28.6917 40.4164 28.632L39.8669 26.709ZM40.2109 26.6069C40.0958 26.6475 40.0034 26.6757 39.9126 26.6971L40.3707 28.6439C40.5533 28.6009 40.7182 28.5487 40.8765 28.4929L40.2109 26.6069ZM42.0389 25.862C41.4765 26.1721 40.8888 26.4154 40.2749 26.5867L40.8125 28.5131C41.5816 28.2984 42.3125 27.995 43.0045 27.6135L42.0389 25.862ZM44.6288 23.7841C43.9166 24.6258 43.0439 25.3264 42.0514 25.8552L42.992 27.6203C44.2026 26.9752 45.2757 26.1158 46.1556 25.0759L44.6288 23.7841ZM44.9352 23.4129C44.8276 23.5536 44.7524 23.6507 44.664 23.7447L46.1204 25.1154C46.289 24.9362 46.4227 24.7602 46.5239 24.6278L44.9352 23.4129ZM44.9373 23.4102L44.9369 23.4107L46.5222 24.6301L46.5225 24.6296L44.9373 23.4102ZM45.2114 23.0391C45.11 23.1913 45.049 23.2801 44.98 23.3583L46.4797 24.6815C46.652 24.4863 46.784 24.2857 46.8755 24.1484L45.2114 23.0391ZM45.1954 23.1018C45.2123 23.0594 45.2296 23.0266 45.2421 23.005C45.2546 22.9832 45.265 22.9677 45.2704 22.9601C45.2757 22.9525 45.2787 22.9487 45.2769 22.9511C45.2746 22.954 45.2715 22.958 45.2626 22.9691L46.8244 24.2184C46.8286 24.2131 46.9699 24.0506 47.0524 23.8445L45.1954 23.1018ZM45.6479 22.4047L45.3021 22.9033L46.9456 24.043L47.2913 23.5445L45.6479 22.4047ZM48.0467 22.7851L47.0019 22.1281L45.9373 23.8212L46.9821 24.4781L48.0467 22.7851ZM48.5144 23.6316V23.6167H46.5144V23.6316H48.5144ZM48.0467 22.7702L46.9854 22.1028L45.9208 23.7959L46.9821 24.4633L48.0467 22.7702ZM45.6313 22.3795L45.3288 22.8158L46.9722 23.9555L47.2748 23.5192L45.6313 22.3795ZM46.9754 23.951C47.3208 23.447 47.6008 22.9135 47.8407 22.3758L46.0142 21.5609C45.8088 22.0214 45.5849 22.4421 45.3256 22.8203L46.9754 23.951ZM47.8404 22.3765C49.3193 19.068 49.726 15.5184 49.1305 11.5594L47.1527 11.8569C47.699 15.4886 47.3177 18.645 46.0145 21.5603L47.8404 22.3765ZM49.1304 11.5588C48.8785 9.89088 48.3261 8.36438 47.4531 7.05933L45.7908 8.17135C46.4776 9.19816 46.9384 10.4377 47.1528 11.8575L49.1304 11.5588ZM47.4553 7.06258C46.573 5.73249 45.6311 4.98742 44.6406 4.704C43.649 4.42024 42.7943 4.65364 42.2141 4.8857L42.957 6.74264C43.3417 6.58873 43.7052 6.51658 44.0904 6.62683C44.4769 6.73742 45.0708 7.08591 45.7886 8.1681L47.4553 7.06258ZM42.2214 4.88284C41.2423 5.2657 40.1016 5.20789 39.1102 4.69927L38.1973 6.47877C39.6824 7.24063 41.4201 7.34363 42.9497 6.74549L42.2214 4.88284ZM39.1096 4.69897C33.9065 2.03405 28.8893 1.76813 23.8632 3.94791L24.659 5.78278C29.0886 3.8617 33.479 4.06214 38.1979 6.47907L39.1096 4.69897ZM23.8641 3.94755C22.6695 4.46431 21.3159 4.48544 20.1665 4.01912L19.4146 5.87238C21.0794 6.54787 22.9902 6.50469 24.6581 5.78315L23.8641 3.94755ZM20.1618 4.0172C16.6025 2.59427 13.4884 1.74076 10.8539 1.49751C8.22428 1.2547 5.97999 1.61243 4.26049 2.72259L5.3453 4.40283C6.55257 3.62338 8.29239 3.26949 10.67 3.48904C13.0428 3.70813 15.9591 4.49095 19.4193 5.87429L20.1618 4.0172ZM4.2592 2.72343C1.88184 4.26348 0.739 7.13426 0.571615 10.8755L2.56962 10.9648C2.72386 7.51747 3.7519 5.43503 5.34658 4.402L4.2592 2.72343ZM0.576299 11.0266C0.796881 13.0869 1.56897 15.8479 2.37573 18.3468C3.18918 20.8665 4.06513 23.2008 4.52584 24.4288L6.39838 23.7262C5.93781 22.4987 5.07667 20.2031 4.27901 17.7324C3.47466 15.2409 2.76165 12.651 2.56493 10.8137L0.576299 11.0266ZM4.52584 24.4288C4.5454 24.4809 4.56418 24.531 4.58218 24.579L6.45485 23.8767C6.43677 23.8285 6.41792 23.7783 6.39838 23.7262L4.52584 24.4288ZM4.56983 24.5441C4.57302 24.5536 4.5814 24.579 4.59095 24.6052C4.59926 24.628 4.61861 24.6801 4.64822 24.7394L6.4371 23.845C6.44921 23.8692 6.45737 23.8884 6.46166 23.8989C6.4662 23.9099 6.46912 23.9178 6.47023 23.9209C6.47141 23.9241 6.47181 23.9254 6.4711 23.9233C6.47033 23.921 6.46934 23.918 6.4672 23.9116L4.56983 24.5441ZM5.66672 25.2845C5.70726 25.2794 5.74765 25.2743 5.78766 25.2693L5.53884 23.2849C5.49871 23.2899 5.45871 23.2949 5.4186 23.2999L5.66672 25.2845ZM5.78767 25.2693C6.06909 25.234 6.33245 25.201 6.58809 25.1741L6.37871 23.1851C6.09987 23.2145 5.81648 23.25 5.53882 23.2849L5.78767 25.2693ZM6.37296 23.1857C6.03178 23.2236 5.68874 23.2684 5.3557 23.3119L5.61439 25.2951C5.95078 25.2512 6.2748 25.209 6.59383 25.1735L6.37296 23.1857ZM5.3557 23.3119C5.17634 23.3353 4.99974 23.3583 4.82358 23.3803L5.07166 25.3649C5.25401 25.3421 5.43591 25.3183 5.61439 25.2951L5.3557 23.3119ZM4.81098 23.382L4.11145 23.4785L4.38473 25.4597L5.08426 25.3632L4.81098 23.382ZM3.24913 24.5145L3.25022 24.5386L5.24815 24.4477L5.24706 24.4236L3.24913 24.5145ZM45.3288 22.8158L45.2856 22.878L46.9291 24.0178L46.9722 23.9555L45.3288 22.8158ZM46.9259 24.0223C46.9425 23.9986 46.959 23.9748 46.9753 23.951L45.3257 22.8203C45.3134 22.8381 45.3011 22.8559 45.2888 22.8735L46.9259 24.0223ZM48.531 24.1807V24.1412H46.531V24.1807H48.531ZM48.531 24.1968V24.1807H46.531V24.1968H48.531ZM48.257 24.8872L48.2969 24.8397L46.765 23.5539L46.7252 23.6014L48.257 24.8872ZM60.6175 72.3625C49.1469 63.5851 45.2381 48.9802 48.4825 24.375L46.4997 24.1136C43.226 48.9408 47.0585 64.5054 59.402 73.9508L60.6175 72.3625ZM60.8319 72.5572L60.6952 72.4285L59.3243 73.8848L59.461 74.0134L60.8319 72.5572ZM62.7533 78.3659C63.4754 76.59 62.5585 74.6309 60.9167 72.6476L59.3761 73.923C60.9827 75.8637 61.1594 76.9761 60.9006 77.6125L62.7533 78.3659ZM58.0023 80.9704C60.2425 80.7472 62.0679 80.0493 62.7531 78.3663L60.9007 77.6122C60.6693 78.1806 59.9218 78.7692 57.804 78.9803L58.0023 80.9704ZM47.8075 78.4106C50.8821 80.4006 54.4916 81.3154 58.0009 80.9705L57.8053 78.9801C54.7696 79.2785 51.609 78.4887 48.8943 76.7316L47.8075 78.4106ZM27.2432 52.0523C31.1848 61.163 38.9107 72.6414 47.8068 78.4101L48.895 76.7321C40.4557 71.2596 32.9366 60.1752 29.0788 51.2582L27.2432 52.0523ZM37.1969 74.6164C33.4869 69.3317 30.1365 59.7383 29.1539 51.5363L27.1681 51.7742C28.1795 60.2169 31.6155 70.1468 35.56 75.7656L37.1969 74.6164ZM39.5714 79.7157C39.083 77.8988 38.286 76.1858 37.2 74.6209L35.5569 75.7611C36.5133 77.1392 37.2119 78.6425 37.64 80.235L39.5714 79.7157ZM39.5789 79.7442L39.5739 79.7251L37.6376 80.2256L37.6425 80.2447L39.5789 79.7442ZM38.7113 84.6319C39.716 83.8704 39.9072 82.6879 39.8994 81.8255C39.8914 80.939 39.6728 80.1075 39.5788 79.7441L37.6425 80.2448C37.7386 80.6162 37.8939 81.2307 37.8995 81.8436C37.9053 82.4807 37.7498 82.8511 37.5032 83.038L38.7113 84.6319ZM36.7966 85.237C37.5133 85.237 38.1575 85.0473 38.7072 84.635L37.5072 83.035C37.3494 83.1534 37.1413 83.237 36.7966 83.237V85.237ZM31.5892 83.2917C33.6701 84.505 35.402 85.2472 36.8039 85.237L36.7893 83.2371C35.9881 83.2429 34.6806 82.779 32.5965 81.5639L31.5892 83.2917ZM3.28138 25.5236C4.47904 54.3416 13.6784 73.386 31.6089 83.3029L32.5768 81.5527C15.4986 72.1071 6.462 53.89 5.27966 25.4406L3.28138 25.5236ZM5.22532 25.1516L5.20927 25.1114L3.35176 25.8528L3.36781 25.893L5.22532 25.1516ZM4.89463 25.0862C4.92898 25.069 4.95395 25.0592 4.95635 25.0582C4.96566 25.0545 4.97254 25.052 4.97718 25.0504C4.98633 25.0473 4.99192 25.0458 4.99541 25.045C4.99888 25.0443 5.01494 25.0405 5.04417 25.0437C5.07975 25.0475 5.13169 25.0619 5.18004 25.0962C5.22925 25.1311 5.22769 25.1533 5.20425 25.1026L3.38888 25.942C3.71258 26.6421 4.27444 26.9722 4.82947 27.0321C5.28791 27.0816 5.65734 26.9409 5.78913 26.875L4.89463 25.0862ZM4.97286 25.0503C4.97703 25.0478 4.97731 25.0479 4.97268 25.0502C4.96815 25.0525 4.9601 25.0563 4.94796 25.0615L5.7358 26.8998C5.81973 26.8638 5.90783 26.8212 5.99399 26.77L4.97286 25.0503ZM5.79388 26.8631C5.80231 26.8594 5.80772 26.857 5.81268 26.8548C5.81734 26.8528 5.81983 26.8517 5.82101 26.8512C5.82339 26.8502 5.81796 26.8526 5.80768 26.8561L5.15917 24.9642C5.07879 24.9917 5.00889 25.0234 4.98324 25.0348L5.79388 26.8631ZM5.74406 26.8849C5.76383 26.8765 5.78212 26.8683 5.7939 26.8631L4.98322 25.0348C4.96995 25.0407 4.96273 25.0439 4.95611 25.0467L5.74406 26.8849ZM3.39714 25.9272C3.72082 26.6272 4.28266 26.9574 4.83769 27.0173C5.29614 27.0668 5.66557 26.9261 5.79733 26.8602L4.90283 25.0714C4.93717 25.0542 4.96213 25.0444 4.96454 25.0434C4.97384 25.0397 4.98072 25.0372 4.98537 25.0356C4.99452 25.0325 5.00011 25.031 5.00361 25.0302C5.00709 25.0295 5.02316 25.0257 5.0524 25.0289C5.08799 25.0327 5.13995 25.0471 5.1883 25.0814C5.23751 25.1163 5.23594 25.1385 5.2125 25.0878L3.39714 25.9272ZM3.36001 25.838L3.37606 25.8782L5.23357 25.1368L5.21753 25.0966L3.36001 25.838ZM3.29283 25.5573L3.29288 25.5578L5.28466 25.3767L5.28462 25.3762L3.29283 25.5573ZM3.29193 25.5474C3.29224 25.5508 3.29255 25.5542 3.29283 25.5573L5.28462 25.3763C5.28431 25.3729 5.28403 25.3698 5.28375 25.3667L3.29193 25.5474ZM5.19301 25.032L4.75928 24.1084L2.94894 24.9585L3.38267 25.8821L5.19301 25.032ZM3.93076 25.5305L4.03529 25.5224L3.882 23.5283L3.77746 23.5363L3.93076 25.5305ZM4.8945 24.173C4.40515 22.8733 3.53024 20.5272 2.72732 18.0099C1.91806 15.4727 1.20725 12.8381 1.01358 10.9393L-0.976097 11.1422C-0.759698 13.2639 0.00896612 16.0689 0.821901 18.6176C1.64118 21.1862 2.53119 23.5721 3.02279 24.8777L4.8945 24.173ZM1.0111 10.9174L1.0031 10.853L-0.981615 11.0998L-0.973615 11.1642L1.0111 10.9174ZM1.01074 10.9764V10.9202H-0.989258V10.9764H1.01074ZM1.00992 10.9607C1.17156 6.97349 2.43382 4.43988 4.50248 3.09928L3.4148 1.4209C0.594796 3.24841 -0.812368 6.53643 -0.988437 10.8796L1.00992 10.9607ZM4.50281 3.09906C7.45861 1.1819 12.3883 1.39568 19.9902 4.43497L20.7327 2.57789C13.0897 -0.477826 7.27708 -1.08422 3.41447 1.42111L4.50281 3.09906ZM19.9976 4.43788C21.274 4.9365 22.7462 4.91439 24.041 4.35102L23.243 2.51711C22.431 2.87041 21.5073 2.88046 20.7253 2.57498L19.9976 4.43788ZM24.0394 4.3517C28.8488 2.26881 33.8264 2.49503 38.9055 5.09606L39.8171 3.31591C34.2505 0.465212 28.6467 0.176821 23.2445 2.51643L24.0394 4.3517ZM38.9107 5.0987C39.9883 5.64265 41.2585 5.73985 42.3815 5.29711L41.6479 3.43649C41.0985 3.65311 40.4229 3.62166 39.812 3.31327L38.9107 5.0987ZM42.3836 5.29626C43.0243 5.04196 43.7557 4.92294 44.5109 5.13619C45.2566 5.34674 46.1637 5.92012 47.0931 7.31064L48.7559 6.19927C47.6269 4.51012 46.3591 3.57985 45.0544 3.21145C43.7593 2.84576 42.565 3.07249 41.6458 3.43734L42.3836 5.29626ZM47.0932 7.31077C47.9101 8.53251 48.4501 9.98146 48.6964 11.6307L50.6744 11.3353C50.39 9.43049 49.7561 7.69523 48.7558 6.19914L47.0932 7.31077ZM48.6966 11.6323C49.2903 15.565 48.8632 19.0052 47.4441 22.2154L49.2733 23.024C50.8614 19.4316 51.3187 15.6027 50.6742 11.3337L48.6966 11.6323ZM47.4803 22.1418L46.6525 23.6633L48.4094 24.6191L49.2371 23.0976L47.4803 22.1418ZM44.9709 25.6869C43.9597 26.6101 42.7844 27.3435 41.4957 27.8386L42.213 29.7056C43.7394 29.1191 45.1277 28.2518 46.3193 27.164L44.9709 25.6869ZM59.6062 73.554C44.9952 62.319 44.6798 43.1401 46.6383 26.5426L44.652 26.3083C42.6955 42.8893 42.8187 63.1684 58.3871 75.1394L59.6062 73.554ZM61.3095 77.7619C61.6686 76.8537 61.3077 75.6004 59.7719 73.7151L58.2213 74.9783C59.7249 76.824 59.364 77.2432 59.4496 77.0265L61.3095 77.7619ZM57.8419 79.4112C58.6372 79.3381 59.3437 79.1984 59.9082 78.978C60.4307 78.7739 61.0432 78.4175 61.3061 77.7706L59.4531 77.0178C59.5069 76.8855 59.5486 76.9713 59.1806 77.115C58.8546 77.2424 58.351 77.356 57.6588 77.4196L57.8419 79.4112ZM48.6668 77.0992C51.436 78.8967 54.7006 79.7236 57.8493 79.4105L57.6514 77.4203C54.9787 77.6861 52.1646 76.9853 49.7557 75.4216L48.6668 77.0992ZM28.3307 50.5986C32.7514 61.2724 41.064 72.1601 48.6665 77.099L49.756 75.4219C42.5799 70.7599 34.4897 60.2428 30.1784 49.8333L28.3307 50.5986ZM27.8248 50.3437C28.0593 50.2871 28.2464 50.3906 28.3276 50.5911L30.1815 49.8407C29.7159 48.6904 28.52 48.1184 27.3555 48.3995L27.8248 50.3437ZM27.5077 50.8079C27.4843 50.574 27.6107 50.3973 27.8327 50.3418L27.3476 48.4015C26.1545 48.6998 25.3963 49.7935 25.5176 51.0069L27.5077 50.8079ZM35.9188 75.5014C31.945 69.8331 28.3788 59.4165 27.5076 50.8068L25.5178 51.0081C26.4155 59.8793 30.0698 70.6424 34.2812 76.6495L35.9188 75.5014ZM38.068 80.1021C37.6283 78.464 36.9116 76.9086 35.9171 75.499L34.2829 76.652C35.1377 77.8637 35.7559 79.2031 36.1363 80.6205L38.068 80.1021ZM37.8067 83.3488C38.3514 82.8948 38.5526 81.9749 38.0703 80.1108L36.134 80.6118C36.3558 81.4686 36.3543 81.8789 36.337 82.0281C36.3237 82.1426 36.3185 81.9855 36.5262 81.8124L37.8067 83.3488ZM32.3672 81.9156C34.1367 82.9526 35.2955 83.4076 36.0758 83.5753C36.8712 83.7463 37.3951 83.6412 37.7399 83.3998L36.5929 81.7614C36.8574 81.5763 36.9632 81.7204 36.4962 81.62C36.0142 81.5164 35.0663 81.1793 33.3784 80.1901L32.3672 81.9156ZM4.866 25.9001C6.12233 53.8563 15.0477 72.3338 32.3887 81.9278L33.3569 80.1778C16.8677 71.0551 8.10402 53.404 6.86399 25.8103L4.866 25.9001ZM5.75616 24.861L5.74036 24.863L5.98963 26.8474L6.00542 26.8454L5.75616 24.861ZM5.79453 24.8562L5.75623 24.861L6.00535 26.8455L6.04365 26.8406L5.79453 24.8562ZM5.78253 24.8578L5.78245 24.8578L6.05573 26.8391L6.05581 26.839L5.78253 24.8578ZM6.19629 24.815C6.04429 24.8245 5.9045 24.8424 5.79437 24.8562L6.04397 26.8406C6.16278 26.8257 6.2415 26.8161 6.32105 26.8111L6.19629 24.815ZM6.13902 24.8202L6.13762 24.8204L6.37973 26.8057L6.38113 26.8055L6.13902 24.8202ZM7.37523 24.6811C6.95309 24.7225 6.54084 24.772 6.14093 24.82L6.37922 26.8058C6.78244 26.7574 7.17334 26.7105 7.57038 26.6716L7.37523 24.6811ZM7.32427 24.6882C7.3183 24.6892 7.33578 24.6861 7.35682 24.6835C7.38007 24.6806 7.42109 24.6763 7.47281 24.6763V26.6763C7.52988 26.6763 7.57626 26.6716 7.60487 26.6681C7.6195 26.6662 7.63154 26.6644 7.63932 26.6632C7.64656 26.6621 7.65293 26.661 7.6535 26.6609L7.32427 24.6882ZM7.96832 24.7819C7.79354 24.6945 7.62738 24.6728 7.50497 24.6728C7.44784 24.6728 7.40143 24.6775 7.37286 24.6811C7.35825 24.6829 7.34623 24.6847 7.33849 24.6859C7.33129 24.687 7.32494 24.6881 7.32444 24.6882L7.65333 26.6609C7.6734 26.6576 7.59649 26.6728 7.50497 26.6728C7.39327 26.6728 7.23784 26.6528 7.07377 26.5707L7.96832 24.7819ZM8.98541 24.5497C8.46853 24.5825 7.94614 24.6239 7.41231 24.6823L7.62978 26.6704C8.12515 26.6162 8.61591 26.5772 9.11214 26.5457L8.98541 24.5497ZM10.5447 24.4678C10.0278 24.4842 9.50516 24.509 8.97088 24.5507L9.12667 26.5447C9.62159 26.506 10.112 26.4825 10.6082 26.4668L10.5447 24.4678ZM17.8488 24.8829C15.6474 24.516 13.1758 24.3858 10.5453 24.4678L10.6076 26.4668C13.1391 26.3879 15.4759 26.515 17.5199 26.8557L17.8488 24.8829ZM18.0831 24.9222C18.005 24.9092 17.9286 24.8965 17.8521 24.8835L17.5166 26.8552C17.5971 26.8689 17.677 26.8822 17.7545 26.8951L18.0831 24.9222ZM18.0827 24.9222L18.0819 24.9221L17.7557 26.8953L17.7564 26.8954L18.0827 24.9222ZM18.1621 24.9386L18.1621 24.9386L17.677 26.8789L17.677 26.8789L18.1621 24.9386ZM19.0109 25.0942C18.6938 25.0237 18.3756 24.971 18.0838 24.9224L17.7553 26.8952C18.0565 26.9454 18.3212 26.9897 18.577 27.0465L19.0109 25.0942ZM21.6267 25.8295C20.8211 25.5382 19.9403 25.2933 19.0035 25.0926L18.5844 27.0482C19.4487 27.2334 20.2403 27.4549 20.9464 27.7103L21.6267 25.8295ZM22.2314 26.1419C22.0692 26.0561 21.9188 25.9766 21.7696 25.8943L20.8034 27.6455C20.9711 27.738 21.1375 27.8259 21.2972 27.9102L22.2314 26.1419ZM22.2287 26.1404L22.2283 26.1402L21.3003 27.9119L21.3007 27.9121L22.2287 26.1404ZM22.4647 26.2655C22.3855 26.2232 22.3073 26.182 22.2318 26.1421L21.2975 27.9104C21.3737 27.9506 21.4483 27.9901 21.5235 28.0302L22.4647 26.2655ZM23.8335 26.9034C23.3538 26.6989 22.8993 26.4938 22.4592 26.2626L21.5289 28.0331C22.0377 28.3004 22.548 28.5295 23.0493 28.7432L23.8335 26.9034ZM25.2633 27.4598C24.7827 27.2892 24.3035 27.1037 23.8335 26.9034L23.0493 28.7432C23.5602 28.961 24.0781 29.1614 24.5945 29.3446L25.2633 27.4598ZM29.8096 28.5626C28.2236 28.3305 26.716 27.9594 25.2541 27.4566L24.6037 29.3479C26.1811 29.8904 27.8094 30.2912 29.52 30.5415L29.8096 28.5626ZM31.4295 28.7406C30.8786 28.694 30.3398 28.6316 29.7942 28.5605L29.5355 30.5437C30.0995 30.6172 30.6702 30.6835 31.2611 30.7335L31.4295 28.7406ZM33.9424 28.8496C33.0802 28.8496 32.2484 28.8108 31.4307 28.7407L31.2599 30.7334C32.1306 30.808 33.0195 30.8496 33.9424 30.8496V28.8496ZM35.1751 28.8262C34.7614 28.8418 34.3478 28.8496 33.9424 28.8496V30.8496C34.3732 30.8496 34.8119 30.8413 35.2505 30.8247L35.1751 28.8262ZM39.0121 28.4736C37.6844 28.6621 36.4081 28.7793 35.1748 28.8262L35.2507 30.8247C36.5583 30.7751 37.9033 30.6511 39.2933 30.4537L39.0121 28.4736ZM39.1848 28.4636H39.1527V30.4636H39.1848V28.4636ZM39.5433 28.39C39.3939 28.4224 39.2222 28.4503 39.0555 28.472L39.3142 30.4552C39.5174 30.4287 39.7477 30.3922 39.9682 30.3443L39.5433 28.39ZM39.7638 28.3671H39.7557V30.3671H39.7638V28.3671ZM39.6603 28.3662C39.6233 28.3744 39.589 28.3819 39.5543 28.3893L39.9733 30.3449C40.0138 30.3363 40.0529 30.3277 40.0893 30.3197L39.6603 28.3662ZM39.9054 28.3142C39.8145 28.3323 39.7326 28.3503 39.6604 28.3662L40.0893 30.3197C40.1633 30.3034 40.2278 30.2893 40.2976 30.2753L39.9054 28.3142ZM39.9248 28.3097L39.8852 28.3184L40.3177 30.2711L40.3572 30.2623L39.9248 28.3097ZM39.9449 28.3054L39.9449 28.3054L40.3371 30.2666L40.3372 30.2666L39.9449 28.3054ZM40.2274 28.2335C40.1536 28.2581 40.0668 28.2783 39.9251 28.3096L40.357 30.2624C40.481 30.235 40.6706 30.194 40.8599 30.1309L40.2274 28.2335ZM40.4838 28.1641C40.4022 28.1884 40.3721 28.1967 40.3476 28.2016L40.7398 30.1628C40.8694 30.1368 40.9869 30.1011 41.0548 30.0809L40.4838 28.1641ZM40.6398 28.1195C40.5801 28.1354 40.5239 28.1522 40.4838 28.1641L41.0548 30.0809C41.0991 30.0677 41.1279 30.0592 41.1552 30.0519L40.6398 28.1195ZM41.0181 28.0107C40.9024 28.0533 40.7887 28.0867 40.6915 28.1071L41.1035 30.0642C41.3119 30.0204 41.5198 29.9573 41.7096 29.8873L41.0181 28.0107ZM41.1567 27.9627C41.1233 27.9714 40.9729 28.0078 40.8092 28.1169L41.9186 29.781C41.8631 29.818 41.8034 29.8485 41.7421 29.8718C41.6906 29.8913 41.646 29.902 41.6598 29.8984L41.1567 27.9627ZM41.0921 27.9819L41.0921 27.9819L41.7245 29.8793L41.7245 29.8792L41.0921 27.9819ZM41.1118 27.9762C41.1409 27.9665 41.1652 27.9605 41.1569 27.9627L41.6597 29.8984C41.6638 29.8974 41.701 29.888 41.7445 29.8735L41.1118 27.9762ZM41.4285 27.8673C41.3407 27.9086 41.2543 27.9385 41.1991 27.9515L41.6572 29.8983C41.8753 29.847 42.0945 29.7643 42.2801 29.6769L41.4285 27.8673ZM5.39802 24.9078L5.38638 24.9093L5.63543 26.8937L5.64707 26.8923L5.39802 24.9078ZM5.71661 26.8814L5.74388 26.8752L5.30121 24.9248L5.27393 24.931L5.71661 26.8814ZM5.22135 24.9443L5.20571 24.9491L5.78482 26.8634L5.80046 26.8587L5.22135 24.9443Z" fill="#A9A7AC" mask="url(#path-24-inside-1_188_2940)"/>
</svg>
