<svg width="24" height="100" viewBox="0 0 24 100" fill="none" xmlns="http://www.w3.org/2000/svg">
<g opacity="0.5">
<path d="M16.676 34.6815C13.6447 37.528 10.9672 38.0265 8.24146 36.2254C6.56902 35.1238 5.38707 33.3548 4.88855 31.2239C4.76795 30.7254 4.66341 30.2188 4.55084 29.7203C2.81407 21.7517 1.81706 14.0727 1.59996 6.85192C1.58388 4.5281 2.71759 3.12095 5.178 2.42139H19.5706C20.8008 2.42139 21.8381 3.41846 21.8622 4.64872C22.0632 14.0566 21.2109 22.0895 19.241 29.077L19.0802 29.6399C19.0319 29.7926 18.9917 29.9454 18.9435 30.0902C18.9274 30.1706 18.9033 30.2349 18.8792 30.3153C18.8309 30.4761 18.7746 30.653 18.7264 30.8138C18.646 31.0631 18.5736 31.3124 18.4852 31.5616C18.4208 31.7546 18.3565 31.9556 18.2922 32.1486C17.9464 33.1296 17.3836 34.0061 16.676 34.6815Z" fill="white"/>
<path d="M7.38118 37.5284C8.69983 38.4049 10.0426 38.8391 11.4095 38.8391C11.8035 38.8391 12.1894 38.7989 12.5834 38.7265C12.8487 38.6783 13.1061 38.6139 13.3714 38.5416C13.6287 38.4612 13.894 38.3727 14.1594 38.2602C14.4247 38.1395 14.682 38.0189 14.9554 37.8742C15.3574 37.6651 15.7434 37.4159 16.1454 37.1344C16.5474 36.853 16.9414 36.5314 17.3515 36.1856C17.4882 36.065 17.6168 35.9444 17.7535 35.8157C17.9787 35.6066 18.1877 35.3815 18.3887 35.1403C18.4611 35.0518 18.5254 34.9714 18.5978 34.8749C18.6219 34.8428 18.6541 34.8026 18.6782 34.7704C18.8149 34.5855 18.9355 34.3925 19.0561 34.1995C18.8953 67.3441 16.5394 89.3119 12.4146 96.2432C11.3612 97.7629 10.7984 97.8433 10.6456 97.8272C10.509 97.8111 10.1069 97.6664 9.59234 96.5407C9.05362 95.3667 8.80434 94.048 8.84454 92.6167C9.22245 78.8587 7.30075 57.1241 5.14587 35.3895C5.16196 35.4137 5.18609 35.4378 5.21021 35.4619C5.33886 35.6308 5.46751 35.7996 5.61224 35.9605C5.6444 36.0007 5.67656 36.0328 5.70872 36.073C5.84541 36.2258 5.99819 36.3786 6.14292 36.5233C6.21529 36.5876 6.27961 36.652 6.34394 36.7002C6.48063 36.8369 6.62536 36.9495 6.77009 37.0701C6.95502 37.2309 7.16408 37.3917 7.38118 37.5284Z" fill="white"/>
<path d="M14.9556 37.8825C15.3496 37.6735 15.7436 37.4242 16.1456 37.1428C15.7436 37.4162 15.3576 37.6735 14.9556 37.8825Z" fill="#534F59"/>
<path d="M13.3716 38.5412C13.6289 38.4608 13.8943 38.3724 14.1596 38.2598C13.8943 38.3724 13.6289 38.4689 13.3716 38.5412Z" fill="#534F59"/>
<path d="M6.74585 37.0699C6.94686 37.2307 7.15593 37.3835 7.38106 37.5282C7.16397 37.3915 6.9549 37.2307 6.74585 37.0699Z" fill="#534F59"/>
<path d="M5.11414 35.3896C4.294 34.2961 3.69095 33.0015 3.36932 31.5702C3.23263 30.9912 3.11204 30.4123 2.98339 29.8414L2.97534 29.7851L4.54324 29.7127C4.65581 30.2113 4.76035 30.7178 4.88095 31.2164C5.37143 33.3392 6.56145 35.1162 8.23389 36.2178C10.9596 38.011 13.6371 37.5205 16.6684 34.674C17.376 33.9985 17.9389 33.1301 18.2766 32.1411C18.3489 31.9481 18.4132 31.7471 18.4695 31.5541C18.558 31.3129 18.6303 31.0636 18.7108 30.8063L18.8635 30.3078C18.8876 30.2274 18.9118 30.163 18.9278 30.0826C19.0404 29.7449 19.1369 29.4072 19.2253 29.0695H20.5922L20.6003 29.8494C20.6003 29.8896 20.6003 29.9379 20.6003 29.9781C20.3349 30.8867 20.0535 31.7793 19.748 32.6557C19.563 33.2025 19.3218 33.7171 19.0324 34.1996C18.9118 34.3925 18.7912 34.5855 18.6545 34.7705C18.6303 34.8107 18.5982 34.8428 18.5741 34.875C18.5017 34.9715 18.4374 35.0519 18.365 35.1403C18.172 35.3816 17.9549 35.6067 17.7298 35.8158C17.5931 35.9444 17.4645 36.0651 17.3278 36.1857C16.9257 36.5395 16.5237 36.8531 16.1217 37.1345C15.7197 37.4159 15.3257 37.6652 14.9317 37.8743C14.6583 38.0109 14.401 38.1396 14.1357 38.2602C13.8703 38.3728 13.605 38.4612 13.3477 38.5416C13.0823 38.6221 12.825 38.6784 12.5597 38.7266C12.1657 38.799 11.7798 38.8392 11.3858 38.8392C10.0189 38.8392 8.6761 38.405 7.35744 37.5285C7.14035 37.3838 6.93131 37.231 6.72225 37.0702C6.57752 36.9495 6.43279 36.837 6.2961 36.7003C6.23178 36.644 6.15941 36.5797 6.09509 36.5234C5.95036 36.3786 5.79758 36.2259 5.66089 36.0731C5.62873 36.0329 5.59657 36.0007 5.56441 35.9605C5.41968 35.8077 5.28299 35.6308 5.16238 35.462C5.15434 35.4379 5.13022 35.4137 5.11414 35.3896Z" fill="#534F59"/>
<path d="M7.25258 92.5688C7.66265 77.862 5.41127 53.9001 3.06342 30.6056L2.98303 29.8417C3.11168 30.4126 3.23227 30.9916 3.36896 31.5705C3.69059 33.0018 4.29364 34.2964 5.11378 35.3899C7.26865 57.1325 9.19036 78.8591 8.81245 92.6171C8.77225 94.0484 9.0215 95.3671 9.56022 96.541C10.0748 97.6668 10.4768 97.8115 10.6135 97.8276C10.7663 97.8437 11.3291 97.7633 12.3824 96.2435C16.5153 89.3203 18.8632 67.3525 19.024 34.1999C19.3134 33.7174 19.5547 33.2028 19.7396 32.656C20.0451 31.7796 20.3265 30.887 20.5919 29.9784C20.608 50.7642 19.7155 86.9804 13.7011 97.0878C12.6156 98.6478 11.6267 99.3875 10.6457 99.3875C10.5814 99.3875 10.5251 99.3795 10.4768 99.3795C9.53608 99.291 8.77223 98.5834 8.13702 97.1924C7.5179 95.8013 7.21237 94.2413 7.25258 92.5688Z" fill="#534F59"/>
<path d="M1.60018 6.85266C1.81727 14.0734 2.81429 21.7605 4.55106 29.721L2.98316 29.7934L2.99118 29.8497C1.24638 21.8731 0.257384 14.1458 0.048329 6.89287L0.0403051 6.87679C0.0161834 3.78104 1.63234 1.7708 4.86465 0.886304L5.06567 0.862183H19.5628C21.6373 0.862183 23.366 2.54273 23.4142 4.61729C23.6313 14.395 22.7147 22.7254 20.6 29.9783C20.6 29.9381 20.6 29.8899 20.6 29.8497L20.592 29.0697H19.2251C21.2031 22.0902 22.0554 14.0573 21.8463 4.64141C21.8222 3.41919 20.793 2.41408 19.5548 2.41408H5.16215C2.71781 3.11364 1.5841 4.52079 1.60018 6.85266Z" fill="#534F59"/>
</g>
</svg>
