<svg width="24" height="108" viewBox="0 0 24 108" fill="none" xmlns="http://www.w3.org/2000/svg">
<g opacity="0.5">
<path d="M9.58061 40.0537C10.1997 40.4316 10.7948 40.6969 11.3817 40.8577C11.8642 40.9944 12.3305 41.0668 12.7968 41.0668C13.2069 41.0668 13.5929 41.0105 13.9869 40.906C13.9949 40.906 14.011 40.898 14.019 40.898C14.4371 40.7773 14.8553 40.6004 15.2573 40.3431C15.5709 40.1662 15.8764 39.9411 16.1739 39.6677C16.2704 39.5873 16.3669 39.4988 16.4634 39.4023C16.4794 39.3863 16.5036 39.3621 16.5277 39.338C16.6402 39.2254 16.7528 39.1048 16.8734 38.9762C17.3237 38.4615 17.782 37.8504 18.2162 37.1348C18.3368 36.9579 18.4413 36.773 18.5539 36.58C18.6665 36.395 18.771 36.186 18.8836 35.985C18.9881 35.8 19.0846 35.599 19.1891 35.406C19.3097 35.1728 19.4223 34.9236 19.5429 34.6743C19.2213 60.9841 18.6504 89.6661 13.9064 102.861C12.3144 106.287 11.5586 106.254 11.5586 106.254C11.4702 106.246 11.0762 105.933 10.6581 104.526C10.3284 103.424 10.1756 102.21 10.1917 100.875C10.3284 83.0323 7.73933 58.2985 4.9975 35.599C5.04574 35.6714 5.09398 35.7357 5.14222 35.8081L5.5523 36.379C5.68899 36.5639 5.84177 36.7569 5.9865 36.9338C6.11515 37.0785 6.23574 37.2313 6.37243 37.368C6.50108 37.5047 6.6217 37.6414 6.75839 37.7781C6.88704 37.9148 7.01568 38.0434 7.16041 38.1721C7.26494 38.2766 7.36946 38.3731 7.47398 38.4696C7.64284 38.6143 7.81975 38.7671 7.99664 38.9118C8.32631 39.1772 8.65595 39.4265 8.9615 39.6436C9.16251 39.7963 9.37156 39.9411 9.58061 40.0537Z" fill="white"/>
<path d="M22.0755 4.09463C22.5178 15.8504 21.7941 24.406 19.8965 29.5522C19.8403 29.6969 19.784 29.8577 19.7438 29.9944C19.5347 30.5894 19.3257 31.1443 19.1086 31.683C19.0282 31.884 18.9558 32.085 18.8673 32.278C18.7709 32.5112 18.6824 32.7364 18.5779 32.9535C18.1678 33.9184 17.7497 34.7787 17.3316 35.5346C17.219 35.7356 17.1065 35.9447 16.9859 36.1296C16.8572 36.3387 16.7366 36.5397 16.608 36.7246C16.4793 36.9096 16.3587 37.0945 16.23 37.2634C16.0773 37.4644 15.9245 37.6654 15.7717 37.8423C15.6672 37.9549 15.5707 38.0594 15.4742 38.164C15.3697 38.2685 15.2813 38.3569 15.1767 38.4534C15.1446 38.4856 15.1124 38.5097 15.0802 38.5419C14.9516 38.6464 14.839 38.7429 14.7104 38.8314C14.5978 38.9118 14.4933 38.9761 14.3807 39.0485C14.236 39.1369 14.0913 39.2093 13.9465 39.2656C13.8179 39.3218 13.6892 39.3621 13.5606 39.4023C13.44 39.4344 13.3194 39.4585 13.1907 39.4827C13.1907 39.4827 13.1826 39.4907 13.1746 39.4827C13.046 39.4988 12.9173 39.5068 12.7806 39.5068L11.0037 39.0645C10.3604 38.767 9.69305 38.3248 8.96135 37.7298C8.36635 37.2473 7.82763 36.7166 7.32912 36.1376C7.23263 36.0251 7.14419 35.9206 7.05574 35.808C6.93513 35.6713 6.83059 35.5266 6.71803 35.3818C6.50093 35.0923 6.29993 34.7948 6.09891 34.4812C6.00242 34.3284 5.90593 34.1676 5.81749 34.0149C5.63255 33.6932 5.45567 33.3716 5.3029 33.0419C5.21446 32.8811 5.15012 32.7042 5.06972 32.5353C4.85262 32.0207 4.65964 31.49 4.48275 30.9513C4.42646 30.7663 4.37018 30.5814 4.32997 30.3964C4.19328 29.914 4.08876 29.4235 4.00836 28.9089C3.04349 22.9827 1.97409 15.1107 2.22335 6.81245C2.62538 4.78614 3.50985 3.42723 4.92499 2.64727C5.17425 2.51057 5.47176 2.43821 5.78534 2.43821H20.3468C21.2876 2.43017 22.0434 3.16189 22.0755 4.09463Z" fill="white"/>
<path d="M18.8759 35.9851C18.9804 35.8002 19.0768 35.5991 19.1814 35.4062C19.0768 35.6072 18.9723 35.8002 18.8759 35.9851Z" fill="#534F59"/>
<path d="M18.8672 32.2787C18.9557 32.0858 19.0281 31.8847 19.1085 31.6837C19.0281 31.8928 18.9477 32.0858 18.8672 32.2787Z" fill="#534F59"/>
<path d="M18.5459 36.5794C18.6585 36.3945 18.763 36.1854 18.8756 35.9844C18.763 36.1934 18.6585 36.3945 18.5459 36.5794Z" fill="#534F59"/>
<path d="M18.5781 32.962C18.6827 32.7449 18.7711 32.5197 18.8676 32.2866C18.7711 32.5117 18.6746 32.7368 18.5781 32.962Z" fill="#534F59"/>
<path d="M18.2083 37.1341C18.3289 36.9572 18.4334 36.7643 18.546 36.5793C18.4334 36.7723 18.3289 36.9572 18.2083 37.1341Z" fill="#534F59"/>
<path d="M16.9861 36.1371C17.1067 35.9522 17.2193 35.7431 17.3318 35.5421C17.2193 35.7431 17.0987 35.9441 16.9861 36.1371Z" fill="#534F59"/>
<path d="M16.6081 36.7331C16.7367 36.5481 16.8574 36.3471 16.986 36.138C16.8574 36.3391 16.7367 36.5401 16.6081 36.7331Z" fill="#534F59"/>
<path d="M16.5197 39.3378C16.6322 39.2172 16.7448 39.1046 16.8654 38.9759C16.7528 39.1046 16.6322 39.2252 16.5197 39.3378Z" fill="#534F59"/>
<path d="M16.6082 36.732C16.4795 36.9169 16.3589 37.1019 16.2303 37.2707C16.3589 37.0938 16.4876 36.9169 16.6082 36.732Z" fill="#534F59"/>
<path d="M16.1742 39.6678C16.2787 39.5793 16.3672 39.4989 16.4637 39.4024C16.3672 39.4909 16.2626 39.5874 16.1742 39.6678Z" fill="#534F59"/>
<path d="M15.4741 38.1638C15.5705 38.0592 15.667 37.9547 15.7716 37.8421C15.6751 37.9547 15.5786 38.0673 15.4741 38.1638Z" fill="#534F59"/>
<path d="M15.1768 38.4527C15.2813 38.3563 15.3698 38.2678 15.4743 38.1633C15.3859 38.2678 15.2813 38.3643 15.1768 38.4527Z" fill="#534F59"/>
<path d="M14.7182 38.8311C14.6056 38.9196 14.5011 38.9839 14.3885 39.0482C14.5011 38.9759 14.6137 38.9115 14.7182 38.8311Z" fill="#534F59"/>
<path d="M14.0189 40.898C14.437 40.7693 14.8551 40.5924 15.2572 40.3431C14.8551 40.6004 14.437 40.7854 14.0189 40.898Z" fill="#534F59"/>
<path d="M13.569 39.4012C13.6976 39.361 13.8263 39.3208 13.9549 39.2645C13.8343 39.3208 13.7137 39.3691 13.5931 39.4012C13.4645 39.4414 13.3358 39.4656 13.1991 39.4816C13.3277 39.4575 13.4564 39.4334 13.569 39.4012Z" fill="#534F59"/>
<path d="M13.9869 40.9066C13.5929 41.0191 13.2069 41.0674 12.7968 41.0674C12.3385 41.0674 11.8641 40.995 11.3817 40.8583C12.2903 41.1156 13.1587 41.1317 13.9869 40.9066Z" fill="#534F59"/>
<path d="M11.02 39.0557L12.797 39.4979C12.9337 39.4979 13.0623 39.4899 13.191 39.4738C12.5236 39.5703 11.808 39.4336 11.02 39.0557Z" fill="#534F59"/>
<path d="M8.9455 39.6595C9.16259 39.7962 9.36359 39.9329 9.58068 40.0616C9.37163 39.9409 9.16259 39.7962 8.9455 39.6595Z" fill="#534F59"/>
<path d="M7.45789 38.4775C7.62674 38.6303 7.80363 38.783 7.98052 38.9197C7.80363 38.775 7.62674 38.6303 7.45789 38.4775Z" fill="#534F59"/>
<path d="M7.33698 36.1299C7.24049 36.0173 7.15204 35.9127 7.0636 35.8002C7.15204 35.9127 7.24853 36.0173 7.33698 36.1299Z" fill="#534F59"/>
<path d="M6.74988 37.7939C6.87853 37.9306 7.00718 38.0592 7.15191 38.1879C7.00718 38.0592 6.87049 37.9225 6.74988 37.7939Z" fill="#534F59"/>
<path d="M6.73413 35.3737C6.8467 35.5184 6.95121 35.6631 7.07182 35.7998C6.95121 35.6631 6.83866 35.5184 6.73413 35.3737Z" fill="#534F59"/>
<path d="M6.36475 37.3831C6.4934 37.5198 6.61401 37.6565 6.7507 37.7932C6.61401 37.6565 6.4934 37.5279 6.36475 37.3831Z" fill="#534F59"/>
<path d="M6.11505 34.4724C6.30803 34.7859 6.5171 35.0835 6.73419 35.3729C6.50906 35.0835 6.29998 34.7779 6.11505 34.4724Z" fill="#534F59"/>
<path d="M5.83356 34.0064C5.922 34.1592 6.01847 34.32 6.11496 34.4728C6.01043 34.32 5.922 34.1592 5.83356 34.0064Z" fill="#534F59"/>
<path d="M5.54395 36.3941C5.68064 36.5791 5.83341 36.7721 5.97814 36.949C5.83341 36.764 5.68868 36.5791 5.54395 36.3941Z" fill="#534F59"/>
<path d="M5.08569 32.519C5.1661 32.6879 5.23043 32.8648 5.31888 33.0256C5.23043 32.8648 5.15806 32.6959 5.08569 32.519Z" fill="#534F59"/>
<path d="M5.13391 35.8238C5.2706 36.0168 5.39926 36.2098 5.54399 36.3947L5.13391 35.8238Z" fill="#534F59"/>
<path d="M2.81836 30.742C3.29275 32.5914 4.08073 34.3122 5.126 35.8239C5.06972 35.7515 5.02148 35.6872 4.98128 35.6148C7.72311 58.3143 10.3122 83.0481 10.1755 100.891C10.1594 102.218 10.3122 103.44 10.6418 104.542C11.0519 105.949 11.4539 106.262 11.5424 106.27C11.5424 106.27 12.2982 106.302 13.8902 102.877C18.6342 89.6819 19.2051 61 19.5267 34.6901C20.0654 33.5483 20.5961 32.2376 21.1348 30.7581C20.8132 58.2098 20.4353 89.2879 15.3214 103.472C13.9224 106.504 12.7565 107.838 11.5424 107.838C11.5022 107.838 11.4539 107.838 11.4137 107.838C10.087 107.734 9.47594 106.158 9.13019 104.992C8.76033 103.754 8.58345 102.379 8.59954 100.899C8.76035 81.7777 5.76925 54.712 2.81836 30.742Z" fill="#534F59"/>
<path d="M4.49908 30.9351C4.66794 31.4738 4.86894 32.0045 5.08603 32.5191C4.86089 32.0045 4.6599 31.4819 4.49908 30.9351Z" fill="#534F59"/>
<path d="M4.34637 30.3795C4.39462 30.5645 4.4509 30.7494 4.49915 30.9344C4.43482 30.7494 4.38658 30.5645 4.34637 30.3795Z" fill="#534F59"/>
<path d="M5.13402 35.8243C4.08875 34.3126 3.30078 32.5918 2.82638 30.7424C2.82638 30.7183 2.81836 30.7022 2.81836 30.6781L4.34606 30.3806C4.39431 30.5655 4.44255 30.7504 4.49884 30.9354C4.65965 31.4822 4.86065 32.0048 5.08578 32.5194C5.15815 32.6883 5.23052 32.8652 5.31897 33.026C5.47174 33.3637 5.64864 33.6854 5.83358 33.999C5.92202 34.1518 6.01045 34.3126 6.11498 34.4654C6.29991 34.7709 6.51702 35.0765 6.73412 35.3659C6.84668 35.5107 6.9512 35.6554 7.07181 35.7921C7.16025 35.9047 7.2487 36.0092 7.34518 36.1218C7.8437 36.7007 8.38242 37.2314 8.97742 37.7139C9.70911 38.3089 10.3845 38.7512 11.0197 39.0487C11.8077 39.4266 12.5233 39.5633 13.1907 39.4668C13.1987 39.4748 13.2068 39.4668 13.2068 39.4668C13.3435 39.4507 13.4721 39.4266 13.6008 39.3864C13.7214 39.3542 13.842 39.306 13.9626 39.2497C14.1073 39.1934 14.2521 39.113 14.3968 39.0326C14.5094 38.9683 14.6139 38.8959 14.7265 38.8155C14.8551 38.727 14.9677 38.6305 15.0963 38.526C15.1285 38.4938 15.1606 38.4697 15.1928 38.4376C15.2973 38.3411 15.3938 38.2526 15.4903 38.1481C15.5948 38.0436 15.6833 37.939 15.7878 37.8265C15.9406 37.6496 16.0933 37.4485 16.2461 37.2475C16.3748 37.0786 16.4954 36.8937 16.624 36.7088C16.7527 36.5238 16.8733 36.3148 17.0019 36.1137C17.1225 35.9208 17.2351 35.7197 17.3477 35.5187C17.7658 34.7629 18.1839 33.9025 18.594 32.9376C18.6985 32.7205 18.7869 32.4953 18.8834 32.2621C18.9638 32.0692 19.0442 31.8681 19.1246 31.6671C19.3337 31.1284 19.5427 30.5736 19.7598 29.9785L21.2152 25.9902L21.1589 30.5736C21.1589 30.6218 21.1589 30.6781 21.1589 30.7183C20.6202 32.2059 20.0895 33.5165 19.5508 34.6503C19.4302 34.8996 19.3176 35.1488 19.197 35.382C19.0925 35.575 18.996 35.776 18.8915 35.961C18.7789 36.162 18.6744 36.363 18.5618 36.556C18.4492 36.7409 18.3447 36.9339 18.2241 37.1108C17.7899 37.8265 17.3316 38.4376 16.8813 38.9522C16.7607 39.0808 16.6481 39.1934 16.5356 39.314C16.5115 39.3382 16.4873 39.3623 16.4712 39.3783C16.3748 39.4748 16.2863 39.5552 16.1818 39.6437C15.8843 39.9171 15.5787 40.1422 15.2652 40.3191C14.8551 40.5684 14.445 40.7453 14.0269 40.874C14.0189 40.874 14.0028 40.882 13.9948 40.882C13.1666 41.1071 12.2982 41.0911 11.3976 40.8338C10.8107 40.6729 10.2076 40.4076 9.59656 40.0297C9.3875 39.901 9.18648 39.7724 8.96135 39.6276C8.64776 39.4105 8.31812 39.1612 7.99649 38.8959C7.8196 38.7592 7.64269 38.6064 7.47384 38.4536C7.36931 38.3572 7.26479 38.2607 7.16027 38.1561C7.02358 38.0275 6.88689 37.8988 6.75824 37.7621C6.62155 37.6254 6.50093 37.4887 6.37228 37.352C6.23559 37.2153 6.115 37.0626 5.98635 36.9178C5.84162 36.7409 5.68884 36.5479 5.55215 36.363C5.39938 36.2102 5.26267 36.0172 5.13402 35.8243Z" fill="#534F59"/>
<path d="M0.687489 6.55515C1.16992 4.05443 2.34385 2.27738 4.18514 1.27226C4.65954 1.00691 5.21434 0.862183 5.79326 0.862183H20.3467C22.1156 0.862183 23.5629 2.25326 23.6353 4.0303C24.0856 15.9952 23.3298 24.7517 21.3679 30.0748C21.2874 30.3 21.2151 30.5171 21.1347 30.7422C21.1347 30.694 21.1347 30.6377 21.1347 30.5975L21.191 26.0141L19.7356 30.0024C19.7839 29.8658 19.8401 29.7049 19.8884 29.5602C21.786 24.414 22.5096 15.8585 22.0674 4.10267C22.0352 3.16188 21.2794 2.43016 20.3387 2.43016H5.78524C5.47165 2.43016 5.17415 2.51057 4.92489 2.63923C3.50975 3.4192 2.62527 4.77811 2.22324 6.80441C1.97398 15.1026 3.04338 22.9747 4.00825 28.9008C4.08866 29.4074 4.19318 29.8979 4.32987 30.3884L2.80216 30.6859C2.80216 30.71 2.81021 30.7261 2.81021 30.7502C2.67352 30.2276 2.55292 29.6969 2.46447 29.1581C1.49156 23.1435 0.406069 15.1589 0.663368 6.69184L0.687489 6.55515Z" fill="#534F59"/>
</g>
</svg>
