<svg width="34" height="120" viewBox="0 0 34 120" fill="none" xmlns="http://www.w3.org/2000/svg">
<g opacity="0.5">
<path d="M22.1226 43.545C22.2914 43.4083 22.4683 43.2635 22.6291 43.1268C22.4683 43.2796 22.2914 43.4243 22.1226 43.545Z" fill="#534F59"/>
<path d="M21.9539 45.5792C22.171 45.4425 22.38 45.2978 22.5971 45.153C22.388 45.3058 22.171 45.4425 21.9539 45.5792Z" fill="#534F59"/>
<path d="M21.3345 45.9335C21.5436 45.8129 21.7446 45.7003 21.9537 45.5717C21.7446 45.7084 21.5436 45.829 21.3345 45.9335Z" fill="#534F59"/>
<path d="M21.5839 43.9385L21.0211 44.3084C21.214 44.1878 21.407 44.0672 21.5839 43.9385Z" fill="#534F59"/>
<path d="M20.6512 44.5179C20.7798 44.4536 20.9004 44.3812 21.021 44.3089C20.9085 44.3812 20.7798 44.4536 20.6512 44.5179Z" fill="#534F59"/>
<path d="M20.217 44.7519C20.3618 44.6795 20.5145 44.6071 20.6512 44.5187C20.5145 44.5991 20.3698 44.6795 20.217 44.7519Z" fill="#534F59"/>
<path d="M19.5822 45.0407C19.7349 44.9844 19.8877 44.912 20.0244 44.8477C19.8797 44.912 19.7349 44.9844 19.5822 45.0407Z" fill="#534F59"/>
<path d="M19.7187 46.6808C19.4936 46.7693 19.2765 46.8416 19.0433 46.914C19.2765 46.8416 19.5016 46.7612 19.7187 46.6808Z" fill="#534F59"/>
<path d="M19.2849 45.1615C19.3894 45.1213 19.4859 45.0811 19.5824 45.0329C19.494 45.0892 19.3894 45.1213 19.2849 45.1615Z" fill="#534F59"/>
<path d="M19.2841 45.1609C19.1394 45.2252 18.9866 45.2815 18.8419 45.3137C18.9947 45.2815 19.1394 45.2252 19.2841 45.1609Z" fill="#534F59"/>
<path d="M18.2152 47.1465C18.4966 47.0741 18.77 47.0017 19.0353 46.9133C18.77 46.9937 18.4966 47.0741 18.2152 47.1465Z" fill="#534F59"/>
<path d="M16.4219 47.4294C16.8079 47.4053 17.1938 47.349 17.5959 47.2847C17.1938 47.357 16.8079 47.4053 16.4219 47.4294Z" fill="#534F59"/>
<path d="M15.2404 47.4373C15.4093 47.4454 15.5862 47.4534 15.7631 47.4534C15.5942 47.4534 15.4173 47.4454 15.2404 47.4373Z" fill="#534F59"/>
<path d="M14.1707 47.3162C14.3395 47.3403 14.5244 47.3724 14.6933 47.3885C14.5164 47.3724 14.3475 47.3483 14.1707 47.3162Z" fill="#534F59"/>
<path d="M5.1332 40.3126C4.41759 39.1627 3.79042 37.9485 3.27583 36.7183C3.25975 36.6781 3.24367 36.6459 3.22758 36.6057C3.22758 36.5655 3.21954 36.5253 3.21954 36.4851L2.73712 31.4274L4.7151 36.1072C7.07099 41.6876 11.7667 47.1232 17.8453 45.6196L18.8424 45.314C18.9871 45.2738 19.1399 45.2175 19.2846 45.1612C19.3891 45.121 19.4856 45.0808 19.5821 45.0326C19.7268 44.9763 19.8796 44.9039 20.0244 44.8396L20.2093 44.7431C20.354 44.6707 20.5068 44.5984 20.6435 44.5099C20.7721 44.4456 20.8927 44.3732 21.0133 44.3009L21.5762 43.931C21.7611 43.8104 21.946 43.6817 22.1149 43.537C22.2837 43.4083 22.4606 43.2716 22.6215 43.1189C22.7823 42.9822 22.9511 42.8374 23.1119 42.6686C23.2325 42.5721 23.3451 42.4595 23.4577 42.3389C25.0819 40.6664 26.4809 38.3908 27.7031 35.4398L29.6168 30.8484L29.2067 35.8016C29.2067 35.8418 29.1986 35.882 29.1986 35.9222C28.6197 37.3214 27.9765 38.6964 27.2046 39.9668C27.0759 40.1759 26.9473 40.3849 26.8106 40.602C26.6739 40.8031 26.5453 41.0041 26.4086 41.2132C26.2719 41.3981 26.1432 41.5911 25.9985 41.776C25.894 41.9127 25.7975 42.0414 25.693 42.1781C25.5643 42.3389 25.4357 42.5077 25.2909 42.6605C25.1382 42.8374 24.9773 43.0304 24.8085 43.1993C24.6718 43.352 24.519 43.5129 24.3663 43.6576C24.3261 43.6978 24.2859 43.738 24.2457 43.7863C24.0849 43.931 23.916 44.0838 23.7552 44.2285C23.3773 44.5582 22.9913 44.8718 22.5732 45.1612C22.3642 45.306 22.1551 45.4507 21.93 45.5874C21.729 45.7161 21.5199 45.8286 21.3108 45.9492C21.2867 45.9653 21.2546 45.9814 21.2304 45.9975C21.0053 46.1181 20.7802 46.2307 20.547 46.3352C20.354 46.4317 20.145 46.5202 19.9359 46.6006C19.8555 46.6327 19.7751 46.6649 19.6947 46.6971C19.4776 46.7855 19.2525 46.8579 19.0193 46.9302C18.7539 47.0187 18.4806 47.0911 18.1991 47.1634L17.572 47.3001C17.1699 47.3725 16.784 47.4288 16.3981 47.4449L15.7387 47.469C15.5618 47.469 15.3849 47.4609 15.2161 47.4529C15.0392 47.4449 14.8462 47.4288 14.6693 47.4047C14.5005 47.3886 14.3156 47.3564 14.1467 47.3323C13.9939 47.3082 13.8411 47.276 13.6964 47.2358C13.5838 47.2117 13.4793 47.1875 13.3668 47.1554C12.6914 46.9865 12.0401 46.7453 11.4129 46.4317C11.2842 46.3754 11.1717 46.3111 11.043 46.2468C10.8098 46.1181 10.5767 45.9895 10.3435 45.8367C10.2229 45.7643 10.1184 45.6919 9.99776 45.6115C8.77559 44.7833 7.65794 43.7219 6.66895 42.5158C6.65287 42.4917 6.63678 42.4756 6.61266 42.4515C6.39557 42.1781 6.18653 41.9047 5.97747 41.6232C5.8649 41.4785 5.76036 41.3177 5.65583 41.173C5.54326 41.0202 5.43874 40.8594 5.33421 40.6985C5.28597 40.5618 5.2136 40.4412 5.1332 40.3126Z" fill="#534F59"/>
<path d="M3.66162 41.3255C3.58121 40.5455 3.51687 39.7575 3.4445 38.9775C3.3641 38.1815 3.30782 37.4015 3.22742 36.6135C3.2435 36.6537 3.25958 36.6859 3.27566 36.7261C3.79026 37.9483 4.41742 39.1705 5.13303 40.3204C5.16519 40.6098 5.18933 40.8993 5.22149 41.1968C5.55115 44.6705 5.8969 48.1281 6.25068 51.5937C8.36535 72.2669 10.5443 93.6316 6.67683 116.572C6.47582 117.819 6.67683 118.277 6.82156 118.349C7.78643 118.808 11.5414 116.162 13.0932 114.425C15.8994 111.281 18.0542 107.068 19.6784 101.568C24.4465 85.4058 25.54 67.9087 26.5933 50.9987C26.8265 47.3079 27.0597 43.5287 27.3331 39.7816C27.2929 39.854 27.2527 39.9183 27.2044 39.9827C27.9683 38.7122 28.6196 37.3372 29.1985 35.9381C28.7884 40.9395 28.4668 46.1018 28.1532 51.1032C27.0919 68.1017 25.9983 85.6791 21.174 102.01C19.4774 107.751 17.2261 112.15 14.2591 115.471C13.5596 116.259 9.64379 119.95 7.06276 119.95C6.7331 119.95 6.42758 119.893 6.1542 119.765C5.18129 119.298 4.83554 118.14 5.14108 116.323C8.97643 93.5914 6.79745 72.3312 4.69886 51.7706C4.34507 48.2809 3.99128 44.8152 3.66162 41.3255Z" fill="#534F59"/>
<path d="M9.30611 7.90804C7.15124 10.1515 4.46568 12.9417 2.84148 16.158C1.24141 19.3503 1.65952 22.8239 2.11784 26.5067L2.1902 27.0615C2.53594 29.908 3.38826 32.9555 4.71495 36.1156L2.73698 31.4358L3.21939 36.4935C3.21939 36.5337 3.22744 36.5739 3.22744 36.6141C1.86858 33.3575 0.99216 30.2216 0.638374 27.2545L0.566012 26.6997C0.11574 22.9606 -0.366706 19.0849 1.4585 15.4665C3.18723 12.0411 5.9532 9.14634 8.18044 6.83056C9.41065 5.55206 11.2037 4.28964 12.7877 3.17999C13.2943 2.82619 13.7767 2.48847 14.2269 2.15879C17.3788 -0.148949 19.3568 1.03306 21.8575 2.54475L22.5409 2.95485C28.7321 6.6215 32.1574 11.2611 32.7364 16.7611C33.0821 20.0739 33.3314 23.5878 32.2539 26.9409C32.0449 27.5922 31.8358 28.2676 31.6107 28.9592C30.9192 31.2026 30.1634 33.6148 29.2065 35.9306C29.2065 35.8904 29.2146 35.8502 29.2146 35.81L29.6247 30.8568L27.711 35.4482C26.4888 38.3992 25.0898 40.6828 23.4656 42.3473C23.353 42.4679 23.2404 42.5805 23.1198 42.6769C26.7944 39.1389 28.5955 33.3736 30.1151 28.4847C30.3322 27.8013 30.5413 27.1178 30.7584 26.4584C31.7474 23.3868 31.5062 20.0579 31.1765 16.9139C30.6458 11.8722 27.5582 7.73918 21.7368 4.28963L21.0373 3.87151C19.6302 3.02722 18.6412 2.42414 17.5959 2.42414C16.8643 2.42414 16.1004 2.71362 15.1436 3.40514C14.7013 3.74285 14.1948 4.08862 13.6802 4.45046C12.1605 5.5199 10.4318 6.73407 9.30611 7.90804Z" fill="#534F59"/>
</g>
</svg>
