<svg width="33" height="105" viewBox="0 0 33 105" fill="none" xmlns="http://www.w3.org/2000/svg">
<g opacity="0.5">
<path d="M8.1746 35.1433C8.31933 35.28 8.48819 35.4006 8.64096 35.5293C8.8661 35.6981 9.09121 35.867 9.32439 36.0198C9.96764 36.454 10.635 36.8158 11.3265 37.1214C11.6401 37.2581 11.9537 37.3787 12.2753 37.4913C13.5457 37.9174 14.8724 38.1426 16.2071 38.1426C18.8043 38.1426 21.4174 37.3063 23.6527 35.6338C24.0226 35.3524 24.3844 35.0549 24.7382 34.7332C24.7623 34.7171 24.7864 34.693 24.8105 34.6689C25.1402 34.3714 25.4618 34.0498 25.7674 33.7201C25.9362 33.5432 26.1051 33.3582 26.2579 33.1733C26.4187 32.9884 26.5875 32.7873 26.7323 32.5944C26.8931 32.4014 27.0458 32.2003 27.1906 31.9913C27.3353 31.7903 27.4881 31.5812 27.6248 31.3641C27.7052 31.2596 27.7695 31.155 27.8418 31.0424C25.3493 56.7975 21.2968 77.3018 15.4755 93.6329C14.6875 95.8442 13.6261 97.8303 12.3235 99.5591C10.2812 102.253 9.13143 102.502 8.63291 102.397C7.86906 102.261 7.14541 101.095 6.59865 99.1248C5.97148 96.8975 5.84284 94.5576 6.19662 92.1534C8.90629 74.0292 8.56056 53.758 5.17548 31.8305C5.4971 32.2888 5.8348 32.7391 6.18055 33.1492C6.36548 33.3743 6.55846 33.5914 6.75947 33.8085C6.77555 33.8246 6.79162 33.8407 6.79966 33.8568C6.97656 34.0498 7.16954 34.2427 7.36251 34.4196C7.55549 34.6126 7.76453 34.8056 7.98163 34.9825C7.98163 34.9905 7.98966 34.9986 7.9977 34.9986C8.06203 35.0468 8.11027 35.1031 8.1746 35.1433Z" fill="white"/>
<path d="M22.7202 34.3791C18.708 37.3783 13.562 37.3462 9.59801 34.2906C8.00597 33.0684 6.63102 31.42 5.51338 29.4017C5.24804 28.9193 4.9988 28.4208 4.77366 27.9142C4.59677 27.5121 4.41987 27.102 4.2671 26.6839C3.84095 25.5743 3.48716 24.3842 3.20574 23.1379C2.86803 21.6181 2.5223 20.0019 2.36149 18.45C2.27304 17.6781 2.24891 16.9946 2.27303 16.3674C2.40972 12.8133 5.01486 10.771 7.77278 8.61599L8.17481 8.29436C8.8663 7.75562 9.55779 7.18471 10.2412 6.62185C11.5519 5.55241 12.9107 4.44276 14.2857 3.46981C14.9852 2.97932 16.7782 1.91791 18.2979 2.69788C19.512 3.31703 20.7181 4.33019 21.884 5.30314C22.4629 5.79364 23.066 6.29217 23.6449 6.73442C23.9183 6.94349 24.1997 7.14451 24.4811 7.36161C27.1425 9.33968 29.9004 11.374 30.5115 14.4778C31.1869 17.9274 30.1417 21.7227 29.0321 24.9873C28.8632 25.5019 28.6703 25.9924 28.4692 26.4829C28.3165 26.8689 28.1476 27.2468 27.9707 27.6167C27.8903 27.7855 27.8179 27.9544 27.7295 28.1152C27.5446 28.5012 27.3435 28.863 27.1425 29.2248C27.0139 29.4339 26.8933 29.643 26.7646 29.852C26.636 30.0531 26.5073 30.2541 26.3706 30.4551C26.2339 30.6481 26.1053 30.8491 25.9686 31.0421C25.5746 31.5728 25.1726 32.0794 24.7465 32.5457C24.6902 32.602 24.6419 32.6503 24.6017 32.6985C24.465 32.8352 24.3364 32.9719 24.1997 33.1006C24.0469 33.2533 23.8861 33.4142 23.7253 33.5508C23.5725 33.6875 23.4198 33.8242 23.267 33.9529C23.0821 34.0976 22.9051 34.2424 22.7202 34.3791Z" fill="white"/>
<path d="M11.3265 37.1221C11.6401 37.2588 11.9537 37.3794 12.2753 37.492C11.9537 37.3794 11.6401 37.2507 11.3265 37.1221Z" fill="#534F59"/>
<path d="M4.66026 91.9362C7.53879 72.6943 6.94379 50.9919 2.8833 27.4481C3.02803 27.826 3.18883 28.1959 3.34964 28.5577C3.59086 29.1045 3.86426 29.6433 4.14568 30.1579C4.47534 30.7529 4.82107 31.3158 5.18289 31.8465C8.56798 53.774 8.91374 74.0452 6.20406 92.1694C5.84224 94.5736 5.97893 96.9135 6.60609 99.1408C7.15285 101.111 7.8765 102.269 8.64036 102.413C9.13887 102.518 10.2887 102.269 12.331 99.5751C13.6336 97.8463 14.6949 95.8602 15.4829 93.6489C21.3042 77.3098 25.3567 56.8055 27.8493 31.0585C27.7769 31.171 27.7126 31.2756 27.6322 31.3801C28.4363 30.19 29.1438 28.8794 29.7549 27.4561C27.2864 55.1088 23.1053 76.9319 16.9463 94.1796C16.102 96.5356 14.9683 98.6745 13.5692 100.524C11.8083 102.864 10.2404 104.014 8.83332 104.014C8.67251 104.014 8.50365 103.998 8.35088 103.965C6.90358 103.692 5.84223 102.253 5.09446 99.5751C4.41905 97.1145 4.27431 94.5495 4.66026 91.9362Z" fill="#534F59"/>
<path d="M3.3497 28.5495C3.18889 28.1877 3.02809 27.8178 2.88336 27.4398C2.88336 27.4157 2.87531 27.3996 2.87531 27.3755L2.72253 26.4589H4.18593L4.27436 26.6679C4.42713 27.086 4.60403 27.5042 4.78092 27.8982C5.00606 28.4047 5.25532 28.9033 5.52066 29.3857C6.6383 31.404 8.01323 33.0444 9.60527 34.2746C13.5693 37.3302 18.7152 37.3623 22.7275 34.3631C22.9044 34.2264 23.0893 34.0816 23.2662 33.9369C23.419 33.8082 23.5798 33.6796 23.7245 33.5349C23.8853 33.3982 24.0461 33.2373 24.1989 33.0846C24.3356 32.9559 24.4723 32.8192 24.6009 32.6825C24.6492 32.6262 24.6974 32.578 24.7457 32.5297C25.1718 32.0634 25.5899 31.5648 25.9678 31.0261C26.1045 30.8411 26.2493 30.6401 26.3699 30.4391C26.5066 30.2461 26.6352 30.0371 26.7639 29.836C26.9005 29.635 27.0212 29.4259 27.1418 29.2088C27.3428 28.847 27.5438 28.4852 27.7287 28.0992C27.8172 27.9384 27.8895 27.7695 27.9699 27.6007C28.1468 27.2308 28.3157 26.8529 28.4685 26.4669L30.2052 22.4786L29.7791 27.3032C29.7791 27.3434 29.771 27.3916 29.771 27.4318C29.16 28.8631 28.4524 30.1738 27.6483 31.3558C27.5116 31.5648 27.3589 31.7739 27.2141 31.983C27.0694 32.184 26.9086 32.385 26.7558 32.586C26.6031 32.779 26.4422 32.98 26.2814 33.165C26.1287 33.3499 25.9598 33.5349 25.791 33.7118C25.4774 34.0495 25.1557 34.3711 24.8341 34.6606C24.81 34.6847 24.7859 34.7008 24.7618 34.7249C24.408 35.0465 24.0461 35.3441 23.6763 35.6255C21.433 37.298 18.8278 38.1343 16.2307 38.1343C14.896 38.1343 13.5693 37.9171 12.2989 37.4829C11.9772 37.3704 11.6637 37.2498 11.3501 37.1131C10.6666 36.8075 9.99121 36.4457 9.34796 36.0115C9.11478 35.8587 8.88967 35.6898 8.66453 35.521C8.51176 35.3923 8.3429 35.2717 8.19816 35.135C8.13384 35.0948 8.07756 35.0385 8.02932 34.9983C8.02128 34.9983 8.01325 34.9903 8.01325 34.9822C7.80419 34.8053 7.60316 34.6123 7.39411 34.4194C7.20917 34.2425 7.01621 34.0495 6.83128 33.8565C6.82324 33.8404 6.80715 33.8243 6.79106 33.8082C6.59809 33.5992 6.39707 33.3821 6.21214 33.1489C5.85836 32.7388 5.53673 32.2885 5.20707 31.8302C4.84524 31.2995 4.49952 30.7366 4.16985 30.1416C3.86431 29.635 3.59092 29.0963 3.3497 28.5495Z" fill="#534F59"/>
<path d="M3.20518 23.1305C3.4866 24.3768 3.84039 25.5669 4.26654 26.6765L4.17808 26.4675H2.71469L2.86747 27.3841C2.86747 27.4082 2.87551 27.4243 2.87551 27.4484C2.39308 26.2101 1.99105 24.8834 1.66943 23.4843C1.31564 21.9163 0.96186 20.2518 0.793008 18.6195C0.720643 17.9682 0.688477 17.3732 0.688477 16.8184C0.688477 16.6495 0.688484 16.4726 0.696525 16.3118C0.865377 12.0421 3.87256 9.67803 6.78325 7.38637L7.18528 7.07278C7.86872 6.53404 8.55216 5.97922 9.23561 5.41635C10.5623 4.33083 11.9453 3.19706 13.3685 2.19999C15.3384 0.808911 17.3807 0.487275 18.9888 1.30745C20.3638 2.00701 21.6342 3.07644 22.8724 4.11372C23.4594 4.61225 24.0222 5.07059 24.569 5.48872C24.8424 5.69778 25.1158 5.89881 25.3972 6.10787C28.1712 8.1583 31.307 10.4821 32.0307 14.1729C32.7704 17.9843 31.6688 22.0369 30.5029 25.4865C30.2778 26.1619 30.0205 26.8132 29.7552 27.4484C29.7552 27.4082 29.7632 27.36 29.7632 27.3198L30.1894 22.4952L28.4526 26.4835C28.6536 25.993 28.8466 25.5025 29.0154 24.9879C30.125 21.7233 31.1703 17.928 30.4949 14.4785C29.8838 11.3747 27.1259 9.34032 24.4645 7.36225C24.183 7.15319 23.9016 6.95217 23.6282 6.73506C23.0413 6.30085 22.4382 5.79428 21.8674 5.30378C20.7015 4.33083 19.5034 3.30963 18.2813 2.69852C16.7616 1.91855 14.9686 2.97996 14.269 3.47045C12.8941 4.4434 11.5352 5.55305 10.2246 6.62249C9.54116 7.18535 8.84967 7.75626 8.15818 8.295L7.75615 8.61663C4.99823 10.7716 2.40113 12.814 2.2564 16.3681C2.23228 17.0033 2.25639 17.6787 2.34483 18.4507C2.51369 19.9945 2.86748 21.6107 3.20518 23.1305Z" fill="#534F59"/>
</g>
</svg>
