<svg width="34" height="106" viewBox="0 0 34 106" fill="none" xmlns="http://www.w3.org/2000/svg">
<g opacity="0.5">
<path d="M4.13837 31.9457C4.3233 32.2995 4.53235 32.6373 4.74945 32.983C4.86201 33.168 4.98263 33.3609 5.11128 33.5459C5.47311 34.0927 5.86708 34.6314 6.29324 35.1541C6.34952 35.2184 6.40581 35.2827 6.44601 35.339C6.5827 35.4998 6.72743 35.6687 6.87216 35.8215C7.10533 36.0788 7.34656 36.328 7.59582 36.5693C7.70839 36.6818 7.82095 36.7783 7.93352 36.8829C8.29535 37.2125 8.66522 37.5261 9.06724 37.8236C9.20393 37.9282 9.33258 38.0166 9.46927 38.1051C9.82306 38.3463 10.1849 38.5714 10.5628 38.7805C10.7718 38.9011 10.9809 39.0057 11.206 39.1182C11.2141 39.1182 11.2221 39.1263 11.2302 39.1263C11.4392 39.2308 11.6483 39.3193 11.8734 39.4077C11.9699 39.4479 12.0583 39.4881 12.1629 39.5283C12.3639 39.6087 12.5729 39.6811 12.79 39.7454C12.8302 39.7615 12.8624 39.7695 12.9026 39.7856C13.1599 39.866 13.4252 39.9384 13.6906 40.0027C13.9238 40.059 14.1569 40.1153 14.3901 40.1475C15.0655 40.2761 15.7248 40.3324 16.3842 40.3324C16.4083 40.3324 16.4244 40.3324 16.4485 40.3324C17.5018 40.3324 18.5229 40.1877 19.5039 39.9223C19.7853 39.85 20.0587 39.7695 20.3241 39.6731C21.2728 39.3514 22.1653 38.9252 23.0176 38.4267C23.2589 38.282 23.5001 38.1292 23.7252 37.9764C23.9584 37.8236 24.1835 37.6628 24.4006 37.494C24.4087 37.494 24.4087 37.494 24.4087 37.494C24.6257 37.3332 24.8428 37.1563 25.0599 36.9874C25.478 36.6336 25.8881 36.2718 26.2741 35.8858C26.5555 35.6044 26.8289 35.3149 27.0862 35.0174C27.3435 34.7199 27.5847 34.4223 27.8179 34.1248C27.9706 33.9158 28.1314 33.7067 28.2762 33.4896C28.4048 33.3207 28.5174 33.1438 28.638 32.975C28.6702 32.9267 28.6943 32.8865 28.7264 32.8383C27.4399 40.7505 26.7565 49.1292 26.7002 57.8053C26.0891 73.9113 23.1543 87.0019 17.743 97.7767C14.5992 103.341 13.1358 103.526 12.7659 103.454C12.4362 103.381 11.3266 102.77 10.7397 97.6078C10.6673 96.9484 10.6512 96.2489 10.6914 95.5091C11.3186 84.5574 10.5467 73.477 8.40791 62.5977C6.2852 50.866 4.88614 40.7747 4.13837 31.9457Z" fill="white"/>
<path d="M26.5552 33.1756C23.942 36.5769 19.2865 39.7611 14.036 38.4826C9.01061 37.2604 6.09188 32.7735 4.54005 29.2355C4.39532 28.9059 4.25863 28.5681 4.12194 28.2304C4.00937 27.9329 3.89681 27.6193 3.7762 27.2896C3.75208 27.2092 3.71991 27.1369 3.69579 27.0564C3.5591 26.6624 3.43045 26.2604 3.30985 25.8584C2.60228 23.4541 1.53288 19.8277 1.78214 17.0053C2.14397 12.9286 3.24552 10.1947 4.9662 9.10914C6.6306 8.06382 8.30304 7.02654 9.96744 5.98926C11.5193 5.02435 13.0791 4.05141 14.639 3.07846C17.5256 1.26121 21.1599 3.59307 24.0706 5.47464C24.6335 5.83649 25.1641 6.1742 25.7189 6.50388C27.8818 7.79043 30.3262 9.24583 31.1946 11.5053C32.1433 13.99 31.8137 16.7802 31.484 19.4899L31.4679 19.6427C31.1624 22.2239 30.6398 24.5959 29.9161 26.7187C29.8518 26.8876 29.7955 27.0645 29.7392 27.2253L29.7312 27.2333C29.297 28.4475 28.7824 29.5733 28.2115 30.6186C28.0105 30.9885 27.8095 31.3342 27.5843 31.68C27.2627 32.2107 26.917 32.7092 26.5552 33.1756Z" fill="white"/>
<path d="M14.3738 40.1471C15.0492 40.2758 15.7166 40.3321 16.3679 40.3321C15.7166 40.3401 15.0492 40.2758 14.3738 40.1471Z" fill="#534F59"/>
<path d="M12.8867 39.7866C13.144 39.867 13.4093 39.9394 13.6746 40.0037C13.4093 39.9394 13.144 39.859 12.8867 39.7866Z" fill="#534F59"/>
<path d="M12.155 39.5285C12.356 39.6089 12.5651 39.6813 12.7822 39.7456C12.5651 39.6813 12.356 39.6009 12.155 39.5285Z" fill="#534F59"/>
<path d="M11.2222 39.1266C11.4313 39.2311 11.6403 39.3196 11.8655 39.408C11.6484 39.3196 11.4313 39.2311 11.2222 39.1266Z" fill="#534F59"/>
<path d="M10.563 38.7799C10.772 38.9005 10.9811 39.005 11.2062 39.1176C10.9811 39.0131 10.772 38.9005 10.563 38.7799Z" fill="#534F59"/>
<path d="M6.85641 62.8879C4.37992 49.0977 2.88437 37.5832 2.2572 27.6768C2.5145 28.4246 2.80395 29.1643 3.11754 29.8639C3.41504 30.5393 3.75275 31.2389 4.13869 31.9385C4.87843 40.7674 6.28553 50.8587 8.38412 62.5984C10.5149 73.4778 11.2868 84.5582 10.6676 95.5099C10.6274 96.2497 10.6435 96.9572 10.7159 97.6086C11.3109 102.771 12.4205 103.39 12.7421 103.454C13.112 103.527 14.5673 103.342 17.7192 97.7774C23.1305 87.0026 26.0653 73.912 26.6764 57.8061C26.7408 49.1299 27.4162 40.7513 28.7026 32.839C29.7077 31.3032 30.56 29.5744 31.2435 27.6687C29.3218 37.0444 28.3167 47.2081 28.2363 57.8382C27.6091 74.1934 24.618 87.4931 19.0942 98.5092C16.5614 102.98 14.6316 105.022 12.8788 105.022C12.7341 105.022 12.5813 105.014 12.4366 104.982C10.7239 104.628 9.68669 102.345 9.17209 97.7774C9.08364 97.0457 9.05952 96.2496 9.10776 95.4214C9.72689 84.5984 8.96304 73.6547 6.85641 62.8879Z" fill="#534F59"/>
<path d="M3.11736 29.8639C2.80378 29.1643 2.51432 28.4245 2.25703 27.6767C2.25703 27.6365 2.24898 27.5883 2.24898 27.5481L1.8952 21.9516L3.69628 27.0576C3.72041 27.138 3.75257 27.2104 3.77669 27.2908C3.88926 27.6044 4.00182 27.918 4.12243 28.2315C4.25912 28.5773 4.39582 28.907 4.54055 29.2367C6.09238 32.7747 9.00306 37.2534 14.0365 38.4837C19.287 39.7542 23.9344 36.578 26.5556 33.1767C26.9175 32.7103 27.2552 32.2118 27.5848 31.6891C27.7939 31.3434 28.003 30.9976 28.212 30.6277C28.7909 29.5824 29.2975 28.4487 29.7317 27.2425C29.7317 27.2425 29.7397 27.2425 29.7397 27.2345C29.804 27.0737 29.8603 26.8967 29.9166 26.7279H31.4202L31.2353 27.6687C31.2353 27.6767 31.2353 27.6767 31.2353 27.6848C30.5599 29.5905 29.7076 31.3193 28.6944 32.8551C28.6623 32.9033 28.6381 32.9435 28.606 32.9918C28.4854 33.1606 28.3728 33.3375 28.2442 33.5064C28.0994 33.7154 27.9386 33.9245 27.7859 34.1416C27.5527 34.4391 27.3115 34.7366 27.0542 35.0342C26.7969 35.3317 26.5235 35.6211 26.2421 35.9026C25.8561 36.2885 25.4541 36.6504 25.0279 37.0042C24.8189 37.173 24.6018 37.3419 24.3767 37.5108C24.3767 37.5108 24.3767 37.5108 24.3686 37.5108C24.1515 37.6796 23.9264 37.8404 23.6932 37.9932C23.46 38.146 23.2268 38.3068 22.9856 38.4435C22.1333 38.942 21.2328 39.3762 20.292 39.6898C20.0187 39.7863 19.7453 39.8667 19.4719 39.9391C18.499 40.1964 17.4698 40.3492 16.4165 40.3492C16.3923 40.3492 16.3763 40.3492 16.3522 40.3492C15.7009 40.3492 15.0415 40.2849 14.3581 40.1643C14.1249 40.1241 13.8917 40.0678 13.6586 40.0195C13.3932 39.9552 13.1279 39.8828 12.8706 39.8024C12.8304 39.7863 12.7982 39.7783 12.758 39.7622C12.549 39.6979 12.3399 39.6255 12.1309 39.5451C12.0263 39.5049 11.9379 39.4647 11.8414 39.4245C11.6243 39.336 11.4152 39.2476 11.1981 39.1431C11.1901 39.1431 11.1821 39.135 11.174 39.135C10.9569 39.0224 10.7479 38.9179 10.5308 38.7973C10.1529 38.5882 9.79104 38.3631 9.43725 38.1219C9.30057 38.0254 9.17192 37.9369 9.03523 37.8404C8.6332 37.5429 8.26333 37.2293 7.9015 36.8996C7.78089 36.7951 7.67637 36.6986 7.5638 36.5861C7.31454 36.3448 7.07333 36.0956 6.84015 35.8382C6.69542 35.6774 6.55069 35.5166 6.414 35.3558C6.36576 35.2915 6.30947 35.2271 6.26123 35.1708C5.84312 34.6482 5.44109 34.1094 5.07926 33.5627C4.95061 33.3777 4.83001 33.1847 4.71744 32.9998C4.50034 32.654 4.29934 32.3163 4.10636 31.9625C3.75258 31.2388 3.41486 30.5393 3.11736 29.8639Z" fill="#534F59"/>
<path d="M4.97441 9.11804C3.24569 10.2036 2.14414 12.9375 1.79035 17.0142C1.54109 19.8446 2.61048 23.463 3.31806 25.8673C3.43866 26.2693 3.55928 26.6714 3.70401 27.0654L1.90292 21.9594L2.25671 27.5559C2.25671 27.5961 2.26474 27.6443 2.26474 27.6845C2.11197 27.2342 1.95921 26.7678 1.83056 26.3095C0.881768 23.1173 -0.010745 19.7562 0.238513 16.8856C0.439527 14.5617 0.88176 12.6319 1.53305 11.1122C2.19237 9.60049 3.06076 8.49085 4.15428 7.79933C5.81868 6.75402 7.49112 5.71674 9.15552 4.67142C10.7074 3.70651 12.2672 2.73356 13.8191 1.76061C17.5579 -0.579291 21.8194 2.16266 24.9392 4.17289C25.4779 4.52669 25.9925 4.84832 26.4749 5.13779C28.7906 6.51279 31.6129 8.19334 32.6662 10.9514C33.7517 13.7898 33.3737 16.9177 33.0521 19.6838L33.036 19.8366C32.6903 22.6991 32.0953 25.3205 31.251 27.6604L31.436 26.7196H29.9324C30.656 24.5968 31.1787 22.2328 31.4842 19.6436L31.5003 19.4908C31.8299 16.781 32.1596 13.9828 31.2108 11.5062C30.3424 9.2467 27.8981 7.79933 25.7352 6.50475C25.1804 6.17507 24.6497 5.82931 24.0869 5.47551C21.1762 3.59394 17.5418 1.26208 14.6553 3.07932C13.1034 4.05227 11.5436 5.02522 9.9837 5.99013C8.31126 7.03545 6.63881 8.07272 4.97441 9.11804Z" fill="#534F59"/>
</g>
</svg>
