<svg width="60" height="102" viewBox="0 0 60 102" fill="none" xmlns="http://www.w3.org/2000/svg">
<g opacity="0.5">
<path d="M38.1138 32.9594C38.6525 33.0639 39.1832 33.1443 39.7138 33.2167C39.1912 33.1443 38.6525 33.0639 38.1138 32.9594Z" fill="#534F59"/>
<path d="M9.64235 33.7712C8.9991 33.1601 8.4041 32.4043 7.85734 31.4956C7.82517 31.4313 7.79301 31.375 7.76889 31.3187C7.76085 31.2785 7.76085 31.2303 7.7528 31.1901L7.26233 27.4993L9.19207 30.6835C9.20816 30.6996 9.21619 30.7237 9.22423 30.7398C9.39308 31.0212 9.57802 31.2866 9.75491 31.5358C10.0203 31.9057 10.2936 32.2193 10.5831 32.5088C10.6796 32.6133 10.7761 32.7018 10.8806 32.7902C12.3118 34.0768 13.9923 34.4306 16.0426 33.8677C17.0718 33.5863 18.1412 33.5139 19.2187 33.6506C23.8822 34.2295 27.6372 33.731 30.7006 32.1309C32.7268 31.0695 35.1068 30.7478 37.3904 31.2222C39.69 31.7047 41.8529 31.9459 43.8952 31.9459C46.8381 31.9459 49.5477 31.4474 52.0805 30.4583C52.5147 29.7588 52.9248 29.0673 53.3027 28.3838H54.758L54.5168 29.3567C54.5088 29.3889 54.5007 29.4291 54.4927 29.4613C54.1067 30.1367 53.7047 30.8202 53.2786 31.5037L53.1419 31.7208L52.9087 31.8173C52.6353 31.9298 52.3619 32.0344 52.0805 32.1309C51.9277 32.1952 51.7669 32.2515 51.6061 32.2917C51.6061 32.2917 51.6061 32.2997 51.5981 32.2917C51.389 32.3721 51.18 32.4364 50.9548 32.5007C50.8503 32.5329 50.7458 32.5651 50.6413 32.5892C50.3839 32.6776 50.1186 32.742 49.8533 32.7983C49.7487 32.8304 49.6523 32.8545 49.5558 32.8787C49.3628 32.9269 49.1618 32.9752 48.9688 33.0073C48.7356 33.0636 48.5024 33.1038 48.2612 33.144C48.2452 33.144 48.2291 33.1521 48.205 33.1521C47.8994 33.2083 47.5858 33.2566 47.2722 33.2888C46.7818 33.3611 46.2833 33.4094 45.7767 33.4335C45.5274 33.4576 45.2701 33.4737 45.0209 33.4817C43.3243 33.5541 41.5715 33.4576 39.7302 33.2083C39.1995 33.136 38.6688 33.0556 38.1301 32.951C37.7844 32.8867 37.4386 32.8143 37.0848 32.75C36.4979 32.6294 35.9109 32.5731 35.3239 32.5731C33.9731 32.5731 32.6384 32.8947 31.4403 33.5139C28.0874 35.2668 24.0269 35.8136 19.0498 35.2105C18.1654 35.098 17.297 35.1542 16.4688 35.3794C16.4527 35.3874 16.4366 35.3874 16.4205 35.3874C15.2064 35.7171 14.0807 35.7734 13.0274 35.5643C12.8345 35.5241 12.6334 35.4759 12.4405 35.4276C12.4324 35.4276 12.4244 35.4196 12.4083 35.4196C12.2314 35.3553 12.0545 35.2909 11.8776 35.2266C11.8374 35.2186 11.7972 35.2025 11.757 35.1784C11.6284 35.1221 11.4997 35.0578 11.3711 35.0015C11.2987 34.9693 11.2344 34.9291 11.162 34.8889C11.0092 34.8004 10.8565 34.712 10.7117 34.6075C10.5751 34.519 10.4384 34.4306 10.3097 34.3099C10.2373 34.2697 10.173 34.2135 10.1087 34.1652C9.93181 34.0366 9.78708 33.9079 9.64235 33.7712Z" fill="#534F59"/>
<path d="M7.26211 27.4994L7.75258 31.1902C7.76062 31.2304 7.76063 31.2786 7.76867 31.3188C5.20372 26.1405 4.31927 19.764 4.98663 11.7714C5.0992 10.4929 5.62987 9.28674 6.47413 8.37007C8.99083 5.66029 12.0704 5.15372 15.9057 6.83427C23.1422 0.747299 30.5074 0.393497 37.8163 5.78895C43.1713 1.75241 47.5937 0.224636 51.3325 1.1011C54.3558 1.8087 56.8483 4.15664 58.7379 8.05648L58.7942 8.20122C60.4023 14.5696 59.0032 21.5491 54.4925 29.4533C54.5005 29.4212 54.5085 29.381 54.5166 29.3488L54.7578 28.3759H53.3025C57.4514 20.9943 58.754 14.5214 57.2906 8.65955C55.6262 5.24216 53.5035 3.20781 50.9707 2.60474C47.658 1.82477 43.3965 3.43296 38.2987 7.37301L37.8163 7.74288L37.3419 7.37301C30.3225 1.94539 23.5202 2.25898 16.549 8.32183L16.163 8.65955L15.6967 8.44245C14.2574 7.75897 12.987 7.40517 11.8292 7.40517C10.2291 7.40517 8.87023 8.08061 7.62394 9.42344C7.01286 10.0908 6.63495 10.9592 6.55454 11.9C5.88718 19.6515 6.75556 25.8028 9.19185 30.6836L7.26211 27.4994Z" fill="#534F59"/>
<path d="M10.1087 97.5431C7.27042 100.269 5.13967 101.58 3.52351 101.588C3.17777 101.588 2.84811 101.523 2.55865 101.403C1.26411 100.88 0.588699 99.3764 0.492212 96.8033C0.403765 94.4714 0.87012 92.1074 1.87519 89.7916C8.80617 73.7902 10.7922 54.1141 7.77697 31.3181C7.80109 31.3825 7.83326 31.4387 7.86542 31.495C8.41218 32.4037 9.01522 33.1595 9.65043 33.7706C12.2154 55.7303 10.0766 74.7712 3.29838 90.4108C2.38979 92.5014 1.97168 94.6323 2.05209 96.739C2.12445 98.5562 2.50236 99.698 3.13757 99.9554C3.73257 100.189 5.2844 100.036 9.13583 96.3209L9.24036 96.2083L9.37705 96.152C14.3944 94.0935 21.1887 80.6652 27.7658 67.6791C28.5699 66.087 29.382 64.4949 30.1861 62.9189C30.8374 61.6485 32.1319 60.8926 33.5551 60.9489C34.9863 61.0052 36.2004 61.8575 36.7472 63.1682C39.8508 70.6141 39.1111 78.5665 34.5682 86.8085C33.2174 89.2609 32.8475 92.1798 33.5792 94.8172C33.8445 95.766 34.3109 96.9239 35.0667 97.141C35.7421 97.334 36.7793 96.8194 38.0497 95.6454C47.9557 87.7492 52.4826 75.4708 52.3298 56.9606C50.585 48.5016 50.577 40.5089 52.3057 32.0418C52.2253 32.074 52.161 32.0981 52.0805 32.1222C52.362 32.0257 52.6353 31.9212 52.9087 31.8086L53.1419 31.7121L53.2786 31.495C53.7048 30.8116 54.1148 30.12 54.4927 29.4526C52.161 38.8203 51.9519 47.4884 53.8575 56.7194L53.8736 56.8641C54.0424 75.9291 49.3387 88.6337 39.0548 96.8274C37.3502 98.3954 35.8868 98.9985 34.6164 98.6366C33.4425 98.2989 32.6063 97.1812 32.0676 95.2273C31.2313 92.1959 31.6414 88.8589 33.1932 86.0446C37.5593 78.1404 38.2427 70.8472 35.2918 63.7632C34.9782 63.0074 34.3109 62.541 33.4907 62.5088C32.6545 62.4606 31.947 62.8948 31.569 63.6265C30.765 65.2025 29.9609 66.7946 29.1488 68.3867C22.2018 82.1286 15.6326 95.0986 10.1087 97.5431Z" fill="#534F59"/>
</g>
</svg>
