<svg width="54" height="94" viewBox="0 0 54 94" fill="none" xmlns="http://www.w3.org/2000/svg">
<g opacity="0.5">
<path d="M29.3334 30.485C30.3304 30.0669 31.4722 29.9865 32.5416 30.2679C32.8632 30.3564 33.1929 30.4368 33.4984 30.5092C33.5065 30.5092 33.5065 30.5092 33.5145 30.5172C34.4794 30.7424 35.4201 30.9273 36.3287 31.0559C41.6355 31.8279 45.8648 30.9032 48.7996 28.2899C48.9283 28.1853 49.0489 28.0808 49.1695 27.9602C47.5534 38.6787 41.3621 76.5112 33.2813 85.9673C30.7807 88.8862 28.7867 90.7677 26.5594 91.1135C26.2458 91.1698 25.9483 91.2502 25.6589 91.3226C25.0156 91.4995 24.6136 91.604 24.3643 91.4271C24.1553 91.2663 23.9864 90.9446 23.8658 90.43C23.4477 88.6449 23.7372 86.5784 24.8066 83.9571C27.1705 78.0953 30.3144 66.3153 30.9576 59.3358C31.0541 58.3307 30.4752 57.414 29.5184 57.0602C29.2611 56.9638 28.9957 56.9236 28.7384 56.9236C28.0389 56.9236 27.3715 57.2613 26.9454 57.8724C24.6297 61.1933 22.4909 65.0851 20.2395 69.2181C16.1388 76.7364 11.9014 84.5039 6.19264 89.1113C5.65392 89.5375 5.16345 89.9154 4.64885 90.036C3.46689 90.3094 2.96837 88.8058 2.80756 88.1384C1.68992 83.5792 3.54729 79.6472 5.51723 75.4981C5.9273 74.6216 6.34541 73.7451 6.73136 72.8606C8.21886 69.4835 9.32042 65.8088 10.1164 61.6436C11.9175 52.1875 10.4541 42.474 9.03096 33.0822C8.68522 30.8067 8.34751 28.4909 8.04197 26.1912C8.09825 26.2636 8.1465 26.3279 8.19474 26.3922C8.33143 26.5691 8.47617 26.746 8.61286 26.9068C8.68522 27.0033 8.76562 27.0918 8.84603 27.1883C9.24806 27.6466 9.65009 28.0728 10.0602 28.4668C10.2451 28.6437 10.4381 28.8206 10.623 28.9814C10.816 29.1422 11.017 29.3111 11.21 29.4638C11.4673 29.6729 11.7326 29.8739 12.006 30.0589C12.0783 30.1152 12.1427 30.1634 12.215 30.1956C12.3919 30.3242 12.5849 30.4368 12.7698 30.5494C12.9306 30.6539 13.0995 30.7423 13.2683 30.8388C13.3729 30.9032 13.4694 30.9595 13.5819 31.0077C13.7267 31.0881 13.8875 31.1605 14.0402 31.2328C14.1448 31.2811 14.2493 31.3374 14.3619 31.3776C14.5066 31.4419 14.6594 31.5143 14.8121 31.5545C14.9729 31.6349 15.1498 31.6912 15.3187 31.7475C15.3991 31.7796 15.4715 31.8118 15.5599 31.8359C15.7609 31.9083 15.97 31.9726 16.179 32.0209C16.2755 32.053 16.372 32.0771 16.4685 32.1013C16.6615 32.1576 16.8625 32.2058 17.0555 32.238C17.1922 32.2701 17.3128 32.2942 17.4494 32.3184C17.5861 32.3425 17.7228 32.3666 17.8595 32.3827C18.0284 32.4229 18.2053 32.447 18.3741 32.4631C18.6636 32.5033 18.9611 32.5274 19.2586 32.5435C19.5722 32.5676 19.8857 32.5757 20.1993 32.5757C20.2154 32.5757 20.2234 32.5757 20.2395 32.5757C21.6305 32.5757 23.0859 32.4068 24.6136 32.053C24.9915 31.9646 25.3694 31.8761 25.7554 31.7635C26.8971 31.4339 28.1032 31.0157 29.3334 30.485Z" fill="white"/>
<path d="M51.5094 9.6674C52.3617 16.068 51.8391 21.0131 49.9495 24.3983C49.8611 24.5431 49.7887 24.6878 49.6922 24.8245C49.5555 25.0497 49.4028 25.2668 49.258 25.4839C49.258 25.4919 49.258 25.4919 49.25 25.5C49.0972 25.709 48.9284 25.9181 48.7676 26.1191C48.462 26.489 48.1243 26.8187 47.7786 27.1323C47.7545 27.1564 47.7223 27.1805 47.6982 27.2046C47.5213 27.3494 47.3363 27.4941 47.1514 27.6308C46.9665 27.7675 46.7655 27.9042 46.5645 28.0328C46.4036 28.1454 46.2267 28.2339 46.0499 28.3304C45.9453 28.3947 45.8488 28.4429 45.7443 28.4912C45.7121 28.5073 45.672 28.5233 45.6398 28.5394C45.5031 28.6118 45.3664 28.6761 45.2297 28.7324C45.0769 28.7967 44.9081 28.861 44.7473 28.9254C44.5865 28.9897 44.4176 29.046 44.2488 29.0942C44.096 29.1425 43.9352 29.1988 43.7824 29.2309C43.7502 29.247 43.7181 29.2551 43.6859 29.2631C42.8256 29.4882 41.917 29.641 40.9361 29.7053C40.735 29.7214 40.534 29.7295 40.325 29.7375C39.8827 29.7536 39.4083 29.7536 38.9339 29.7295C38.6766 29.7214 38.4113 29.7053 38.1379 29.6812C37.8646 29.6571 37.5992 29.633 37.3178 29.6008C37.0605 29.5767 36.7952 29.5365 36.5298 29.5043C36.5137 29.4963 36.4896 29.4963 36.4574 29.4963C36.1841 29.448 35.9107 29.3998 35.6293 29.3596C35.3559 29.3113 35.0825 29.2551 34.8091 29.1988C34.6724 29.1747 34.5518 29.1505 34.4151 29.1184C34.19 29.0701 33.9649 29.0138 33.7397 28.9656C33.4744 28.9013 33.2091 28.8289 32.9357 28.7646C31.5366 28.3866 30.0411 28.4912 28.7224 29.054C19.6687 32.8735 12.9709 31.1447 8.23503 23.7712L7.9536 23.2967C7.86516 23.144 7.78475 22.9751 7.70435 22.8062L7.54354 22.4283L7.43901 22.1791C6.90833 20.1286 6.87617 19.8311 6.85205 19.5255C6.36961 13.1411 7.77671 8.62208 11.0331 6.10528C12.6332 4.87502 14.6755 4.21566 16.7741 4.21566C17.5541 4.21566 18.342 4.30411 19.122 4.48905C22.6357 5.33334 25.072 6.3063 26.8007 7.56068C28.5616 8.84723 31.0622 8.80701 32.8714 7.46418C38.2585 3.46785 42.6004 1.84359 45.7684 2.63964C47.9153 3.18642 49.5877 4.80264 50.8903 7.59284C51.2119 8.26024 51.421 8.95176 51.5094 9.6674Z" fill="white"/>
<path d="M34.4236 29.1277C34.2065 29.0794 33.9814 29.0231 33.7482 28.9749C33.9653 29.0231 34.1905 29.0794 34.4236 29.1277Z" fill="#534F59"/>
<path d="M33.5067 30.5106C33.5146 30.5106 33.5226 30.5185 33.5226 30.5185C33.5146 30.5106 33.5146 30.5106 33.5067 30.5106Z" fill="#534F59"/>
<path d="M24.5983 32.054C24.9762 31.9655 25.3541 31.8771 25.74 31.7645C25.3541 31.869 24.9762 31.9655 24.5983 32.054Z" fill="#534F59"/>
<path d="M19.251 32.5446C19.5566 32.5688 19.8702 32.5768 20.1918 32.5768C19.8702 32.5768 19.5646 32.5688 19.251 32.5446Z" fill="#534F59"/>
<path d="M17.8521 32.3831C18.0209 32.4153 18.1978 32.4394 18.3666 32.4635C18.1978 32.4474 18.0209 32.4233 17.8521 32.3831Z" fill="#534F59"/>
<path d="M17.4339 32.3279C17.5706 32.3601 17.7073 32.3842 17.844 32.3923C17.7073 32.3762 17.5786 32.3521 17.4339 32.3279Z" fill="#534F59"/>
<path d="M17.0475 32.2472C17.1842 32.2793 17.3048 32.3035 17.4415 32.3276C17.3048 32.3035 17.1761 32.2793 17.0475 32.2472Z" fill="#534F59"/>
<path d="M16.4607 32.1102C16.6537 32.1665 16.8547 32.2148 17.0477 32.2469C16.8547 32.2067 16.6537 32.1585 16.4607 32.1102Z" fill="#534F59"/>
<path d="M16.1716 32.0295C16.2681 32.0616 16.3565 32.0858 16.461 32.1099C16.3645 32.0858 16.2681 32.0616 16.1716 32.0295Z" fill="#534F59"/>
<path d="M15.5522 31.8364C15.7533 31.9088 15.9623 31.9731 16.1714 32.0213C15.9623 31.9731 15.7613 31.9088 15.5522 31.8364Z" fill="#534F59"/>
<path d="M14.8043 31.5645C14.9651 31.645 15.142 31.7012 15.3109 31.7575C15.142 31.7012 14.9732 31.6369 14.8043 31.5645Z" fill="#534F59"/>
<path d="M14.3542 31.3784C14.4989 31.4427 14.6517 31.507 14.8045 31.5553C14.6517 31.5151 14.4989 31.4427 14.3542 31.3784Z" fill="#534F59"/>
<path d="M13.5738 31.009C13.7266 31.0894 13.8793 31.1617 14.0321 31.2341C13.8793 31.1617 13.7185 31.0813 13.5738 31.009Z" fill="#534F59"/>
<path d="M12.2071 30.1973C12.384 30.326 12.577 30.4385 12.7619 30.5511C12.5689 30.4385 12.384 30.3179 12.2071 30.1973Z" fill="#534F59"/>
<path d="M11.998 30.0515C12.0707 30.1 12.1352 30.1565 12.2079 30.1888C12.1352 30.1565 12.0626 30.108 11.998 30.0515Z" fill="#534F59"/>
<path d="M10.6152 28.9749C10.8002 29.1357 11.0012 29.3046 11.2022 29.4573C11.0012 29.3046 10.8082 29.1357 10.6152 28.9749Z" fill="#534F59"/>
<path d="M10.0523 28.4607C10.2292 28.6376 10.4222 28.8145 10.6152 28.9753C10.4222 28.8145 10.2372 28.6376 10.0523 28.4607Z" fill="#534F59"/>
<path d="M6.86009 19.5184C6.88421 19.824 6.91637 20.1215 7.44705 22.1719L5.42886 17.3313L6.06407 22.9197C5.654 21.8905 5.38866 20.7808 5.30021 19.631C4.77758 12.6917 6.38569 7.71436 10.0763 4.85984C12.6815 2.84157 16.1148 2.15005 19.4838 2.96218C23.2066 3.85472 25.8278 4.90808 27.7254 6.29112C28.9395 7.17562 30.6763 7.14345 31.9386 6.20267C37.8002 1.84449 42.4557 0.180024 46.1463 1.11277C48.7354 1.77212 50.8099 3.71803 52.3054 6.91831C52.6914 7.73848 52.9406 8.59886 53.0532 9.45924C53.9859 16.4146 53.3266 21.786 51.1074 25.5009C51.1074 25.4285 51.1154 25.3802 51.1235 25.3481L51.622 21.6653L49.9415 24.4073C51.831 21.0221 52.3537 16.0849 51.5014 9.67633C51.4049 8.96873 51.1958 8.26918 50.8742 7.59374C49.5716 4.80355 47.8992 3.18732 45.7524 2.64054C42.5844 1.84449 38.2425 3.46875 32.8553 7.46508C31.0542 8.80792 28.5536 8.84813 26.7846 7.56158C25.0559 6.31524 22.6196 5.33425 19.1059 4.48995C18.3259 4.30501 17.538 4.21656 16.758 4.21656C14.6594 4.21656 12.6171 4.87592 11.0171 6.10618C7.77671 8.61494 6.36961 13.1339 6.86009 19.5184Z" fill="#534F59"/>
<path d="M8.17896 26.3847C8.13072 26.3124 8.07443 26.248 8.02619 26.1837C7.64828 25.6932 7.28645 25.1706 6.93267 24.6157C6.59496 24.085 6.29746 23.5222 6.06428 22.9271L5.42908 17.3387L7.44726 22.1793C7.47943 22.2678 7.51159 22.3401 7.55179 22.4286L7.7126 22.8065C7.79301 22.9673 7.87341 23.1442 7.96186 23.297L8.24328 23.7714C12.9792 31.153 19.685 32.8737 28.7307 29.0543C30.0493 28.4915 31.5529 28.3869 32.9439 28.7648C33.2173 28.8372 33.4826 28.9015 33.748 28.9659C33.9731 29.0222 34.1983 29.0784 34.4234 29.1186C34.5601 29.1508 34.6807 29.1749 34.8174 29.1991C35.0908 29.2634 35.3641 29.3197 35.6375 29.3599C35.9109 29.4081 36.1923 29.4564 36.4657 29.4966C36.4979 29.4966 36.522 29.4966 36.5381 29.5046C36.8034 29.5448 37.0607 29.577 37.326 29.6011C37.5994 29.6413 37.8728 29.6654 38.1462 29.6815C38.4196 29.7056 38.6849 29.7217 38.9422 29.7297C39.4005 29.7539 39.8749 29.7619 40.3332 29.7378C40.5342 29.7378 40.7352 29.7297 40.9443 29.7056C41.885 29.6493 42.8097 29.5046 43.6942 29.2634C43.7263 29.2553 43.7585 29.2473 43.7907 29.2312C43.9515 29.1991 44.1123 29.1428 44.257 29.0945C44.4259 29.0463 44.5947 28.9819 44.7555 28.9257C44.9163 28.8694 45.0852 28.789 45.238 28.7327C45.3747 28.6764 45.5114 28.604 45.648 28.5397C45.6802 28.5236 45.7204 28.5075 45.7526 28.4915C45.8571 28.4432 45.9536 28.3869 46.0581 28.3306C46.235 28.2341 46.4119 28.1457 46.5727 28.0331C46.7737 27.9045 46.9747 27.7758 47.1597 27.6311C47.3446 27.4944 47.5376 27.3496 47.7064 27.2049C47.7305 27.1808 47.7627 27.1567 47.7868 27.1325C48.1406 26.8189 48.4703 26.4812 48.7758 26.1194C48.9447 25.9264 49.1055 25.7173 49.2583 25.5002C49.2663 25.4922 49.2663 25.4922 49.2663 25.4841C49.4191 25.2751 49.5718 25.058 49.7005 24.8248C49.797 24.6881 49.8693 24.5434 49.9578 24.3986L51.6383 21.6567L51.1398 25.3394C51.1317 25.3796 51.1237 25.4279 51.1237 25.4922C50.4804 26.5697 49.7166 27.5024 48.816 28.2985C45.8812 30.8796 41.6117 31.8123 36.3451 31.0645C35.4365 30.9278 34.5038 30.7509 33.5309 30.5258C33.5309 30.5258 33.5229 30.5178 33.5148 30.5178C33.2012 30.4454 32.8716 30.365 32.558 30.2765C31.4886 29.9951 30.3468 30.0755 29.3498 30.4936C28.1196 31.0163 26.9135 31.4425 25.7476 31.7641C25.3617 31.8767 24.9838 31.9651 24.6059 32.0536C23.0862 32.4074 21.6228 32.5762 20.2318 32.5762C20.2157 32.5762 20.2077 32.5762 20.1916 32.5762C19.87 32.5762 19.5564 32.5682 19.2508 32.5441C18.9533 32.528 18.6558 32.5039 18.3664 32.4637C18.1975 32.4395 18.0206 32.4154 17.8518 32.3833C17.7151 32.3752 17.5784 32.3511 17.4417 32.3189C17.305 32.2948 17.1844 32.2707 17.0477 32.2385C16.8547 32.1983 16.6537 32.1501 16.4607 32.1018C16.3562 32.0777 16.2678 32.0536 16.1713 32.0214C15.9622 31.9651 15.7612 31.9008 15.5522 31.8365C15.4637 31.8124 15.3914 31.7802 15.3109 31.748C15.1421 31.6917 14.9652 31.6274 14.8044 31.555C14.6516 31.4988 14.4989 31.4344 14.3541 31.3781C14.2416 31.3299 14.137 31.2736 14.0325 31.2334C13.8797 31.161 13.727 31.0887 13.5742 31.0083C13.4616 30.952 13.3651 30.8957 13.2606 30.8394C13.0918 30.7509 12.9229 30.6545 12.7621 30.5499C12.5772 30.4374 12.3842 30.3248 12.2073 30.1961C12.1349 30.1559 12.0706 30.0996 11.9982 30.0594C11.7249 29.8745 11.4595 29.6735 11.2022 29.4644C11.0012 29.3116 10.8002 29.1428 10.6153 28.9819C10.4223 28.8211 10.2293 28.6442 10.0524 28.4673C9.64234 28.0653 9.23227 27.6472 8.83829 27.1888C8.76592 27.1004 8.68551 27.0119 8.60511 26.9074C8.46038 26.7305 8.31565 26.5616 8.17896 26.3847Z" fill="#534F59"/>
<path d="M2.79981 88.1391C2.96062 88.8064 3.46718 90.3101 4.6411 90.0367C5.1557 89.9161 5.64617 89.5462 6.18489 89.112C11.8937 84.5046 16.1311 76.737 20.2318 69.2188C22.4912 65.0858 24.6219 61.1939 26.9376 57.8731C27.3638 57.2619 28.0311 56.9242 28.7307 56.9242C28.988 56.9242 29.2533 56.9725 29.5106 57.0609C30.4594 57.4147 31.0383 58.3233 30.9499 59.3365C30.2986 66.316 27.1628 78.0959 24.7988 83.9578C23.7375 86.5791 23.44 88.6456 23.8581 90.4307C23.9867 90.9453 24.1475 91.267 24.3566 91.4278C24.6058 91.6047 25.0159 91.5082 25.6511 91.3232C25.9406 91.2428 26.2381 91.1705 26.5517 91.1142C28.7789 90.7684 30.773 88.8868 33.2736 85.968C41.3544 76.5119 47.5456 38.6794 49.1618 27.9609C49.0412 28.0815 48.9206 28.186 48.7919 28.2905C49.7005 27.4945 50.4643 26.5617 51.0995 25.4843C50.593 29.1107 43.9756 75.8525 34.4556 86.9892C31.7218 90.1814 29.4865 92.248 26.7848 92.6661C26.5436 92.7063 26.3105 92.7787 26.0692 92.8349C25.6511 92.9556 25.1687 93.0842 24.6863 93.0842C24.2681 93.0842 23.834 92.9797 23.4319 92.6822C22.9012 92.2882 22.5394 91.677 22.3384 90.7845C21.8399 88.6617 22.1615 86.3057 23.3435 83.3627C25.6672 77.5974 28.7467 66.0346 29.39 59.1837C29.4382 58.7254 29.0764 58.5565 28.9719 58.5163C28.8593 58.4681 28.4814 58.3716 28.2161 58.7495C25.9406 61.99 23.834 65.8577 21.5987 69.9505C17.4176 77.6055 13.0998 85.5097 7.14976 90.3101C6.48239 90.8488 5.82306 91.3474 4.9788 91.5403C3.25008 91.9424 1.83494 90.7765 1.2721 88.4929C0.0258079 83.3949 2.0842 79.0287 4.0863 74.8072C4.48833 73.9468 4.8984 73.0784 5.28434 72.218C6.72361 68.9454 7.793 65.3833 8.5649 61.3226C10.3177 52.1399 8.87044 42.5471 7.47138 33.292C6.98895 30.0917 6.49043 26.7869 6.12861 23.5544L6.05624 22.9031C6.28942 23.4982 6.58692 24.061 6.92462 24.5917C7.27841 25.1465 7.64023 25.6692 8.01814 26.1597C8.32368 28.4594 8.66943 30.7832 9.00713 33.0508C10.4303 42.4425 11.8937 52.156 10.0926 61.6121C9.30463 65.7853 8.19503 69.452 6.70753 72.8292C6.32158 73.7217 5.91151 74.5901 5.4934 75.4666C3.53954 79.6559 1.68217 83.5799 2.79981 88.1391Z" fill="#534F59"/>
</g>
</svg>
