<svg width="63" height="85" viewBox="0 0 63 85" fill="none" xmlns="http://www.w3.org/2000/svg">
<g opacity="0.5">
<path d="M27.0543 29.7943C27.4804 29.8103 27.9066 29.8184 28.3247 29.8184C29.2172 29.8184 30.0856 29.7782 30.9218 29.7058C31.4605 29.6576 31.9832 29.6013 32.5058 29.5369C34.1863 29.2957 35.7944 28.9098 37.3301 28.371C37.8287 28.1941 38.3272 28.0011 38.8176 27.7921C39.3081 27.591 39.7906 27.3659 40.2649 27.1166C40.5062 26.988 40.7393 26.8674 40.9725 26.7387C41.7605 26.4573 42.6208 26.2161 43.5535 26.0231C43.8832 25.9507 44.229 25.8864 44.5667 25.8381C46.6813 25.4843 49.0855 25.3557 51.6745 25.4361C52.173 25.4522 52.6876 25.4843 53.2022 25.5165C53.7249 25.5487 54.2475 25.5969 54.7702 25.6451C55.1883 25.6854 55.6144 25.7336 56.0406 25.7818C56.1531 25.7899 56.2577 25.806 56.3702 25.822C55.1239 53.6034 46.2793 71.6713 29.3458 81.047C25.9125 83.0653 25.1487 82.615 25.0683 82.5587C25.02 82.5185 24.6582 82.1727 25.1326 80.3394C25.5346 78.8116 26.21 77.3643 27.1347 76.0536C31.2273 70.2159 34.8376 59.626 35.722 50.8856C35.7944 50.1619 35.3522 49.5266 34.6446 49.3497C34.5159 49.3176 34.3953 49.3015 34.2747 49.3015C33.7119 49.3015 33.2053 49.6392 32.9802 50.186C28.6142 60.7357 20.4128 71.4381 13.0235 76.2385C10.4344 77.9191 7.39507 78.683 4.47634 78.3935C2.99688 78.2568 2.06417 77.8869 1.85511 77.3723C1.71842 77.0265 1.71842 76.1903 3.23809 74.3248C18.3383 62.7137 18.5474 42.9653 16.5855 26.3688C17.687 27.3981 18.9815 28.2021 20.4128 28.7409C20.5495 28.8052 20.7022 28.8615 20.8389 28.8937C20.863 28.9098 20.8872 28.9178 20.9032 28.9178C21.056 28.9741 21.2168 29.0223 21.3696 29.0545C21.4902 29.0947 21.6028 29.1269 21.7234 29.151C21.8681 29.1992 22.0209 29.2314 22.1656 29.2636C22.2862 29.2957 22.3907 29.3198 22.5114 29.3359C22.6963 29.3761 22.8973 29.4083 23.0822 29.4324C23.0903 29.4324 23.1064 29.4324 23.1144 29.4324C24.4733 29.6334 25.7839 29.746 27.0543 29.7943Z" fill="white"/>
<path d="M56.7079 24.2945C56.3622 24.2462 56.0325 24.206 55.6948 24.1739C55.5822 24.1578 55.4857 24.1417 55.3812 24.1417C55.1078 24.1015 54.8425 24.0774 54.5772 24.0613C54.2716 24.0291 53.9741 23.997 53.6766 23.9809C53.4274 23.9568 53.1701 23.9407 52.9208 23.9326C52.5831 23.9085 52.2454 23.8924 51.9238 23.8844C51.6745 23.8683 51.4253 23.8603 51.176 23.8603C51.1117 23.8603 51.0473 23.8522 50.983 23.8603C48.8281 23.8201 46.7939 23.9407 44.9365 24.206C44.8722 24.2141 44.8079 24.2221 44.7596 24.2302C44.4139 24.2784 44.0762 24.3427 43.7465 24.399C43.6822 24.4151 43.6098 24.4231 43.5455 24.4392C43.2239 24.5036 42.9022 24.5759 42.6047 24.6402C41.8168 24.8252 41.0851 25.0503 40.3936 25.2996L40.281 25.3559C35.5049 27.9772 29.9489 28.8054 23.3074 27.8888C23.0822 27.8566 22.8651 27.8164 22.64 27.7682C22.4711 27.736 22.2862 27.6958 22.1173 27.6475C21.9807 27.6073 21.852 27.5752 21.7153 27.5269C20.1715 27.0686 18.7564 26.2565 17.5905 25.171C17.3412 24.9217 17.1 24.6724 16.8669 24.4071C16.7543 24.2704 16.6417 24.1337 16.5291 23.997C16.4166 23.8603 16.3201 23.7155 16.2156 23.5708L16.1352 23.4502C15.8216 22.9919 15.5482 22.5014 15.315 21.9707C13.924 18.8588 13.5381 15.5058 14.1009 11.7105C14.3341 10.1666 14.8406 8.78357 15.6206 7.61764C17.2206 5.20537 18.6921 5.43051 19.6569 5.81647C20.9113 6.30697 22.3505 6.22656 23.5968 5.59133C28.5498 3.0504 33.2535 2.81722 37.9814 4.86765C39.4126 5.4868 41.0449 5.51896 42.452 4.94805C49.4714 2.14178 54.5128 1.6754 57.4396 3.56502C59.4256 4.85156 60.5111 7.32817 60.6719 10.9225C60.2458 14.9027 57.5924 21.9224 56.724 24.2382C56.724 24.2543 56.716 24.2784 56.7079 24.2945Z" fill="white"/>
<path d="M43.5379 24.4467C43.2163 24.511 42.8947 24.5834 42.5972 24.6477C42.9027 24.5834 43.2163 24.511 43.5379 24.4467Z" fill="#534F59"/>
<path d="M38.8264 27.8004C39.3169 27.5914 39.7913 27.3743 40.2737 27.125C39.7993 27.3662 39.3169 27.5914 38.8264 27.8004Z" fill="#534F59"/>
<path d="M38.8258 27.8007C38.3434 28.0098 37.8449 28.2028 37.3383 28.3797C37.8449 28.1947 38.3354 28.0017 38.8258 27.8007Z" fill="#534F59"/>
<path d="M30.9304 29.7131C31.4691 29.6729 31.9918 29.6085 32.5144 29.5442C31.9918 29.6085 31.4691 29.6648 30.9304 29.7131Z" fill="#534F59"/>
<path d="M23.1145 29.4398C24.4734 29.6328 25.784 29.7534 27.0544 29.8017C25.784 29.7454 24.4734 29.6328 23.1145 29.4398Z" fill="#534F59"/>
<path d="M23.2997 27.8888C23.0826 27.8567 22.8575 27.8165 22.6323 27.7682C22.8575 27.8245 23.0746 27.8567 23.2997 27.8888Z" fill="#534F59"/>
<path d="M22.1097 27.6549C22.2786 27.7032 22.4635 27.7434 22.6324 27.7755C22.4635 27.7434 22.2866 27.7032 22.1097 27.6549Z" fill="#534F59"/>
<path d="M22.1659 29.2724C22.2865 29.2965 22.3991 29.3206 22.5116 29.3447C22.391 29.3287 22.2865 29.3045 22.1659 29.2724Z" fill="#534F59"/>
<path d="M22.1093 27.6554C21.9726 27.6232 21.844 27.583 21.7073 27.5348C21.844 27.583 21.9807 27.6152 22.1093 27.6554Z" fill="#534F59"/>
<path d="M21.3702 29.0704C21.4908 29.1026 21.6034 29.1348 21.724 29.1669C21.6034 29.1428 21.4908 29.1106 21.3702 29.0704Z" fill="#534F59"/>
<path d="M20.8392 28.9099C20.8634 28.9179 20.8794 28.9179 20.9036 28.934C20.8875 28.926 20.8634 28.926 20.8392 28.9099Z" fill="#534F59"/>
<path d="M17.5909 25.1786C18.7568 26.2641 20.1639 27.0762 21.7158 27.5345C20.1559 27.0842 18.7488 26.2721 17.5909 25.1786Z" fill="#534F59"/>
<path d="M16.5857 26.3685C17.6953 27.3897 18.9898 28.2018 20.413 28.7486C18.9818 28.2099 17.6873 27.4058 16.5857 26.3685Z" fill="#534F59"/>
<path d="M14.6725 23.6598L15.7982 22.9603L16.1439 23.4588C16.16 23.499 16.1922 23.5392 16.2243 23.5794C16.3208 23.7241 16.4173 23.8689 16.5379 24.0056C16.6424 24.1423 16.747 24.287 16.8756 24.4157C17.1007 24.6891 17.342 24.9464 17.5993 25.1796C18.7571 26.2731 20.1642 27.0852 21.7241 27.5355C21.8608 27.5838 21.9894 27.624 22.1261 27.6562C22.295 27.7044 22.4799 27.7446 22.6487 27.7768C22.8658 27.825 23.091 27.8652 23.3161 27.8974C29.9576 28.8221 35.5137 27.9939 40.2898 25.3645L40.4023 25.3082C41.0858 25.0589 41.8255 24.8418 42.6135 24.6488C42.919 24.5765 43.2407 24.5122 43.5542 24.4478C43.6266 24.4317 43.6909 24.4237 43.7552 24.4076C44.0849 24.3433 44.4307 24.287 44.7684 24.2388C44.8246 24.2307 44.889 24.2227 44.9453 24.2146C46.7946 23.9493 48.8369 23.8287 50.9918 23.8689C51.0641 23.8608 51.1285 23.8689 51.1847 23.8689C51.434 23.8769 51.6833 23.885 51.9325 23.893C52.2622 23.901 52.5999 23.9171 52.9295 23.9412C53.1788 23.9573 53.4281 23.9734 53.6854 23.9895C53.9829 24.0056 54.2804 24.0377 54.5859 24.0699C54.8512 24.094 55.1166 24.1182 55.39 24.1503C55.4945 24.1503 55.591 24.1664 55.7035 24.1825C56.2342 24.2468 56.7729 24.3111 57.3117 24.3835L58.0112 24.48L57.979 25.1876C57.979 25.276 57.971 25.3645 57.9629 25.4529L57.9469 25.4931C57.6011 26.241 56.9338 25.9676 56.9016 25.9515C56.8453 25.9274 56.7971 25.9032 56.7569 25.8791C56.6282 25.863 56.5076 25.8469 56.387 25.8309C56.2744 25.8148 56.1699 25.7987 56.0573 25.7907C55.6312 25.7344 55.205 25.6861 54.7869 25.654C54.2562 25.5977 53.7336 25.5575 53.219 25.5253C52.7044 25.4851 52.1979 25.461 51.6913 25.4449C49.1183 25.3565 46.7061 25.4931 44.5834 25.847C44.2377 25.9032 43.9 25.9676 43.5703 26.0319C42.6296 26.2249 41.7773 26.4661 40.9893 26.7475C40.7561 26.8762 40.5229 26.9968 40.2817 27.1255C39.8073 27.3667 39.3329 27.5838 38.8344 27.8009C38.352 28.0019 37.8615 28.2029 37.3469 28.3798C35.8112 28.9186 34.203 29.3045 32.5226 29.5458C31.9999 29.6181 31.4773 29.6825 30.9386 29.7146C30.0943 29.787 29.2259 29.8272 28.3415 29.8272C27.9234 29.8272 27.4972 29.8192 27.0711 29.8031C25.8006 29.7548 24.49 29.6423 23.1312 29.4412C23.1231 29.4412 23.107 29.4412 23.099 29.4412C22.9141 29.4171 22.7131 29.3849 22.5281 29.3447C22.4156 29.3206 22.303 29.2965 22.1824 29.2724C22.0377 29.2402 21.8849 29.208 21.7402 29.1598C21.6195 29.1276 21.507 29.0955 21.3864 29.0633C21.2336 29.0231 21.0728 28.9749 20.92 28.9266C20.8959 28.9105 20.8798 28.9105 20.8557 28.9025C20.719 28.8623 20.5662 28.806 20.4295 28.7497C19.0064 28.2029 17.7118 27.3908 16.6022 26.3696V26.3777C15.9027 25.7263 15.2755 24.9866 14.7529 24.1664C14.7448 24.1664 14.7448 24.1664 14.7529 24.1584L14.6725 23.6598Z" fill="#534F59"/>
<path d="M19.6653 5.82447C18.7005 5.43851 17.229 5.21337 15.629 7.62564C14.849 8.79157 14.3425 10.1746 14.1093 11.7185C13.5384 15.5138 13.9324 18.8749 15.3234 21.9787C15.5566 22.5013 15.83 22.9918 16.1436 23.4582L15.7978 22.9597L14.6721 23.6592L14.7365 24.1577C14.4148 23.6753 14.1414 23.1607 13.9002 22.6219C12.8308 20.2177 12.2921 17.6848 12.2921 14.9589C12.2921 13.8332 12.3886 12.6753 12.5655 11.4853C12.8308 9.71628 13.4258 8.11613 14.3264 6.75722C16.3848 3.66951 18.6763 3.74992 20.2362 4.36907C21.0805 4.69875 22.0453 4.63442 22.8896 4.20825C28.2125 1.48238 33.5032 1.22507 38.617 3.43632C39.6622 3.88661 40.8603 3.91074 41.8895 3.5087C49.5119 0.453151 54.883 0.0511035 58.2923 2.26235C60.7366 3.84641 62.0633 6.75723 62.2402 10.9224V10.9787L62.2321 11.043C61.8221 15.0635 59.2732 21.9143 58.2923 24.5276L58.3968 24.5357L57.9626 25.4604C57.9706 25.3719 57.9787 25.2835 57.9787 25.195L58.0108 24.4874L57.3113 24.3909C56.7726 24.3105 56.2339 24.2542 55.7032 24.1899C56.0409 24.2221 56.3786 24.2623 56.7163 24.3105C56.7243 24.2944 56.7324 24.2703 56.7404 24.2542C57.6168 21.9465 60.2622 14.9268 60.6883 10.9385C60.5275 7.3442 59.4421 4.86761 57.456 3.58106C54.5373 1.69145 49.4878 2.15782 42.4684 4.9641C41.0533 5.535 39.421 5.50284 37.9978 4.88369C33.27 2.84129 28.5662 3.07449 23.6132 5.60738C22.3589 6.22653 20.9277 6.31497 19.6653 5.82447Z" fill="#534F59"/>
<path d="M2.22519 73.1431C14.1413 64.0247 18.0088 48.9159 14.7363 24.166C15.259 24.9861 15.8861 25.7259 16.5857 26.3772C18.5556 42.9736 18.3385 62.7221 3.23831 74.3332C1.71864 76.1987 1.71864 77.0349 1.85533 77.3807C2.06438 77.8953 3.00513 78.2652 4.47655 78.4019C7.39528 78.6914 10.4346 77.9275 13.0237 76.2469C20.413 71.4545 28.6144 60.7441 32.9804 50.1944C33.2055 49.6476 33.7121 49.3099 34.2749 49.3099C34.3955 49.3099 34.5161 49.326 34.6448 49.3581C35.3524 49.535 35.7946 50.1702 35.7222 50.8939C34.8378 59.6344 31.2276 70.2243 27.1349 76.062C26.2102 77.3726 25.5429 78.82 25.1328 80.3478C24.6584 82.1811 25.0202 82.5269 25.0685 82.5671C25.1489 82.6234 25.9127 83.0656 29.3461 81.0554C46.2795 71.6877 55.1241 53.6198 56.3704 25.8304C56.491 25.8465 56.6116 25.8626 56.7403 25.8787C56.7885 25.9028 56.8368 25.9269 56.885 25.951C56.9172 25.9671 57.5846 26.2405 57.9303 25.4927L57.9464 25.4525C56.7483 54.0862 47.6384 72.717 30.118 82.4063C28.0515 83.6204 26.5319 84.2155 25.4303 84.2155C24.8996 84.2155 24.4735 84.0788 24.1197 83.8054C22.8573 82.8565 23.4362 80.6694 23.6212 79.9457C24.0714 78.233 24.8273 76.6248 25.8484 75.1614C29.6677 69.7097 33.0608 59.948 34.0659 51.6257C30.1582 60.6395 22.5518 71.9209 13.876 77.5415C10.9814 79.4151 7.58826 80.2674 4.32378 79.9457C2.14479 79.7367 0.866336 79.0854 0.399982 77.9596C-0.0904928 76.7535 0.456266 75.2177 2.08046 73.2557L2.22519 73.1431Z" fill="#534F59"/>
</g>
</svg>
